<?xml version="1.0" encoding="UTF-8" standalone="no"?>
<!-- Created with Inkscape (http://www.inkscape.org/) -->

<svg
   xmlns:dc="http://purl.org/dc/elements/1.1/"
   xmlns:cc="http://creativecommons.org/ns#"
   xmlns:rdf="http://www.w3.org/1999/02/22-rdf-syntax-ns#"
   xmlns:svg="http://www.w3.org/2000/svg"
   xmlns="http://www.w3.org/2000/svg"
   xmlns:xlink="http://www.w3.org/1999/xlink"
   xmlns:sodipodi="http://sodipodi.sourceforge.net/DTD/sodipodi-0.dtd"
   xmlns:inkscape="http://www.inkscape.org/namespaces/inkscape"
   version="1.0"
   width="48"
   height="48"
   id="svg249"
   inkscape:version="0.47pre4 r22446"
   sodipodi:docname="document-revert.svg">
    
  
  
  
  
  
  <filter>
    </filter>
  <linearGradient
     id="linearGradient4321">
    <stop
       style="stop-color:#1577D3;stop-opacity:1.0;"
       offset="0"
       id="stop1" />
    <stop
       style="stop-color:#1577D3;stop-opacity:1.0;"
       offset="1"
       id="stop2" />
  </linearGradient>
  <linearGradient
     inkscape:collect="always"
     xlink:href="#linearGradient4321"
     id="linearGradient1234"
     x1="0%"
     y1="50%"
     x2="100%"
     y2="50%" />
<defs
     id="defs3">
  </defs>
  <path
     d="m 31.048015,2 -25.0364584,0.028646 0,43.9713542 36.1510424,0 0,-32.65625 L 31.048015,2 z m -1.317708,3.6666667 9.052083,9.4531253 0,27.213541 -29.3906251,0 0.028646,-36.6380205 20.3098962,-0.028646 z m -1.375,6.1875003 c -1.896223,-0.02811 -2.486185,2.136188 -0.916667,3.09375 6.749354,4.117763 3.347291,9.303855 -4.354166,9.023437 0,0 0,-5.901042 0,-5.901042 l -12.088542,9.96875 12.088542,9.481771 0,-5.442708 c 12.406143,0.106276 19.68757,-13.439223 6.789062,-19.822917 -0.566344,-0.280293 -1.080639,-0.394553 -1.518229,-0.401041 z"
     id="path2162"
     style="fill:url(#linearGradient1234);fill-opacity:1;fill-rule:nonzero;stroke:none;filter:url(#filter1111)" />
</svg>
