<?xml version="1.0" encoding="UTF-8" standalone="no"?>
<!-- Created with Inkscape (http://www.inkscape.org/) -->

<svg
   xmlns:dc="http://purl.org/dc/elements/1.1/"
   xmlns:cc="http://creativecommons.org/ns#"
   xmlns:rdf="http://www.w3.org/1999/02/22-rdf-syntax-ns#"
   xmlns:svg="http://www.w3.org/2000/svg"
   xmlns="http://www.w3.org/2000/svg"
   xmlns:xlink="http://www.w3.org/1999/xlink"
   xmlns:sodipodi="http://sodipodi.sourceforge.net/DTD/sodipodi-0.dtd"
   xmlns:inkscape="http://www.inkscape.org/namespaces/inkscape"
   version="1.0"
   width="48"
   height="48"
   id="svg2"
   inkscape:version="0.47pre4 r22446"
   sodipodi:docname="download.svg">
    
  
  
  
  
  
  <filter>
    </filter>
  <linearGradient
     id="linearGradient4321">
    <stop
       style="stop-color:#1577D3;stop-opacity:1.0;"
       offset="0"
       id="stop1" />
    <stop
       style="stop-color:#1577D3;stop-opacity:1.0;"
       offset="1"
       id="stop2" />
  </linearGradient>
  <linearGradient
     inkscape:collect="always"
     xlink:href="#linearGradient4321"
     id="linearGradient1234"
     x1="0%"
     y1="50%"
     x2="100%"
     y2="50%" />
<defs
     id="defs4">
  </defs>
  <path
     style="fill:url(#linearGradient1234);fill-opacity:1;fill-rule:nonzero;stroke:none;stroke-width:0.99999958000000000;marker:none;visibility:visible;display:inline;overflow:visible;filter:url(#filter1111)"
     id="path4348"
     d="m 18.013286,2 0,0.4583333 0,10.5130207 -5.35677,0 -1.031251,0 0.687501,0.773438 10.369791,11.916666 -9.023437,0 c -2.011481,0 -3.6666672,1.644717 -3.6666672,3.638021 l 0,13.0625 C 9.9924528,44.355283 11.647639,46 13.65912,46 l 22,0 c 2.01148,0 3.666666,-1.644717 3.666666,-3.638021 l 0,-13.0625 c 0,-1.993304 -1.655186,-3.638021 -3.666666,-3.638021 l -9.052084,0 10.341146,-11.916666 0.658854,-0.773438 -1.002604,0 -5.270833,0 0,-10.5130207 L 31.333599,2 30.875265,2 18.47162,2 18.013286,2 z m -2.893229,26.554687 19.078125,0 c 1.466665,0 2.205729,0.72367 2.205729,2.177084 l 0,10.169271 c 10e-7,1.453412 -0.739062,2.205729 -2.205729,2.205729 l -19.078125,0 c -1.466667,0 -2.205729,-0.752316 -2.205729,-2.205729 l 0,-10.169271 c 0,-1.453415 0.739062,-2.177084 2.205729,-2.177084 z m 13.205729,7.992188 c -0.812533,0 -1.460937,0.655748 -1.460937,1.460937 l 0,1.460938 c 0,0.805191 0.648404,1.432292 1.460937,1.432292 l 3.666667,0 c 0.812533,0 1.460938,-0.627102 1.460937,-1.432292 l 0,-1.460938 c 0,-0.80519 -0.648404,-1.460937 -1.460937,-1.460937 l -3.666667,0 z" />
</svg>
