<?xml version="1.0" encoding="UTF-8" standalone="no"?>
<!-- Created with Inkscape (http://www.inkscape.org/) -->

<svg
   xmlns:dc="http://purl.org/dc/elements/1.1/"
   xmlns:cc="http://creativecommons.org/ns#"
   xmlns:rdf="http://www.w3.org/1999/02/22-rdf-syntax-ns#"
   xmlns:svg="http://www.w3.org/2000/svg"
   xmlns="http://www.w3.org/2000/svg"
   xmlns:xlink="http://www.w3.org/1999/xlink"
   xmlns:sodipodi="http://sodipodi.sourceforge.net/DTD/sodipodi-0.dtd"
   xmlns:inkscape="http://www.inkscape.org/namespaces/inkscape"
   version="1.0"
   width="48"
   height="48"
   id="svg1306"
   inkscape:version="0.47pre4 r22446"
   sodipodi:docname="weather-showers-scattered.svg">
    
  
  
  
  
  <filter>
    </filter>
  <linearGradient
     id="linearGradient4321">
    <stop
       style="stop-color:#1577D3;stop-opacity:1.0;"
       offset="0"
       id="stop1" />
    <stop
       style="stop-color:#1577D3;stop-opacity:1.0;"
       offset="1"
       id="stop2" />
  </linearGradient>
  <linearGradient
     inkscape:collect="always"
     xlink:href="#linearGradient4321"
     id="linearGradient1234"
     x1="0%"
     y1="50%"
     x2="100%"
     y2="50%" />
<defs
     id="defs1308">
  </defs>
  <path
     style="fill:url(#linearGradient1234);fill-opacity:1;stroke:none;filter:url(#filter1111)"
     id="path9034"
     d="m 26.695073,6.2849509 c -1.639401,0 -2.978096,1.270079 -3.134487,2.870839 -2.639601,0.382223 -4.898405,1.8273541 -6.356858,3.9254331 -0.552252,-0.232394 -1.102241,-0.527297 -1.728362,-0.527297 -0.128622,0 -0.204633,0.04588 -0.322237,0.05859 -0.395237,-1.022762 -1.188964,-1.84554 -2.343542,-1.84554 -1.495598,0 -2.724369,1.228741 -2.724367,2.724368 -10e-7,0.944792 0.546183,1.673156 1.288948,2.167776 -0.08841,0.251246 -0.191166,0.491377 -0.234354,0.76165 -0.3475,-0.09041 -0.646458,-0.292942 -1.0253,-0.292942 -1.4137565,-1e-6 -2.5425012,0.764264 -3.3688416,1.78695 C 6.2785513,17.648579 5.7624119,17.475364 5.1930759,17.475364 3.4502365,17.475363 2,18.896555 2,20.639146 c -1e-7,1.74259 1.4502364,3.193076 3.1930759,3.193076 0.5741522,-1e-6 1.0827769,-0.198297 1.5525965,-0.468709 0.8263405,1.022686 1.9550858,1.78695 3.3688416,1.786951 0.62049,-1e-6 1.196359,-0.152986 1.728362,-0.380825 0.946178,1.548531 2.591884,2.636484 4.540613,2.636484 1.266027,-1e-6 2.366823,-0.533243 3.280958,-1.259654 1.509337,1.022133 3.287724,1.699068 5.243676,1.699068 2.606666,-1e-6 4.879382,-1.188292 6.591211,-2.900133 0.941122,0.650634 2.019729,1.113183 3.251665,1.113183 1.436821,0 2.676296,-0.607598 3.691078,-1.464714 0.527331,0.255229 1.040214,0.556591 1.669774,0.556591 0.892923,-1e-6 1.675004,-0.359572 2.343542,-0.849534 0.366826,0.250098 0.788529,0.41012 1.259654,0.41012 1.248357,0 2.284956,-1.036289 2.284953,-2.284953 -10e-7,-1.135882 -0.897903,-2.004397 -1.992011,-2.167777 -0.399507,-1.826372 -1.954718,-3.22237 -3.896138,-3.22237 -0.189281,0 -0.345809,0.06255 -0.527297,0.08788 -0.64277,-0.994842 -1.560569,-1.737706 -2.665779,-2.197071 0.03446,-0.18994 0.117177,-0.351169 0.117177,-0.556591 2e-6,-1.989562 -1.642414,-3.603196 -3.63249,-3.603196 -0.838215,0 -1.574496,0.335692 -2.197071,0.82024 -0.509458,-0.464151 -1.042986,-0.886629 -1.640479,-1.230359 0.09493,-0.307801 0.292943,-0.5765421 0.292943,-0.9081231 0,-1.742594 -1.420945,-3.163782 -3.163782,-3.163782 z M 41.254328,26.908121 c -0.007,0.0022 -2.691795,5.191009 -2.929428,6.356857 -0.237634,1.165848 0.324194,2.109187 1.23036,2.109188 0.906166,0 1.812963,-0.94334 2.050599,-2.109188 0.237634,-1.165847 -0.342916,-6.356857 -0.351531,-6.356857 z M 8.2689747,28.724366 c -0.00464,0.0014 -1.7766297,3.205491 -1.9334221,3.925432 -0.1567928,0.719944 0.2223448,1.318245 0.8202397,1.318243 0.5978946,0 1.1907439,-0.598298 1.3475366,-1.318243 0.1567926,-0.719942 -0.2286695,-3.925431 -0.2343542,-3.925432 z m 19.4221043,0.292942 c -0.0061,0.0018 -2.315103,4.15956 -2.519308,5.097204 -0.204205,0.937645 0.246611,1.699069 1.0253,1.699068 0.778688,0 1.582747,-0.761422 1.78695,-1.699068 0.204205,-0.937645 -0.28554,-5.097205 -0.292942,-5.097204 z m -7.792277,0.703063 c -0.0091,0.0023 -3.285773,5.285537 -3.544608,6.474035 -0.258836,1.188499 0.481275,2.138481 1.669774,2.138482 1.188499,0 2.377648,-0.949982 2.636485,-2.138482 0.258835,-1.188499 -0.750352,-6.474037 -0.761651,-6.474035 z m 13.2996,3.251664 c -0.0091,0.0023 -3.315066,5.256242 -3.573901,6.444741 -0.258837,1.188499 0.510568,2.167778 1.699068,2.167776 1.188498,0 2.348355,-0.979278 2.60719,-2.167776 0.258835,-1.188498 -0.721055,-6.444741 -0.732357,-6.444741 z m -22.263648,3.310253 c -0.0047,0.0014 -1.7766301,3.176196 -1.9334224,3.896139 -0.1567927,0.719944 0.2223446,1.318243 0.8202396,1.318242 0.5978948,0 1.1907448,-0.598298 1.3475368,-1.318242 0.156793,-0.719943 -0.22867,-3.896138 -0.234354,-3.896139 z" />
</svg>
