<?xml version="1.0" encoding="UTF-8" standalone="no"?>
<!-- Created with Inkscape (http://www.inkscape.org/) -->

<svg
   xmlns:dc="http://purl.org/dc/elements/1.1/"
   xmlns:cc="http://creativecommons.org/ns#"
   xmlns:rdf="http://www.w3.org/1999/02/22-rdf-syntax-ns#"
   xmlns:svg="http://www.w3.org/2000/svg"
   xmlns="http://www.w3.org/2000/svg"
   xmlns:xlink="http://www.w3.org/1999/xlink"
   xmlns:sodipodi="http://sodipodi.sourceforge.net/DTD/sodipodi-0.dtd"
   xmlns:inkscape="http://www.inkscape.org/namespaces/inkscape"
   version="1.0"
   width="48"
   height="48"
   id="svg2383"
   inkscape:version="0.47pre4 r22446"
   sodipodi:docname="bluetooth-disabled.svg">
        
  
  
  
  
  <filter>
    </filter>
  <linearGradient
     id="linearGradient4321">
    <stop
       style="stop-color:#969487;stop-opacity:1.0;"
       offset="0"
       id="stop1" />
    <stop
       style="stop-color:#969487;stop-opacity:1.0;"
       offset="1"
       id="stop2" />
  </linearGradient>
  <linearGradient
     inkscape:collect="always"
     xlink:href="#linearGradient4321"
     id="linearGradient1234"
     x1="0%"
     y1="50%"
     x2="100%"
     y2="50%" />
<defs
     id="defs2385">
  </defs>
  <path
     style="fill:url(#linearGradient1234);filter:url(#filter1111);fill-opacity:1;stroke:none;stroke-width:1;marker:none;visibility:visible;display:inline;overflow:visible;enable-background:accumulate;font-family:Bitstream Charter;-inkscape-font-specification:Bitstream Charter"
     d="m 20.84375,-0.125 0,1.21875 0,16.84375 -6.625,-6.71875 -0.375,-0.375 L 13.5,11.1875 10.84375,13.8125 10.5,14.15625 l 0.34375,0.375 8.9375,9.09375 -8.9375,9.03125 L 10.5,33 l 0.34375,0.34375 2.65625,2.8125 0.34375,0.375 0.375,-0.34375 6.625,-6.75 0,16.53125 0,1.15625 L 21.6875,46.34375 35.375,33.5 35.75,33.15625 35.40625,32.78125 26.75,23.65625 35.40625,15.1875 35.75,14.84375 35.40625,14.46875 21.6875,0.71875 20.84375,-0.125 z m 1,2.40625 12.46875,12.53125 -8.625,8.46875 -0.34375,0.34375 0.34375,0.34375 8.65625,9.125 -12.5,11.71875 0,-16.5625 0,-1.21875 L 21,27.90625 13.875,35.09375 11.90625,33 20.84375,23.96875 21.1875,23.625 20.84375,23.28125 11.90625,14.15625 13.84375,12.25 21,19.46875 l 0.84375,0.875 0,-1.21875 0,-16.84375 z m 2.15625,4.5 0,1.3125 0,12.84375 0,1.21875 0.84375,-0.875 L 30.875,15.1875 31.1875,14.84375 30.875,14.5 24.875,7.75 24,6.78125 z M 25,9.375 29.8125,14.8125 25,19.6875 25,9.375 z m -1,15.9375 0,1.3125 0,12.84375 0,1.21875 0.84375,-0.875 6.03125,-6.09375 0.3125,-0.34375 -0.3125,-0.34375 -6,-6.75 L 24,25.3125 z m 1,2.625 4.84375,5.40625 L 25,38.25 25,27.9375 z"
     id="path2459" />
</svg>
