<?xml version="1.0" encoding="UTF-8" standalone="no"?>
<!-- Created with Inkscape (http://www.inkscape.org/) -->
<svg
   xmlns:svg="http://www.w3.org/2000/svg"
   xmlns="http://www.w3.org/2000/svg"
   xmlns:xlink="http://www.w3.org/1999/xlink"
   version="1.0"
   width="48"
   height="48"
   viewBox="0 0 48 48"
   id="svg2"
   xml:space="preserve">        
  
  
  
  
  <filter>
    </filter>
  <linearGradient
     id="linearGradient4321">
    <stop
       style="stop-color:#969487;stop-opacity:1.0;"
       offset="0"
       id="stop1" />
    <stop
       style="stop-color:#969487;stop-opacity:1.0;"
       offset="1"
       id="stop2" />
  </linearGradient>
  <linearGradient
     inkscape:collect="always"
     xlink:href="#linearGradient4321"
     id="linearGradient1234"
     x1="0%"
     y1="50%"
     x2="100%"
     y2="50%" />
<defs
   id="defs21" />
	<g
   id="Layer_x0020_3"
   style="fill:none;fill-rule:nonzero;stroke:#91cbff;stroke-width:6.48140001;stroke-linejoin:round;stroke-miterlimit:4">
		<g
   id="g5">
			
			
			<path
   d="M 28.5,2.34375 L 14.75,11.46875 C 14.739584,11.468853 14.729166,11.468853 14.71875,11.46875 C 14.71875,11.470832 14.716995,11.498877 14.71875,11.5 C 21.246792,15.731035 29.611655,14.42526 34.21875,12.375 C 34.229166,12.374897 34.239584,12.374897 34.25,12.375 L 28.5,2.34375 z M 18.0625,5.5 C 12.180144,6.5253819 8,9.0285817 8,12 L 8,17.8125 C 8,18.944118 8.6119392,19.996776 9.6875,20.9375 L 9.6875,36.8125 C 9.6875002,40.212501 16.1,43 24,43 C 31.9,43 38.3125,40.2125 38.3125,36.8125 L 38.3125,20.9375 C 39.388061,19.996776 40,18.944118 40,17.8125 L 40,12 C 40,9.9194808 37.935368,8.088501 34.6875,6.8125 L 37,10.8125 C 37.436491,11.590582 37.535686,12.529837 37.25,13.375 C 36.964309,14.220166 36.3503,14.89633 35.53125,15.25 C 30.114419,17.66061 20.798612,19.159277 13.03125,14.125 C 12.127025,13.546627 11.5625,12.573378 11.5625,11.5 C 11.5625,10.426621 12.095775,9.4221233 13,8.84375 L 18.0625,5.5 z"
   id="path11"
   style="fill:url(#linearGradient1234);filter:url(#filter1111);stroke:none" />
			
			
		</g>
	</g>
	
</svg>