<?xml version="1.0" encoding="UTF-8" standalone="no"?>
<!-- Created with Inkscape (http://www.inkscape.org/) -->
<svg
   xmlns:svg="http://www.w3.org/2000/svg"
   xmlns="http://www.w3.org/2000/svg"
   xmlns:xlink="http://www.w3.org/1999/xlink"
   version="1.0"
   width="48"
   height="48"
   viewBox="0 0 48 48"
   id="svg2"
   xml:space="preserve">        
  
  
  
  
  
  <filter>
    </filter>
  <linearGradient
     id="linearGradient4321">
    <stop
       style="stop-color:#1577D3;stop-opacity:1.0;"
       offset="0"
       id="stop1" />
    <stop
       style="stop-color:#1577D3;stop-opacity:1.0;"
       offset="1"
       id="stop2" />
  </linearGradient>
  <linearGradient
     inkscape:collect="always"
     xlink:href="#linearGradient4321"
     id="linearGradient1234"
     x1="0%"
     y1="50%"
     x2="100%"
     y2="50%" />
<defs
   id="defs23" />
	<path
   d="M 7.40625,5.5 C 6.1206624,5.6347461 5.1493368,6.7073886 5.15625,8 L 5.15625,35.75 C 5.1546408,36.417563 5.4037976,37.058374 5.875,37.53125 L 9.96875,41.65625 C 10.441626,42.127455 11.082436,42.37661 11.75,42.375 L 40.53125,42.375 C 41.920032,42.374862 43.031112,41.263781 43.03125,39.875 L 43.03125,8 C 43.031112,6.6112204 41.920031,5.5001386 40.53125,5.5 L 7.65625,5.5 C 7.5689927,5.4954496 7.4935072,5.4954496 7.40625,5.5 z M 9.71875,9.03125 L 38.46875,9.03125 L 38.46875,22.40625 L 9.71875,22.40625 L 9.71875,9.03125 z M 13.8125,26.5 L 31.28125,26.5 C 32.410876,26.500001 33.34375,27.431816 33.34375,28.5625 L 33.34375,37.8125 C 33.343752,38.943183 32.410876,39.875 31.28125,39.875 L 13.8125,39.875 C 12.682873,39.875001 11.75,38.943183 11.75,37.8125 L 11.75,28.5625 C 11.75,27.431816 12.682873,26.5 13.8125,26.5 z M 15.625,28.15625 L 15.625,36.65625 L 21.25,36.65625 L 21.25,28.15625 L 15.625,28.15625 z"
   id="path9"
   style="fill:url(#linearGradient1234);filter:url(#filter1111);fill-opacity:1;fill-rule:nonzero;stroke:none;stroke-width:5.99999905;stroke-linecap:round;stroke-linejoin:round;stroke-miterlimit:4;stroke-dasharray:none;stroke-opacity:1" />
	
</svg>