<?xml version="1.0" encoding="UTF-8" standalone="no"?>
<!-- Created with Inkscape (http://www.inkscape.org/) -->

<svg
   xmlns:dc="http://purl.org/dc/elements/1.1/"
   xmlns:cc="http://creativecommons.org/ns#"
   xmlns:rdf="http://www.w3.org/1999/02/22-rdf-syntax-ns#"
   xmlns:svg="http://www.w3.org/2000/svg"
   xmlns="http://www.w3.org/2000/svg"
   xmlns:xlink="http://www.w3.org/1999/xlink"
   xmlns:sodipodi="http://sodipodi.sourceforge.net/DTD/sodipodi-0.dtd"
   xmlns:inkscape="http://www.inkscape.org/namespaces/inkscape"
   version="1.0"
   width="48"
   height="48"
   viewBox="0 0 48 48"
   id="svg2"
   xml:space="preserve"
   style="overflow:visible"
   inkscape:version="0.47pre4 r22446"
   sodipodi:docname="gnome-session-halt.svg">
        
  
  
  
  
  <filter>
    </filter>
  <linearGradient
     id="linearGradient4321">
    <stop
       style="stop-color:#1577D3;stop-opacity:1.0;"
       offset="0"
       id="stop1" />
    <stop
       style="stop-color:#1577D3;stop-opacity:1.0;"
       offset="1"
       id="stop2" />
  </linearGradient>
  <linearGradient
     inkscape:collect="always"
     xlink:href="#linearGradient4321"
     id="linearGradient1234"
     x1="0%"
     y1="50%"
     x2="100%"
     y2="50%" />
<defs
   id="defs123"></defs>
	<path
   d="M 24,2 C 11.868262,2 2,11.868984 2,24 2,36.131016 11.868262,46 24,46 36.132459,46 46,36.131016 46,24 46,11.868984 36.132459,2 24,2 z m 0,6.852459 c 8.353147,0 15.147541,6.795115 15.147541,15.147541 0,8.352426 -6.794393,15.147541 -15.147541,15.147541 C 15.646852,39.147541 8.852459,32.352426 8.852459,24 8.852459,15.647574 15.646852,8.852459 24,8.852459 z m -3.245902,5.770492 c -0.596524,0 -1.081967,0.485442 -1.081967,1.081967 l 0,16.590164 c 1e-6,0.596525 0.485443,1.081967 1.081967,1.081967 l 6.491804,0 c 0.596525,0 1.081967,-0.485442 1.081967,-1.081967 l 0,-16.590164 c 0,-0.596525 -0.485443,-1.081967 -1.081967,-1.081967 l -6.491804,0 z"
   id="path15"
   style="fill:url(#linearGradient1234);filter:url(#filter1111)" />
</svg>
