<?xml version="1.0" encoding="UTF-8" standalone="no"?>
<!-- Created with Inkscape (http://www.inkscape.org/) -->

<svg
   xmlns:dc="http://purl.org/dc/elements/1.1/"
   xmlns:cc="http://creativecommons.org/ns#"
   xmlns:rdf="http://www.w3.org/1999/02/22-rdf-syntax-ns#"
   xmlns:svg="http://www.w3.org/2000/svg"
   xmlns="http://www.w3.org/2000/svg"
   xmlns:xlink="http://www.w3.org/1999/xlink"
   xmlns:sodipodi="http://sodipodi.sourceforge.net/DTD/sodipodi-0.dtd"
   xmlns:inkscape="http://www.inkscape.org/namespaces/inkscape"
   version="1.0"
   width="48"
   height="48"
   id="svg249"
   inkscape:version="0.47pre4 r22446"
   sodipodi:docname="gnome-searchtool-animation-rest.svg">
    
  
  
  
  
  <filter>
    </filter>
  <linearGradient
     id="linearGradient4321">
    <stop
       style="stop-color:#1577D3;stop-opacity:1.0;"
       offset="0"
       id="stop1" />
    <stop
       style="stop-color:#1577D3;stop-opacity:1.0;"
       offset="1"
       id="stop2" />
  </linearGradient>
  <linearGradient
     inkscape:collect="always"
     xlink:href="#linearGradient4321"
     id="linearGradient1234"
     x1="0%"
     y1="50%"
     x2="100%"
     y2="50%" />
<defs
     id="defs3">
  </defs>
  <path
     style="fill:url(#linearGradient1234);fill-opacity:1;stroke:none;filter:url(#filter1111)"
     d="m 23.511071,2.6908044 c -7.907423,0 -14.3437496,6.4050773 -14.3437496,14.3124986 10e-8,3.531421 1.2810946,6.778908 3.4062496,9.28125 l -3.4062496,1.03125 -6.71875,6.25 c -0.4775011,0.445667 -0.8742225,2.688277 0.46875,4.03125 1.5827084,1.582709 3.5992856,0.931569 4.03125,0.46875 l 6.2499996,-6.71875 1.0625,-3.40625 c 2.499932,2.116298 5.726799,3.40625 9.25,3.40625 7.907423,1e-6 14.3125,-6.436327 14.3125,-14.34375 10e-7,-7.907421 -6.405077,-14.3124986 -14.3125,-14.3124986 z m 0,3.59375 c 5.930567,0 10.750001,4.7881816 10.75,10.7187486 0,5.930567 -4.819433,10.749999 -10.75,10.75 -5.930567,0 -10.75,-4.819433 -10.75,-10.75 0,-5.930567 4.819433,-10.7187485 10.75,-10.7187486 z"
     id="path4119" />
</svg>
