<?xml version="1.0" encoding="UTF-8" standalone="no"?>
<!-- Created with Inkscape (http://www.inkscape.org/) -->

<svg
   xmlns:dc="http://purl.org/dc/elements/1.1/"
   xmlns:cc="http://creativecommons.org/ns#"
   xmlns:rdf="http://www.w3.org/1999/02/22-rdf-syntax-ns#"
   xmlns:svg="http://www.w3.org/2000/svg"
   xmlns="http://www.w3.org/2000/svg"
   xmlns:xlink="http://www.w3.org/1999/xlink"
   xmlns:sodipodi="http://sodipodi.sourceforge.net/DTD/sodipodi-0.dtd"
   xmlns:inkscape="http://www.inkscape.org/namespaces/inkscape"
   version="1.0"
   width="48"
   height="48"
   id="svg2"
   inkscape:version="0.47pre4 r22446"
   sodipodi:docname="gnome-control-center.svg">
        
  
  
  
  
  <filter>
    </filter>
  <linearGradient
     id="linearGradient4321">
    <stop
       style="stop-color:#1577D3;stop-opacity:1.0;"
       offset="0"
       id="stop1" />
    <stop
       style="stop-color:#1577D3;stop-opacity:1.0;"
       offset="1"
       id="stop2" />
  </linearGradient>
  <linearGradient
     inkscape:collect="always"
     xlink:href="#linearGradient4321"
     id="linearGradient1234"
     x1="0%"
     y1="50%"
     x2="100%"
     y2="50%" />
<defs
     id="defs4">
  </defs>
  <g
     id="layer1"
     style="display:inline"
     transform="matrix(0.44,0,0,0.44,-4.16,-4.16)">
    <path
       d="M 58.067278,14.000681 C 55.829333,14.084334 54.623122,15.895313 54,18.220835 l -1.865443,8.012179 c -2.209463,0.694794 -4.337006,1.576727 -6.360857,2.629951 l -7.06422,-4.373058 c -1.727949,-0.99763 -4.337659,-1.656208 -5.993884,0 l -8.134556,8.165081 c -1.656217,1.656208 -1.232585,3.828383 0,5.963262 l 4.342507,7.033591 c -1.079808,2.058711 -1.98325,4.231298 -2.691131,6.483137 l -8.012233,1.865431 C 15.839012,54.63843 14,55.908915 14,58.251145 l 0,11.528973 c 0,2.342232 2.292913,3.703747 4.220183,4.220154 l 8.012233,1.865431 c 0.702932,2.235516 1.590903,4.407272 2.66055,6.452556 l -4.311926,6.972429 c -1.232584,2.134882 -1.656218,4.33763 0,5.993843 l 8.134556,8.134499 c 1.656227,1.65621 4.265934,0.99764 5.993884,0 l 6.972477,-4.3119 c 2.045298,1.06963 4.217075,1.95761 6.4526,2.66053 L 54,109.77985 C 54.638025,112.16099 55.90852,114 58.250765,114 l 11.49847,0 c 2.342254,0 3.734353,-2.29288 4.250765,-4.22015 l 1.865443,-8.01219 c 2.260384,-0.71074 4.448088,-1.60569 6.513762,-2.69111 l 6.911315,4.28132 c 2.134912,1.23258 4.337663,1.65622 5.993884,0 l 8.134556,-8.165081 c 1.65622,-1.656216 0.99764,-4.235324 0,-5.963262 l -4.311926,-6.97243 c 1.059246,-2.031697 1.962746,-4.172398 2.660546,-6.391394 l 8.01224,-1.865431 C 111.7071,73.483868 114,72.122352 114,69.780118 l 0,-11.528973 c 0,-2.34223 -1.83902,-3.612716 -4.22018,-4.250736 l -8.01224,-1.865431 c -0.70304,-2.236238 -1.59059,-4.406661 -2.660546,-6.452556 l 4.311926,-6.972429 c 0.99764,-1.727933 1.65622,-4.307048 0,-5.963263 l -8.134556,-8.165081 c -1.656219,-1.65621 -3.858986,-1.232574 -5.993884,0 l -6.972477,4.311897 c -2.045027,-1.069492 -4.217396,-1.957635 -6.4526,-2.660532 L 74,18.220835 c -0.516412,-1.927264 -1.908513,-4.220154 -4.250765,-4.220154 l -11.49847,0 c -0.0091,0 -0.02146,-5.5e-5 -0.03058,0 -0.0454,2.85e-4 -0.108322,-0.0017 -0.152905,0 z M 89.000002,64 c 0,13.8 -11.200001,25 -25.000001,25 -13.8,0 -25,-11.2 -25,-25 0,-13.800001 11.2,-25.000001 25,-25.000001 13.8,0 25.000001,11.2 25.000001,25.000001 z"
       id="path2390"
       style="fill:url(#linearGradient1234);filter:url(#filter1111);fill-opacity:1;fill-rule:nonzero;stroke:none" />
  </g>
</svg>
