<?xml version="1.0" encoding="UTF-8" standalone="no"?>
<!-- Created with Inkscape (http://www.inkscape.org/) -->
<svg
   xmlns:svg="http://www.w3.org/2000/svg"
   xmlns="http://www.w3.org/2000/svg"
   xmlns:xlink="http://www.w3.org/1999/xlink"
   version="1.0"
   width="48"
   height="48"
   id="svg11300">
        
  
  
  
  
  <filter>
    </filter>
  <linearGradient
     id="linearGradient4321">
    <stop
       style="stop-color:#1577D3;stop-opacity:1.0;"
       offset="0"
       id="stop1" />
    <stop
       style="stop-color:#1577D3;stop-opacity:1.0;"
       offset="1"
       id="stop2" />
  </linearGradient>
  <linearGradient
     inkscape:collect="always"
     xlink:href="#linearGradient4321"
     id="linearGradient1234"
     x1="0%"
     y1="50%"
     x2="100%"
     y2="50%" />
<defs
     id="defs3" />
  <g
     id="layer1">
    <path
       d="M 24.1875,0.59375 L 24.1875,18.75 C 23.211122,18.314067 22.056635,18.437501 20.59375,18.4375 C 17.597759,18.4375 15.8125,19.42616 15.8125,20.8125 C 15.8125,22.198839 17.597758,23.187501 20.59375,23.1875 C 23.589742,23.1875 26.59375,22.136343 26.59375,20.75 L 26.59375,8.40625 L 33.75,13.09375 L 33.75,26.15625 C 32.773621,25.720316 31.619136,25.562501 30.15625,25.5625 C 27.160258,25.562499 25.375,26.582411 25.375,27.96875 C 25.375001,29.355092 27.160258,30.343751 30.15625,30.34375 C 33.152242,30.343751 36.15625,29.448843 36.15625,28.0625 L 36.15625,8.90625 L 24.1875,0.59375 z M 41.34375,4 C 40.57691,4.0803747 39.995876,4.7289708 40,5.5 L 40,10.5 L 37.9375,10.5 L 37.9375,11.3125 L 39.5,11.3125 L 39.6875,11.3125 L 39.6875,11.5 C 39.6875,11.5 39.687937,17.751513 39.6875,24 C 39.687738,28.229167 39.687481,32.458333 39.6875,36.6875 L 32.71875,36.6875 L 32.71875,41.6875 L 15.3125,41.6875 L 15.3125,36.6875 L 4.3125,36.6875 C 4.3147058,28.291667 4.3147455,19.895833 4.3125,11.5 L 4.3125,11.3125 L 4.5,11.3125 L 22.40625,11.3125 L 22.40625,10.5 L 3.625,10.5 C 3.5465526,10.504341 3.4921875,10.550781 3.5,10.625 L 3.5,37.34375 C 3.5000001,37.422628 3.5895204,37.5 3.6875,37.5 L 14.5,37.53125 L 14.5,42.375 C 14.5,42.446268 14.523115,42.499565 14.625,42.5 L 33.375,42.5 C 33.467414,42.496301 33.5,42.438026 33.5,42.375 L 33.5,37.5 L 40,37.5 L 40,44 C 39.99235,44.540954 40.282754,45.03979 40.75,45.3125 C 41.217247,45.585208 41.782753,45.585209 42.25,45.3125 C 42.717246,45.039789 43.00765,44.540954 43,44 L 43,28.96875 L 44.59375,28.96875 C 44.869881,28.968722 45.093722,28.744881 45.09375,28.46875 L 45.09375,24.5 C 45.093722,24.223869 44.869881,24.000028 44.59375,24 L 43,24 L 43,22.03125 L 44.59375,22.03125 C 44.869881,22.031222 45.093722,21.807381 45.09375,21.53125 L 45.09375,17.5625 C 45.093722,17.286369 44.869881,17.062528 44.59375,17.0625 L 43,17.0625 L 43,7 L 47,7 C 47.540954,7.0076504 48.03979,6.7172464 48.3125,6.25 C 48.585208,5.7827536 48.585209,5.2172463 48.3125,4.75 C 48.039789,4.2827537 47.540954,3.9923496 47,4 C 45.114642,3.9999869 43.228976,4 41.34375,4 z M 41.40625,5 L 47,5 C 47.180318,4.9974499 47.346595,5.0942514 47.4375,5.25 C 47.528403,5.4057488 47.528401,5.594251 47.4375,5.75 C 47.346597,5.9057488 47.180318,6.0025501 47,6 L 42,6 L 42,17.4375 C 41.98258,17.499808 41.989213,17.555965 42,17.625 L 42,44 C 42.00255,44.180318 41.905748,44.346595 41.75,44.4375 C 41.594251,44.528403 41.405749,44.528401 41.25,44.4375 C 41.094252,44.346597 40.99745,44.180318 41,44 L 41,5.5 C 40.995712,5.2566843 41.167209,5.0456108 41.40625,5 z M 4.71875,11.6875 C 4.7225606,20.022875 4.6876104,36.06771 4.6875,36.3125 L 15.6875,36.3125 L 15.71875,41.28125 L 17,41.28125 L 17,37.40625 C 17,37.289535 17.056839,37.101745 17.1875,36.9375 L 17.21875,34.3125 L 17.21875,34.21875 L 17.28125,34.125 L 19.15625,31.3125 L 19.28125,31.1875 L 19.46875,31.1875 L 25.75,31.1875 C 24.594795,30.558179 23.593751,29.393806 23.59375,27.96875 C 23.59375,27.926223 23.592,27.885873 23.59375,27.84375 L 22.96875,27.84375 L 20.28125,27.84375 L 18.96875,27.84375 L 16.28125,27.84375 L 14.96875,27.84375 L 14.46875,27.84375 L 12.78125,27.84375 L 12.78125,31.4375 L 12.09375,31.4375 L 12.09375,29.90625 L 5.53125,29.84375 L 5.1875,29.84375 L 5.1875,29.5 L 5.1875,17.375 C 5.7311593,16.918829 6.3768533,16.562091 7,16.1875 L 7,16 L 9.8125,16 L 9.8125,15.4375 C 9.8125,15.103511 10.072261,14.84375 10.40625,14.84375 L 11,14.84375 L 11,12 L 12,12 L 12,14.84375 L 13,14.84375 L 13,12 L 14,12 L 14,14.84375 L 15,14.84375 L 15,12 L 16,12 L 16,14.84375 L 17,14.84375 L 17,12 L 18,12 L 18,14.84375 L 19,14.84375 L 19,12 L 20,12 L 20,14.84375 L 21,14.84375 L 21,12 L 22,12 L 22,14.84375 L 22.40625,14.84375 L 22.40625,11.71875 L 4.71875,11.6875 z M 28.375,11.71875 L 28.375,16.21875 L 31.96875,16.21875 L 31.96875,14.0625 L 28.375,11.71875 z M 37.9375,11.71875 L 37.9375,28.0625 C 37.9375,29.054142 37.393421,29.881295 36.8125,30.375 C 36.231579,30.868705 35.572034,31.161701 34.875,31.40625 C 34.526483,31.528524 34.158208,31.628441 33.78125,31.71875 L 33.71875,31.78125 L 33.625,31.875 L 33.46875,31.875 L 32.96875,31.875 C 32.832386,31.898756 32.701082,31.917446 32.5625,31.9375 L 30.90625,34.28125 L 30.875,37.03125 C 30.960358,37.172442 31,37.3086 31,37.40625 L 31,41.28125 L 32.3125,41.28125 L 32.3125,36.28125 L 39.3125,36.3125 C 39.31263,32.208333 39.31252,28.104167 39.3125,24 C 39.312929,17.860882 39.312502,11.931737 39.3125,11.71875 L 37.9375,11.71875 z M 28.375,16.90625 L 28.375,20.15625 L 31.96875,20.1875 L 31.96875,16.90625 L 28.375,16.90625 z M 7,17 L 5.875,17.75 L 5.875,19 L 7,18.4375 L 7,18 L 9.8125,18 L 9.8125,17 L 7,17 z M 43,18.0625 L 44.09375,18.0625 L 44.09375,21.03125 L 43,21.03125 L 43,18.0625 z M 7.4375,19 L 5.875,19.78125 L 5.875,21.28125 L 7,20.46875 L 7,20 L 9.8125,20 L 9.8125,19 L 7.4375,19 z M 28.5625,20.84375 L 31.96875,23.34375 L 31.96875,20.875 L 28.5625,20.84375 z M 7.5,21 L 5.875,22.15625 L 5.875,29.15625 L 12.09375,29.21875 L 12.09375,27.5 L 12.09375,27.375 L 11.25,25 L 11,25 L 11,22.09375 L 10.40625,22.09375 C 10.07226,22.09375 9.8125,21.83399 9.8125,21.5 L 9.8125,21 L 7.5,21 z M 28.28125,21.5 L 29.71875,22.625 L 29.84375,22.71875 L 29.84375,22.90625 L 29.84375,23.8125 C 29.950517,23.810327 30.047197,23.78125 30.15625,23.78125 C 30.608051,23.78125 31.045845,23.802362 31.46875,23.84375 L 28.28125,21.5 z M 12,22.09375 L 12,25 L 11.96875,25 L 12.75,27.15625 L 13.96875,27.15625 L 13.1875,25 L 13,25 L 13,22.09375 L 12,22.09375 z M 14,22.09375 L 14,25 L 13.9375,25 L 14.6875,27.15625 L 16.03125,27.15625 L 15.25,25 L 15,25 L 15,23.15625 C 14.708298,22.839063 14.484812,22.488236 14.3125,22.09375 L 14,22.09375 z M 28,22.15625 C 27.80125,22.51919 27.548624,22.822556 27.28125,23.0625 C 26.715453,23.570253 26.073191,23.91675 25.375,24.1875 C 24.943029,24.355013 24.478374,24.478024 24,24.59375 L 24,25 L 23.96875,25 L 24.3125,25.96875 C 24.722748,25.417352 25.258,24.957165 25.84375,24.65625 C 26.787487,24.171427 27.878095,23.933871 29.125,23.84375 L 29.125,23.03125 L 28,22.15625 z M 16,23.96875 L 16,25 L 15.96875,25 L 16.75,27.15625 L 17.96875,27.15625 L 17.1875,25 L 17,25 L 17,24.4375 C 16.753754,24.345004 16.510813,24.242933 16.28125,24.125 C 16.185713,24.07592 16.093238,24.02549 16,23.96875 z M 18,24.71875 L 18,25 L 17.9375,25 L 18.6875,27.15625 L 20.03125,27.15625 L 19.25,25 L 19,25 L 19,24.875 C 18.655439,24.833202 18.318476,24.791737 18,24.71875 z M 23,24.78125 C 22.667711,24.834691 22.342772,24.875581 22,24.90625 L 22,25 L 21.9375,25 L 22.6875,27.15625 L 23.71875,27.15625 C 23.759216,27.006847 23.814585,26.860257 23.875,26.71875 L 23.25,25 L 23,25 L 23,24.78125 z M 20,24.96875 L 20,25 L 19.96875,25 L 20.75,27.15625 L 21.96875,27.15625 L 21.1875,25 L 21,25 L 21,24.96875 C 20.864996,24.972165 20.729247,25 20.59375,25 C 20.387051,25 20.198537,24.976637 20,24.96875 z M 43,25 L 44.09375,25 L 44.09375,27.96875 L 43,27.96875 L 43,25 z M 19.65625,31.875 L 17.90625,34.40625 L 17.875,36.59375 C 17.914663,36.590503 17.956973,36.59375 18,36.59375 C 18.799672,36.593751 19,37.156831 19,37.40625 L 19,41.28125 L 20,41.28125 L 20,37.40625 C 20,37.156831 20.215954,36.59375 21,36.59375 C 21.067046,36.59375 21.128645,36.6176 21.1875,36.625 L 21.21875,34.1875 L 21.21875,34.0625 L 21.28125,33.96875 L 22.75,31.875 L 19.65625,31.875 z M 23.625,31.875 L 21.90625,34.28125 L 21.875,37.03125 C 21.960358,37.172442 22,37.3086 22,37.40625 L 22,41.28125 L 23,41.28125 L 23,37.40625 C 23,37.156831 23.215954,36.59375 24,36.59375 C 24.067046,36.59375 24.128645,36.6176 24.1875,36.625 L 24.21875,34.1875 L 24.21875,34.0625 L 24.28125,33.96875 L 25.75,31.875 L 23.625,31.875 z M 26.625,31.875 L 24.90625,34.28125 L 24.875,37.03125 C 24.960358,37.172442 25,37.3086 25,37.40625 L 25,41.28125 L 26,41.28125 L 26,37.40625 C 26,37.156831 26.215954,36.59375 27,36.59375 C 27.078017,36.59375 27.151772,36.615095 27.21875,36.625 L 27.25,34.1875 L 27.25,34.0625 L 27.3125,33.96875 L 28.6875,32.03125 C 28.342911,31.993532 28.006327,31.943036 27.6875,31.875 L 26.625,31.875 z M 31.625,32.0625 C 31.141293,32.103223 30.649967,32.125 30.15625,32.125 C 29.927851,32.125 29.718446,32.103402 29.5,32.09375 L 27.9375,34.28125 L 27.9375,37.09375 C 27.993699,37.211154 28,37.325071 28,37.40625 L 28,41.28125 L 29,41.28125 L 29,37.40625 C 29,37.156831 29.215954,36.59375 30,36.59375 C 30.067046,36.59375 30.128645,36.6176 30.1875,36.625 L 30.21875,34.1875 L 30.21875,34.0625 L 30.28125,33.96875 L 31.625,32.0625 z"
       id="rect15011"
       style="fill:url(#linearGradient1234);filter:url(#filter1111);fill-opacity:1;fill-rule:nonzero;stroke:none;stroke-width:0.99999982;stroke-linecap:round;stroke-linejoin:round;marker:none;stroke-miterlimit:4;stroke-dashoffset:0;stroke-opacity:1;visibility:visible;display:block;overflow:visible" />
    <g
       transform="translate(2,-3)"
       id="g14850"
       style="stroke:#ffffff;stroke-width:0.69999999;stroke-miterlimit:4;stroke-dasharray:none;stroke-opacity:1" />
    <g
       transform="translate(2,-3)"
       id="g14967"
       style="stroke:#ffffff;stroke-width:0.69999999;stroke-miterlimit:4;stroke-dasharray:none;stroke-opacity:1" />
  </g>
</svg>
