<?xml version="1.0" encoding="UTF-8" standalone="no"?>
<!-- Created with Inkscape (http://www.inkscape.org/) -->

<svg
   xmlns:dc="http://purl.org/dc/elements/1.1/"
   xmlns:cc="http://creativecommons.org/ns#"
   xmlns:rdf="http://www.w3.org/1999/02/22-rdf-syntax-ns#"
   xmlns:svg="http://www.w3.org/2000/svg"
   xmlns="http://www.w3.org/2000/svg"
   xmlns:xlink="http://www.w3.org/1999/xlink"
   xmlns:sodipodi="http://sodipodi.sourceforge.net/DTD/sodipodi-0.dtd"
   xmlns:inkscape="http://www.inkscape.org/namespaces/inkscape"
   version="1.0"
   width="48"
   height="48"
   id="svg2562"
   inkscape:version="0.47 r22583"
   sodipodi:docname="camera-video.svg">
    
  
  
  
  
  <filter>
    </filter>
  <linearGradient
     id="linearGradient4321">
    <stop
       style="stop-color:#1577D3;stop-opacity:1.0;"
       offset="0"
       id="stop1" />
    <stop
       style="stop-color:#1577D3;stop-opacity:1.0;"
       offset="1"
       id="stop2" />
  </linearGradient>
  <linearGradient
     inkscape:collect="always"
     xlink:href="#linearGradient4321"
     id="linearGradient1234"
     x1="0%"
     y1="50%"
     x2="100%"
     y2="50%" />
<defs
     id="defs2564">
  </defs>
  <path
     style="fill:url(#linearGradient1234);fill-opacity:1;stroke:none;filter:url(#filter1111)"
     id="polygon1362"
     d="M 46,9.5103878 32.714681,16.640582 32.470914,31.936981 46,39.25 46,9.5103878 z M 5.4736842,10.24169 C 3.5440127,10.24169 2,11.785703 2,13.715374 l 0,21.908587 c 0,1.929671 1.5440128,3.473687 3.4736842,3.473684 l 21.9085868,0 c 1.929672,0 3.473683,-1.544013 3.473685,-3.473684 l 0,-21.908587 c 0,-1.929672 -1.544013,-3.473684 -3.473685,-3.473684 l -21.9085868,0 z m 1.1274238,2.041551 c 1.4216922,0 2.5290859,1.137864 2.5290859,2.559557 3e-7,1.421694 -1.1073936,2.590027 -2.5290859,2.590027 -1.4216924,0 -2.5900277,-1.168335 -2.5900277,-2.590027 0,-1.421691 1.1683354,-2.559557 2.5900277,-2.559557 z" />
</svg>
