<?xml version="1.0" encoding="UTF-8" standalone="no"?>
<!-- Created with Inkscape (http://www.inkscape.org/) -->

<svg
   xmlns:dc="http://purl.org/dc/elements/1.1/"
   xmlns:cc="http://creativecommons.org/ns#"
   xmlns:rdf="http://www.w3.org/1999/02/22-rdf-syntax-ns#"
   xmlns:svg="http://www.w3.org/2000/svg"
   xmlns="http://www.w3.org/2000/svg"
   xmlns:xlink="http://www.w3.org/1999/xlink"
   xmlns:sodipodi="http://sodipodi.sourceforge.net/DTD/sodipodi-0.dtd"
   xmlns:inkscape="http://www.inkscape.org/namespaces/inkscape"
   version="1.0"
   width="48"
   height="48"
   id="svg3465"
   inkscape:version="0.47pre4 r22446"
   sodipodi:docname="dialog-password.svg">
    
  
  
  
  
  <filter>
    </filter>
  <linearGradient
     id="linearGradient4321">
    <stop
       style="stop-color:#969487;stop-opacity:1.0;"
       offset="0"
       id="stop1" />
    <stop
       style="stop-color:#969487;stop-opacity:1.0;"
       offset="1"
       id="stop2" />
  </linearGradient>
  <linearGradient
     inkscape:collect="always"
     xlink:href="#linearGradient4321"
     id="linearGradient1234"
     x1="0%"
     y1="50%"
     x2="100%"
     y2="50%" />
<defs
     id="defs3467">
  </defs>
  <path
     style="fill:url(#linearGradient1234);fill-opacity:1;fill-rule:nonzero;stroke:none;stroke-width:0.99999970000000005;marker:none;visibility:visible;display:block;overflow:visible;filter:url(#filter1111)"
     id="path2086"
     d="m 24.011321,2 c -7.7,0 -13.2,4.591295 -13.2,12.1 l 0,6.6 -2.2000002,0 c -2.2,0 -3.3,1.1 -3.3,3.3 l 0,18.7 c 0,1.078358 1.1,3.3 3.3,3.3 l 32.3224172,0 c 1.777583,-0.0104 2.877583,-2.221643 2.877583,-3.3 l 0,-18.7 c 0,-2.2 -1.1,-3.3104 -3.3,-3.3104 l -2.2,0.0104 0,-6.6 c 0,-7.7 -5.5,-12.1 -13.2,-12.1 l -1.1,0 z m 0,5.5 1.1,0 c 7.7,0 7.7,6.6 7.7,8.8 l 0,4.4 -16.5,0 0,-4.4 c 0,-2.2 0,-8.8 7.7,-8.8 z" />
</svg>
