<?xml version="1.0" encoding="UTF-8" standalone="no"?>
<!-- Created with Inkscape (http://www.inkscape.org/) -->
<svg
   xmlns:svg="http://www.w3.org/2000/svg"
   xmlns="http://www.w3.org/2000/svg"
   xmlns:xlink="http://www.w3.org/1999/xlink"
   version="1.0"
   width="48"
   height="48"
   id="svg1307">
        
  
  
  
  
  <filter>
    </filter>
  <linearGradient
     id="linearGradient4321">
    <stop
       style="stop-color:#969487;stop-opacity:1.0;"
       offset="0"
       id="stop1" />
    <stop
       style="stop-color:#969487;stop-opacity:1.0;"
       offset="1"
       id="stop2" />
  </linearGradient>
  <linearGradient
     inkscape:collect="always"
     xlink:href="#linearGradient4321"
     id="linearGradient1234"
     x1="0%"
     y1="50%"
     x2="100%"
     y2="50%" />
<defs
     id="defs1309" />
  <g
     id="layer1"
     style="display:inline">
    <path
       d="M 36,34.495541 C 36.00158,34.674961 35.90692,34.841481 35.75193,34.931881 C 35.59694,35.022291 35.4054,35.022731 35.25,34.933041 L 18,24.589291 L 18,34.495541 C 17.99997,34.771671 17.77613,34.995511 17.5,34.995541 L 12.5,34.995541 C 12.22387,34.995511 12.00003,34.771671 12,34.495541 L 12,13.495541 C 12.00003,13.219411 12.22387,12.995571 12.5,12.995541 L 17.5,12.995541 C 17.77613,12.995571 17.99997,13.219411 18,13.495541 L 18,23.401791 L 35.25,13.058041 C 35.4054,12.968351 35.59694,12.968791 35.75193,13.059201 C 35.90692,13.149601 36.00158,13.316121 36,13.495541 L 36,34.495541 z"
       id="path1935"
       style="fill:url(#linearGradient1234);filter:url(#filter1111);fill-opacity:1;fill-rule:evenodd;stroke:none;stroke-width:1;stroke-linecap:square;stroke-linejoin:round;marker:none;stroke-miterlimit:4;stroke-dasharray:none;stroke-dashoffset:0;stroke-opacity:1;visibility:visible;display:inline;overflow:visible" />
  </g>
</svg>
