<?xml version="1.0" encoding="UTF-8" standalone="no"?>
<!-- Created with Inkscape (http://www.inkscape.org/) -->
<svg
   xmlns:svg="http://www.w3.org/2000/svg"
   xmlns="http://www.w3.org/2000/svg"
   xmlns:xlink="http://www.w3.org/1999/xlink"
   version="1.0"
   width="48"
   height="48"
   id="svg1307">
        
  
  
  
  
  <filter>
    </filter>
  <linearGradient
     id="linearGradient4321">
    <stop
       style="stop-color:#1577D3;stop-opacity:1.0;"
       offset="0"
       id="stop1" />
    <stop
       style="stop-color:#1577D3;stop-opacity:1.0;"
       offset="1"
       id="stop2" />
  </linearGradient>
  <linearGradient
     inkscape:collect="always"
     xlink:href="#linearGradient4321"
     id="linearGradient1234"
     x1="0%"
     y1="50%"
     x2="100%"
     y2="50%" />
<defs
     id="defs1309" />
  <g
     id="layer1"
     style="display:inline">
    <g
       transform="translate(-133.0004,-73.09425)"
       id="g1816"
       style="fill:url(#linearGradient1234);filter:url(#filter1111);fill-opacity:1;stroke:#91cbff;stroke-opacity:1" />
    <path
       d="M 13.40585,12.90575 C 13.16681,12.951361 12.99531,13.162434 12.9996,13.40575 L 12.9996,34.40575 C 12.99963,34.68188 13.22347,34.90572 13.4996,34.90575 L 21.4996,34.90575 C 21.77573,34.90572 21.99957,34.68188 21.9996,34.40575 L 21.9996,13.40575 C 21.99957,13.129619 21.77573,12.905778 21.4996,12.90575 L 13.4996,12.90575 C 13.46842,12.902814 13.43703,12.902814 13.40585,12.90575 L 13.40585,12.90575 z M 26.40585,12.90575 C 26.16681,12.951361 25.99531,13.162434 25.9996,13.40575 L 25.9996,34.40575 C 25.99963,34.68188 26.22347,34.90572 26.4996,34.90575 L 34.4996,34.90575 C 34.77573,34.90572 34.99957,34.68188 34.9996,34.40575 L 34.9996,13.40575 C 34.99957,13.129619 34.77573,12.905778 34.4996,12.90575 L 26.4996,12.90575 C 26.46842,12.902814 26.43703,12.902814 26.40585,12.90575 L 26.40585,12.90575 z"
       id="rect3614"
       style="fill:url(#linearGradient1234);filter:url(#filter1111);fill-opacity:1;fill-rule:evenodd;stroke:none;stroke-width:1;stroke-linecap:square;stroke-linejoin:round;marker:none;stroke-miterlimit:4;stroke-dasharray:none;stroke-dashoffset:0;stroke-opacity:1;visibility:visible;display:inline;overflow:visible" />
  </g>
</svg>
