<?xml version="1.0" encoding="UTF-8" standalone="no"?>
<!-- Created with Inkscape (http://www.inkscape.org/) -->
<svg
   xmlns:dc="http://purl.org/dc/elements/1.1/"
   xmlns:cc="http://creativecommons.org/ns#"
   xmlns:rdf="http://www.w3.org/1999/02/22-rdf-syntax-ns#"
   xmlns:svg="http://www.w3.org/2000/svg"
   xmlns="http://www.w3.org/2000/svg"
   xmlns:xlink="http://www.w3.org/1999/xlink"
   xmlns:sodipodi="http://sodipodi.sourceforge.net/DTD/sodipodi-0.dtd"
   xmlns:inkscape="http://www.inkscape.org/namespaces/inkscape"
   width="48"
   height="48"
   id="svg2"
   sodipodi:version="0.32"
   inkscape:version="0.46"
   version="1.0"
   sodipodi:docname="folder_home.svg"
   inkscape:output_extension="org.inkscape.output.svg.inkscape">
      
  
  <filter>
    </filter>
  <linearGradient
     id="linearGradient4321">
    <stop
       style="stop-color:#969487;stop-opacity:1.0;"
       offset="0"
       id="stop1" />
    <stop
       style="stop-color:#969487;stop-opacity:1.0;"
       offset="1"
       id="stop2" />
  </linearGradient>
  <linearGradient
     inkscape:collect="always"
     xlink:href="#linearGradient4321"
     id="linearGradient1234"
     x1="0%"
     y1="50%"
     x2="100%"
     y2="50%" />
<defs
     id="defs4">
  </defs>
  <g
     inkscape:label="Layer 1"
     inkscape:groupmode="layer"
     id="layer1">
    <path
       style="opacity:1;fill:url(#linearGradient1234);filter:url(#filter1111);fill-opacity:1;fill-rule:nonzero;stroke:none;stroke-width:2;stroke-linecap:round;stroke-linejoin:miter;stroke-miterlimit:4;stroke-dasharray:none;stroke-dashoffset:0;stroke-opacity:1"
       d="M 6.625 10 C 4.4437601 10 2.71875 11.855151 2.71875 14.0625 L 2.71875 26.90625 C 2.71875 26.980768 2.7461169 27.051342 2.75 27.125 C 2.7430289 27.304541 2.71875 27.475029 2.71875 27.65625 L 2.71875 40.53125 C 2.7187776 40.807381 2.9426191 41.031222 3.21875 41.03125 L 32.78125 41.03125 C 40.123609 41.03125 46.249999 35.002324 46.25 27.65625 L 46.25 14.8125 C 46.249972 14.536369 46.026131 14.312528 45.75 14.3125 L 43.375 14.3125 L 43.375 14.0625 C 43.375 11.855151 41.64999 10 39.46875 10 L 6.625 10 z M 6.625 12 L 39.46875 12 C 40.527421 12 41.375 12.881546 41.375 14.0625 L 41.375 14.3125 L 15.8125 14.3125 C 11.068956 14.3125 7.0124466 16.838243 4.71875 20.59375 L 4.71875 14.0625 C 4.71875 12.881546 5.5663292 12 6.625 12 z M 24.34375 17.65625 L 35.0625 28.75 L 32.9375 28.71875 L 33.03125 37.625 L 16.40625 37.65625 L 16.375 28.78125 L 13.90625 28.78125 L 24.34375 17.65625 z "
       id="rect3225" />
  </g>
</svg>
