<?xml version="1.0" encoding="UTF-8" standalone="no"?>
<!-- Created with Inkscape (http://www.inkscape.org/) -->

<svg
   xmlns:dc="http://purl.org/dc/elements/1.1/"
   xmlns:cc="http://creativecommons.org/ns#"
   xmlns:rdf="http://www.w3.org/1999/02/22-rdf-syntax-ns#"
   xmlns:svg="http://www.w3.org/2000/svg"
   xmlns="http://www.w3.org/2000/svg"
   xmlns:xlink="http://www.w3.org/1999/xlink"
   xmlns:sodipodi="http://sodipodi.sourceforge.net/DTD/sodipodi-0.dtd"
   xmlns:inkscape="http://www.inkscape.org/namespaces/inkscape"
   version="1.0"
   width="48"
   height="48"
   id="svg3332"
   inkscape:version="0.47 r22583"
   sodipodi:docname="dvd-r.svg">
    
  
  
  
  
  <filter>
    </filter>
  <linearGradient
     id="linearGradient4321">
    <stop
       style="stop-color:#969487;stop-opacity:1.0;"
       offset="0"
       id="stop1" />
    <stop
       style="stop-color:#969487;stop-opacity:1.0;"
       offset="1"
       id="stop2" />
  </linearGradient>
  <linearGradient
     inkscape:collect="always"
     xlink:href="#linearGradient4321"
     id="linearGradient1234"
     x1="0%"
     y1="50%"
     x2="100%"
     y2="50%" />
<defs
     id="defs3334">
  </defs>
  <path
     d="M 46,24.000003 C 46,36.144 36.144001,46 24.000001,46 11.856001,46 2,36.144 2,24.000003 2,11.856005 11.856001,2.0000055 24.000001,2.0000055 36.144001,2.0000055 46,11.856005 46,24.000003 z M 33.274512,24 c 0,5.119529 -4.15498,9.27451 -9.274509,9.27451 -5.119529,0 -9.27451,-4.154981 -9.27451,-9.27451 0,-5.119533 4.154981,-9.274512 9.27451,-9.274512 5.119529,0 9.274509,4.154979 9.274509,9.274512 z m -1.294119,-1e-6 c 0,4.405177 -3.575215,7.980392 -7.980391,7.980392 -4.405177,0 -7.980392,-3.575215 -7.980392,-7.980392 0,-4.405177 3.575215,-7.980392 7.980392,-7.980392 4.405176,0 7.980391,3.575215 7.980391,7.980392 z m -1.941178,0 c 0,3.333647 -2.705569,6.039215 -6.039215,6.039215 -3.333647,0 -6.039215,-2.705568 -6.039215,-6.039215 0,-3.333647 2.705568,-6.039216 6.039215,-6.039216 3.333646,0 6.039215,2.705569 6.039215,6.039216 z m -14.746469,12.147307 0,3.423598 0.719516,0 c 0.607458,1e-6 1.051748,-0.137612 1.332874,-0.412837 0.283085,-0.275223 0.424628,-0.709685 0.424632,-1.303385 -4e-6,-0.589765 -0.141547,-1.021277 -0.424632,-1.294539 C 17.06401,36.284922 16.61972,36.14731 16.012262,36.147306 l -0.719516,0 m -0.595665,-0.489507 1.223767,0 c 0.853194,4e-6 1.479329,0.177918 1.878408,0.53374 0.399072,0.353863 0.59861,0.908244 0.598614,1.663143 -4e-6,0.758835 -0.200525,1.316164 -0.601562,1.67199 -0.401045,0.355827 -1.026198,0.533738 -1.87546,0.533738 l -1.223767,0 0,-4.402611 m 5.676509,4.402611 -1.680836,-4.402611 0.622204,0 1.394799,3.706687 1.397749,-3.706687 0.619255,0 -1.677887,4.402611 -0.675284,0 m 3.588733,-3.913104 0,3.423598 0.719517,0 c 0.607457,1e-6 1.051748,-0.137612 1.332873,-0.412837 0.283085,-0.275223 0.424629,-0.709685 0.424633,-1.303385 -4e-6,-0.589765 -0.141548,-1.021277 -0.424633,-1.294539 -0.281125,-0.275221 -0.725416,-0.412833 -1.332873,-0.412837 l -0.719517,0 m -0.595664,-0.489507 1.223767,0 c 0.853193,4e-6 1.479329,0.177918 1.878408,0.53374 0.399072,0.353863 0.598609,0.908244 0.598613,1.663143 -4e-6,0.758835 -0.200524,1.316164 -0.601562,1.67199 -0.401045,0.355827 -1.026197,0.533738 -1.875459,0.533738 l -1.223767,0 0,-4.402611 m 4.349533,2.506511 1.589422,0 0,0.483609 -1.589422,0 0,-0.483609 m 4.567746,-0.168084 c 0.12778,0.04325 0.251631,0.135648 0.371554,0.277191 0.121882,0.141545 0.243767,0.336168 0.365655,0.583869 l 0.604511,1.203124 -0.639897,0 -0.563228,-1.129403 c -0.145479,-0.294882 -0.287022,-0.490488 -0.424632,-0.586818 -0.135648,-0.09633 -0.321425,-0.144492 -0.55733,-0.144493 l -0.648744,0 0,1.860714 -0.595665,0 0,-4.402611 1.344669,0 c 0.503266,4e-6 0.87875,0.10518 1.126455,0.315525 0.247699,0.210355 0.371551,0.527846 0.371554,0.952474 -3e-6,0.277194 -0.06488,0.507203 -0.194624,0.690028 -0.127785,0.18283 -0.314544,0.30963 -0.560278,0.3804 m -1.492111,-1.84892 0,1.562883 0.749004,0 c 0.287019,2e-6 0.503266,-0.06585 0.648745,-0.197572 0.147439,-0.133678 0.221159,-0.329284 0.221162,-0.586819 -3e-6,-0.257528 -0.07373,-0.451168 -0.221162,-0.58092 -0.145479,-0.131711 -0.361726,-0.197568 -0.648745,-0.197572 l -0.749004,0"
     id="path3170"
     style="fill:url(#linearGradient1234);fill-opacity:1;fill-rule:evenodd;stroke:none;filter:url(#filter1111)" />
</svg>
