<?xml version="1.0" encoding="UTF-8" standalone="no"?>
<!-- Created with Inkscape (http://www.inkscape.org/) -->

<svg
   xmlns:dc="http://purl.org/dc/elements/1.1/"
   xmlns:cc="http://creativecommons.org/ns#"
   xmlns:rdf="http://www.w3.org/1999/02/22-rdf-syntax-ns#"
   xmlns:svg="http://www.w3.org/2000/svg"
   xmlns="http://www.w3.org/2000/svg"
   xmlns:xlink="http://www.w3.org/1999/xlink"
   xmlns:sodipodi="http://sodipodi.sourceforge.net/DTD/sodipodi-0.dtd"
   xmlns:inkscape="http://www.inkscape.org/namespaces/inkscape"
   version="1.0"
   width="48"
   height="48"
   id="svg2186"
   inkscape:version="0.47pre4 r22446"
   sodipodi:docname="Close.svg">
  <metadata
     id="metadata12">
    <rdf:RDF>
      <cc:Work
         rdf:about="">
        <dc:format>image/svg+xml</dc:format>
        <dc:type
           rdf:resource="http://purl.org/dc/dcmitype/StillImage" />
      </cc:Work>
    </rdf:RDF>
  </metadata>
  <sodipodi:namedview
     pagecolor="#ffffff"
     bordercolor="#666666"
     borderopacity="1"
     objecttolerance="10"
     gridtolerance="10"
     guidetolerance="10"
     inkscape:pageopacity="0"
     inkscape:pageshadow="2"
     inkscape:window-width="1360"
     inkscape:window-height="697"
     id="namedview10"
     showgrid="false"
     inkscape:zoom="2.0703125"
     inkscape:cx="64"
     inkscape:cy="64"
     inkscape:window-x="0"
     inkscape:window-y="25"
     inkscape:window-maximized="1"
     inkscape:current-layer="svg2186" />
        
  
  
  
  
  
  <filter>
    </filter>
  <linearGradient
     id="linearGradient4321">
    <stop
       style="stop-color:#1577D3;stop-opacity:1.0;"
       offset="0"
       id="stop1" />
    <stop
       style="stop-color:#1577D3;stop-opacity:1.0;"
       offset="1"
       id="stop2" />
  </linearGradient>
  <linearGradient
     inkscape:collect="always"
     xlink:href="#linearGradient4321"
     id="linearGradient1234"
     x1="0%"
     y1="50%"
     x2="100%"
     y2="50%" />
<defs
     id="defs2188">
    <inkscape:perspective
       sodipodi:type="inkscape:persp3d"
       inkscape:vp_x="0 : 64 : 1"
       inkscape:vp_y="0 : 1000 : 0"
       inkscape:vp_z="128 : 64 : 1"
       inkscape:persp3d-origin="64 : 42.666667 : 1"
       id="perspective14" />
  </defs>
  <g
     id="layer1"
     transform="matrix(0.75825149,0,0,0.75906244,-24.54041,-24.589182)">
    <path
       d="m 43.125,35.03125 c -3.291211,-0.02514 -6.285718,1.955367 -7.53125,5 -1.245531,3.044631 -0.479532,6.533947 1.875,8.8125 L 52.65625,64 37.46875,79.15625 c -3.147458,3.147456 -3.147458,8.290045 0,11.4375 3.147456,3.147456 8.258794,3.147454 11.40625,0 L 64.0625,75.4375 79.21875,90.59375 c 2.025614,2.08344 4.978928,2.872865 7.78125,2.125 2.807074,-0.749122 5.058828,-2.948961 5.78125,-5.78125 0.719338,-2.820178 -0.145931,-5.780307 -2.25,-7.78125 L 75.375,64 90.53125,48.84375 c 2.377067,-2.298723 3.156755,-5.841193 1.875,-8.90625 -1.281753,-3.065055 -4.355119,-4.983906 -7.65625,-4.90625 -2.10036,0.08295 -4.08771,0.972089 -5.53125,2.5 L 64.0625,52.6875 48.875,37.5 c -1.50437,-1.589004 -3.5619,-2.45233 -5.75,-2.46875 z"
       id="path3825"
       style="fill:url(#linearGradient1234);filter:url(#filter1111);fill-opacity:1;fill-rule:nonzero;stroke:none;stroke-width:1.98023272;marker:none;visibility:visible;display:inline;overflow:visible" />
  </g>
</svg>
