<?xml version="1.0" encoding="UTF-8" standalone="no"?>
<!-- Created with Inkscape (http://www.inkscape.org/) -->
<svg
   xmlns:dc="http://purl.org/dc/elements/1.1/"
   xmlns:cc="http://creativecommons.org/ns#"
   xmlns:rdf="http://www.w3.org/1999/02/22-rdf-syntax-ns#"
   xmlns:svg="http://www.w3.org/2000/svg"
   xmlns="http://www.w3.org/2000/svg"
   xmlns:xlink="http://www.w3.org/1999/xlink"
   xmlns:sodipodi="http://sodipodi.sourceforge.net/DTD/sodipodi-0.dtd"
   xmlns:inkscape="http://www.inkscape.org/namespaces/inkscape"
   width="48"
   height="48"
   id="svg2"
   sodipodi:version="0.32"
   inkscape:version="0.46"
   version="1.0"
   sodipodi:docname="folder-remote.svg"
   inkscape:output_extension="org.inkscape.output.svg.inkscape">
  
  
  <filter>
    </filter>
  <linearGradient
     id="linearGradient4321">
    <stop
       style="stop-color:#969487;stop-opacity:1.0;"
       offset="0"
       id="stop1" />
    <stop
       style="stop-color:#969487;stop-opacity:1.0;"
       offset="1"
       id="stop2" />
  </linearGradient>
  <linearGradient
     inkscape:collect="always"
     xlink:href="#linearGradient4321"
     id="linearGradient1234"
     x1="0%"
     y1="50%"
     x2="100%"
     y2="50%" />
<defs
     id="defs4">
  </defs>
  <g
     inkscape:label="Layer 1"
     inkscape:groupmode="layer"
     id="layer1">
    <path
       style="opacity:1;fill:url(#linearGradient1234);filter:url(#filter1111);filter:url(#filter1111);fill-opacity:1;fill-rule:nonzero;stroke:none;stroke-width:1;stroke-miterlimit:4;stroke-dasharray:none;stroke-opacity:1"
       d="M 34.875 2.25 L 17.5 12.28125 L 15.9375 9.375 L 3.53125 16.53125 L 5.125 19.4375 L 2.625 20.875 L 4.5 24.125 L 2.5625 25.21875 L 2.03125 25.53125 L 2.4375 26 L 4.28125 27.96875 L 2.34375 29.0625 L 1.75 29.40625 L 2.21875 29.84375 L 15.125 42.6875 L 15.40625 42.96875 L 15.53125 43.15625 L 23.03125 38.8125 L 23.03125 42.65625 C 22.43006 42.92266 21.92781 43.416489 21.6875 44.03125 L 2.53125 44.03125 C 2.50002 44.029785 2.46873 44.029784 2.4375 44.03125 C 1.88522 44.057139 1.47411 44.541465 1.5 45.09375 C 1.52589 45.646036 1.97897 46.057138 2.53125 46.03125 L 21.78125 46.03125 C 22.1875 46.862767 23.04402 47.437499 24.03125 47.4375 C 25.01848 47.437501 25.875 46.862766 26.28125 46.03125 L 45.5 46.03125 C 45.86064 46.036351 46.19319 45.842748 46.375 45.53125 C 46.55681 45.219753 46.55681 44.842747 46.375 44.53125 C 46.19319 44.219754 45.86064 44.02615 45.5 44.03125 L 26.375 44.03125 C 26.13469 43.41649 25.63244 42.922659 25.03125 42.65625 L 25.03125 37.6875 L 47.75 24.5625 L 34.875 2.25 z M 29.96875 11.21875 C 30.458329 11.183711 30.943107 11.418091 31.1875 11.84375 L 34.96875 18.25 C 35.093181 18.386457 35.194051 18.542754 35.25 18.71875 L 38.6875 24.4375 C 38.775619 24.545066 38.825906 24.682404 38.875 24.8125 C 38.88003 24.820987 38.901414 24.835148 38.90625 24.84375 C 38.916437 24.878206 38.930249 24.902309 38.9375 24.9375 C 38.959544 25.01908 38.931945 25.103173 38.9375 25.1875 C 38.938298 25.198504 38.968229 25.207732 38.96875 25.21875 C 38.972019 25.251694 38.968051 25.279399 38.96875 25.3125 C 38.967005 25.319252 38.939364 25.337022 38.9375 25.34375 C 38.936698 25.379329 38.941268 25.433361 38.9375 25.46875 C 38.933904 25.500142 38.912164 25.531458 38.90625 25.5625 C 38.902857 25.57604 38.910078 25.611584 38.90625 25.625 C 38.89585 25.654839 38.887577 25.689766 38.875 25.71875 C 38.825116 25.874012 38.729079 25.999465 38.625 26.125 C 38.617486 26.138324 38.632611 26.174254 38.625 26.1875 C 37.904755 27.440736 36.754848 28.364855 35.28125 28.96875 C 33.671223 29.628553 31.657118 30.022283 29.09375 30.34375 C 24.965134 30.861511 23.246942 32.956622 22.9375 33.375 C 22.935754 33.38175 22.939365 33.399524 22.9375 33.40625 C 22.768903 33.774507 22.427478 34.041093 22.03125 34.125 C 21.635022 34.208905 21.240897 34.080803 20.9375 33.8125 C 20.928219 33.806537 20.91538 33.818694 20.90625 33.8125 C 20.851499 33.760347 20.794686 33.685994 20.75 33.625 C 20.721657 33.590429 20.649572 33.568596 20.625 33.53125 L 20.59375 33.4375 L 13.15625 20.90625 C 13.126146 20.861032 13.086608 20.79868 13.0625 20.75 C 13.044023 20.720809 13.016043 20.686847 13 20.65625 C 12.904141 20.470395 12.87251 20.302854 12.875 20.09375 C 12.876746 20.086998 12.904386 20.037977 12.90625 20.03125 C 12.910204 19.90813 12.929939 19.773159 12.96875 19.65625 C 13.034741 19.451394 13.156057 19.304047 13.3125 19.15625 C 13.536054 18.83662 13.990094 18.208651 14.9375 17.46875 C 15.248881 17.225569 15.597538 16.957852 16 16.71875 C 16.402464 16.479648 16.849933 16.24308 17.34375 16.03125 C 18.331384 15.60759 19.497802 15.297711 20.875 15.125 C 21.148413 15.090714 21.365661 15.036168 21.625 15 C 23.711902 14.708976 25.433266 14.366804 26.59375 13.90625 C 27.875952 13.397389 28.514703 12.783681 28.90625 12 C 29.087527 11.543879 29.479171 11.253788 29.96875 11.21875 z M 29.9375 14.78125 C 29.261922 15.398603 28.473223 15.907417 27.53125 16.28125 C 26.495007 16.692498 25.205351 17.001214 23.84375 17.25 L 26.25 21.28125 C 28.060065 21.016874 29.610736 20.758443 30.625 20.375 C 31.583646 20.012585 32.073827 19.584216 32.46875 19.0625 L 29.9375 14.78125 z M 21.15625 17.65625 C 20.046236 17.801819 19.100016 18.050335 18.34375 18.375 C 17.957663 18.540747 17.615667 18.751448 17.3125 18.9375 C 17.009333 19.12355 16.732136 19.318708 16.5 19.5 C 16.121492 19.795606 15.911303 20.008926 15.71875 20.21875 L 18.28125 24.53125 C 19.317352 23.560239 21.007346 22.399775 23.59375 21.78125 L 21.15625 17.65625 z M 33.84375 21.34375 C 33.188599 21.925018 32.428227 22.410898 31.53125 22.75 C 30.454794 23.156951 29.135161 23.417297 27.6875 23.65625 L 30.03125 27.59375 C 31.83354 27.321167 33.293116 27.029947 34.28125 26.625 C 35.222795 26.239146 35.758494 25.771203 36.15625 25.21875 L 33.84375 21.34375 z M 24.96875 24.125 C 23.423809 24.368401 22.234237 24.833792 21.34375 25.34375 C 21.046919 25.513738 20.788363 25.702167 20.5625 25.875 C 20.118973 26.214388 19.811927 26.499427 19.59375 26.75 L 22.03125 30.78125 C 23.098599 29.839142 24.777204 28.671346 27.34375 28.0625 L 24.96875 24.125 z M 5 25 L 13.53125 39.6875 L 3.40625 29.625 L 5.3125 28.5 L 5.84375 28.1875 L 5.4375 27.71875 L 3.625 25.78125 L 5 25 z "
       id="rect3176" />
  </g>
</svg>
