<?xml version="1.0" encoding="UTF-8" standalone="no"?>
<!-- Created with Inkscape (http://www.inkscape.org/) -->

<svg
   xmlns:dc="http://purl.org/dc/elements/1.1/"
   xmlns:cc="http://creativecommons.org/ns#"
   xmlns:rdf="http://www.w3.org/1999/02/22-rdf-syntax-ns#"
   xmlns:svg="http://www.w3.org/2000/svg"
   xmlns="http://www.w3.org/2000/svg"
   xmlns:xlink="http://www.w3.org/1999/xlink"
   xmlns:sodipodi="http://sodipodi.sourceforge.net/DTD/sodipodi-0.dtd"
   xmlns:inkscape="http://www.inkscape.org/namespaces/inkscape"
   version="1.0"
   width="48"
   height="48"
   id="svg1872"
   inkscape:version="0.47pre4 r22446"
   sodipodi:docname="emblem-personal.svg">
    
  
  
  
  
  <filter>
    </filter>
  <linearGradient
     id="linearGradient4321">
    <stop
       style="stop-color:#1577D3;stop-opacity:1.0;"
       offset="0"
       id="stop1" />
    <stop
       style="stop-color:#1577D3;stop-opacity:1.0;"
       offset="1"
       id="stop2" />
  </linearGradient>
  <linearGradient
     inkscape:collect="always"
     xlink:href="#linearGradient4321"
     id="linearGradient1234"
     x1="0%"
     y1="50%"
     x2="100%"
     y2="50%" />
<defs
     id="defs1874">
  </defs>
  <path
     d="M 24,2 C 11.849736,2 2,11.846429 2,24 2,36.153571 11.849734,46 24,46 36.150264,46 46,36.153571 46,24 46,11.846429 36.150264,2 24,2 z m 0.229167,6.091864 c 4.344642,0 7.849855,3.708777 7.848958,8.199475 5.54e-4,2.776887 -1.358643,5.240165 -3.408854,6.727034 1.057182,0.34741 2.041863,0.799408 2.893229,1.356955 C 33.587372,25.701386 35,27.661958 35,29.918635 l 0,6.236221 c -0.375738,-0.376118 -0.820229,-0.840061 -1.460938,-1.530184 -2.615944,-2.8177 -7.819266,-8.754561 -17.04427,-19.690289 0.61962,-3.858341 3.835474,-6.842519 7.734375,-6.842519 z m -5.442709,15.013123 c 6.207782,7.272856 10.028466,11.57363 12.203125,13.91601 0.434544,0.468059 0.678915,0.730928 1.002604,1.068242 l -18.218749,0 c -0.270229,0.0056 -0.522352,-0.09882 -0.716146,-0.288714 -0.193795,-0.189895 -0.3131,-0.449377 -0.315104,-0.721785 l 0.02864,-7.160105 c 0,-2.256677 1.383983,-4.217249 3.408855,-5.543307 0.774042,-0.506909 1.656719,-0.932767 2.60677,-1.270341 z"
     id="path14961"
     style="fill:url(#linearGradient1234);fill-opacity:1;fill-rule:evenodd;stroke:none;filter:url(#filter1111)" />
</svg>
