<?xml version="1.0" encoding="UTF-8" standalone="no"?>
<!-- Created with Inkscape (http://www.inkscape.org/) -->
<svg
   xmlns:dc="http://purl.org/dc/elements/1.1/"
   xmlns:cc="http://creativecommons.org/ns#"
   xmlns:rdf="http://www.w3.org/1999/02/22-rdf-syntax-ns#"
   xmlns:svg="http://www.w3.org/2000/svg"
   xmlns="http://www.w3.org/2000/svg"
   xmlns:xlink="http://www.w3.org/1999/xlink"
   xmlns:sodipodi="http://sodipodi.sourceforge.net/DTD/sodipodi-0.dtd"
   xmlns:inkscape="http://www.inkscape.org/namespaces/inkscape"
   width="48"
   height="48"
   id="svg2"
   sodipodi:version="0.32"
   inkscape:version="0.46"
   version="1.0"
   sodipodi:docname="application-x-gnome-saved-search.svg"
   inkscape:output_extension="org.inkscape.output.svg.inkscape">
  
  
  <filter>
    </filter>
  <linearGradient
     id="linearGradient4321">
    <stop
       style="stop-color:#1577D3;stop-opacity:1.0;"
       offset="0"
       id="stop1" />
    <stop
       style="stop-color:#1577D3;stop-opacity:1.0;"
       offset="1"
       id="stop2" />
  </linearGradient>
  <linearGradient
     inkscape:collect="always"
     xlink:href="#linearGradient4321"
     id="linearGradient1234"
     x1="0%"
     y1="50%"
     x2="100%"
     y2="50%" />
<defs
     id="defs4">
  </defs>
  <g
     inkscape:label="Layer 1"
     inkscape:groupmode="layer"
     id="layer1">
    <path
       style="opacity:1;fill:url(#linearGradient1234);filter:url(#filter1111);filter:url(#filter1111);fill-opacity:1;fill-rule:nonzero;stroke:none;stroke-width:1;stroke-miterlimit:4;stroke-dasharray:none;stroke-opacity:1"
       d="M 34.875 6.53125 L 17.5 16.5625 L 15.9375 13.65625 L 3.53125 20.8125 L 5.125 23.71875 L 2.625 25.15625 L 4.5 28.40625 L 2.5625 29.5 L 2.03125 29.8125 L 2.4375 30.28125 L 4.28125 32.25 L 2.34375 33.34375 L 1.75 33.6875 L 2.21875 34.125 L 15.125 46.96875 L 15.40625 47.25 L 15.53125 47.4375 L 47.75 28.84375 L 34.875 6.53125 z M 22.0625 17.5625 C 23.720079 17.461331 25.399803 18.180665 26.71875 19.71875 C 28.247447 21.501434 28.952599 24.035259 28.8125 26.5 C 28.839556 26.508334 28.848178 26.520457 28.875 26.53125 L 35.75 29.09375 C 36.398962 29.33962 36.753978 30.229187 36.5625 31.0625 C 36.371022 31.895813 35.680212 32.37087 35.03125 32.125 L 28.1875 29.53125 C 27.925749 30.221795 27.577677 30.872886 27.15625 31.46875 C 24.760611 34.855993 20.637894 35.107421 18 32.03125 C 15.362106 28.955081 15.16686 23.668493 17.5625 20.28125 C 18.76032 18.587628 20.404921 17.663669 22.0625 17.5625 z M 22.15625 20.1875 C 21.023878 20.256211 19.88979 20.861529 19.0625 22.03125 C 17.407922 24.370692 17.553105 27.969154 19.375 30.09375 C 21.196896 32.218345 24.001671 32.026942 25.65625 29.6875 C 27.31083 27.348058 27.165645 23.780846 25.34375 21.65625 C 24.432802 20.593952 23.288622 20.118789 22.15625 20.1875 z M 5 29.28125 L 13.53125 43.96875 L 3.40625 33.90625 L 5.3125 32.78125 L 5.84375 32.46875 L 5.4375 32 L 3.625 30.0625 L 5 29.28125 z "
       id="rect3176" />
  </g>
</svg>
