<?xml version="1.0" encoding="UTF-8" standalone="no"?>
<!-- Created with Inkscape (http://www.inkscape.org/) -->

<svg
   xmlns:dc="http://purl.org/dc/elements/1.1/"
   xmlns:cc="http://creativecommons.org/ns#"
   xmlns:rdf="http://www.w3.org/1999/02/22-rdf-syntax-ns#"
   xmlns:svg="http://www.w3.org/2000/svg"
   xmlns="http://www.w3.org/2000/svg"
   xmlns:xlink="http://www.w3.org/1999/xlink"
   xmlns:sodipodi="http://sodipodi.sourceforge.net/DTD/sodipodi-0.dtd"
   xmlns:inkscape="http://www.inkscape.org/namespaces/inkscape"
   version="1.0"
   width="48"
   height="48"
   id="svg2070"
   xml:space="preserve"
   style="overflow:visible"
   inkscape:version="0.47pre4 r22446"
   sodipodi:docname="gnome-netstatus-25-49.svg">
        
  
  
  
  
  <filter>
    </filter>
  <linearGradient
   id="linearGradient4321">
    <stop
       style="stop-color:#969487;stop-opacity:1.0;"
       offset="0"
       id="stop1" />
    <stop
       style="stop-color:#969487;stop-opacity:1.0;"
       offset="1"
       id="stop2" />
  </linearGradient>
  <linearGradient
     inkscape:collect="always"
     xlink:href="#linearGradient4321"
     id="linearGradient1234"
     x1="0%"
     y1="50%"
     x2="100%"
     y2="50%" />
<defs
   id="defs2171">
</defs>
<path
   d="M 17.695652,2 C 17.033383,2 16.5,2.527703 16.5,3.171739 l 0,41.656522 C 16.5,45.472295 17.033383,46 17.695652,46 l 14.826087,0 c 0.662269,0 1.195652,-0.527705 1.195652,-1.171739 l 0,-41.656522 C 33.717391,2.527703 33.184008,2 32.521739,2 L 17.695652,2 z m 0.334783,0.382608 14.156521,0 c 0.632835,0 1.147826,0.514992 1.147826,1.147827 l 0,40.93913 c 0,0.632835 -0.514991,1.147826 -1.147826,1.147826 l -14.156521,0 c -0.632835,0 -1.147827,-0.514991 -1.147827,-1.147826 l 0,-40.93913 c 0,-0.632835 0.514992,-1.147826 1.147827,-1.147826 z m -0.765218,21.808696 0,10.330435 15.686957,0 0,-10.330435 -15.686957,0 z m 0,10.713044 0,9.565217 c 0,0.42087 0.344348,0.765217 0.765218,0.765217 l 14.156521,0 c 0.42087,0 0.765218,-0.344347 0.765218,-0.765217 l 0,-9.565217 -15.686957,0 z"
   id="path3212"
   style="fill:url(#linearGradient1234);fill-opacity:1;filter:url(#filter1111)" /></svg>
