<?xml version="1.0" encoding="UTF-8" standalone="no"?>
<!-- Created with Inkscape (http://www.inkscape.org/) -->

<svg
   xmlns:dc="http://purl.org/dc/elements/1.1/"
   xmlns:cc="http://creativecommons.org/ns#"
   xmlns:rdf="http://www.w3.org/1999/02/22-rdf-syntax-ns#"
   xmlns:svg="http://www.w3.org/2000/svg"
   xmlns="http://www.w3.org/2000/svg"
   xmlns:xlink="http://www.w3.org/1999/xlink"
   xmlns:sodipodi="http://sodipodi.sourceforge.net/DTD/sodipodi-0.dtd"
   xmlns:inkscape="http://www.inkscape.org/namespaces/inkscape"
   version="1.0"
   width="48"
   height="48"
   id="svg1"
   inkscape:version="0.47pre4 r22446"
   sodipodi:docname="xmms.svg">
    
  
  
  
  
  <filter>
    </filter>
  <linearGradient
     id="linearGradient4321">
    <stop
       style="stop-color:#969487;stop-opacity:1.0;"
       offset="0"
       id="stop1" />
    <stop
       style="stop-color:#969487;stop-opacity:1.0;"
       offset="1"
       id="stop2" />
  </linearGradient>
  <linearGradient
     inkscape:collect="always"
     xlink:href="#linearGradient4321"
     id="linearGradient1234"
     x1="0%"
     y1="50%"
     x2="100%"
     y2="50%" />
<defs
     id="defs3">
  </defs>
  <path
     d="M 24.200521,2 C 14.510172,2 6.7218087,10.165659 6.2395833,20.304688 3.7690977,21.423429 2,23.917247 2,26.950521 l 0,11.544271 c -1e-7,4.026083 3.0079334,7.41927 6.8463542,7.419271 3.8384268,1e-6 6.8463548,-3.385815 6.8463538,-7.419271 l 0,-11.544271 c 0,-2.623508 -1.33463,-4.850087 -3.265625,-6.158854 0.187406,-6.902706 5.413811,-12.375 11.830729,-12.375 6.353121,10e-7 11.572593,5.372121 11.859375,12.174479 -2.236531,1.220333 -3.809895,3.617 -3.809895,6.473958 l 0,11.544271 c 0,4.033459 3.016831,7.390627 6.846354,7.390625 3.829522,-10e-7 6.846351,-3.364544 6.846354,-7.390625 l 0,-11.544271 c 10e-7,-2.865212 -1.548433,-5.307551 -3.809896,-6.53125 C 41.818198,10.287557 33.964373,2 24.200521,2 z"
     id="rect1065"
     style="fill:url(#linearGradient1234);fill-opacity:1;fill-rule:nonzero;stroke:none;filter:url(#filter1111)" />
</svg>
