<?xml version="1.0" encoding="UTF-8" standalone="no"?>
<!-- Created with Inkscape (http://www.inkscape.org/) -->
<svg
   xmlns:dc="http://purl.org/dc/elements/1.1/"
   xmlns:cc="http://creativecommons.org/ns#"
   xmlns:rdf="http://www.w3.org/1999/02/22-rdf-syntax-ns#"
   xmlns:svg="http://www.w3.org/2000/svg"
   xmlns="http://www.w3.org/2000/svg"
   xmlns:xlink="http://www.w3.org/1999/xlink"
   xmlns:sodipodi="http://sodipodi.sourceforge.net/DTD/sodipodi-0.dtd"
   xmlns:inkscape="http://www.inkscape.org/namespaces/inkscape"
   width="48"
   height="48"
   id="svg2"
   sodipodi:version="0.32"
   inkscape:version="0.46"
   version="1.0"
   sodipodi:docname="folder-remote-smb.svg"
   inkscape:output_extension="org.inkscape.output.svg.inkscape">
      
  
  <filter>
    </filter>
  <linearGradient
     id="linearGradient4321">
    <stop
       style="stop-color:#1577D3;stop-opacity:1.0;"
       offset="0"
       id="stop1" />
    <stop
       style="stop-color:#1577D3;stop-opacity:1.0;"
       offset="1"
       id="stop2" />
  </linearGradient>
  <linearGradient
     inkscape:collect="always"
     xlink:href="#linearGradient4321"
     id="linearGradient1234"
     x1="0%"
     y1="50%"
     x2="100%"
     y2="50%" />
<defs
     id="defs4">
  </defs>
  <g
     inkscape:label="Layer 1"
     inkscape:groupmode="layer"
     id="layer1">
    <path
       style="opacity:1;fill:url(#linearGradient1234);filter:url(#filter1111);fill-opacity:1;fill-rule:nonzero;stroke:none;stroke-width:2;stroke-linecap:round;stroke-linejoin:round;stroke-miterlimit:4;stroke-dasharray:none;stroke-dashoffset:0;stroke-opacity:1"
       d="M 10.5625 7.4375 C 8.0656795 7.4375 6.03125 8.8312773 6.03125 10.5625 L 39.71875 10.5625 C 39.718751 8.8312775 37.684319 7.4375 35.1875 7.4375 L 10.5625 7.4375 z M 6.78125 11.375 C 3.2933645 11.375 0.5 13.787868 0.5 16.78125 L 0.5 35.75 C 0.5 38.743382 3.2933645 41.156249 6.78125 41.15625 L 22.90625 41.15625 L 22.90625 42.9375 C 22.305056 43.20391 21.802813 43.697739 21.5625 44.3125 L 2.40625 44.3125 C 2.3750173 44.311035 2.3437328 44.311034 2.3125 44.3125 C 1.7602154 44.338389 1.3491116 44.822715 1.375 45.375 C 1.4008883 45.927286 1.8539653 46.338388 2.40625 46.3125 L 21.65625 46.3125 C 22.062498 47.144017 22.919019 47.718749 23.90625 47.71875 C 24.893481 47.718751 25.750002 47.144016 26.15625 46.3125 L 45.375 46.3125 C 45.735636 46.317601 46.068193 46.123998 46.25 45.8125 C 46.431806 45.501003 46.431806 45.123997 46.25 44.8125 C 46.068193 44.501004 45.735636 44.3074 45.375 44.3125 L 26.25 44.3125 C 26.009688 43.69774 25.507444 43.203909 24.90625 42.9375 L 24.90625 41.15625 L 41.21875 41.15625 C 44.706635 41.15625 47.5 38.743382 47.5 35.75 L 47.5 16.78125 C 47.5 13.787868 44.706635 11.375 41.21875 11.375 L 6.78125 11.375 z M 17.65625 14.15625 C 18.228811 14.149111 18.847342 14.172379 19.5 14.25 C 20.805316 14.405243 22.216747 14.778172 23.78125 15.4375 C 24.091854 15.568397 24.359416 15.629703 24.65625 15.75 C 27.044904 16.718047 29.051519 17.434377 30.5625 17.65625 C 32.231957 17.901394 33.293441 17.621942 34.1875 17.03125 C 34.658497 16.658944 35.27246 16.612695 35.8125 16.875 C 36.352543 17.137308 36.720197 17.680877 36.71875 18.28125 L 36.8125 27.34375 C 36.860862 27.564402 36.860862 27.810598 36.8125 28.03125 L 36.9375 36.1875 C 36.965057 36.355339 36.965055 36.550913 36.9375 36.71875 C 36.937642 36.73082 36.937639 36.737931 36.9375 36.75 C 36.927219 36.792732 36.888841 36.833288 36.875 36.875 C 36.848454 36.974902 36.795687 37.063526 36.75 37.15625 C 36.744122 37.168397 36.756188 37.17551 36.75 37.1875 C 36.733311 37.224395 36.73825 37.277009 36.71875 37.3125 C 36.712763 37.318583 36.662334 37.306515 36.65625 37.3125 C 36.633632 37.349698 36.619387 37.402317 36.59375 37.4375 C 36.570738 37.468554 36.525247 37.501983 36.5 37.53125 C 36.488129 37.543514 36.481013 37.55063 36.46875 37.5625 C 36.439482 37.587749 36.406055 37.633239 36.375 37.65625 C 36.227204 37.790214 36.030786 37.899423 35.84375 37.96875 C 35.82764 37.978269 35.828669 37.990624 35.8125 38 C 34.283074 38.887065 32.492835 39.16778 30.5625 38.90625 C 28.453457 38.620507 26.099506 37.820952 23.1875 36.59375 C 18.497371 34.617192 15.396177 35.77731 14.8125 36.03125 C 14.806516 36.037335 14.756085 36.056515 14.75 36.0625 C 14.346184 36.349484 13.877292 36.434696 13.40625 36.28125 C 12.935207 36.127804 12.563547 35.71977 12.40625 35.25 C 12.400059 35.238011 12.380878 35.262145 12.375 35.25 C 12.348905 35.16127 12.322541 35.029442 12.3125 34.9375 C 12.303622 34.883543 12.284432 34.83584 12.28125 34.78125 L 12.28125 34.65625 L 12.0625 16.8125 C 12.058271 16.746189 12.058271 16.691311 12.0625 16.625 C 12.060789 16.582777 12.060789 16.510973 12.0625 16.46875 C 12.074622 16.213246 12.150724 16.001232 12.28125 15.78125 C 12.287235 15.775166 12.306417 15.755986 12.3125 15.75 C 12.391981 15.621997 12.51239 15.506356 12.625 15.40625 C 12.820189 15.229602 13.056382 15.123383 13.3125 15.0625 C 13.744798 14.860638 14.60639 14.485607 16.0625 14.28125 C 16.541072 14.214085 17.083689 14.163389 17.65625 14.15625 z M 18.375 17.28125 C 18.138795 17.276621 17.904964 17.306665 17.6875 17.3125 C 17.252572 17.324172 16.825524 17.324928 16.46875 17.375 C 15.887007 17.456645 15.519796 17.582996 15.1875 17.6875 L 15.28125 23.8125 C 16.972667 23.41757 19.475671 23.198385 22.59375 24.125 L 22.53125 18.28125 C 21.266378 17.756577 20.093435 17.462356 19.09375 17.34375 C 18.838573 17.313475 18.611205 17.285879 18.375 17.28125 z M 25.625 19.5 L 25.71875 25.25 C 27.797857 26.076964 29.566075 26.754619 30.875 26.96875 C 32.112156 27.17114 32.918829 27.029876 33.65625 26.71875 L 33.59375 20.59375 C 32.500539 20.834537 31.320224 20.930097 30.09375 20.75 C 28.744537 20.55188 27.219509 20.069202 25.625 19.5 z M 18.03125 26.53125 C 17.612855 26.529779 17.219962 26.580054 16.875 26.625 C 16.1976 26.713259 15.696861 26.836753 15.3125 26.96875 L 15.40625 32.71875 C 17.11309 32.373547 19.627626 32.16903 22.71875 33.09375 L 22.625 27.46875 C 20.839567 26.781713 19.286435 26.535661 18.03125 26.53125 z M 25.75 28.625 L 25.84375 34.21875 C 27.919643 35.032269 29.674343 35.637128 30.96875 35.8125 C 32.202117 35.979601 33.022031 35.810704 33.78125 35.46875 L 33.71875 29.96875 C 32.669243 30.183808 31.56382 30.189371 30.40625 30 C 29.017065 29.772738 27.429662 29.257252 25.75 28.625 z "
       id="rect3203" />
  </g>
</svg>
