<?xml version="1.0" encoding="UTF-8" standalone="no"?>
<!-- Created with Inkscape (http://www.inkscape.org/) -->
<svg
   xmlns:dc="http://purl.org/dc/elements/1.1/"
   xmlns:cc="http://creativecommons.org/ns#"
   xmlns:rdf="http://www.w3.org/1999/02/22-rdf-syntax-ns#"
   xmlns:svg="http://www.w3.org/2000/svg"
   xmlns="http://www.w3.org/2000/svg"
   xmlns:xlink="http://www.w3.org/1999/xlink"
   xmlns:sodipodi="http://sodipodi.sourceforge.net/DTD/sodipodi-0.dtd"
   xmlns:inkscape="http://www.inkscape.org/namespaces/inkscape"
   width="48"
   height="48"
   id="svg2"
   sodipodi:version="0.32"
   inkscape:version="0.46"
   version="1.0"
   sodipodi:docname="applications-accessories.svg"
   inkscape:output_extension="org.inkscape.output.svg.inkscape">
      
  
  <filter>
    </filter>
  <linearGradient
     id="linearGradient4321">
    <stop
       style="stop-color:#969487;stop-opacity:1.0;"
       offset="0"
       id="stop1" />
    <stop
       style="stop-color:#969487;stop-opacity:1.0;"
       offset="1"
       id="stop2" />
  </linearGradient>
  <linearGradient
     inkscape:collect="always"
     xlink:href="#linearGradient4321"
     id="linearGradient1234"
     x1="0%"
     y1="50%"
     x2="100%"
     y2="50%" />
<defs
     id="defs4">
  </defs>
  <g
     inkscape:label="Layer 1"
     inkscape:groupmode="layer"
     id="layer1">
    <path
       style="opacity:1;fill:url(#linearGradient1234);filter:url(#filter1111);fill-opacity:1;fill-rule:nonzero;stroke:none;stroke-width:2;stroke-linecap:round;stroke-linejoin:round;stroke-miterlimit:4;stroke-dasharray:none;stroke-dashoffset:0;stroke-opacity:1"
       d="M 10.5625 7.4375 C 8.0656795 7.4375 6.03125 8.8312773 6.03125 10.5625 L 39.71875 10.5625 C 39.718751 8.8312775 37.684319 7.4375 35.1875 7.4375 L 10.5625 7.4375 z M 6.78125 11.375 C 3.2933645 11.375 0.5 13.787868 0.5 16.78125 L 0.5 35.75 C 0.5 38.743382 3.2933645 41.156249 6.78125 41.15625 L 41.21875 41.15625 C 44.706635 41.15625 47.5 38.743382 47.5 35.75 L 47.5 16.78125 C 47.5 13.787868 44.706635 11.375 41.21875 11.375 L 6.78125 11.375 z M 22.3125 14.25 C 22.323233 14.249599 22.364069 14.250068 22.375 14.25 C 22.377196 14.249987 22.404051 14.25 22.40625 14.25 L 25.15625 14.25 C 25.720126 14.25 26.03193 14.786028 26.15625 15.25 L 26.625 17.1875 C 27.163106 17.356716 27.695177 17.555031 28.1875 17.8125 L 29.84375 16.8125 C 30.357708 16.515769 30.913779 16.413783 31.3125 16.8125 L 33.28125 18.75 C 33.679971 19.14872 33.521423 19.771514 33.28125 20.1875 L 32.21875 21.875 C 32.476332 22.367532 32.674501 22.899146 32.84375 23.4375 L 34.78125 23.875 C 35.354492 24.028597 35.781251 24.342378 35.78125 24.90625 L 35.78125 27.6875 C 35.781251 28.251371 35.245227 28.563179 34.78125 28.6875 L 32.84375 29.15625 C 32.67576 29.690453 32.473754 30.198387 32.21875 30.6875 L 33.28125 32.34375 C 33.521423 32.759734 33.679971 33.413781 33.28125 33.8125 L 31.3125 35.75 C 30.91378 36.14872 30.357711 36.046733 29.84375 35.75 L 28.1875 34.71875 C 27.690207 34.980053 27.169168 35.203896 26.625 35.375 L 26.15625 37.3125 C 26.031929 37.776473 25.720128 38.3125 25.15625 38.3125 L 22.40625 38.3125 C 21.842375 38.312502 21.49735 37.885736 21.34375 37.3125 L 20.9375 35.375 C 20.399316 35.205778 19.836138 35.007506 19.34375 34.75 L 17.6875 35.75 C 17.271513 35.990172 16.617471 36.148718 16.21875 35.75 L 14.28125 33.8125 C 13.88253 33.413782 13.984516 32.888954 14.28125 32.375 L 15.34375 30.6875 C 15.086242 30.195116 14.856726 29.69443 14.6875 29.15625 L 12.71875 28.6875 C 12.254776 28.563179 11.71875 28.251372 11.71875 27.6875 L 11.71875 24.90625 C 11.71875 24.342378 12.145504 24.028597 12.71875 23.875 L 14.6875 23.4375 C 14.857916 22.895389 15.083795 22.370617 15.34375 21.875 L 14.28125 20.1875 C 13.984516 19.673546 13.88253 19.117468 14.28125 18.71875 L 16.21875 16.78125 C 16.61747 16.382533 17.271513 16.541081 17.6875 16.78125 L 19.40625 17.8125 C 19.893474 17.558946 20.40559 17.354767 20.9375 17.1875 L 21.34375 15.25 C 21.493761 14.690151 21.773735 14.270138 22.3125 14.25 z M 23.75 20.25 C 20.42777 20.25 17.749999 22.959021 17.75 26.28125 C 17.75 29.60348 20.42777 32.3125 23.75 32.3125 C 27.072228 32.312499 29.781249 29.603479 29.78125 26.28125 C 29.781249 22.959022 27.072227 20.25 23.75 20.25 z "
       id="rect3203" />
  </g>
</svg>
