<?xml version="1.0" encoding="UTF-8" standalone="no"?>
<!-- Created with Inkscape (http://www.inkscape.org/) -->

<svg
   xmlns:dc="http://purl.org/dc/elements/1.1/"
   xmlns:cc="http://creativecommons.org/ns#"
   xmlns:rdf="http://www.w3.org/1999/02/22-rdf-syntax-ns#"
   xmlns:svg="http://www.w3.org/2000/svg"
   xmlns="http://www.w3.org/2000/svg"
   xmlns:xlink="http://www.w3.org/1999/xlink"
   xmlns:sodipodi="http://sodipodi.sourceforge.net/DTD/sodipodi-0.dtd"
   xmlns:inkscape="http://www.inkscape.org/namespaces/inkscape"
   version="1.0"
   width="48"
   height="48"
   id="svg2"
   inkscape:version="0.47pre4 r22446"
   sodipodi:docname="applets-screenshooter.svg">
    
  
  
  
  
  <filter>
    </filter>
  <linearGradient
     id="linearGradient4321">
    <stop
       style="stop-color:#1577D3;stop-opacity:1.0;"
       offset="0"
       id="stop1" />
    <stop
       style="stop-color:#1577D3;stop-opacity:1.0;"
       offset="1"
       id="stop2" />
  </linearGradient>
  <linearGradient
     inkscape:collect="always"
     xlink:href="#linearGradient4321"
     id="linearGradient1234"
     x1="0%"
     y1="50%"
     x2="100%"
     y2="50%" />
<defs
     id="defs5">
  </defs>
  <path
     d="m 35.540508,5.6029216 c -2.742085,0 -4.937583,2.1954973 -4.937583,4.9375834 -10e-7,0.189526 0.03789,0.371245 0.05843,0.555113 l -18.756973,0 c 0,-1.8280575 -1.473403,-3.3014613 -3.3014604,-3.3014613 -1.8280572,2e-7 -3.3014608,1.4734037 -3.3014608,3.3014613 L 2,11.095618 2,43 l 44,0 0,-31.904382 -2.278884,0 c 0.02054,-0.183868 0.08765,-0.365587 0.08765,-0.555113 -10e-7,-2.7420863 -2.224714,-4.9375834 -4.9668,-4.9375834 l -3.30146,0 z M 24.000003,14.397078 c 7.259434,0 13.14741,5.920013 13.14741,13.205844 10e-7,7.28583 -5.887977,13.205843 -13.14741,13.205843 -7.259432,-1e-6 -13.14741,-5.920013 -13.14741,-13.205843 0,-7.285832 5.887977,-13.205844 13.14741,-13.205844 z m 0,3.301461 c -5.464373,0 -9.904383,4.440009 -9.904382,9.904383 0,5.464373 4.440008,9.904382 9.904382,9.904382 5.464373,0 9.904384,-4.44001 9.904382,-9.904382 0,-5.464374 -4.440009,-9.904383 -9.904382,-9.904383 z"
     id="rect3137"
     style="fill:url(#linearGradient1234);fill-opacity:1;fill-rule:nonzero;stroke:none;stroke-width:2.79999995000000013;marker:none;visibility:visible;display:inline;overflow:visible;enable-background:accumulate;filter:url(#filter1111)" />
</svg>
