<?xml version="1.0" encoding="UTF-8" standalone="no"?>
<!-- Created with Inkscape (http://www.inkscape.org/) -->
<svg
   xmlns:svg="http://www.w3.org/2000/svg"
   xmlns="http://www.w3.org/2000/svg"
   xmlns:xlink="http://www.w3.org/1999/xlink"
   version="1.0"
   width="48"
   height="48"
   id="svg2">
        
  
  
  
  
  <filter>
    </filter>
  <linearGradient
     id="linearGradient4321">
    <stop
       style="stop-color:#1577D3;stop-opacity:1.0;"
       offset="0"
       id="stop1" />
    <stop
       style="stop-color:#1577D3;stop-opacity:1.0;"
       offset="1"
       id="stop2" />
  </linearGradient>
  <linearGradient
     inkscape:collect="always"
     xlink:href="#linearGradient4321"
     id="linearGradient1234"
     x1="0%"
     y1="50%"
     x2="100%"
     y2="50%" />
<defs
     id="defs4" />
  <g
     id="layer1">
    <path
       d="M 23.709025,1 C 13.297169,23.140082 10.022413,24.617912 10.000031,34.430568 C 9.9816421,42.554953 18.145489,47.354167 25.19678,46.97957 C 32.248072,46.604973 39.845103,42.974658 37.598376,31.864547 C 35.992891,23.9254 30.609007,18.73104 23.709025,1 z M 11.297639,33.691088 C 11.29089,36.558996 13.571232,43.073403 19.595737,44.791663 C 25.656261,46.520197 30.076393,45.547048 32.786515,43.199626 C 25.653554,44.648819 21.190987,43.315741 19.429915,42.558311 C 17.632207,41.785123 13.811061,39.752343 11.297639,33.691088 z"
       id="path3190"
       style="fill:url(#linearGradient1234);filter:url(#filter1111);fill-opacity:1;fill-rule:evenodd;stroke:none;stroke-width:1px;stroke-linecap:butt;stroke-linejoin:miter;stroke-opacity:1" />
    <g
       transform="matrix(1.0450865,0,0,1.0968734,-1.095137,-1.0820758)"
       id="g2213" />
  </g>
</svg>
