<?xml version="1.0" encoding="UTF-8" standalone="no"?>
<!-- Created with Inkscape (http://www.inkscape.org/) -->

<svg
   xmlns:dc="http://purl.org/dc/elements/1.1/"
   xmlns:cc="http://creativecommons.org/ns#"
   xmlns:rdf="http://www.w3.org/1999/02/22-rdf-syntax-ns#"
   xmlns:svg="http://www.w3.org/2000/svg"
   xmlns="http://www.w3.org/2000/svg"
   xmlns:xlink="http://www.w3.org/1999/xlink"
   xmlns:sodipodi="http://sodipodi.sourceforge.net/DTD/sodipodi-0.dtd"
   xmlns:inkscape="http://www.inkscape.org/namespaces/inkscape"
   version="1.0"
   width="48"
   height="48"
   id="svg2"
   inkscape:version="0.47pre4 r22446"
   sodipodi:docname="display-capplet.svg">
    
  
  
  
  
  <filter>
    </filter>
  <linearGradient
     id="linearGradient4321">
    <stop
       style="stop-color:#1577D3;stop-opacity:1.0;"
       offset="0"
       id="stop1" />
    <stop
       style="stop-color:#1577D3;stop-opacity:1.0;"
       offset="1"
       id="stop2" />
  </linearGradient>
  <linearGradient
     inkscape:collect="always"
     xlink:href="#linearGradient4321"
     id="linearGradient1234"
     x1="0%"
     y1="50%"
     x2="100%"
     y2="50%" />
<defs
     id="defs4">
  </defs>
  <path
     style="fill:url(#linearGradient1234);fill-opacity:1;fill-rule:nonzero;stroke:none;filter:url(#filter1111)"
     id="rect5527"
     d="M 5.609375,8.0220125 C 3.6047734,8.0220125 2,9.5993402 2,11.54545 l 0,24.119791 c 0,1.94611 1.6047734,3.523438 3.609375,3.523438 l 36.78125,0 C 44.395226,39.188679 46,37.611352 46,35.665241 L 46,11.54545 C 46,9.5993402 44.395226,8.0220125 42.390625,8.0220125 l -36.78125,0 z m -0.1432292,3.6093745 37.0677082,0 0,23.947917 -37.0677082,0 0,-23.947917 z m 2.3203125,2.377604 0,19.192709 32.4270837,0 0,-19.192709 -32.4270837,0 z" />
</svg>
