<?xml version="1.0" encoding="UTF-8" standalone="no"?>
<!-- Created with Inkscape (http://www.inkscape.org/) -->

<svg
   xmlns:dc="http://purl.org/dc/elements/1.1/"
   xmlns:cc="http://creativecommons.org/ns#"
   xmlns:rdf="http://www.w3.org/1999/02/22-rdf-syntax-ns#"
   xmlns:svg="http://www.w3.org/2000/svg"
   xmlns="http://www.w3.org/2000/svg"
   xmlns:xlink="http://www.w3.org/1999/xlink"
   xmlns:sodipodi="http://sodipodi.sourceforge.net/DTD/sodipodi-0.dtd"
   xmlns:inkscape="http://www.inkscape.org/namespaces/inkscape"
   version="1.0"
   width="48"
   height="48"
   viewBox="0 0 48 48"
   id="svg2"
   xml:space="preserve"
   inkscape:version="0.47pre4 r22446"
   sodipodi:docname="gnome-power-manager.svg">
        
  
  
  
  
  <filter>
    </filter>
  <linearGradient
   id="linearGradient4321">
    <stop
       style="stop-color:#1577D3;stop-opacity:1.0;"
       offset="0"
       id="stop1" />
    <stop
       style="stop-color:#1577D3;stop-opacity:1.0;"
       offset="1"
       id="stop2" />
  </linearGradient>
  <linearGradient
     inkscape:collect="always"
     xlink:href="#linearGradient4321"
     id="linearGradient1234"
     x1="0%"
     y1="50%"
     x2="100%"
     y2="50%" />
<defs
   id="defs31">
</defs>
	<path
   style="fill:url(#linearGradient1234);fill-opacity:1;fill-rule:nonzero;stroke:none;filter:url(#filter1111)"
   id="path13"
   d="m 24.625,9.03125 c -9.023126,10e-8 -10.75,12.59375 -10.75,12.59375 l -10.71875,0 0,4.75 10.5625,0 c 0,0 1.695623,12.59375 10.71875,12.59375 9.023126,0 9.03125,0 9.03125,0 l 0,-4.59375 8.53125,0 c 1.105122,0 2,-0.894878 2,-2 0,-1.105122 -0.894878,-2 -2,-2 l -8.53125,0 0,-12.75 8.53125,0 c 1.105122,0 2,-0.894878 2,-2 0,-1.105122 -0.894878,-2 -2,-2 l -8.53125,0 0,-4.59375 c -0.0027,10e-8 0.02273,0 -8.84375,0 z" />
</svg>
