<?xml version="1.0" encoding="UTF-8" standalone="no"?>
<!-- Created with Inkscape (http://www.inkscape.org/) -->

<svg
   xmlns:dc="http://purl.org/dc/elements/1.1/"
   xmlns:cc="http://creativecommons.org/ns#"
   xmlns:rdf="http://www.w3.org/1999/02/22-rdf-syntax-ns#"
   xmlns:svg="http://www.w3.org/2000/svg"
   xmlns="http://www.w3.org/2000/svg"
   xmlns:xlink="http://www.w3.org/1999/xlink"
   xmlns:sodipodi="http://sodipodi.sourceforge.net/DTD/sodipodi-0.dtd"
   xmlns:inkscape="http://www.inkscape.org/namespaces/inkscape"
   version="1.0"
   width="48"
   height="48"
   id="svg1307"
   inkscape:version="0.47pre4 r22446"
   sodipodi:docname="gnome-glchess.svg">
    
  
  
  
  
  <filter>
    </filter>
  <linearGradient
     id="linearGradient4321">
    <stop
       style="stop-color:#1577D3;stop-opacity:1.0;"
       offset="0"
       id="stop1" />
    <stop
       style="stop-color:#1577D3;stop-opacity:1.0;"
       offset="1"
       id="stop2" />
  </linearGradient>
  <linearGradient
     inkscape:collect="always"
     xlink:href="#linearGradient4321"
     id="linearGradient1234"
     x1="0%"
     y1="50%"
     x2="100%"
     y2="50%" />
<defs
     id="defs1309">
  </defs>
  <path
     style="fill:url(#linearGradient1234);fill-opacity:1;fill-rule:evenodd;stroke:none;filter:url(#filter1111)"
     id="path3296"
     d="m 22.375965,2.6168451 0,3.3515446 -3.117177,0 0,3.1691196 3.117177,0 0,3.2266947 c 0,0 -3.469197,0.201303 -3.469197,6.875814 C 14.947313,15.846202 6.2334259,9.9798173 3.0658617,16.541197 c -3.16756487,6.56138 1.0254055,14.456314 8.6049373,20.338941 0,4.072575 0.230461,8.600726 0.117339,8.487596 l 24.445843,0 0,-8.018236 c -10e-7,0 14.361791,-13.559723 8.252916,-20.573621 -6.108875,-7.0138917 -15.058639,2.464141 -15.058639,2.464141 2e-6,0 -0.422726,-6.083923 -3.590292,-6.875814 10e-7,-2.036285 0,-3.2266947 0,-3.2266947 l 2.947716,0 0,-3.1691196 -2.947716,0 0,-3.3515446 -3.462001,0 z m 16.71329,12.8682919 c 0.554313,-0.02195 1.13414,0.0075 1.720987,0.07823 -4.411962,1.131278 -11.386812,6.349017 -14.667505,10.365037 0,0 4.631827,-10.113907 12.946518,-10.443264 z m -27.45757,1.368967 c 6.674511,2.036292 6.534937,4.107517 7.666216,7.275083 -3.733204,-4.864477 -7.666216,-7.275083 -7.666216,-7.275083 z" />
</svg>
