<?xml version="1.0" encoding="UTF-8" standalone="no"?>
<!-- Created with Inkscape (http://www.inkscape.org/) -->

<svg
   xmlns:dc="http://purl.org/dc/elements/1.1/"
   xmlns:cc="http://creativecommons.org/ns#"
   xmlns:rdf="http://www.w3.org/1999/02/22-rdf-syntax-ns#"
   xmlns:svg="http://www.w3.org/2000/svg"
   xmlns="http://www.w3.org/2000/svg"
   xmlns:xlink="http://www.w3.org/1999/xlink"
   xmlns:sodipodi="http://sodipodi.sourceforge.net/DTD/sodipodi-0.dtd"
   xmlns:inkscape="http://www.inkscape.org/namespaces/inkscape"
   version="1.0"
   width="48"
   height="48"
   id="svg1582"
   inkscape:version="0.47pre4 r22446"
   sodipodi:docname="gnome-robots.svg">
    
  
  
  
  
  <filter>
    </filter>
  <linearGradient
     id="linearGradient4321">
    <stop
       style="stop-color:#1577D3;stop-opacity:1.0;"
       offset="0"
       id="stop1" />
    <stop
       style="stop-color:#1577D3;stop-opacity:1.0;"
       offset="1"
       id="stop2" />
  </linearGradient>
  <linearGradient
     inkscape:collect="always"
     xlink:href="#linearGradient4321"
     id="linearGradient1234"
     x1="0%"
     y1="50%"
     x2="100%"
     y2="50%" />
<defs
     id="defs1584">
  </defs>
  <path
     d="M 24.016141,2 C 13.001427,2 3.8240845,9.85433 2,20.198125 l 3.8738078,0 c 0,2.538547 -10e-8,5.065885 0,7.60375 l -3.8415261,0 C 3.8724414,38.126508 13.015235,46 24.016141,46 35.018207,46 44.16119,38.128125 46,27.801875 l -3.809244,0 c 0,-2.537865 -10e-7,-5.065203 0,-7.60375 l 3.809244,0 C 44.17487,9.855573 35.029958,2 24.016141,2 z m 0,1.622555 c 9.77105,0 17.971959,5.735873 20.111519,14.730298 l 0.129127,0.63635 -0.645635,0 -39.1900221,0 -0.6456347,0 0.129127,-0.63635 C 6.0441825,9.358428 14.245091,3.622555 24.016141,3.622555 z m 0,1.01805 c -9.053734,0 -16.6229629,5.113427 -18.884813,13.330438 l 37.769626,0 C 40.639104,9.754032 33.069874,4.640605 24.016141,4.640605 z m -8.909758,16.16197 c 1.719306,0 3.131328,1.391599 3.131328,3.086039 0,1.69444 -1.412022,3.054227 -3.131328,3.054227 -1.719307,0 -3.099046,-1.359787 -3.099046,-3.054227 0,-1.69444 1.379739,-3.086039 3.099046,-3.086039 z m 9.071167,0 c 1.719307,-1.1e-5 3.131327,1.391599 3.131327,3.086039 0,1.69444 -1.41202,3.054227 -3.131327,3.054227 -1.719307,0 -3.099047,-1.359787 -3.099047,-3.054227 10e-7,-1.69444 1.37974,-3.086039 3.099047,-3.086039 z m 9.103448,0 c 1.719308,-1.1e-5 3.099046,1.391599 3.099046,3.086039 -10e-7,1.69444 -1.379739,3.054227 -3.099046,3.054227 -1.719306,0 -3.131328,-1.359787 -3.131328,-3.054227 1e-6,-1.69444 1.412021,-3.086039 3.131328,-3.086039 z m -29.5055028,8.144609 0.6456347,0 39.1900221,0 0.645635,0 -0.129127,0.63635 c -2.139623,8.994689 -10.341635,14.76211 -20.111519,14.76211 -9.769884,0 -17.9718951,-5.767421 -20.1115188,-14.76211 l -0.129127,-0.63635 z m 1.3558328,1.01805 c 2.2617389,8.21524 9.829942,13.362261 18.884813,13.362261 9.054871,0 16.623074,-5.147021 18.884813,-13.362261 l -37.769626,0 z"
     id="rect4902"
     style="fill:url(#linearGradient1234);fill-opacity:1;stroke:none;filter:url(#filter1111)" />
</svg>
