<?xml version="1.0" encoding="UTF-8" standalone="no"?>
<!-- Created with Inkscape (http://www.inkscape.org/) -->
<svg
   xmlns:svg="http://www.w3.org/2000/svg"
   xmlns="http://www.w3.org/2000/svg"
   xmlns:xlink="http://www.w3.org/1999/xlink"
   version="1.0"
   width="48"
   height="48"
   id="svg2383">
        
  
  
  
  
  <filter>
    </filter>
  <linearGradient
     id="linearGradient4321">
    <stop
       style="stop-color:#1577D3;stop-opacity:1.0;"
       offset="0"
       id="stop1" />
    <stop
       style="stop-color:#1577D3;stop-opacity:1.0;"
       offset="1"
       id="stop2" />
  </linearGradient>
  <linearGradient
     inkscape:collect="always"
     xlink:href="#linearGradient4321"
     id="linearGradient1234"
     x1="0%"
     y1="50%"
     x2="100%"
     y2="50%" />
<defs
     id="defs2385" />
  <g
     id="layer1">
    <path
       d="M 18.808125,10.333333 L 44,10.333333 L 44,37 L 18.808125,37 L 18.808125,10.333333 z M 40.879857,27.370932 C 40.879857,27.370932 15.356909,45.538987 4,21.476407 C 9.1768242,17.439061 20.552095,6.2880618 34.626839,21.532878 C 31.22166,24.958679 18.33873,38.033816 10.904088,22.160941 C 14.763291,19.420299 19.417038,15.48063 26.681423,21.418685 C 24.638316,23.417069 23.446497,24.559002 23.446497,24.559002 C 23.446497,24.559002 20.154826,16.508369 14.366021,22.617715 C 16.23887,27.071255 21.119627,32.495442 30.256853,21.761264 C 25.830125,16.451272 18.054965,11.426765 8.0664385,21.818361 C 10.336558,26.671579 16.919906,41.002848 36.329434,24.559002 C 39.394088,26.328999 40.86967,27.356739 40.879857,27.370932 z"
       id="rect3180"
       style="fill:url(#linearGradient1234);filter:url(#filter1111);fill-opacity:1;fill-rule:evenodd;stroke:none;stroke-width:2.0999999;stroke-linecap:butt;stroke-linejoin:miter;stroke-miterlimit:4;stroke-dashoffset:0;stroke-opacity:1" />
  </g>
</svg>
