<?xml version="1.0" encoding="UTF-8" standalone="no"?>
<!-- Created with Inkscape (http://www.inkscape.org/) -->

<svg
   xmlns:dc="http://purl.org/dc/elements/1.1/"
   xmlns:cc="http://creativecommons.org/ns#"
   xmlns:rdf="http://www.w3.org/1999/02/22-rdf-syntax-ns#"
   xmlns:svg="http://www.w3.org/2000/svg"
   xmlns="http://www.w3.org/2000/svg"
   xmlns:xlink="http://www.w3.org/1999/xlink"
   xmlns:sodipodi="http://sodipodi.sourceforge.net/DTD/sodipodi-0.dtd"
   xmlns:inkscape="http://www.inkscape.org/namespaces/inkscape"
   version="1.0"
   width="48"
   height="48"
   id="svg2"
   inkscape:version="0.47pre4 r22446"
   sodipodi:docname="gnome-spinner-rest.svg">
    
  
  
  
  
  <filter>
    </filter>
  <linearGradient
     id="linearGradient4321">
    <stop
       style="stop-color:#969487;stop-opacity:1.0;"
       offset="0"
       id="stop1" />
    <stop
       style="stop-color:#969487;stop-opacity:1.0;"
       offset="1"
       id="stop2" />
  </linearGradient>
  <linearGradient
     inkscape:collect="always"
     xlink:href="#linearGradient4321"
     id="linearGradient1234"
     x1="0%"
     y1="50%"
     x2="100%"
     y2="50%" />
<defs
     id="defs5">
  </defs>
  <path
     style="fill:url(#linearGradient1234);fill-opacity:1;fill-rule:nonzero;stroke:none;stroke-width:5;marker:none;visibility:visible;display:inline;overflow:visible;enable-background:accumulate;filter:url(#filter1111)"
     d="M 23.6875 2 A 4.5812446 4.5801257 0 0 0 19.40625 6.59375 A 4.5812446 4.5801257 0 0 0 28.59375 6.59375 A 4.5812446 4.5801257 0 0 0 23.6875 2 z M 10.84375 6.59375 A 4.5848248 4.5801259 0 0 0 6.5625 11.15625 A 4.5848248 4.5801259 0 0 0 15.75 11.15625 A 4.5848248 4.5801259 0 0 0 10.84375 6.59375 z M 36.5 6.59375 A 4.584825 4.5837068 0 0 0 32.25 11.15625 A 4.584825 4.5837068 0 0 0 41.4375 11.15625 A 4.584825 4.5837068 0 0 0 36.5 6.59375 z M 6.71875 19.40625 A 4.5812446 4.5801257 0 0 0 2 24 A 4.5812446 4.5801257 0 0 0 11.15625 24 A 4.5812446 4.5801257 0 0 0 6.71875 19.40625 z M 41.09375 19.4375 A 4.5812446 4.5801257 0 0 0 36.84375 24 A 4.5812446 4.5801257 0 0 0 46 24 A 4.5812446 4.5801257 0 0 0 41.09375 19.4375 z M 10.84375 32.25 A 4.5848286 4.5837065 0 0 0 6.5625 36.84375 A 4.5848286 4.5837065 0 0 0 15.75 36.84375 A 4.5848286 4.5837065 0 0 0 10.84375 32.25 z M 36.5 32.25 A 4.5848285 4.5837065 0 0 0 32.25 36.84375 A 4.5848285 4.5837065 0 0 0 41.4375 36.84375 A 4.5848285 4.5837065 0 0 0 36.5 32.25 z M 23.65625 36.84375 A 4.5812446 4.5801257 0 0 0 19.40625 41.40625 A 4.5812446 4.5801257 0 0 0 28.5625 41.40625 A 4.5812446 4.5801257 0 0 0 23.65625 36.84375 z "
     id="path2317" />
</svg>
