<?xml version="1.0" encoding="UTF-8" standalone="no"?>
<!-- Created with Inkscape (http://www.inkscape.org/) -->
<svg
   xmlns:svg="http://www.w3.org/2000/svg"
   xmlns="http://www.w3.org/2000/svg"
   xmlns:xlink="http://www.w3.org/1999/xlink"
   version="1.0"
   width="48"
   height="48"
   id="svg2">
        
  
  
  
  
  
  <filter>
    </filter>
  <linearGradient
     id="linearGradient4321">
    <stop
       style="stop-color:#1577D3;stop-opacity:1.0;"
       offset="0"
       id="stop1" />
    <stop
       style="stop-color:#1577D3;stop-opacity:1.0;"
       offset="1"
       id="stop2" />
  </linearGradient>
  <linearGradient
     inkscape:collect="always"
     xlink:href="#linearGradient4321"
     id="linearGradient1234"
     x1="0%"
     y1="50%"
     x2="100%"
     y2="50%" />
<defs
     id="defs4" />
  <g
     id="layer1">
    <path
       d="M 15.03125,5 L 15.03125,5.5 L 15.03125,20.09375 L 7.53125,20.09375 L 6.4375,20.09375 L 7.15625,20.90625 L 23.65625,39.84375 L 23.78125,40 L 7.53125,40 L 7.03125,40 L 7.03125,40.5 L 7.03125,44.5 L 7.03125,45 L 7.53125,45 L 40.53125,45 L 41.03125,45 L 41.03125,44.5 L 41.03125,40.5 L 41.03125,40 L 40.53125,40 L 24.28125,40 L 24.4375,39.84375 L 40.84375,20.90625 L 41.5625,20.09375 L 40.46875,20.09375 L 33.09375,20.09375 L 33.09375,5.5 L 33.09375,5 L 32.59375,5 L 15.53125,5 L 15.03125,5 z"
       id="path4348"
       style="opacity:1;fill:url(#linearGradient1234);filter:url(#filter1111);fill-opacity:1;fill-rule:nonzero;stroke:none;stroke-width:0.99999958;stroke-linecap:butt;stroke-linejoin:miter;marker:none;stroke-miterlimit:4;stroke-dasharray:none;stroke-dashoffset:0;stroke-opacity:1;visibility:visible;display:inline;overflow:visible" />
  </g>
</svg>
