<?xml version="1.0" encoding="UTF-8" standalone="no"?>
<!-- Created with Inkscape (http://www.inkscape.org/) -->

<svg
   xmlns:dc="http://purl.org/dc/elements/1.1/"
   xmlns:cc="http://creativecommons.org/ns#"
   xmlns:rdf="http://www.w3.org/1999/02/22-rdf-syntax-ns#"
   xmlns:svg="http://www.w3.org/2000/svg"
   xmlns="http://www.w3.org/2000/svg"
   xmlns:xlink="http://www.w3.org/1999/xlink"
   xmlns:sodipodi="http://sodipodi.sourceforge.net/DTD/sodipodi-0.dtd"
   xmlns:inkscape="http://www.inkscape.org/namespaces/inkscape"
   version="1.0"
   width="48"
   height="48"
   viewBox="0 0 48 48"
   id="svg2"
   xml:space="preserve"
   inkscape:version="0.47pre4 r22446"
   sodipodi:docname="document-print.svg">
        
  
  
  
  
  
  <filter>
    </filter>
  <linearGradient
   id="linearGradient4321">
    <stop
       style="stop-color:#1577D3;stop-opacity:1.0;"
       offset="0"
       id="stop1" />
    <stop
       style="stop-color:#1577D3;stop-opacity:1.0;"
       offset="1"
       id="stop2" />
  </linearGradient>
  <linearGradient
     inkscape:collect="always"
     xlink:href="#linearGradient4321"
     id="linearGradient1234"
     x1="0%"
     y1="50%"
     x2="100%"
     y2="50%" />
<defs
   id="defs29">
</defs>
	<path
   style="fill:url(#linearGradient1234);fill-rule:nonzero;stroke:none;filter:url(#filter1111)"
   id="path13"
   d="m 10.793829,2.7989439 c -3.2996971,1e-7 -4.3814868,2.2119014 -4.3814868,4.4123422 l 0,17.5876579 -3.3015428,0 C 2.6708399,24.798944 2,25.469655 2,25.909743 l 0,15.396915 c 0,0.440088 0.6708399,1.110798 1.1107994,1.110799 l 2.1907434,0 0,2.190744 c 0,0.440087 0.6708398,1.110798 1.1107994,1.110799 l 35.1753158,0 c 0.439959,0 1.1108,-0.67071 1.110799,-1.110799 l 0,-2.190744 2.190744,0 C 45.329159,42.417457 46,41.746744 46,41.306658 l 0,-15.396915 c -10e-7,-0.440088 -0.67084,-1.1108 -1.110799,-1.110799 l -3.301543,0 0,-17.5876579 c 0,-2.2004408 -1.081791,-4.4123422 -4.381487,-4.4123422 l -26.412342,0 z m 1.110799,4.4123422 24.190744,0 c 1.099899,0 1.110799,1.1107995 1.110799,1.1107995 l 0,16.4768584 0,3.301543 -26.412342,0 0,-3.301543 0,-16.4768584 c 0,-2e-7 0.0109,-1.1107995 1.110799,-1.1107995 z m 3.887798,4.6283309 0,3.949509 15.921459,0 0,-3.949509 -15.921459,0 z m 0.06171,7.68303 0,3.949509 15.859748,0 0,-3.949509 -15.859748,0 z" />	
</svg>
