<?xml version="1.0" encoding="UTF-8" standalone="no"?>
<!-- Created with Inkscape (http://www.inkscape.org/) -->

<svg
   xmlns:dc="http://purl.org/dc/elements/1.1/"
   xmlns:cc="http://creativecommons.org/ns#"
   xmlns:rdf="http://www.w3.org/1999/02/22-rdf-syntax-ns#"
   xmlns:svg="http://www.w3.org/2000/svg"
   xmlns="http://www.w3.org/2000/svg"
   xmlns:xlink="http://www.w3.org/1999/xlink"
   xmlns:sodipodi="http://sodipodi.sourceforge.net/DTD/sodipodi-0.dtd"
   xmlns:inkscape="http://www.inkscape.org/namespaces/inkscape"
   version="1.0"
   width="48"
   height="48"
   id="svg2169"
   inkscape:version="0.47pre4 r22446"
   sodipodi:docname="gtk-refresh.svg">
    
  
  
  
  
  
  <filter>
    </filter>
  <linearGradient
     id="linearGradient4321">
    <stop
       style="stop-color:#1577D3;stop-opacity:1.0;"
       offset="0"
       id="stop1" />
    <stop
       style="stop-color:#1577D3;stop-opacity:1.0;"
       offset="1"
       id="stop2" />
  </linearGradient>
  <linearGradient
     inkscape:collect="always"
     xlink:href="#linearGradient4321"
     id="linearGradient1234"
     x1="0%"
     y1="50%"
     x2="100%"
     y2="50%" />
<defs
     id="defs2171">
  </defs>
  <path
     d="M 23.092132,4.6055815 C 22.061571,4.6007135 21.040105,4.71596 20.049627,4.9136833 13.710571,6.1791122 8.470137,10.844642 8.470137,10.844642 c -0.048867,0.02752 -0.088207,0.0794 -0.1155382,0.128376 -0.01338,0.05104 -0.013581,0.103064 0,0.15405 0.010369,0.05833 0.036414,0.110915 0.077026,0.154051 L 16.06998,18.8938 c 0.06354,0.05751 0.158613,0.08525 0.243914,0.07703 0.04115,-0.005 0.07972,-0.01766 0.115538,-0.03851 0.04887,-0.02752 0.08821,-0.06656 0.115538,-0.115538 2.378775,-3.769184 4.590012,-5.478757 6.521487,-6.007984 1.931474,-0.529227 3.628686,0.07161 5.096516,1.193894 2.793762,2.13608 4.480459,5.843173 4.647202,6.213385 l -5.28908,3.132368 c -0.07718,0.03986 -0.13244,0.108434 -0.154051,0.192563 -0.0075,0.03857 -0.0076,0.077 0,0.115539 0.01101,0.0985 0.06717,0.183369 0.154051,0.231076 l 12.824735,5.930959 c 0.05104,0.01338 0.103062,0.01358 0.154051,0 0.0985,-0.01101 0.18337,-0.06717 0.231076,-0.154051 l 5.263405,-12.773385 c 0.0033,-0.02584 0.0033,-0.05119 0,-0.07703 0.0074,-0.03857 0.0076,-0.08984 0,-0.128375 -0.005,-0.04115 -0.01766,-0.07972 -0.03849,-0.115539 -0.01179,-0.01409 -0.02436,-0.02677 -0.03849,-0.03851 -0.06354,-0.05751 -0.145778,-0.08525 -0.231077,-0.07703 -0.04115,0.005 -0.07972,0.01766 -0.115538,0.03851 0,0 -1.81573,0.849876 -7.818082,2.59319 C 35.744548,12.562353 32.979731,8.6653207 29.870371,6.6082429 28.288514,5.5617239 26.610661,4.9841145 24.95358,4.7467948 24.332174,4.6577998 23.710469,4.6085015 23.092132,4.6055815 z M 7.3789433,20.036344 c -0.029631,0.0096 -0.064494,0.02045 -0.089863,0.03851 -0.015126,0.0125 -0.02607,0.02334 -0.038513,0.03851 -0.01796,0.02544 -0.029052,0.0602 -0.038513,0.08986 L 2.038513,32.758379 C 2.020554,32.783819 2.00946,32.805739 2,32.835399 c 0.00471,0.04405 0.015697,0.0904 0.038513,0.128376 0.00958,0.02963 0.033291,0.05166 0.05135,0.07702 0.012505,0.01513 0.023338,0.02607 0.038513,0.03851 0.012505,0.01513 0.023338,0.03891 0.038513,0.05135 0.090759,0.04905 0.2046983,0.04941 0.2952642,0 0,-10e-7 1.759618,-0.837261 7.6768688,-2.554677 1.969853,6.389505 4.704652,10.217349 7.753894,12.234207 1.552834,1.027092 3.148852,1.590093 4.775577,1.822936 1.626725,0.232842 3.258542,0.130836 4.81409,-0.179726 6.22219,-1.242259 11.412602,-5.789746 11.412602,-5.789746 0.01513,-0.01251 0.02607,-0.02334 0.03851,-0.03851 0.01796,-0.02544 0.04189,-0.06019 0.05135,-0.08986 0.0085,-0.04111 0.0087,-0.0873 0,-0.128375 -0.0098,-0.06266 -0.04546,-0.108756 -0.08986,-0.154051 L 31.41088,30.781385 c -0.01251,-0.01513 -0.03618,-0.02607 -0.05135,-0.03851 -0.05033,-0.02935 -0.108681,-0.04095 -0.166888,-0.03851 -0.02757,-0.0037 -0.04947,-0.0039 -0.07703,0 -0.02963,0.0096 -0.06449,0.02045 -0.08986,0.03851 -0.03277,0.0221 -0.05505,0.057 -0.07702,0.08986 -2.333931,3.697286 -4.538322,5.386495 -6.431624,5.905283 -1.893302,0.518788 -3.541661,-0.09363 -4.980979,-1.193894 -2.726716,-2.084398 -4.366883,-5.666062 -4.5445,-6.059334 l 5.186379,-3.081018 c 0.03277,-0.0221 0.06789,-0.04416 0.08986,-0.07703 0.01796,-0.02544 0.02905,-0.0602 0.03851,-0.08986 0.0085,-0.04111 0.0087,-0.0873 0,-0.128376 0.0037,-0.02757 0.0039,-0.04947 0,-0.07703 -0.03109,-0.07531 -0.09146,-0.136101 -0.166889,-0.166889 L 7.5843445,20.074857 c -0.025441,-0.01796 -0.047357,-0.02905 -0.077025,-0.03851 -0.041108,-0.0085 -0.087302,-0.0087 -0.1283757,0 z"
     id="path2405"
     style="fill:url(#linearGradient1234);fill-opacity:1;fill-rule:evenodd;stroke:none;filter:url(#filter1111)" />
  <g
     id="g2475"
     transform="matrix(-1.3291088,0.00260756,-0.00260756,-1.3291088,56.109704,47.724677)" />
</svg>
