<?xml version="1.0" encoding="UTF-8" standalone="no"?>
<!-- Created with Inkscape (http://www.inkscape.org/) -->

<svg
   xmlns:dc="http://purl.org/dc/elements/1.1/"
   xmlns:cc="http://creativecommons.org/ns#"
   xmlns:rdf="http://www.w3.org/1999/02/22-rdf-syntax-ns#"
   xmlns:svg="http://www.w3.org/2000/svg"
   xmlns="http://www.w3.org/2000/svg"
   xmlns:xlink="http://www.w3.org/1999/xlink"
   xmlns:sodipodi="http://sodipodi.sourceforge.net/DTD/sodipodi-0.dtd"
   xmlns:inkscape="http://www.inkscape.org/namespaces/inkscape"
   version="1.0"
   width="48"
   height="48"
   id="svg2"
   inkscape:version="0.47pre4 r22446"
   sodipodi:docname="emblem-generic.svg">
        
  
  
  
  
  <filter>
    </filter>
  <linearGradient
     id="linearGradient4321">
    <stop
       style="stop-color:#1577D3;stop-opacity:1.0;"
       offset="0"
       id="stop1" />
    <stop
       style="stop-color:#1577D3;stop-opacity:1.0;"
       offset="1"
       id="stop2" />
  </linearGradient>
  <linearGradient
     inkscape:collect="always"
     xlink:href="#linearGradient4321"
     id="linearGradient1234"
     x1="0%"
     y1="50%"
     x2="100%"
     y2="50%" />
<defs
     id="defs4">
  </defs>
  <g
     id="layer1"
     transform="matrix(0.67207637,0,0,0.67207637,-18.540334,-20.17852)">
    <path
       d="m 63.3125,33 c -18.024019,-10e-7 -32.75,14.694731 -32.75,32.71875 1e-6,18.024023 14.725981,32.75 32.75,32.75 18.024019,3e-6 32.718753,-14.72598 32.71875,-32.75 C 96.031254,47.694734 81.336519,33 63.3125,33 z m 0,8.8125 c 13.265385,0 23.90625,10.640865 23.90625,23.90625 C 87.218752,78.984139 76.577885,89.6875 63.3125,89.6875 50.047115,89.687498 39.34375,78.984136 39.34375,65.71875 39.343751,52.453368 50.047115,41.8125 63.3125,41.8125 z m -2.75,8.90625 c -0.591147,0.06052 -1.038463,0.562057 -1.03125,1.15625 l 0,7.875 L 51.75,55.5 c -0.269074,-0.146471 -0.581564,-0.181781 -0.875,-0.09375 -0.293438,0.08803 -0.543487,0.292103 -0.6875,0.5625 L 48,60 c -0.144162,0.272906 -0.187817,0.581042 -0.09375,0.875 0.09407,0.293959 0.317934,0.548987 0.59375,0.6875 L 56.0625,65.5 48.5,69.4375 C 48.224184,69.576013 48.000317,69.831041 47.90625,70.125 47.812184,70.418958 47.855838,70.727094 48,71 l 2.1875,4.03125 c 0.144013,0.270397 0.394063,0.474469 0.6875,0.5625 0.293435,0.08803 0.605926,0.05272 0.875,-0.09375 l 7.78125,-4.34375 0,7.90625 c -0.0045,0.628293 0.49682,1.143526 1.125,1.15625 l 4.9375,0 c 0.62818,-0.01272 1.129488,-0.527957 1.125,-1.15625 l 0,-7.90625 7.8125,4.34375 c 0.269074,0.146471 0.581564,0.181781 0.875,0.09375 0.293434,-0.08803 0.543487,-0.292103 0.6875,-0.5625 L 78.28125,71 c 0.144162,-0.272906 0.187817,-0.581042 0.09375,-0.875 -0.09406,-0.293959 -0.317934,-0.548987 -0.59375,-0.6875 l -7.5,-3.9375 7.34375,-3.875 c 0.03168,-0.0091 0.06296,-0.01949 0.09375,-0.03125 l 0.0625,-0.03125 C 77.86003,61.51916 77.933452,61.46672 78,61.40625 c 0.02163,-0.02002 0.04248,-0.04087 0.0625,-0.0625 0.02115,-0.0098 0.04199,-0.0202 0.0625,-0.03125 0.03405,-0.03949 0.06537,-0.08125 0.09375,-0.125 0.01062,-0.01022 0.02103,-0.02063 0.03125,-0.03125 0.01176,-0.03079 0.02218,-0.06207 0.03125,-0.09375 0.02335,-0.04036 0.04422,-0.0821 0.0625,-0.125 0.01105,-0.02051 0.02147,-0.04135 0.03125,-0.0625 1.42e-4,-0.01042 1.42e-4,-0.02083 0,-0.03125 0.01176,-0.03079 0.02218,-0.06207 0.03125,-0.09375 1.42e-4,-0.01042 1.42e-4,-0.02083 0,-0.03125 5.67e-4,-0.02083 5.67e-4,-0.04167 0,-0.0625 1.42e-4,-0.01042 1.42e-4,-0.02083 0,-0.03125 0.0013,-0.03124 0.0013,-0.06251 0,-0.09375 1.42e-4,-0.01042 1.42e-4,-0.02083 0,-0.03125 0.0013,-0.03124 0.0013,-0.06251 0,-0.09375 1.42e-4,-0.01042 1.42e-4,-0.02083 0,-0.03125 5.67e-4,-0.02083 5.67e-4,-0.04167 0,-0.0625 -0.01698,-0.05354 -0.03787,-0.105765 -0.0625,-0.15625 5.67e-4,-0.02083 5.67e-4,-0.04167 0,-0.0625 C 78.33353,60.08313 78.32312,60.07272 78.3125,60.0625 78.3027,60.04135 78.2923,60.02051 78.28125,60 l 0,-0.03125 c -0.03542,-0.06645 -0.07729,-0.12925 -0.125,-0.1875 l -2.0625,-3.8125 c -0.144013,-0.270397 -0.394063,-0.474469 -0.6875,-0.5625 -0.293439,-0.08803 -0.605926,-0.05272 -0.875,0.09375 l -7.8125,4.28125 0,-7.90625 c 0.0045,-0.628293 -0.49682,-1.143526 -1.125,-1.15625 l -4.9375,0 c -0.03124,-0.0013 -0.06251,-0.0013 -0.09375,0 z"
       id="path1552"
       style="fill:url(#linearGradient1234);filter:url(#filter1111);fill-opacity:1;fill-rule:evenodd;stroke:none" />
  </g>
</svg>
