<?xml version="1.0" encoding="UTF-8" standalone="no"?>
<!-- Created with Inkscape (http://www.inkscape.org/) -->
<svg
   xmlns:svg="http://www.w3.org/2000/svg"
   xmlns="http://www.w3.org/2000/svg"
   xmlns:xlink="http://www.w3.org/1999/xlink"
   version="1.0"
   width="48"
   height="48"
   id="svg2">
        
  
  
  
  
  
  <filter>
    </filter>
  <linearGradient
     id="linearGradient4321">
    <stop
       style="stop-color:#969487;stop-opacity:1.0;"
       offset="0"
       id="stop1" />
    <stop
       style="stop-color:#969487;stop-opacity:1.0;"
       offset="1"
       id="stop2" />
  </linearGradient>
  <linearGradient
     inkscape:collect="always"
     xlink:href="#linearGradient4321"
     id="linearGradient1234"
     x1="0%"
     y1="50%"
     x2="100%"
     y2="50%" />
<defs
     id="defs4" />
  <g
     id="layer1">
    <path
       d="M 19,8.34375 L 19,9.4375 L 19,16.9375 L 4.5,16.9375 L 4,16.9375 L 4,17.4375 L 4,34.5 L 4,35 L 4.5,35 L 19,35 L 19,42.375 L 19,43.46875 L 19.84375,42.75 L 38.84375,26.3125 L 39,26.1875 L 39,42.5 L 39,43 L 39.5,43 L 43.5,43 L 44,43 L 44,42.5 L 44,9.5 L 44,9 L 43.5,9 L 39.5,9 L 39,9 L 39,9.5 L 39,25.6875 L 38.84375,25.5625 L 19.84375,9.0625 L 19,8.34375 z"
       id="path4348"
       style="opacity:1;fill:url(#linearGradient1234);filter:url(#filter1111);fill-opacity:1;fill-rule:nonzero;stroke:none;stroke-width:0.99999958;stroke-linecap:butt;stroke-linejoin:miter;marker:none;stroke-miterlimit:4;stroke-dasharray:none;stroke-dashoffset:0;stroke-opacity:1;visibility:visible;display:inline;overflow:visible" />
  </g>
</svg>
