<?xml version="1.0" encoding="UTF-8" standalone="no"?>
<!-- Created with Inkscape (http://www.inkscape.org/) -->

<svg
   xmlns:dc="http://purl.org/dc/elements/1.1/"
   xmlns:cc="http://creativecommons.org/ns#"
   xmlns:rdf="http://www.w3.org/1999/02/22-rdf-syntax-ns#"
   xmlns:svg="http://www.w3.org/2000/svg"
   xmlns="http://www.w3.org/2000/svg"
   xmlns:xlink="http://www.w3.org/1999/xlink"
   xmlns:sodipodi="http://sodipodi.sourceforge.net/DTD/sodipodi-0.dtd"
   xmlns:inkscape="http://www.inkscape.org/namespaces/inkscape"
   version="1.0"
   width="48"
   height="48"
   viewBox="0 0 48 48"
   id="svg2"
   xml:space="preserve"
   inkscape:version="0.47pre4 r22446"
   sodipodi:docname="go-jump.svg">
        
  
  
  
  
  
  <filter>
    </filter>
  <linearGradient
   id="linearGradient4321">
    <stop
       style="stop-color:#969487;stop-opacity:1.0;"
       offset="0"
       id="stop1" />
    <stop
       style="stop-color:#969487;stop-opacity:1.0;"
       offset="1"
       id="stop2" />
  </linearGradient>
  <linearGradient
     inkscape:collect="always"
     xlink:href="#linearGradient4321"
     id="linearGradient1234"
     x1="0%"
     y1="50%"
     x2="100%"
     y2="50%" />
<defs
   id="defs17">
</defs>
	<path
   d="M 23.870334,2 C 15.090389,2 7.5060095,7.0877419 3.9305828,14.460937 c 0.038115,-0.0041 0.1208971,-0.02865 0.1440734,-0.02865 l 12.0445318,-0.34375 0,-9.2812503 c 0,0 0.0081,-0.6027083 0.893255,0.057292 L 32.399476,20.361979 c 0.442594,0.439999 0.331945,0.672604 0,1.002604 L 17.012443,36.747396 c -0.110649,0.11 -0.893255,0.04812 -0.893255,-0.171875 l 0,-9.28125 -12.0445318,0.229166 C 3.8159344,27.523438 2.5463708,27.541665 2,27.4375 3.6593563,37.953175 12.829116,46 23.870334,46 36.08591,46 46,36.143999 46,24 46,11.856 36.085909,2 23.870334,2 z"
   id="path3073"
   style="fill:url(#linearGradient1234);fill-opacity:1;fill-rule:evenodd;stroke:none;filter:url(#filter1111)" />
	
</svg>
