<?xml version="1.0" encoding="UTF-8" standalone="no"?>
<!-- Created with Inkscape (http://www.inkscape.org/) -->
<svg
   xmlns:svg="http://www.w3.org/2000/svg"
   xmlns="http://www.w3.org/2000/svg"
   xmlns:xlink="http://www.w3.org/1999/xlink"
   version="1.0"
   width="48"
   height="48"
   id="svg1307">
        
  
  
  
  
  
  <filter>
    </filter>
  <linearGradient
     id="linearGradient4321">
    <stop
       style="stop-color:#969487;stop-opacity:1.0;"
       offset="0"
       id="stop1" />
    <stop
       style="stop-color:#969487;stop-opacity:1.0;"
       offset="1"
       id="stop2" />
  </linearGradient>
  <linearGradient
     inkscape:collect="always"
     xlink:href="#linearGradient4321"
     id="linearGradient1234"
     x1="0%"
     y1="50%"
     x2="100%"
     y2="50%" />
<defs
     id="defs1309" />
  <g
     id="layer1"
     style="display:inline">
    <path
       d="M 24,10 C 16.303778,10 10,16.263124 10,24 C 10,31.736876 16.303778,38 24,38 C 31.696222,38 38,31.736876 38,24 C 38.000001,16.263124 31.696222,10 24,10 z M 24,12 C 30.61459,12 36.000001,17.346154 36,24 C 36,30.653846 30.61459,36 24,36 C 17.38541,36 12,30.653846 12,24 C 12,17.346154 17.38541,12 24,12 z M 24,15 C 19.046256,15 15,19.018595 15,24 C 15,28.981402 19.046257,33 24,33 C 28.953742,33 33,28.981403 33,24 C 33.000001,19.018594 28.953743,15 24,15 z"
       id="path2525"
       style="fill:url(#linearGradient1234);filter:url(#filter1111);fill-opacity:1;fill-rule:evenodd;stroke:none;stroke-width:1.99999988;stroke-linecap:square;stroke-linejoin:round;marker:none;stroke-miterlimit:4;stroke-dasharray:none;stroke-dashoffset:0;stroke-opacity:1;visibility:visible;display:inline;overflow:visible" />
  </g>
</svg>
