<?xml version="1.0" encoding="UTF-8" standalone="no"?>
<!-- Created with Inkscape (http://www.inkscape.org/) -->

<svg
   xmlns:dc="http://purl.org/dc/elements/1.1/"
   xmlns:cc="http://creativecommons.org/ns#"
   xmlns:rdf="http://www.w3.org/1999/02/22-rdf-syntax-ns#"
   xmlns:svg="http://www.w3.org/2000/svg"
   xmlns="http://www.w3.org/2000/svg"
   xmlns:xlink="http://www.w3.org/1999/xlink"
   xmlns:sodipodi="http://sodipodi.sourceforge.net/DTD/sodipodi-0.dtd"
   xmlns:inkscape="http://www.inkscape.org/namespaces/inkscape"
   version="1.0"
   width="48"
   height="48"
   id="svg2160"
   inkscape:version="0.47pre4 r22446"
   sodipodi:docname="stock_new-tab.svg">
    
  
  
  
  
  
  <filter>
    </filter>
  <linearGradient
     id="linearGradient4321">
    <stop
       style="stop-color:#969487;stop-opacity:1.0;"
       offset="0"
       id="stop1" />
    <stop
       style="stop-color:#969487;stop-opacity:1.0;"
       offset="1"
       id="stop2" />
  </linearGradient>
  <linearGradient
     inkscape:collect="always"
     xlink:href="#linearGradient4321"
     id="linearGradient1234"
     x1="0%"
     y1="50%"
     x2="100%"
     y2="50%" />
<defs
     id="defs2162">
  </defs>
  <path
     style="fill:url(#linearGradient1234);fill-opacity:1;fill-rule:evenodd;stroke:none;filter:url(#filter1111)"
     id="path2168"
     d="M 17.125,3 C 14.429825,3 11.007443,3.4049533 8.03125,5.5625 5.0550571,7.7200467 3,11.682978 3,17.125 L 3,46 9,46 9,17.125 C 9,13.02574 10.155984,11.425883 11.5625,10.40625 12.969016,9.386617 15.101011,9 17.125,9 L 46,9 46,3 17.125,3 z m 11.3125,14.5 0,12.1875 -12.3125,0 0,4.625 12.375,0 0,11.15625 L 33.21875,45.5 33.1875,34.3125 45.5,34.28125 l 0,-4.59375 -12.34375,0 0,-12.15625 L 28.4375,17.5 z" />
</svg>
