<?xml version="1.0" encoding="UTF-8" standalone="no"?>
<!-- Created with Inkscape (http://www.inkscape.org/) -->

<svg
   xmlns:dc="http://purl.org/dc/elements/1.1/"
   xmlns:cc="http://creativecommons.org/ns#"
   xmlns:rdf="http://www.w3.org/1999/02/22-rdf-syntax-ns#"
   xmlns:svg="http://www.w3.org/2000/svg"
   xmlns="http://www.w3.org/2000/svg"
   xmlns:sodipodi="http://sodipodi.sourceforge.net/DTD/sodipodi-0.dtd"
   xmlns:inkscape="http://www.inkscape.org/namespaces/inkscape"
   id="svg2"
   version="1.1"
   inkscape:version="0.47 r22583"
   width="48"
   height="48"
   sodipodi:docname="avidemux.svg">
  
  
  
  
  
  <filter>
    </filter>
  <linearGradient
     id="linearGradient4321">
    <stop
       style="stop-color:#1577D3;stop-opacity:1.0;"
       offset="0"
       id="stop1" />
    <stop
       style="stop-color:#1577D3;stop-opacity:1.0;"
       offset="1"
       id="stop2" />
  </linearGradient>
  <linearGradient
     inkscape:collect="always"
     xlink:href="#linearGradient4321"
     id="linearGradient1234"
     x1="0%"
     y1="50%"
     x2="100%"
     y2="50%" />
<defs
     id="defs6">
  </defs>
  <path
     style="fill:url(#linearGradient1234);filter:url(#filter1111);fill-opacity:1;stroke:none;stroke-width:0.91245639;stroke-linejoin:miter;stroke-opacity:1"
     d="m 2.4562282,2.4562285 0,43.0875435 43.0875438,0 0,-43.0875435 -43.0875438,0 z m 31.6186118,0.9235106 3.679256,0 0,5.0793086 -3.679256,0 0,-5.0793086 z m 6.093769,0 3.679256,0 0,5.0793086 -3.679256,0 0,-5.0793086 z m -18.281306,0.057719 3.679256,0 0,5.0793086 -3.679256,0 0,-5.0793086 z m 6.151257,0 3.679256,0 0,5.0793086 -3.679256,0 0,-5.0793086 z m -23.9151686,0.057719 3.6792565,0 0,5.0793084 -3.6792565,0 0,-5.0793084 z m 5.9213036,0 3.679257,0 0,5.0793084 -3.679257,0 0,-5.0793084 z m 5.748838,0 3.679257,0 0,5.0793084 -3.679257,0 0,-5.0793084 z m -12.4462348,5.8585207 41.3054048,0 0,29.6100602 -41.3054048,0 0,-29.6100602 z M 26.026466,12.037652 9.9297182,23.119779 l 3.2193488,3.665183 -0.402418,8.253876 20.810794,0.259737 -0.229952,-9.8123 -17.562702,0 13.940933,-9.061949 -3.679256,-4.386674 z m 8.01963,27.647599 3.679256,0 0,5.079309 -3.679256,0 0,-5.079309 z m 6.093769,0 3.679256,0 0,5.079309 -3.679256,0 0,-5.079309 z m -18.281308,0.05772 3.679257,0 0,5.079308 -3.679257,0 0,-5.079308 z m 6.151259,0 3.679255,0 0,5.079308 -3.679255,0 0,-5.079308 z m -23.9151687,0.05771 3.6792564,0 0,5.079309 -3.6792564,0 0,-5.079309 z m 5.9213037,0 3.679257,0 0,5.079309 -3.679257,0 0,-5.079309 z m 5.748838,0 3.679258,0 0,5.079309 -3.679258,0 0,-5.079309 z"
     id="rect2818" />
</svg>
