<?xml version="1.0" encoding="UTF-8" standalone="no"?>
<!-- Created with Inkscape (http://www.inkscape.org/) -->

<svg
   xmlns:dc="http://purl.org/dc/elements/1.1/"
   xmlns:cc="http://creativecommons.org/ns#"
   xmlns:rdf="http://www.w3.org/1999/02/22-rdf-syntax-ns#"
   xmlns:svg="http://www.w3.org/2000/svg"
   xmlns="http://www.w3.org/2000/svg"
   xmlns:xlink="http://www.w3.org/1999/xlink"
   xmlns:sodipodi="http://sodipodi.sourceforge.net/DTD/sodipodi-0.dtd"
   xmlns:inkscape="http://www.inkscape.org/namespaces/inkscape"
   version="1.0"
   width="48"
   height="48"
   id="svg2"
   inkscape:version="0.47pre4 r22446"
   sodipodi:docname="gnome-panel-workspace-switcher.svg">
    
  
  
  
  
  <filter>
    </filter>
  <linearGradient
     id="linearGradient4321">
    <stop
       style="stop-color:#1577D3;stop-opacity:1.0;"
       offset="0"
       id="stop1" />
    <stop
       style="stop-color:#1577D3;stop-opacity:1.0;"
       offset="1"
       id="stop2" />
  </linearGradient>
  <linearGradient
     inkscape:collect="always"
     xlink:href="#linearGradient4321"
     id="linearGradient1234"
     x1="0%"
     y1="50%"
     x2="100%"
     y2="50%" />
<defs
     id="defs5">
  </defs>
  <path
     d="M 6.640625,4.5833333 C 4.0652736,4.5833333 2,6.6486069 2,9.223958 L 2,39.359375 C 2,41.934726 4.0652736,44 6.640625,44 l 34.71875,0 C 43.934726,44 46,41.934728 46,39.359375 L 46,9.223958 C 46,6.6486069 43.934728,4.5833333 41.359375,4.5833333 l -34.71875,0 z M 8.3880208,8.25 l 31.2239582,0 c 1.437406,0 2.606771,1.169365 2.606771,2.606771 l 0,26.869791 c 0,1.437406 -1.169365,2.606771 -2.606771,2.606771 l -31.2239582,0 c -1.4374054,0 -2.6067708,-1.169365 -2.6067708,-2.606771 l 0,-26.869791 C 5.78125,9.419365 6.9506154,8.25 8.3880208,8.25 z m 1.203125,3.666667 0,11 12.5755212,0 0,-11 -12.5755212,0 z m 16.0989582,0 0,11.286458 12.976563,0 0,-11.286458 -12.976563,0 z m -14.523437,1.575521 9.424479,0 0,7.848958 -9.424479,0 0,-7.848958 z m 0.773437,2.348958 0,4.726562 7.877604,0 0,-4.726562 -7.877604,0 z m -2.6067707,10.742187 0,11.057292 12.6901037,0 0,-11.057292 -12.6901037,0 z m 16.4999997,0 0,11.057292 12.690104,0 0,-11.057292 -12.690104,0 z"
     id="rect3151"
     style="fill:url(#linearGradient1234);fill-opacity:1;fill-rule:nonzero;stroke:none;stroke-width:4;marker:none;visibility:visible;display:inline;overflow:visible;enable-background:accumulate;filter:url(#filter1111)" />
</svg>
