<?xml version="1.0" encoding="UTF-8" standalone="no"?>
<!-- Created with Inkscape (http://www.inkscape.org/) -->
<svg
   xmlns:svg="http://www.w3.org/2000/svg"
   xmlns="http://www.w3.org/2000/svg"
   xmlns:xlink="http://www.w3.org/1999/xlink"
   version="1.0"
   width="48"
   height="48"
   id="svg2">
        
  
  
  
  
  <filter>
    </filter>
  <linearGradient
     id="linearGradient4321">
    <stop
       style="stop-color:#1577D3;stop-opacity:1.0;"
       offset="0"
       id="stop1" />
    <stop
       style="stop-color:#1577D3;stop-opacity:1.0;"
       offset="1"
       id="stop2" />
  </linearGradient>
  <linearGradient
     inkscape:collect="always"
     xlink:href="#linearGradient4321"
     id="linearGradient1234"
     x1="0%"
     y1="50%"
     x2="100%"
     y2="50%" />
<defs
     id="defs4" />
  <g
     id="layer1">
    <path
       d="M 24,4 C 12.96,4 4,12.96 4,24 C 4,35.04 12.96,44.000001 24,44 C 35.04,44 44.000001,35.040001 44,24 C 44,12.96 35.040001,3.9999998 24,4 z M 24.03125,9.40625 C 25.00831,9.4062788 25.851004,9.7449234 26.53125,10.4375 C 27.223844,11.117764 27.562489,11.966972 27.5625,12.96875 C 27.56249,13.945843 27.223845,14.776168 26.53125,15.46875 C 25.851003,16.149009 25.00831,16.500022 24.03125,16.5 C 23.02944,16.500023 22.1926,16.149009 21.5,15.46875 C 20.807392,14.788536 20.468747,13.95821 20.46875,12.96875 C 20.468746,11.966973 20.807391,11.117764 21.5,10.4375 C 22.192601,9.7449231 23.02944,9.4062789 24.03125,9.40625 z M 18.28125,18.5625 L 27.65625,18.5625 L 27.65625,36.03125 L 30.46875,36.03125 L 30.46875,38.28125 L 18.28125,38.28125 L 18.28125,36.03125 L 21.09375,36.03125 L 21.09375,20.8125 L 18.28125,20.8125 L 18.28125,18.5625 z"
       id="path2383"
       style="opacity:1;fill:url(#linearGradient1234);filter:url(#filter1111);fill-opacity:1;stroke:none;stroke-width:2.5;stroke-linecap:square;stroke-linejoin:miter;stroke-miterlimit:4;stroke-dasharray:none;stroke-opacity:1" />
  </g>
</svg>
