<?xml version="1.0" encoding="UTF-8" standalone="no"?>
<!-- Created with Inkscape (http://www.inkscape.org/) -->

<svg
   xmlns:dc="http://purl.org/dc/elements/1.1/"
   xmlns:cc="http://creativecommons.org/ns#"
   xmlns:rdf="http://www.w3.org/1999/02/22-rdf-syntax-ns#"
   xmlns:svg="http://www.w3.org/2000/svg"
   xmlns="http://www.w3.org/2000/svg"
   xmlns:xlink="http://www.w3.org/1999/xlink"
   xmlns:sodipodi="http://sodipodi.sourceforge.net/DTD/sodipodi-0.dtd"
   xmlns:inkscape="http://www.inkscape.org/namespaces/inkscape"
   version="1.0"
   width="48"
   height="48"
   id="svg2"
   inkscape:version="0.47pre4 r22446"
   sodipodi:docname="ooo-template.svg">
    
  
  
  
  
  <filter>
    </filter>
  <linearGradient
     id="linearGradient4321">
    <stop
       style="stop-color:#1577D3;stop-opacity:1.0;"
       offset="0"
       id="stop1" />
    <stop
       style="stop-color:#1577D3;stop-opacity:1.0;"
       offset="1"
       id="stop2" />
  </linearGradient>
  <linearGradient
     inkscape:collect="always"
     xlink:href="#linearGradient4321"
     id="linearGradient1234"
     x1="0%"
     y1="50%"
     x2="100%"
     y2="50%" />
<defs
     id="defs4">
  </defs>
  <path
     d="m 2.5433962,2 0,44 42.5704998,0 C 40.111808,38.186347 42.367031,29.350086 43.970297,20.640676 40.372292,20.850998 30.382506,24.523529 26.387451,30.847303 20.283049,27.830199 13.093976,28.718972 4.2016158,33.677713 6.4307165,28.361683 18.710367,24.353952 24.700641,25.987005 26.044269,23.252389 33.37279,18.408575 43.970297,20.583496 45.149071,14.169375 45.970415,7.8309866 43.284137,2 L 2.5433962,2 z M 34.707139,14.693957 c 1.520663,-0.0068 3.229349,0.0824 5.146199,0.2859 -2.814277,0.006 -11.528238,2.071455 -15.467187,5.860949 -4.819162,-2.114579 -11.227659,-1.332474 -18.2975956,1.343729 4.5474926,-4.580469 10.6909476,-5.273702 17.2683556,-4.488629 1.647992,-1.219861 4.760688,-2.972332 11.350228,-3.001949 z"
     id="path36"
     style="fill:url(#linearGradient1234);fill-opacity:1;stroke-width:1.25000000000000000;filter:url(#filter1111)" />
</svg>
