<?xml version="1.0" encoding="UTF-8" standalone="no"?>
<!-- Created with Inkscape (http://www.inkscape.org/) -->

<svg
   xmlns:dc="http://purl.org/dc/elements/1.1/"
   xmlns:cc="http://creativecommons.org/ns#"
   xmlns:rdf="http://www.w3.org/1999/02/22-rdf-syntax-ns#"
   xmlns:svg="http://www.w3.org/2000/svg"
   xmlns="http://www.w3.org/2000/svg"
   xmlns:xlink="http://www.w3.org/1999/xlink"
   xmlns:sodipodi="http://sodipodi.sourceforge.net/DTD/sodipodi-0.dtd"
   xmlns:inkscape="http://www.inkscape.org/namespaces/inkscape"
   version="1.0"
   width="48"
   height="48"
   viewBox="0 0 48 48"
   id="svg2"
   xml:space="preserve"
   inkscape:version="0.47pre4 r22446"
   sodipodi:docname="ooo-base.svg">
        
  
  
  
  
  <filter>
    </filter>
  <linearGradient
   id="linearGradient4321">
    <stop
       style="stop-color:#1577D3;stop-opacity:1.0;"
       offset="0"
       id="stop1" />
    <stop
       style="stop-color:#1577D3;stop-opacity:1.0;"
       offset="1"
       id="stop2" />
  </linearGradient>
  <linearGradient
     inkscape:collect="always"
     xlink:href="#linearGradient4321"
     id="linearGradient1234"
     x1="0%"
     y1="50%"
     x2="100%"
     y2="50%" />
<defs
   id="defs21">
</defs>
<path
   d="m 23.608283,1.9999957 c -3.936638,0 -7.78683,0.8394799 -10.813545,2.1512359 C 11.28138,4.8071096 9.9470872,5.5804129 8.9225138,6.5319326 7.8979404,7.4834523 7.0867925,8.701837 7.0867925,10.203375 l 0,26.35981 0,0.05737 0,0.08605 c 0.2272181,3.324691 2.6449924,5.760326 5.6218955,7.199469 2.976904,1.439143 6.661089,2.086986 10.383299,2.09387 3.722209,0.0069 7.493831,-0.623667 10.612763,-2.036503 3.118933,-1.412837 5.733932,-3.724472 6.396342,-7.027371 l 0.02868,-0.172099 0,-0.200782 0,-26.35981 c 0,-1.501538 -0.811148,-2.7199228 -1.835721,-3.6714424 C 37.269481,5.580413 35.935187,4.8071096 34.421829,4.1512316 31.395114,2.8394757 27.544922,1.9999957 23.608283,1.9999957 z m 0,3.6714426 c 3.406247,0 6.89894,0.7607132 9.379389,1.8357212 1.240224,0.537504 2.200582,1.1520975 2.782265,1.6923055 0.581683,0.540208 0.688395,0.914272 0.688395,1.00391 0,0.08964 -0.106712,0.435019 -0.688395,0.975227 -0.581683,0.540208 -1.542041,1.183485 -2.782265,1.720989 -2.480449,1.075007 -5.973142,1.835721 -9.379389,1.835721 -3.406246,0 -6.898939,-0.760714 -9.379388,-1.835721 -1.240224,-0.537504 -2.200582,-1.180781 -2.782265,-1.720989 -0.581683,-0.540208 -0.688395,-0.885589 -0.688395,-0.975227 0,-0.08964 0.106712,-0.463702 0.688395,-1.00391 0.581683,-0.540208 1.542041,-1.1548014 2.782265,-1.6923055 2.480449,-1.075008 5.973142,-1.8357212 9.379388,-1.8357212 z M 10.758235,15.222926 c 0.627488,0.373978 1.312839,0.718963 2.036503,1.032593 3.026715,1.311756 6.876907,2.151236 10.813545,2.151236 3.936639,0 7.786831,-0.83948 10.813546,-2.151236 0.723663,-0.31363 1.409015,-0.658615 2.036503,-1.032593 l 0,21.053428 c -0.381285,1.767378 -1.83006,3.224177 -4.273788,4.331155 -2.472161,1.119857 -5.81369,1.727053 -9.092557,1.720988 -3.278867,-0.0061 -6.501615,-0.620964 -8.777042,-1.720988 -2.275427,-1.100024 -3.439073,-2.437784 -3.55671,-4.159056 l 0,-21.225527 z"
   id="path3197"
   style="fill:url(#linearGradient1234);fill-opacity:1;fill-rule:evenodd;stroke:none;filter:url(#filter1111)" />
</svg>
