<?xml version="1.0" encoding="UTF-8" standalone="no"?>
<!-- Created with Inkscape (http://www.inkscape.org/) -->

<svg
   xmlns:dc="http://purl.org/dc/elements/1.1/"
   xmlns:cc="http://creativecommons.org/ns#"
   xmlns:rdf="http://www.w3.org/1999/02/22-rdf-syntax-ns#"
   xmlns:svg="http://www.w3.org/2000/svg"
   xmlns="http://www.w3.org/2000/svg"
   xmlns:xlink="http://www.w3.org/1999/xlink"
   xmlns:sodipodi="http://sodipodi.sourceforge.net/DTD/sodipodi-0.dtd"
   xmlns:inkscape="http://www.inkscape.org/namespaces/inkscape"
   version="1.0"
   width="48"
   height="48"
   id="svg2"
   inkscape:version="0.47pre4 r22446"
   sodipodi:docname="quake3.svg">
    
  
  
  
  
  <filter>
    </filter>
  <linearGradient
     id="linearGradient4321">
    <stop
       style="stop-color:#1577D3;stop-opacity:1.0;"
       offset="0"
       id="stop1" />
    <stop
       style="stop-color:#1577D3;stop-opacity:1.0;"
       offset="1"
       id="stop2" />
  </linearGradient>
  <linearGradient
     inkscape:collect="always"
     xlink:href="#linearGradient4321"
     id="linearGradient1234"
     x1="0%"
     y1="50%"
     x2="100%"
     y2="50%" />
<defs
     id="defs5">
  </defs>
  <path
     d="M 24,2.6565217 22.086957,23.7 24,45.7 25.913043,23.7 24,2.6565217 z M 13.836957,13.028804 C 6.8066873,14.060185 2,16.089028 2,18.469022 c 0,2.687294 6.1655459,4.9474 14.706522,5.798913 l 2.510869,16.649456 0,-16.410326 0,-2.899456 C 11.507623,21.053913 5.826087,19.207997 5.826087,17.004348 c 0,-1.650001 3.1763248,-3.115795 8.01087,-3.975544 z m 20.326086,0 c 4.834545,0.859749 8.01087,2.325544 8.01087,3.975544 -10e-7,2.203648 -5.681536,4.049565 -13.391304,4.603261 l 0,0.179348 0,2.720108 0,16.410326 2.510869,-16.649456 C 39.834454,23.416422 46.000001,21.156316 46,18.469022 46,16.089029 41.193313,14.060186 34.163043,13.028804 z"
     id="path2163"
     style="fill:url(#linearGradient1234);fill-opacity:1;fill-rule:nonzero;stroke:none;stroke-width:4;marker:none;visibility:visible;display:inline;overflow:visible;enable-background:accumulate;filter:url(#filter1111)" />
</svg>
