<?xml version="1.0" encoding="UTF-8" standalone="no"?>
<!-- Created with Inkscape (http://www.inkscape.org/) -->

<svg
   xmlns:dc="http://purl.org/dc/elements/1.1/"
   xmlns:cc="http://creativecommons.org/ns#"
   xmlns:rdf="http://www.w3.org/1999/02/22-rdf-syntax-ns#"
   xmlns:svg="http://www.w3.org/2000/svg"
   xmlns="http://www.w3.org/2000/svg"
   xmlns:xlink="http://www.w3.org/1999/xlink"
   xmlns:sodipodi="http://sodipodi.sourceforge.net/DTD/sodipodi-0.dtd"
   xmlns:inkscape="http://www.inkscape.org/namespaces/inkscape"
   version="1.0"
   width="48"
   height="48"
   id="svg2383"
   inkscape:version="0.47pre4 r22446"
   sodipodi:docname="desktop.svg">
    
  
  
  
  
  <filter>
    </filter>
  <linearGradient
     id="linearGradient4321">
    <stop
       style="stop-color:#1577D3;stop-opacity:1.0;"
       offset="0"
       id="stop1" />
    <stop
       style="stop-color:#1577D3;stop-opacity:1.0;"
       offset="1"
       id="stop2" />
  </linearGradient>
  <linearGradient
     inkscape:collect="always"
     xlink:href="#linearGradient4321"
     id="linearGradient1234"
     x1="0%"
     y1="50%"
     x2="100%"
     y2="50%" />
<defs
     id="defs2385">
  </defs>
  <path
     style="fill:url(#linearGradient1234);fill-opacity:1;fill-rule:evenodd;stroke:none;filter:url(#filter1111)"
     id="path2444"
     d="m 4.5217662,8.0085839 38.9564668,0 C 44.87529,8.0085839 46,9.2790574 46,10.857181 l 0,28.294222 C 46,40.729526 44.87529,42 43.478233,42 L 4.5217662,42 C 3.1247096,42 2,40.729526 2,39.151403 L 2,10.857181 C 2,9.2790574 3.1247096,8.0085839 4.5217662,8.0085839 z m 0.9234996,2.8326181 3.4957339,0 c 0.3394071,0 0.6126481,0.273241 0.6126481,0.612648 l 0,3.495734 c 0,0.339407 -0.273241,0.612648 -0.6126481,0.612648 l -3.4957339,0 c -0.3394071,0 -0.6126481,-0.273241 -0.6126481,-0.612648 l 0,-3.495734 c 0,-0.339407 0.273241,-0.612648 0.6126481,-0.612648 z m 0,6.609442 3.4957339,0 c 0.3394071,0 0.6126481,0.273241 0.6126481,0.612648 l 0,3.495734 c 0,0.339407 -0.273241,0.612648 -0.6126481,0.612648 l -3.4957339,0 c -0.3394071,0 -0.6126481,-0.273241 -0.6126481,-0.612648 l 0,-3.495734 c 0,-0.339407 0.273241,-0.612648 0.6126481,-0.612648 z M 34.313557,13.131672 c 0.406881,0 0.749009,0.22587 0.749009,0.510689 l 0,6.026122 5.787801,0 c 0.406881,0 0.74901,0.225873 0.74901,0.510688 l 0,12.052245 c 0,0.284818 -0.342129,0.510688 -0.74901,0.510688 l -20.29135,0 c -0.406881,0 -0.74901,-0.225872 -0.74901,-0.510688 l 0,-6.026122 -5.787801,0 c -0.406881,0 -0.749009,-0.225873 -0.749009,-0.510688 l 0,-12.052245 c 0,-0.284819 0.342128,-0.510689 0.749009,-0.510689 l 20.291351,0 z m -28.1760787,26.03571 36.1027257,0 c 0.722892,0 1.30486,0.01656 1.30486,0.03713 l 0,0.869946 c 0,0.02057 -0.581968,0.03713 -1.30486,0.03713 l -36.1027257,0 c -0.7228926,0 -1.3048606,-0.01656 -1.3048606,-0.03713 l 0,-0.869946 c 0,-0.02057 0.581968,-0.03713 1.3048606,-0.03713 z" />
</svg>
