<?xml version="1.0" encoding="UTF-8" standalone="no"?>
<!-- Created with Inkscape (http://www.inkscape.org/) -->

<svg
   xmlns:dc="http://purl.org/dc/elements/1.1/"
   xmlns:cc="http://creativecommons.org/ns#"
   xmlns:rdf="http://www.w3.org/1999/02/22-rdf-syntax-ns#"
   xmlns:svg="http://www.w3.org/2000/svg"
   xmlns="http://www.w3.org/2000/svg"
   xmlns:xlink="http://www.w3.org/1999/xlink"
   xmlns:sodipodi="http://sodipodi.sourceforge.net/DTD/sodipodi-0.dtd"
   xmlns:inkscape="http://www.inkscape.org/namespaces/inkscape"
   version="1.0"
   width="48"
   height="48"
   id="svg2393"
   inkscape:version="0.47pre4 r22446"
   sodipodi:docname="gnome-fs-trash-full.svg">
    
  
  
  
  
  <filter>
    </filter>
  <linearGradient
     id="linearGradient4321">
    <stop
       style="stop-color:#1577D3;stop-opacity:1.0;"
       offset="0"
       id="stop1" />
    <stop
       style="stop-color:#1577D3;stop-opacity:1.0;"
       offset="1"
       id="stop2" />
  </linearGradient>
  <linearGradient
     inkscape:collect="always"
     xlink:href="#linearGradient4321"
     id="linearGradient1234"
     x1="0%"
     y1="50%"
     x2="100%"
     y2="50%" />
<defs
     id="defs2395">
  </defs>
  <path
     style="fill:url(#linearGradient1234);fill-opacity:1;fill-rule:evenodd;stroke:none;filter:url(#filter1111)"
     id="path2403"
     d="m 24.878056,2.0087568 c -0.613617,0.024 -1.230281,0.095708 -1.821124,0.2124645 C 18.330184,3.1552752 14.497649,6.5312149 14.497649,6.5312149 14.340564,6.6589313 14.23603,6.8450772 14.22448,7.0472 c -0.01155,0.2021227 0.07095,0.4015581 0.212465,0.5463372 l 5.463372,5.4633718 c 0.154372,0.156929 0.357835,0.236125 0.576689,0.212465 0.218855,-0.02366 0.429071,-0.147579 0.546337,-0.333873 1.673357,-2.639356 3.189237,-3.7680317 4.40105,-4.097529 1.211813,-0.3294972 2.244395,0.042388 3.217319,0.7891533 1.619037,1.2426887 2.594601,3.1421537 2.944151,3.8547127 l -3.36908,2.003236 c -0.231244,0.135444 -0.376971,0.400058 -0.364224,0.667746 0.01274,0.267689 0.181859,0.494183 0.424929,0.607041 l 9.166324,4.24929 c 0.176588,0.08425 0.39349,0.09905 0.576689,0.03035 0.183199,-0.0687 0.316929,-0.214988 0.394577,-0.394577 l 3.763656,-9.135972 c 0.103059,-0.27272 0.03058,-0.589755 -0.182112,-0.789154 -0.212691,-0.199398 -0.523643,-0.241829 -0.789154,-0.121408 0,0 -1.564071,0.614169 -5.129499,1.669363 C 34.637328,7.8479542 32.68931,4.9951128 30.432484,3.4960081 29.236564,2.7016137 27.984108,2.2825115 26.729532,2.099813 26.102244,2.0084638 25.491673,1.9847567 24.878056,2.0087568 z M 14.467297,13.330078 c -0.03099,0.0081 -0.06141,0.01822 -0.09106,0.03035 l -9.5001975,2.337109 c -0.2881893,0.07508 -0.5127118,0.311138 -0.5463372,0.607041 -0.033625,0.295905 0.1305811,0.590624 0.3945768,0.72845 0,0 1.4457747,0.929247 4.3706977,3.186967 -2.6517783,3.800302 -3.731731,7.078349 -3.5815439,9.803718 0.1591831,2.888617 1.5664848,5.149507 3.3387274,6.798863 3.5444857,3.29871 8.5289307,4.40105 8.5289307,4.40105 0.198304,0.04699 0.408923,-0.0057 0.57669,-0.121409 0.167766,-0.115701 0.276976,-0.283573 0.30352,-0.485633 l 1.092675,-7.679073 c 0.03027,-0.214444 -0.03498,-0.417778 -0.182113,-0.576689 -0.14714,-0.158913 -0.360553,-0.25653 -0.576689,-0.242817 -3.084982,0.201755 -4.874216,-0.358135 -5.857949,-1.153378 -0.983733,-0.795244 -1.320039,-1.885342 -1.305139,-3.126263 0.02477,-2.062864 0.946026,-3.994249 1.305139,-4.704571 l 3.581544,1.578308 c 0.244361,0.109008 0.518273,0.07454 0.72845,-0.09106 0.210175,-0.165592 0.321971,-0.435014 0.273168,-0.698098 L 15.256451,13.906767 c -0.07242,-0.368608 -0.415966,-0.619664 -0.789154,-0.576689 z m 27.984606,7.648721 c -0.08578,0.01541 -0.168053,0.04626 -0.242817,0.09106 l -6.980975,3.156615 c -0.204477,0.0849 -0.365673,0.272311 -0.424929,0.485633 -0.05926,0.213323 -0.01,0.428848 0.121408,0.607041 1.816157,2.54017 2.324346,4.371195 2.185349,5.645485 -0.138997,1.274289 -0.903174,2.114838 -1.942532,2.762038 -1.720364,1.071257 -3.789334,1.292977 -4.583162,1.365843 l -0.607042,-3.915417 c -0.0447,-0.264378 -0.230631,-0.493813 -0.485633,-0.576689 -0.255001,-0.08288 -0.53686,-0.0054 -0.728449,0.182112 l -7.254145,7.102384 c -0.13921,0.135582 -0.212464,0.321661 -0.212464,0.515985 0,0.194324 0.07325,0.380404 0.212464,0.515985 l 7.04168,6.88992 c 0.215996,0.205025 0.550502,0.249185 0.819506,0.121408 0.269004,-0.127774 0.417025,-0.401137 0.394577,-0.698097 0,0 0.0056,-1.701415 0.333873,-5.463373 4.569066,0.239676 7.885129,-0.542332 10.076886,-2.124644 2.329037,-1.681418 3.455655,-4.12844 3.885065,-6.525695 0.858818,-4.79451 -0.88021,-9.651957 -0.88021,-9.651957 -0.105283,-0.307809 -0.403826,-0.506837 -0.72845,-0.485633 z" />
</svg>
