<?xml version="1.0" encoding="UTF-8" standalone="no"?>
<!-- Created with Inkscape (http://www.inkscape.org/) -->

<svg
   xmlns:dc="http://purl.org/dc/elements/1.1/"
   xmlns:cc="http://creativecommons.org/ns#"
   xmlns:rdf="http://www.w3.org/1999/02/22-rdf-syntax-ns#"
   xmlns:svg="http://www.w3.org/2000/svg"
   xmlns="http://www.w3.org/2000/svg"
   xmlns:xlink="http://www.w3.org/1999/xlink"
   xmlns:sodipodi="http://sodipodi.sourceforge.net/DTD/sodipodi-0.dtd"
   xmlns:inkscape="http://www.inkscape.org/namespaces/inkscape"
   version="1.0"
   width="48"
   height="48"
   id="svg1872"
   inkscape:version="0.47pre4 r22446"
   sodipodi:docname="emblem-photos.svg">
    
  
  
  
  
  <filter>
    </filter>
  <linearGradient
     id="linearGradient4321">
    <stop
       style="stop-color:#969487;stop-opacity:1.0;"
       offset="0"
       id="stop1" />
    <stop
       style="stop-color:#969487;stop-opacity:1.0;"
       offset="1"
       id="stop2" />
  </linearGradient>
  <linearGradient
     inkscape:collect="always"
     xlink:href="#linearGradient4321"
     id="linearGradient1234"
     x1="0%"
     y1="50%"
     x2="100%"
     y2="50%" />
<defs
     id="defs1874">
  </defs>
  <path
     style="fill:url(#linearGradient1234);fill-opacity:1;fill-rule:evenodd;stroke:none;filter:url(#filter1111)"
     id="path1880"
     d="M 23.985668,2 C 11.83472,2 2,11.845937 2,24 2,36.154062 11.83472,46 23.985668,46 36.136616,46 45.999999,36.154061 46,24 46,11.845937 36.136616,2 23.985668,2 z m -9.889251,9.726316 c 0.08835,-0.01513 0.168954,-0.02082 0.25798,0 L 39.235179,17.4 c 0.329141,0.118481 0.53981,0.467321 0.458632,0.810526 l -2.952443,13.142106 0,2.518421 c 10e-4,0.184567 -0.07142,0.361595 -0.200651,0.492105 -0.129236,0.13051 -0.304533,0.203654 -0.487297,0.202631 l -25.454071,0 C 10.229775,34.55221 9.9377768,34.244514 9.9400651,33.871053 l 0,-15.718421 c -0.00228,-0.373461 0.2897099,-0.681161 0.6592839,-0.694737 l 1.777198,0 1.175245,-5.210527 c 0.0392,-0.180275 0.132163,-0.335634 0.286644,-0.43421 0.07724,-0.04929 0.169632,-0.07171 0.257981,-0.08684 z m 0.630619,1.505263 -0.945929,4.226316 19.463193,0 -18.517264,-4.226316 z m 22.014332,5.007895 0,6.947368 1.461889,-6.6 -1.461889,-0.347368 z m -25.454072,0.607894 0,14.328948 24.078176,0 0,-14.328948 -24.078176,0 z" />
</svg>
