<?xml version="1.0" encoding="UTF-8" standalone="no"?>
<!-- Created with Inkscape (http://www.inkscape.org/) -->
<svg
   xmlns:svg="http://www.w3.org/2000/svg"
   xmlns="http://www.w3.org/2000/svg"
   xmlns:xlink="http://www.w3.org/1999/xlink"
   version="1.0"
   width="48"
   height="48"
   id="svg2383">
        
  
  
  
  
  <filter>
    </filter>
  <linearGradient
     id="linearGradient4321">
    <stop
       style="stop-color:#1577D3;stop-opacity:1.0;"
       offset="0"
       id="stop1" />
    <stop
       style="stop-color:#1577D3;stop-opacity:1.0;"
       offset="1"
       id="stop2" />
  </linearGradient>
  <linearGradient
     inkscape:collect="always"
     xlink:href="#linearGradient4321"
     id="linearGradient1234"
     x1="0%"
     y1="50%"
     x2="100%"
     y2="50%" />
<defs
     id="defs2385" />
  <g
     id="layer1">
    <path
       d="M 8,2 L 8,46 L 40,46 L 40,19.187499 L 27.285713,2 L 8,2 z M 21.934699,7.2032529 C 28.543823,7.2032531 33.9347,12.608167 33.9347,19.216411 C 33.934702,23.04387 32.099631,26.459303 29.291842,28.660489 C 29.347808,28.746225 29.425419,28.819473 29.470414,28.913779 L 35.327555,41.03549 C 35.724568,41.783804 35.680433,42.677151 35.220413,43.387463 C 34.760393,44.097776 33.948865,44.507909 33.113271,44.436805 C 32.277677,44.365702 31.557048,43.839909 31.220414,43.061805 L 25.36327,30.976278 C 25.322967,30.896346 25.322394,30.805989 25.291842,30.72299 C 24.216657,31.040802 23.110126,31.229568 21.934699,31.229568 C 15.325577,31.229568 9.8989856,25.824654 9.8989856,19.216411 C 9.8989856,12.608166 15.325577,7.2032529 21.934699,7.2032529 z M 21.934699,10.640753 C 17.192937,10.640753 13.363271,14.475279 13.363271,19.216411 C 13.363271,23.957541 17.192937,27.755883 21.934699,27.755883 C 26.676462,27.755883 30.470414,23.957542 30.470414,19.216411 C 30.470414,14.475278 26.676462,10.640753 21.934699,10.640753 z"
       id="rect3182"
       style="fill:url(#linearGradient1234);filter:url(#filter1111);fill-opacity:1;fill-rule:evenodd;stroke:none;stroke-width:1;stroke-linecap:butt;stroke-linejoin:miter;stroke-miterlimit:7.30000019;stroke-dashoffset:0;stroke-opacity:1" />
    <text
       x="25.367456"
       y="31.471378"
       id="text5335"
       xml:space="preserve"
       style="font-size:4px;font-style:normal;font-weight:normal;fill:none;fill-opacity:1;stroke:none;stroke-width:1px;stroke-linecap:butt;stroke-linejoin:miter;stroke-opacity:1;font-family:Bitstream Vera Sans"><tspan
         x="25.367456"
         y="31.471378"
         id="tspan5337" /></text>
  </g>
</svg>
