<?xml version="1.0" encoding="UTF-8" standalone="no"?>
<!-- Created with Inkscape (http://www.inkscape.org/) -->
<svg
   xmlns:svg="http://www.w3.org/2000/svg"
   xmlns="http://www.w3.org/2000/svg"
   xmlns:xlink="http://www.w3.org/1999/xlink"
   version="1.0"
   width="48"
   height="48"
   id="svg11300">
        
  
  
  
  
  <filter>
    </filter>
  <linearGradient
     id="linearGradient4321">
    <stop
       style="stop-color:#969487;stop-opacity:1.0;"
       offset="0"
       id="stop1" />
    <stop
       style="stop-color:#969487;stop-opacity:1.0;"
       offset="1"
       id="stop2" />
  </linearGradient>
  <linearGradient
     inkscape:collect="always"
     xlink:href="#linearGradient4321"
     id="linearGradient1234"
     x1="0%"
     y1="50%"
     x2="100%"
     y2="50%" />
<defs
     id="defs3" />
  <g
     id="layer1">
    <path
       d="M 6,5.25 C 4.4920188,5.25 3.25,6.5232687 3.25,8.03125 L 3.25,39.96875 C 3.25,41.476731 4.4920203,42.718747 6,42.71875 L 42.0625,42.71875 C 43.570481,42.71875 44.843751,41.476731 44.84375,39.96875 L 44.84375,8.03125 C 44.84375,6.5232687 43.570481,5.25 42.0625,5.25 L 6,5.25 z M 5.75,14 C 5.7610739,14.000051 5.770118,14 5.78125,14 L 42.3125,14 C 42.323632,14 42.332676,14.000051 42.34375,14 L 42.34375,39.96875 C 42.34375,40.134972 42.228724,40.21875 42.0625,40.21875 L 6,40.21875 C 5.8337741,40.21875 5.75,40.134974 5.75,39.96875 L 5.75,14 z"
       id="rect1919"
       style="opacity:1;fill:url(#linearGradient1234);filter:url(#filter1111);fill-opacity:1;stroke:none;stroke-width:2.5;stroke-miterlimit:4;stroke-dasharray:none;stroke-opacity:1" />
    <g
       transform="translate(-11.172678,-40.076333)"
       id="g2721"
       style="opacity:1;fill:none;fill-opacity:1;stroke:#91cbff;stroke-opacity:1;display:inline" />
    <g
       transform="matrix(1.0159898,0,0,0.1385379,-11.735724,-0.2566527)"
       id="g3182"
       style="opacity:1;fill:url(#linearGradient1234);filter:url(#filter1111);fill-opacity:1;stroke:#91cbff;stroke-opacity:1;display:inline" />
  </g>
</svg>
