<?xml version="1.0" encoding="UTF-8" standalone="no"?>
<!-- Created with Inkscape (http://www.inkscape.org/) -->
<svg
   xmlns:svg="http://www.w3.org/2000/svg"
   xmlns="http://www.w3.org/2000/svg"
   xmlns:xlink="http://www.w3.org/1999/xlink"
   version="1.0"
   width="48"
   height="48"
   id="svg2">
        
  
  
  
  
  <filter>
    </filter>
  <linearGradient
     id="linearGradient4321">
    <stop
       style="stop-color:#969487;stop-opacity:1.0;"
       offset="0"
       id="stop1" />
    <stop
       style="stop-color:#969487;stop-opacity:1.0;"
       offset="1"
       id="stop2" />
  </linearGradient>
  <linearGradient
     inkscape:collect="always"
     xlink:href="#linearGradient4321"
     id="linearGradient1234"
     x1="0%"
     y1="50%"
     x2="100%"
     y2="50%" />
<defs
     id="defs4" />
  <g
     id="layer1"
     style="display:inline">
    <path
       d="M 16.165773,4.5990137 C 15.75149,5.0760357 15.569844,5.731714 15.745929,6.3888778 L 18.08822,15.139325 C 18.369957,16.190787 19.44534,16.857373 20.496802,16.575635 L 21.535365,16.288373 C 21.528628,16.268082 21.519721,16.242811 21.513268,16.222082 C 21.677985,16.190804 21.829759,16.17915 21.999404,16.133694 C 22.710827,15.943069 23.286538,15.591987 23.85556,15.205616 C 26.066955,16.536526 27.788842,20.091347 27.788841,24.35381 C 27.788841,28.600071 26.076916,32.137023 23.877657,33.479907 C 23.30284,33.097665 22.700251,32.761717 21.999404,32.573926 C 21.971827,32.566537 21.93887,32.58102 21.911016,32.573926 C 21.79392,32.515432 21.644701,32.47656 21.513268,32.441344 L 20.518899,32.154082 C 19.467437,31.872343 18.347862,32.494737 18.066123,33.546198 L 15.723832,42.296644 C 15.442092,43.348106 16.10868,44.467682 17.160142,44.749421 L 18.132414,45.014586 C 18.202038,45.033242 18.283701,45.048162 18.353385,45.05878 C 18.434568,45.085617 18.511044,45.102185 18.596453,45.125072 C 20.103747,45.528949 21.668555,45.349474 22.993773,44.749421 C 23.035843,44.730372 23.084733,44.725175 23.126356,44.705227 C 26.201897,44.144213 28.838198,41.667425 30.727754,38.076101 C 32.645511,34.431174 33.799249,29.628907 33.799249,24.35381 C 33.799249,19.050438 32.641847,14.221185 30.705657,10.565227 C 28.797593,6.9623796 26.094905,4.4790941 22.993773,3.9581982 C 22.951504,3.9386681 22.903885,3.9326246 22.861191,3.914004 C 21.558861,3.3460219 20.071387,3.1873401 18.596453,3.5825477 C 18.439972,3.6244766 18.298316,3.6610642 18.154511,3.7151303 C 18.13274,3.7233159 18.109789,3.728829 18.08822,3.7372274 L 17.138045,3.9802953 C 16.743747,4.0859471 16.414343,4.3128004 16.165773,4.5990137 z M 16.784492,5.3945089 C 16.906967,5.1823756 17.136687,5.0239819 17.40321,4.9525671 L 20.297929,15.625461 L 20.253734,15.625461 C 19.720686,15.76829 19.203321,15.407204 19.060492,14.87416 L 16.718201,6.1237127 C 16.646787,5.8571888 16.662017,5.6066422 16.784492,5.3945089 z M 19.215171,33.45781 C 19.452509,33.158991 19.853948,33.01923 20.253734,33.126353 L 17.425307,43.777149 C 16.892262,43.63432 16.553275,43.094856 16.696103,42.561809 L 19.038395,33.811363 C 19.074102,33.678102 19.136059,33.557416 19.215171,33.45781 z"
       id="path3382"
       style="fill:url(#linearGradient1234);filter:url(#filter1111);fill-opacity:1;stroke:none;stroke-width:1.00000167;stroke-linecap:round;stroke-linejoin:miter;stroke-miterlimit:4;stroke-dasharray:none;stroke-dashoffset:0;stroke-opacity:1" />
  </g>
  <g
     id="layer2"
     style="display:none">
    <path
       d="M 18,21.4375 A 6.6875,6.6875 0 1 1 4.625,21.4375 A 6.6875,6.6875 0 1 1 18,21.4375 z"
       transform="matrix(0.82243,0,0,0.82243,-68.30374,4.369158)"
       id="path2763"
       style="opacity:0.9;fill:#ef2929;fill-opacity:1;stroke:#a40000;stroke-width:1.21590912;stroke-linecap:round;stroke-linejoin:miter;stroke-miterlimit:4;stroke-dasharray:none;stroke-dashoffset:0;stroke-opacity:1" />
    <path
       d="M 18,21.4375 A 6.6875,6.6875 0 1 1 4.625,21.4375 A 6.6875,6.6875 0 1 1 18,21.4375 z"
       transform="matrix(0.82243,0,0,0.82243,-42.30374,4.369158)"
       id="path2765"
       style="opacity:0.9;fill:#ef2929;fill-opacity:1;stroke:#a40000;stroke-width:1.21590912;stroke-linecap:round;stroke-linejoin:miter;stroke-miterlimit:4;stroke-dasharray:none;stroke-dashoffset:0;stroke-opacity:1" />
    <path
       d="M 40.75,21.375 A 16.5625,9.75 0 1 1 7.625,21.375 A 16.5625,9.75 0 1 1 40.75,21.375 z"
       transform="matrix(1.116981,0,0,1.179487,-73.01698,-3.211538)"
       id="path2767"
       style="opacity:0.6;fill:#ef2929;fill-opacity:1;stroke:#a40000;stroke-width:0.87122524;stroke-linecap:round;stroke-linejoin:miter;stroke-miterlimit:4;stroke-dasharray:none;stroke-dashoffset:0;stroke-opacity:1" />
    <path
       d="M 40.75,21.375 A 16.5625,9.75 0 1 1 7.625,21.375 A 16.5625,9.75 0 1 1 40.75,21.375 z"
       transform="matrix(0.573586,0,0,0.663968,-59.87362,7.781372)"
       id="path2769"
       style="opacity:0.6;fill:#ef2929;fill-opacity:1;stroke:#a40000;stroke-width:1.62041819;stroke-linecap:round;stroke-linejoin:miter;stroke-miterlimit:4;stroke-dasharray:none;stroke-dashoffset:0;stroke-opacity:1" />
    <path
       d="M 23.99999,70.5 C 12.959975,70.5 3.9999611,75.652001 3.999961,82 L 13.729705,82 C 13.729624,81.989472 13.729705,81.97929 13.729705,81.96875 C 13.729705,78.395274 18.330782,75.5 23.99999,75.5 C 29.6692,75.5 34.270275,78.395274 34.270275,81.96875 C 34.270275,81.97929 34.270356,81.989472 34.270275,82 L 44.00002,82 C 44.00002,75.652001 35.040006,70.5 23.99999,70.5 z"
       id="path2805"
       style="opacity:0.6;fill:#ef2929;fill-opacity:1;stroke:#a40000;stroke-width:1;stroke-linecap:round;stroke-linejoin:miter;stroke-miterlimit:4;stroke-dasharray:none;stroke-dashoffset:0;stroke-opacity:1" />
    <path
       d="M 18,21.4375 A 6.6875,6.6875 0 1 1 4.625,21.4375 A 6.6875,6.6875 0 1 1 18,21.4375 z"
       transform="matrix(0.897196,0,0,0.897196,-0.649528,64.26636)"
       id="path2807"
       style="opacity:0.9;fill:#ef2929;fill-opacity:1;stroke:#a40000;stroke-width:1.11458337;stroke-linecap:round;stroke-linejoin:miter;stroke-miterlimit:4;stroke-dasharray:none;stroke-dashoffset:0;stroke-opacity:1" />
    <path
       d="M 18,21.4375 A 6.6875,6.6875 0 1 1 4.625,21.4375 A 6.6875,6.6875 0 1 1 18,21.4375 z"
       transform="matrix(0.897196,0,0,0.897196,28.35047,64.26636)"
       id="path2809"
       style="opacity:0.9;fill:#ef2929;fill-opacity:1;stroke:#a40000;stroke-width:1.11458337;stroke-linecap:round;stroke-linejoin:miter;stroke-miterlimit:4;stroke-dasharray:none;stroke-dashoffset:0;stroke-opacity:1" />
    <path
       d="M 7.9557575,-22.292184 C 4.7566116,-21.434975 2.8559071,-18.142859 3.7131155,-14.943714 C 3.8005738,-14.617315 3.927024,-14.299869 4.0624901,-14.002052 L 15.472491,-17.059351 C 15.440899,-17.385001 15.391686,-17.723143 15.304227,-18.049542 C 14.447019,-21.248687 11.154903,-23.149392 7.9557575,-22.292184 z"
       id="path2840"
       style="fill:#ef2929;fill-opacity:1;stroke:#a40000;stroke-width:1.00000012;stroke-linecap:round;stroke-linejoin:miter;stroke-miterlimit:4;stroke-dasharray:none;stroke-dashoffset:0;stroke-opacity:1" />
    <path
       d="M 40.051683,-22.294327 C 43.250828,-21.437118 45.151533,-18.145002 44.294325,-14.945857 C 44.206866,-14.619458 44.080416,-14.302012 43.94495,-14.004195 L 32.534949,-17.061494 C 32.566541,-17.387144 32.615754,-17.725286 32.703213,-18.051685 C 33.560421,-21.25083 36.852537,-23.151535 40.051683,-22.294327 z"
       id="path2842"
       style="fill:#ef2929;fill-opacity:1;stroke:#a40000;stroke-width:1.00000012;stroke-linecap:round;stroke-linejoin:miter;stroke-miterlimit:4;stroke-dasharray:none;stroke-dashoffset:0;stroke-opacity:1" />
  </g>
</svg>
