<?xml version="1.0" encoding="UTF-8" standalone="no"?>
<!-- Created with Inkscape (http://www.inkscape.org/) -->
<svg
   xmlns:svg="http://www.w3.org/2000/svg"
   xmlns="http://www.w3.org/2000/svg"
   xmlns:xlink="http://www.w3.org/1999/xlink"
   version="1.0"
   width="48"
   height="48"
   id="svg5055">
        
  
  
  
  
  <filter>
    </filter>
  <linearGradient
     id="linearGradient4321">
    <stop
       style="stop-color:#969487;stop-opacity:1.0;"
       offset="0"
       id="stop1" />
    <stop
       style="stop-color:#969487;stop-opacity:1.0;"
       offset="1"
       id="stop2" />
  </linearGradient>
  <linearGradient
     inkscape:collect="always"
     xlink:href="#linearGradient4321"
     id="linearGradient1234"
     x1="0%"
     y1="50%"
     x2="100%"
     y2="50%" />
<defs
     id="defs3" />
  <g
     id="layer1">
    <g
       transform="matrix(0.684082,0,0,0.684082,-29.64407,24.41546)"
       id="g2106">
      <path
         d="M 39.96875,3.03125 L 3.8125,5.125 L 3.78125,5.125 C 3.3461328,5.1365736 3,5.5000617 3,5.9375 L 3,41.125 C 3,41.552697 3.359194,41.910806 3.78125,41.9375 L 3.8125,41.9375 L 39.78125,45.03125 C 39.85321,45.040578 39.900068,45.023391 39.96875,45 L 44.34375,43.34375 L 44.3125,43.3125 C 44.678178,43.232346 45,42.948956 45,42.5625 L 45,5.6875 C 45.000002,5.3081016 44.699671,5.0251644 44.34375,4.9375 L 44.375,4.90625 L 40.1875,3.0625 C 40.127069,3.0349273 40.066418,3.0318664 40,3.03125 C 39.992647,3.0381468 39.975646,3.0238989 39.96875,3.03125 z M 39.90625,3.96875 L 40.03125,4.03125 L 40.03125,43.9375 L 39.71875,44.0625 L 3.9375,40.96875 L 3.9375,6.0625 L 39.90625,3.96875 z M 41.03125,4.46875 L 44,5.78125 C 44.013882,5.78909 44.016645,5.7748477 44.03125,5.78125 L 44.03125,42.46875 L 41.03125,43.5625 L 41.03125,4.46875 z M 12.4375,13 L 5,35.125 L 7.90625,35.125 L 9.875,29.21875 L 17.8125,29.21875 L 19.75,35.125 L 23.84375,35.125 L 16.4375,13 L 12.4375,13 z M 13.84375,17.4375 L 16.8125,26.28125 L 10.84375,26.28125 L 13.84375,17.4375 z M 31.0625,18.34375 C 29.386798,18.343766 27.740227,18.71171 26.125,19.46875 L 26.125,22.53125 C 27.705678,21.55506 29.136515,21.062514 30.40625,21.0625 C 31.909188,21.062514 32.65624,21.890387 32.65625,23.59375 L 32.65625,25.09375 L 31.625,25.09375 C 27.116164,25.09376 24.874999,26.983283 24.875,30.71875 C 24.874998,32.143215 25.253862,33.27966 26.03125,34.15625 C 26.808633,35.042801 27.827318,35.499998 29.0625,35.5 C 30.487699,35.5 31.680192,34.768209 32.65625,33.34375 L 32.8125,33.34375 C 33.313472,34.768209 34.33216,35.499998 35.84375,35.5 C 36.448366,35.5 37.16214,35.341415 38,35.0625 L 37.90625,32.59375 C 37.716213,32.633598 37.5391,32.656251 37.375,32.65625 C 36.675345,32.65625 36.343739,32.003754 36.34375,30.71875 L 36.34375,23.46875 C 36.343738,20.052052 34.577999,18.343766 31.0625,18.34375 z M 31.75,27.65625 L 32.65625,27.65625 L 32.65625,30.96875 C 32.034332,31.97484 31.283979,32.46875 30.4375,32.46875 C 29.884686,32.46875 29.447888,32.262125 29.09375,31.84375 C 28.730965,31.435341 28.531247,30.940066 28.53125,30.3125 C 28.531246,28.539401 29.616504,27.656259 31.75,27.65625 z"
         transform="matrix(1.4618131,0,0,1.4618131,43.334089,-35.690838)"
         id="rect5016"
         style="fill:url(#linearGradient1234);filter:url(#filter1111);fill-opacity:1;stroke:none;stroke-width:1.38591039;stroke-linecap:round;stroke-linejoin:round;stroke-miterlimit:4;stroke-dashoffset:0;stroke-opacity:1" />
    </g>
  </g>
</svg>
