<?xml version="1.0" encoding="UTF-8" standalone="no"?>
<!-- Created with Inkscape (http://www.inkscape.org/) -->
<svg
   xmlns:svg="http://www.w3.org/2000/svg"
   xmlns="http://www.w3.org/2000/svg"
   xmlns:xlink="http://www.w3.org/1999/xlink"
   version="1.0"
   width="38.400002pt"
   height="38.400002pt"
   id="svg2">
  <style
     type="text/css"
     id="style4" />
        
  
  
  
  
  <filter>
    </filter>
  <linearGradient
     id="linearGradient4321">
    <stop
       style="stop-color:#969487;stop-opacity:1.0;"
       offset="0"
       id="stop1" />
    <stop
       style="stop-color:#969487;stop-opacity:1.0;"
       offset="1"
       id="stop2" />
  </linearGradient>
  <linearGradient
     inkscape:collect="always"
     xlink:href="#linearGradient4321"
     id="linearGradient1234"
     x1="0%"
     y1="50%"
     x2="100%"
     y2="50%" />
<defs
     id="defs6" />
  <path
     d="M 22.125,2 C 17.580396,2 13.90625,5.8086995 13.90625,10.5 C 13.90625,15.191301 17.580397,19 22.125,19 C 26.669604,19 30.375001,15.191301 30.375,10.5 C 30.375,5.8086995 26.669605,2 22.125,2 z M 31.40625,18.65625 C 28.116315,19.702944 25.301035,21.771035 12.96875,19.875 C 11.836444,19.717464 12.629321,43.986734 16.3125,47.5 C 27.228748,35.077439 28.709766,40.894188 35.40625,46.15625 C 32.135331,39.700828 30.545342,26.490239 32.78125,26.84375 C 34.551459,27.123586 40.939423,30.19504 41.09375,28.9375 C 41.548465,28.353804 35.991752,26.68989 31.40625,18.65625 z"
     id="P1"
     style="fill:url(#linearGradient1234);filter:url(#filter1111);fill-opacity:1;stroke:none;stroke-width:0.71700001" />
</svg>
