<?xml version="1.0" encoding="UTF-8" standalone="no"?>
<!-- Created with Inkscape (http://www.inkscape.org/) -->

<svg
   xmlns:dc="http://purl.org/dc/elements/1.1/"
   xmlns:cc="http://creativecommons.org/ns#"
   xmlns:rdf="http://www.w3.org/1999/02/22-rdf-syntax-ns#"
   xmlns:svg="http://www.w3.org/2000/svg"
   xmlns="http://www.w3.org/2000/svg"
   xmlns:xlink="http://www.w3.org/1999/xlink"
   xmlns:sodipodi="http://sodipodi.sourceforge.net/DTD/sodipodi-0.dtd"
   xmlns:inkscape="http://www.inkscape.org/namespaces/inkscape"
   version="1.0"
   width="32"
   height="32"
   id="svg2"
   inkscape:version="0.47pre4 r22446"
   sodipodi:docname="gnome-cpu-frequency-applet.svg">
    
  
  
  
  
  <filter>
    </filter>
  <linearGradient
     id="linearGradient4321">
    <stop
       style="stop-color:#969487;stop-opacity:1.0;"
       offset="0"
       id="stop1" />
    <stop
       style="stop-color:#969487;stop-opacity:1.0;"
       offset="1"
       id="stop2" />
  </linearGradient>
  <linearGradient
     inkscape:collect="always"
     xlink:href="#linearGradient4321"
     id="linearGradient1234"
     x1="0%"
     y1="50%"
     x2="100%"
     y2="50%" />
<defs
     id="defs4">
  </defs>
  <path
     style="fill:url(#linearGradient1234);fill-opacity:1;fill-rule:nonzero;stroke:none;stroke-width:0.73801941000000004;marker:none;visibility:visible;display:inline;overflow:visible;filter:url(#filter1111)"
     id="path3797"
     d="m 0,0 c -17.640418,0 -32,14.359582 -32,32 0,17.640419 14.359582,32 32,32 17.640418,3e-6 32,-14.359582 32,-32 C 32.000001,14.359583 17.640418,0 0,0 z M 0,3.03125 C 16.017233,3.0312501 28.96875,15.982767 28.96875,32 28.968751,48.017234 16.017233,60.96875 0,60.96875 -16.017233,60.968752 -28.96875,48.017233 -28.96875,32 -28.96875,15.982768 -16.017233,3.03125 0,3.03125 z m 0.96875,3.1875 c -1.06957598,0 -1.93749998,0.8751902 -1.9375,1.9375 0,1.0623096 0.867924,1.90625 1.9375,1.90625 1.069576,0 1.9375001,-0.8439405 1.9375,-1.90625 0,-1.0623096 -0.867924,-1.9374999 -1.9375,-1.9375 z M -14.25,13.8125 c -1.05225,0 -1.90625,0.843941 -1.90625,1.90625 0,1.06231 0.854,1.937499 1.90625,1.9375 1.05225,0 1.90625,-0.87519 1.90625,-1.9375 0,-1.06231 -0.854,-1.90625 -1.90625,-1.90625 z m 30.5,0.03125 c -1.05225,0 -1.90625,0.87519 -1.90625,1.9375 0,0.156027 0.02773,0.292206 0.0625,0.4375 L -2.8125,27.1875 -4.71875,36.71875 4.8125,34.8125 15.75,17.625 c 0.160423,0.04429 0.325721,0.0625 0.5,0.0625 1.05225,0 1.906249,-0.843941 1.90625,-1.90625 0,-0.468881 -0.161141,-0.916027 -0.4375,-1.25 l 0.4375,-0.6875 -0.71875,0.4375 c -0.326951,-0.265979 -0.735235,-0.4375 -1.1875,-0.4375 z m 7.625,15.21875 c -1.05225,0 -1.906249,0.843941 -1.90625,1.90625 0,1.06231 0.854001,1.937498 1.90625,1.9375 1.05225,0 1.90625,-0.87519 1.90625,-1.9375 0,-1.06231 -0.854,-1.90625 -1.90625,-1.90625 z m -45.78125,0.03125 c -1.069576,0 -1.937501,0.87519 -1.9375,1.9375 0,1.06231 0.867924,1.906251 1.9375,1.90625 1.069576,0 1.9375,-0.843941 1.9375,-1.90625 0,-1.06231 -0.867924,-1.9375 -1.9375,-1.9375 z m 22.90625,0 c 1.0522497,1e-6 1.90625,0.854 1.90625,1.90625 -10e-8,1.05225 -0.8540004,1.90625 -1.90625,1.90625 -1.05224963,0 -1.90625,-0.854 -1.90625,-1.90625 1e-8,-1.05225 0.85400036,-1.90625 1.90625,-1.90625 z M -14.21875,44.3125 c -1.069576,0 -1.9375,0.843939 -1.9375,1.90625 0,1.06231 0.867924,1.9375 1.9375,1.9375 1.069576,0 1.9375,-0.875192 1.9375,-1.9375 0,-1.06231 -0.867924,-1.906249 -1.9375,-1.90625 z m 22.875,0 c -1.069576,0 -1.9374998,0.843939 -1.9375,1.90625 0,1.06231 0.8679235,1.9375 1.9375,1.9375 1.069576,0 1.9375,-0.875192 1.9375,-1.9375 0,-1.06231 -0.8679245,-1.906249 -1.9375,-1.90625 z m 7.59375,0 c -1.05225,0 -1.90625,0.843939 -1.90625,1.90625 0,1.06231 0.854,1.9375 1.90625,1.9375 1.05225,0 1.906249,-0.875192 1.90625,-1.9375 0,-1.06231 -0.854001,-1.906249 -1.90625,-1.90625 z m -22.90625,0.03125 c -1.069576,0 -1.9374999,0.87519 -1.9375,1.9375 0,1.06231 0.8679239,1.906251 1.9375,1.90625 1.069576,0 1.9375002,-0.84394 1.9375,-1.90625 0,-1.06231 -0.8679241,-1.937501 -1.9375,-1.9375 z" />
</svg>
