<?xml version="1.0" encoding="UTF-8" standalone="no"?>
<!-- Created with Inkscape (http://www.inkscape.org/) -->

<svg
   xmlns:dc="http://purl.org/dc/elements/1.1/"
   xmlns:cc="http://creativecommons.org/ns#"
   xmlns:rdf="http://www.w3.org/1999/02/22-rdf-syntax-ns#"
   xmlns:svg="http://www.w3.org/2000/svg"
   xmlns="http://www.w3.org/2000/svg"
   xmlns:xlink="http://www.w3.org/1999/xlink"
   xmlns:sodipodi="http://sodipodi.sourceforge.net/DTD/sodipodi-0.dtd"
   xmlns:inkscape="http://www.inkscape.org/namespaces/inkscape"
   version="1.0"
   width="48"
   height="48"
   id="svg1872"
   inkscape:version="0.47pre4 r22446"
   sodipodi:docname="gnome-samegnome.svg">
    
  
  
  
  
  <filter>
    </filter>
  <linearGradient
     id="linearGradient4321">
    <stop
       style="stop-color:#969487;stop-opacity:1.0;"
       offset="0"
       id="stop1" />
    <stop
       style="stop-color:#969487;stop-opacity:1.0;"
       offset="1"
       id="stop2" />
  </linearGradient>
  <linearGradient
     inkscape:collect="always"
     xlink:href="#linearGradient4321"
     id="linearGradient1234"
     x1="0%"
     y1="50%"
     x2="100%"
     y2="50%" />
<defs
     id="defs1874">
  </defs>
  <path
     d="M 34.5,2.5 C 28.70665,2.5 23.999999,7.2066502 24,13 24,18.793349 28.706651,23.5 34.5,23.5 40.293349,23.5 45,18.793349 45,13 45,7.2066506 40.29335,2.4999999 34.5,2.5 z m -22,0.03125 c -5.7933498,0 -10.5,4.7066507 -10.5,10.5 -1e-7,5.793349 4.7066502,10.5 10.5,10.5 5.793349,0 10.5,-4.706651 10.5,-10.5 0,-5.7933495 -4.706651,-10.5000001 -10.5,-10.5 z m 0,1 c 5.252909,-10e-8 9.5,4.2470907 9.5,9.5 0,5.252909 -4.247091,9.5 -9.5,9.5 -5.2529096,0 -9.5000001,-4.247091 -9.5,-9.5 0,-5.2529091 4.2470904,-9.5 9.5,-9.5 z M 12.5,24.5 C 6.7066501,24.5 1.9999998,29.206652 2,35 c -1e-7,5.793349 4.7066499,10.500001 10.5,10.5 C 18.293349,45.5 23.000001,40.79335 23,35 23,29.206651 18.293349,24.499999 12.5,24.5 z m 22,0 C 28.70665,24.5 23.999999,29.206651 24,35 24,40.793349 28.706651,45.5 34.5,45.5 40.293349,45.5 45,40.793349 45,35 45,29.206651 40.29335,24.5 34.5,24.5 z"
     id="path1880"
     style="fill:url(#linearGradient1234);fill-opacity:1;stroke:none;filter:url(#filter1111)" />
</svg>
