<?xml version="1.0" encoding="UTF-8" standalone="no"?>
<!-- Created with Inkscape (http://www.inkscape.org/) -->
<svg
   xmlns:svg="http://www.w3.org/2000/svg"
   xmlns="http://www.w3.org/2000/svg"
   xmlns:xlink="http://www.w3.org/1999/xlink"
   version="1.0"
   width="48"
   height="48"
   id="svg2913">
        
  
  
  
  
  <filter>
    </filter>
  <linearGradient
     id="linearGradient4321">
    <stop
       style="stop-color:#969487;stop-opacity:1.0;"
       offset="0"
       id="stop1" />
    <stop
       style="stop-color:#969487;stop-opacity:1.0;"
       offset="1"
       id="stop2" />
  </linearGradient>
  <linearGradient
     inkscape:collect="always"
     xlink:href="#linearGradient4321"
     id="linearGradient1234"
     x1="0%"
     y1="50%"
     x2="100%"
     y2="50%" />
<defs
     id="defs3" />
  <g
     id="layer2">
    <g
       transform="translate(-8.0329362,-0.6138056)"
       id="g10112">
      <g
         id="layer1">
        <g
           transform="translate(-53.99282,-31.64138)"
           id="g4438" />
        <path
           d="M 12.46875,2.6875 C 11.672204,2.7035897 10.983421,3.1164261 10.5625,3.625 C 10.141579,4.1335738 9.908256,4.7189734 9.90625,5.34375 L 9.875,6.375 L 6.3125,6.375 C 3.9150459,6.3750002 1.96875,8.3212958 1.96875,10.71875 L 1.96875,40.78125 C 1.96875,43.155139 3.883268,45.11879 6.25,45.15625 C 6.2734689,45.156619 6.288921,45.15625 6.3125,45.15625 L 25.53125,45.15625 C 27.928705,45.156248 29.90625,43.178704 29.90625,40.78125 L 29.90625,10.71875 C 29.90625,8.321296 27.928704,6.375 25.53125,6.375 L 22.125,6.375 L 22.125,5.25 L 22.125,5.21875 C 22.085743,3.8827705 21.029969,2.7077522 19.625,2.71875 L 12.46875,2.6875 z M 12.5,4.6875 L 19.625,4.71875 C 19.859815,4.7169121 20.116451,4.9903267 20.125,5.28125 L 20.125,7.375 L 20.125,8.375 L 21.125,8.375 L 25.53125,8.375 C 26.855298,8.3750002 27.90625,9.394702 27.90625,10.71875 L 27.90625,40.78125 C 27.90625,42.105296 26.855299,43.15625 25.53125,43.15625 L 6.3125,43.15625 C 6.2995029,43.156248 6.294213,43.156455 6.28125,43.15625 C 4.9773919,43.135611 3.96875,42.092285 3.96875,40.78125 L 3.96875,10.71875 C 3.9687499,9.3947022 4.988452,8.375 6.3125,8.375 L 10.875,8.375 L 11.875,8.375 L 11.875,7.375 L 11.90625,5.375 L 11.90625,5.34375 C 11.906606,5.2327206 11.982157,5.0410815 12.09375,4.90625 C 12.205343,4.7714187 12.308759,4.6913629 12.5,4.6875 z M 32.65625,4.6875 C 31.749804,4.6875 31.03125,5.4518135 31.03125,6.40625 L 31.03125,43.25 C 31.03125,44.204436 31.749805,45.000001 32.65625,45 L 45.5,45 C 46.406446,45 47.124998,44.204437 47.125,43.25 L 47.125,6.40625 C 47.125,5.4518138 46.406445,4.6875 45.5,4.6875 L 32.65625,4.6875 z M 13.9375,6.40625 L 13.9375,10.34375 L 6.90625,10.34375 C 6.396313,10.34375 5.9687499,10.657579 5.96875,11.375 L 5.96875,14.375 L 25.96875,14.375 L 25.96875,11.3125 C 25.96875,10.652157 25.522545,10.34375 25.03125,10.34375 L 17.96875,10.34375 L 17.9375,6.40625 L 13.9375,6.40625 z M 5.96875,16.375 L 5.96875,23.375 L 25.96875,23.375 L 25.96875,16.375 L 5.96875,16.375 z M 5.96875,25.375 L 5.96875,32.375 L 25.96875,32.375 L 25.96875,25.375 L 5.96875,25.375 z M 26.03125,34.34375 L 6,34.40625 L 6,39.34375 C 6,40.808255 6.6705,41.406249 8.09375,41.40625 L 23.96875,41.40625 C 25.299822,41.40625 26.03125,40.721276 26.03125,39.40625 L 26.03125,34.34375 z"
           transform="translate(8.0329362,0.6138056)"
           id="rect2375"
           style="fill:url(#linearGradient1234);filter:url(#filter1111);fill-opacity:1;stroke:none;stroke-width:2;stroke-linecap:round;stroke-miterlimit:4;stroke-opacity:1" />
      </g>
      <g
         id="g10121" />
    </g>
    <text
       x="-124.63255"
       y="31.971378"
       id="text5335"
       xml:space="preserve"
       style="font-size:4px;font-style:normal;font-weight:normal;fill:none;fill-opacity:1;stroke:none;stroke-width:1px;stroke-linecap:butt;stroke-linejoin:miter;stroke-opacity:1;font-family:Bitstream Vera Sans"><tspan
         x="-124.63255"
         y="31.971378"
         id="tspan5337" /></text>
  </g>
</svg>
