<?xml version="1.0" encoding="UTF-8" standalone="no"?>
<!-- Created with Inkscape (http://www.inkscape.org/) -->

<svg
   xmlns:dc="http://purl.org/dc/elements/1.1/"
   xmlns:cc="http://creativecommons.org/ns#"
   xmlns:rdf="http://www.w3.org/1999/02/22-rdf-syntax-ns#"
   xmlns:svg="http://www.w3.org/2000/svg"
   xmlns="http://www.w3.org/2000/svg"
   xmlns:xlink="http://www.w3.org/1999/xlink"
   xmlns:sodipodi="http://sodipodi.sourceforge.net/DTD/sodipodi-0.dtd"
   xmlns:inkscape="http://www.inkscape.org/namespaces/inkscape"
   version="1.0"
   width="48"
   height="48"
   id="svg2"
   inkscape:version="0.47pre4 r22446"
   sodipodi:docname="ibus-setup.svg">
    
  
  
  
  
  <filter>
    </filter>
  <linearGradient
     id="linearGradient4321">
    <stop
       style="stop-color:#969487;stop-opacity:1.0;"
       offset="0"
       id="stop1" />
    <stop
       style="stop-color:#969487;stop-opacity:1.0;"
       offset="1"
       id="stop2" />
  </linearGradient>
  <linearGradient
     inkscape:collect="always"
     xlink:href="#linearGradient4321"
     id="linearGradient1234"
     x1="0%"
     y1="50%"
     x2="100%"
     y2="50%" />
<defs
     id="defs4">
  </defs>
  <path
     id="rect3303"
     d="M 7.1495449,2 C 4.2954164,2 2,4.2954164 2,7.1495449 L 2,40.850455 C 2,43.704584 4.2954164,46 7.1495449,46 L 40.850455,46 C 43.704584,46 46,43.704584 46,40.850455 L 46,7.1495449 C 46,4.2954164 43.704584,2 40.850455,2 L 7.1495449,2 z m -0.7438232,3.289987 35.1885563,0 L 37.188557,9.6671 10.811443,9.69571 6.4057217,5.289988 z m -1.1157347,1.1157347 4.3485045,4.4057213 0.057217,26.377114 -4.4057217,4.405721 0,-35.1885563 z m 37.420026,0 0,35.1885563 -4.291287,-4.405721 0,-26.377114 4.291287,-4.4057213 z M 11.89857,11.89857 l 24.20286,0 0,24.20286 -24.20286,0 0,-24.20286 z m 12.215864,1.630689 c -1.353337,0 -2.460338,1.10601 -2.460338,2.431729 0,1.325718 1.105023,2.460338 2.403121,2.460338 1.380957,0 2.488947,-1.079382 2.488947,-2.460338 0,-1.325719 -1.106012,-2.431729 -2.43173,-2.431729 z m 2.23147,7.295188 -6.494148,0.20026 0,1.401821 0.40052,0 c 1.684767,0 1.745123,0.145278 1.745123,2.603381 l 0,4.892068 0,1.258777 c 0,1.104766 -0.291204,1.315995 -2.031209,1.315995 l -0.114434,0 0,1.401821 8.639791,0 0,-1.401821 -0.143042,0 c -1.684767,0 -2.002601,-0.21024 -2.002601,-1.287386 l 0,-1.287386 0,-9.09753 z m -15.534461,17.36541 26.377114,0 4.405721,4.520156 -35.1885563,0 4.4057213,-4.520156 z"
     style="fill:url(#linearGradient1234);fill-opacity:1;fill-rule:evenodd;stroke:none;filter:url(#filter1111)" />
</svg>
