<?xml version="1.0" encoding="UTF-8" standalone="no"?>
<!-- Created with Inkscape (http://www.inkscape.org/) -->

<svg
   xmlns:dc="http://purl.org/dc/elements/1.1/"
   xmlns:cc="http://creativecommons.org/ns#"
   xmlns:rdf="http://www.w3.org/1999/02/22-rdf-syntax-ns#"
   xmlns:svg="http://www.w3.org/2000/svg"
   xmlns="http://www.w3.org/2000/svg"
   xmlns:xlink="http://www.w3.org/1999/xlink"
   xmlns:sodipodi="http://sodipodi.sourceforge.net/DTD/sodipodi-0.dtd"
   xmlns:inkscape="http://www.inkscape.org/namespaces/inkscape"
   version="1.0"
   width="48"
   height="48"
   id="svg2"
   inkscape:version="0.47pre4 r22446"
   sodipodi:docname="miro.svg">
    
  
  
  
  
  <filter>
    </filter>
  <linearGradient
     id="linearGradient4321">
    <stop
       style="stop-color:#969487;stop-opacity:1.0;"
       offset="0"
       id="stop1" />
    <stop
       style="stop-color:#969487;stop-opacity:1.0;"
       offset="1"
       id="stop2" />
  </linearGradient>
  <linearGradient
     inkscape:collect="always"
     xlink:href="#linearGradient4321"
     id="linearGradient1234"
     x1="0%"
     y1="50%"
     x2="100%"
     y2="50%" />
<defs
     id="defs4">
  </defs>
  <path
     style="fill:url(#linearGradient1234);fill-opacity:1;fill-rule:evenodd;stroke:none;filter:url(#filter1111)"
     id="path2453"
     d="M 29.510534,9.5456226 C 16.859112,9.660513 5.9414806,21.64262 2,33.337839 33.713774,55.347287 50.744349,30.185639 44.842677,15.58893 39.675031,11.271822 34.46109,9.5006638 29.510534,9.5456226 z M 15.182363,19.718846 c -4e-6,0 11.25149,0.03337 16.686534,0.03337 5.435041,0 4.861344,5.417558 4.861344,5.417558 l 0,9.758843 -4.894718,0 c 0,0 0,-9.17163 0,-10.2205 0,-1.861058 -3.398489,-2.251782 -3.398489,0 l 0,10.139848 -4.911404,0 c 0,0 -4e-6,-8.167661 0,-10.106478 0,-1.985713 -3.384588,-1.961251 -3.384588,0 l 0,10.106478 -4.958679,0 0,-15.129124 z" />
</svg>
