<?xml version="1.0" encoding="UTF-8" standalone="no"?>
<!-- Created with Inkscape (http://www.inkscape.org/) -->

<svg
   xmlns:dc="http://purl.org/dc/elements/1.1/"
   xmlns:cc="http://creativecommons.org/ns#"
   xmlns:rdf="http://www.w3.org/1999/02/22-rdf-syntax-ns#"
   xmlns:svg="http://www.w3.org/2000/svg"
   xmlns="http://www.w3.org/2000/svg"
   xmlns:sodipodi="http://sodipodi.sourceforge.net/DTD/sodipodi-0.dtd"
   xmlns:inkscape="http://www.inkscape.org/namespaces/inkscape"
   width="48"
   height="48"
   id="svg2"
   version="1.1"
   inkscape:version="0.47 r22583"
   sodipodi:docname="moiosms.svg">
  
  
  
  
  
  <filter>
    </filter>
  <linearGradient
     id="linearGradient4321">
    <stop
       style="stop-color:#969487;stop-opacity:1.0;"
       offset="0"
       id="stop1" />
    <stop
       style="stop-color:#969487;stop-opacity:1.0;"
       offset="1"
       id="stop2" />
  </linearGradient>
  <linearGradient
     inkscape:collect="always"
     xlink:href="#linearGradient4321"
     id="linearGradient1234"
     x1="0%"
     y1="50%"
     x2="100%"
     y2="50%" />
<defs
     id="defs4">
  </defs>
  <g
     inkscape:label="Livello 1"
     inkscape:groupmode="layer"
     id="layer1"
     transform="translate(-201.85742,-409.64108)">
    <path
       style="font-size:medium;font-style:normal;font-variant:normal;font-weight:normal;font-stretch:normal;text-indent:0;text-align:start;text-decoration:none;line-height:normal;letter-spacing:normal;word-spacing:normal;text-transform:none;direction:ltr;block-progression:tb;writing-mode:lr-tb;text-anchor:start;fill:url(#linearGradient1234);filter:url(#filter1111);fill-opacity:1;stroke:none;stroke-width:1;marker:none;visibility:visible;display:inline;overflow:visible;enable-background:accumulate;font-family:Andale Mono;-inkscape-font-specification:Andale Mono"
       d="m 226.8325,411.64108 c -5.81834,0 -10.50168,1.89262 -10.50168,4.24852 l 0,2.44887 c 0,0.68651 0.40865,1.32831 1.11623,1.90215 -0.36674,0.22236 -0.71336,0.45723 -1.04789,0.70618 -2.53969,1.89 -4.12322,4.52778 -4.12322,7.44913 l 0,16.74347 c 0,2.92135 1.58353,5.55914 4.12322,7.44913 2.53968,1.89 6.04713,3.05255 9.92078,3.05255 l 1.02512,0 c 3.87365,0 7.3811,-1.16255 9.92079,-3.05255 2.53968,-1.88999 4.11182,-4.52778 4.11182,-7.44913 l 0,-16.74347 c 0,-2.92135 -1.57214,-5.55913 -4.11182,-7.44913 -0.33226,-0.24725 -0.68387,-0.48515 -1.0479,-0.70618 0.70609,-0.57336 1.11623,-1.21641 1.11623,-1.90215 l 0,-2.44887 c 0,-2.3559 -4.68333,-4.24852 -10.50168,-4.24852 z m -9.06653,8.83873 c 1.81764,1.26383 5.1846,2.11856 9.06653,2.11856 3.87283,0 7.23449,-0.84825 9.05514,-2.10717 0.3976,0.23614 0.79145,0.48462 1.1504,0.75175 2.46815,1.83676 3.97515,4.36307 3.97515,7.15298 l 0,16.74347 c 0,2.78991 -1.507,5.31623 -3.97515,7.15299 -2.46815,1.83675 -5.89212,2.98421 -9.69298,2.98421 l -1.02512,0 c -3.80086,0 -7.23622,-1.14746 -9.70437,-2.98421 -2.46815,-1.83676 -3.97515,-4.36308 -3.97515,-7.15299 l 0,-16.74347 c 0,-2.78991 1.507,-5.31622 3.97515,-7.15298 0.363,-0.27014 0.74747,-0.5247 1.1504,-0.76314 z m 8.0642,7.50608 c -10.72175,-0.034 -11.68626,5.04582 -11.68626,5.04582 l 0.25059,14.43127 c 0,0 2.45492,6.31369 12.50634,6.18483 10.05143,-0.12887 12.75693,-6.69738 12.75693,-6.69738 l -0.13668,-14.43127 c 0,0 -0.89358,-4.1239 -12.62025,-4.51049 -0.36645,-0.0121 -0.7248,-0.0217 -1.07067,-0.0227 z m 12.52912,4.78385 0,13.28087 c 0,0 -2.5668,3.34511 -11.45845,3.47398 -8.89164,0.12887 -11.46984,-3.34869 -11.46984,-3.34869 l 0.25058,-13.14419 c 0.25773,0.25773 2.71422,2.4453 11.21926,2.57417 8.50505,0.12885 11.45845,-2.83614 11.45845,-2.83614 z m -21.84623,4.93192 0,6.00258 1.51489,0 0,-4.57882 1.17318,4.57882 1.36681,0 1.17318,-4.57882 0,4.57882 1.51489,0 0,-6.00258 -2.4261,0 -0.94538,3.65623 -0.93399,-3.65623 -2.43748,0 z m 13.4745,0 0,1.13901 1.66296,0 0,-1.13901 -1.66296,0 z m -3.38286,1.56044 c -0.76136,1e-5 -1.36349,0.21807 -1.81103,0.64924 -0.44754,0.42844 -0.67202,0.96567 -0.67202,1.62879 0,0.71223 0.26791,1.29194 0.79731,1.73129 0.43117,0.35475 0.99853,0.53534 1.69713,0.53534 0.78318,0 1.39173,-0.21214 1.8338,-0.63785 0.44481,-0.42844 0.67202,-0.98299 0.67203,-1.65157 -10e-6,-0.59489 -0.18925,-1.09689 -0.54674,-1.50349 -0.4448,-0.50484 -1.09997,-0.75174 -1.97048,-0.75175 z m 8.4059,0 c -0.76136,1e-5 -1.37488,0.21807 -1.82242,0.64924 -0.44754,0.42844 -0.66062,0.96567 -0.66062,1.62879 0,0.71223 0.25651,1.29194 0.78591,1.73129 0.43116,0.35475 0.99854,0.53534 1.69713,0.53534 0.78318,0 1.39173,-0.21214 1.83381,-0.63785 0.4448,-0.42844 0.67201,-0.98299 0.67202,-1.65157 -1e-5,-0.59489 -0.17786,-1.09689 -0.53534,-1.50349 -0.44481,-0.50484 -1.09998,-0.75174 -1.97049,-0.75175 z m -5.02304,0.0911 0,4.35102 1.66296,0 0,-4.35102 -1.66296,0 z m -3.36008,1.04789 c 0.22922,10e-6 0.42534,0.0992 0.58089,0.28475 0.15554,0.18285 0.23919,0.4549 0.23919,0.83148 0,0.40387 -0.0837,0.70559 -0.23919,0.88843 -0.15281,0.18283 -0.35214,0.27336 -0.59228,0.27336 -0.23741,0 -0.43401,-0.0992 -0.59229,-0.28475 -0.15554,-0.18556 -0.22779,-0.46676 -0.22779,-0.85425 0,-0.38205 0.081,-0.6687 0.23919,-0.85427 0.15826,-0.18829 0.3494,-0.28474 0.59228,-0.28475 z m 8.4059,0 c 0.22923,10e-6 0.41396,0.0992 0.56951,0.28475 0.15554,0.18285 0.23918,0.4549 0.23919,0.83148 -1e-5,0.40387 -0.0837,0.70559 -0.23919,0.88843 -0.15282,0.18283 -0.34076,0.27336 -0.5809,0.27336 -0.23742,0 -0.43401,-0.0992 -0.59228,-0.28475 -0.15555,-0.18556 -0.2392,-0.46676 -0.2392,-0.85425 0,-0.38205 0.081,-0.6687 0.2392,-0.85427 0.15827,-0.18829 0.3608,-0.28474 0.60367,-0.28475 z"
       id="rect3190" />
  </g>
</svg>
