<?xml version="1.0" encoding="UTF-8" standalone="no"?>
<!-- Created with Inkscape (http://www.inkscape.org/) -->
<svg
   xmlns:svg="http://www.w3.org/2000/svg"
   xmlns="http://www.w3.org/2000/svg"
   xmlns:xlink="http://www.w3.org/1999/xlink"
   version="1.0"
   width="48"
   height="48"
   id="svg2383">
        
  
  
  
  
  <filter>
    </filter>
  <linearGradient
     id="linearGradient4321">
    <stop
       style="stop-color:#969487;stop-opacity:1.0;"
       offset="0"
       id="stop1" />
    <stop
       style="stop-color:#969487;stop-opacity:1.0;"
       offset="1"
       id="stop2" />
  </linearGradient>
  <linearGradient
     inkscape:collect="always"
     xlink:href="#linearGradient4321"
     id="linearGradient1234"
     x1="0%"
     y1="50%"
     x2="100%"
     y2="50%" />
<defs
     id="defs2385" />
  <g
     id="layer1">
    <path
       d="M 11.90625,3.40625 C 9.5192129,3.5836291 8.027203,4.4486761 7.125,5.4375 C 5.9220627,6.7559319 5.8125,8.28125 5.8125,8.28125 L 5.8125,8.3125 L 5.8125,42.75 L 5.8125,43.03125 L 6,43.21875 L 8.46875,45.8125 L 8.84375,46.1875 L 9.46875,46.09375 L 38.03125,41.1875 C 38.03125,41.1875 38.980687,40.984169 39.84375,40.09375 C 40.706813,39.203331 41.520015,37.604055 41.5625,34.9375 C 41.644767,29.773528 41.5625,8.1875 41.5625,8.1875 L 41.5625,7.75 L 41.15625,7.6875 L 14.6875,3.46875 C 13.762713,3.3711563 12.834837,3.372224 11.90625,3.40625 z M 10.1875,5.125 C 9.3513409,6.1859016 8.75,7.845727 8.75,10.375 C 8.7500002,14.179071 8.778693,22.991786 8.8125,30.84375 C 8.8294035,34.769732 8.8642409,38.447615 8.875,41.15625 C 8.8800662,42.431675 8.8740613,43.426285 8.875,44.1875 L 7.21875,42.46875 L 7.21875,8.3125 C 7.2267978,8.2147004 7.3189654,7.2926727 8.15625,6.375 C 8.5879282,5.9018762 9.2290777,5.4326239 10.1875,5.125 z M 22.0625,10.9375 C 19.169614,10.9375 17.129012,12.251042 15.90625,14.28125 C 14.683488,16.311458 14.21875,19.014598 14.21875,21.90625 C 14.21875,24.741087 14.171044,27.710942 14.875,30.21875 C 15.550991,32.626933 17.037518,34.614854 19.78125,35.40625 C 19.835609,35.82528 20.030263,36.960113 20.84375,38.15625 C 21.825864,39.600333 23.767431,40.800602 26.96875,39.9375 L 27.34375,39.84375 L 27.34375,39.4375 C 27.30361,38.228305 27.34375,36.84375 27.34375,36.84375 L 27.375,36.15625 L 26.6875,36.375 C 26.6875,36.375 26.297318,36.471936 25.90625,36.34375 C 25.561613,36.230783 25.204273,35.881601 25,34.9375 C 26.956317,33.990513 28.156007,32.066809 28.84375,29.875 C 29.580891,27.525762 29.78125,24.856112 29.78125,22.625 C 29.78125,21.843308 29.649439,20.937973 29.53125,20.0625 L 29.75,20.0625 L 30.625,20.0625 C 30.618205,20.487415 30.591938,22.377914 30.5625,24.78125 C 30.546222,26.110227 30.505387,27.468616 30.5,28.53125 C 30.497307,29.062567 30.49756,29.524733 30.5,29.875 C 30.50244,30.225267 30.514102,30.432688 30.53125,30.59375 C 30.580239,31.053922 30.806651,32.018067 31.40625,32.90625 C 31.706049,33.350342 32.109765,33.784282 32.65625,34.03125 C 33.202735,34.278218 33.884329,34.318085 34.625,34.09375 C 37.202051,33.313208 37.5,33.21875 37.5,33.21875 L 37.875,33.125 L 37.875,32.75 L 37.875,30.4375 L 37.875,29.5625 L 37.125,30 C 37.125,30 36.435851,30.382892 35.875,30.4375 C 35.594575,30.464804 35.410986,30.430414 35.28125,30.3125 C 35.151514,30.194586 34.990963,29.91659 35,29.28125 C 35.038963,26.542016 35.003785,20.944268 35,20.3125 L 37.21875,20.3125 L 37.71875,20.3125 L 37.71875,19.8125 L 37.71875,17.28125 L 37.71875,16.78125 L 37.21875,16.78125 L 35.0625,16.78125 L 35.0625,13 L 35.0625,12.5 L 34.5625,12.5 L 32.34375,12.5 L 31.96875,12.5 L 31.875,12.875 L 30.90625,16.4375 L 29.84375,16.40625 L 29.3125,16.375 L 29.3125,16.90625 L 29.28125,18.5 C 29.02078,17.348078 28.681578,16.203861 28.15625,15.15625 C 26.979045,12.808662 24.983687,10.9375 22.0625,10.9375 z M 22.0625,14.0625 C 21.069128,14.089463 20.360915,14.848508 19.9375,15.75 C 19.514085,16.651492 19.292736,17.767882 19.15625,18.875 C 18.885225,21.07344 18.998376,23.188014 19,23.21875 C 18.999815,23.229618 19.000175,23.239137 19,23.25 C 18.960839,25.675575 19.139347,27.991677 19.6875,29.71875 C 19.962804,30.586154 20.332271,31.319343 20.84375,31.84375 C 21.355229,32.368157 22.051773,32.651632 22.8125,32.5625 C 23.621451,32.467717 24.231026,31.904811 24.625,31.1875 C 25.018974,30.470189 25.273665,29.554367 25.4375,28.59375 C 25.765171,26.672516 25.75,24.483126 25.75,23.0625 C 25.75,21.633278 25.719489,19.455688 25.28125,17.59375 C 25.062131,16.662781 24.760904,15.818453 24.25,15.15625 C 23.739096,14.494047 22.9776,14.037661 22.0625,14.0625 z"
       id="path2465"
       style="fill:url(#linearGradient1234);filter:url(#filter1111);fill-opacity:1;fill-rule:evenodd;stroke:none;stroke-width:1px;stroke-linecap:butt;stroke-linejoin:miter;stroke-opacity:1" />
  </g>
</svg>
