<?xml version="1.0" encoding="UTF-8" standalone="no"?>
<!-- Created with Inkscape (http://www.inkscape.org/) -->

<svg
   xmlns:dc="http://purl.org/dc/elements/1.1/"
   xmlns:cc="http://creativecommons.org/ns#"
   xmlns:rdf="http://www.w3.org/1999/02/22-rdf-syntax-ns#"
   xmlns:svg="http://www.w3.org/2000/svg"
   xmlns="http://www.w3.org/2000/svg"
   xmlns:xlink="http://www.w3.org/1999/xlink"
   xmlns:sodipodi="http://sodipodi.sourceforge.net/DTD/sodipodi-0.dtd"
   xmlns:inkscape="http://www.inkscape.org/namespaces/inkscape"
   version="1.0"
   width="48"
   height="48"
   id="svg2"
   inkscape:version="0.47pre4 r22446"
   sodipodi:docname="vlc.svg">
    
  
  
  
  
  <filter>
    </filter>
  <linearGradient
     id="linearGradient4321">
    <stop
       style="stop-color:#969487;stop-opacity:1.0;"
       offset="0"
       id="stop1" />
    <stop
       style="stop-color:#969487;stop-opacity:1.0;"
       offset="1"
       id="stop2" />
  </linearGradient>
  <linearGradient
     inkscape:collect="always"
     xlink:href="#linearGradient4321"
     id="linearGradient1234"
     x1="0%"
     y1="50%"
     x2="100%"
     y2="50%" />
<defs
     id="defs5">
  </defs>
  <path
     style="fill:url(#linearGradient1234);fill-opacity:1;fill-rule:evenodd;stroke:none;filter:url(#filter1111)"
     id="path2189"
     d="m 21.60218,2.3297003 -0.08992,0.3297002 -2.038148,6.7138965 -2.487738,8.122616 -0.02997,0 -0.119891,0.449591 -2.967302,9.711172 -0.02997,0.08992 -6.1144414,0 -0.359673,0 -0.089918,0.3297 L 2.1798365,45.370572 2,46 2.6294278,46 45.370572,46 46,46 45.820163,45.370572 40.724796,28.076294 l -0.08992,-0.3297 -0.359673,0 -6.114441,0 -0.02997,-0.149864 -0.149864,-0.419618 -2.817438,-9.231608 -0.119891,-0.449591 -0.02997,0 -2.487738,-8.122616 -2.038148,-6.7138965 -0.08992,-0.3297002 -0.359673,0 -4.076294,0 -0.359673,0 z m -1.348774,7.7029977 c 1.188992,0.181957 2.399318,0.359673 3.746594,0.359673 1.347276,0 2.557601,-0.177715 3.746594,-0.359673 l 2.367847,7.762942 c -0.700154,0.195447 -1.398511,0.364933 -2.098092,0.479564 -1.297281,0.21257 -2.63873,0.329701 -4.016349,0.329701 -1.377618,0 -2.719068,-0.117131 -4.016349,-0.329701 -0.69958,-0.114631 -1.397937,-0.284118 -2.098092,-0.479564 l 2.367847,-7.762942 z m -5.485014,17.983651 c 1.415291,0.542843 2.907318,0.973039 4.435968,1.258855 1.548073,0.289448 3.148766,0.449592 4.79564,0.449592 1.646873,-1e-6 3.247566,-0.160144 4.79564,-0.449592 1.53921,-0.287789 3.015391,-0.711935 4.435968,-1.258855 L 35.359673,35 c -0.06963,0.04254 -0.139164,0.07672 -0.209809,0.119891 -0.156693,0.09359 -0.326674,0.179056 -0.479564,0.269755 -0.125265,0.07431 -0.238678,0.166989 -0.359673,0.239782 -0.206737,0.114131 -0.425154,0.211559 -0.629428,0.299727 -0.37229,0.160688 -0.757839,0.308309 -1.138965,0.449592 -0.05048,0.0182 -0.09923,0.04208 -0.149863,0.05995 -0.120401,0.04369 -0.238412,0.0781 -0.359673,0.119891 -0.317868,0.106676 -0.635582,0.203163 -0.959129,0.299728 -0.6679,0.192286 -1.344417,0.364632 -2.038147,0.509536 -0.238402,0.0498 -0.478764,0.101317 -0.719346,0.149864 -0.448812,0.0801 -0.893678,0.155252 -1.348774,0.209809 -0.553387,0.06673 -1.11426,0.117974 -1.678474,0.149864 -0.425706,0.02407 -0.85902,0.02997 -1.288828,0.02997 -0.429808,0 -0.863122,-0.0059 -1.288828,-0.02997 -0.420313,-0.02376 -0.844756,-0.04772 -1.258856,-0.08992 -0.142198,-0.01449 -0.278088,-0.04298 -0.419618,-0.05995 -0.231509,-0.02791 -0.459399,-0.05434 -0.689374,-0.08992 -0.04011,-0.0062 -0.07985,-0.02359 -0.119891,-0.02997 -0.0097,-0.0015 -0.02023,0.0015 -0.02997,0 -0.06998,-0.01124 -0.140038,-0.01819 -0.209809,-0.02997 -0.100749,-0.01702 -0.19965,-0.03975 -0.299727,-0.05995 -0.240582,-0.04855 -0.480944,-0.100067 -0.719346,-0.149864 -0.69373,-0.144904 -1.370247,-0.31725 -2.038147,-0.509536 -0.107859,-0.03106 -0.222527,-0.05747 -0.329701,-0.08992 -0.0092,-0.0029 -0.02079,0.0029 -0.02997,0 -0.380558,-0.115694 -0.737156,-0.255064 -1.108991,-0.389645 -0.0086,-0.0033 -0.0213,0.0033 -0.02997,0 -0.371925,-0.13517 -0.745939,-0.293493 -1.108992,-0.449592 -0.0079,-0.0034 -0.02211,0.0035 -0.02997,0 C 14.086995,35.84082 13.8851,35.747182 13.689373,35.629428 13.568378,35.55663 13.454965,35.463956 13.3297,35.389646 13.109689,35.259129 12.870302,35.133913 12.640327,35 l 2.128065,-6.983651 z m -6.6839233,0.689373 5.4550413,0 -1.768393,5.814714 -0.05995,0.209809 -0.119891,0.329701 0,0.02997 -0.119891,0.359673 -1.138965,3.836513 -0.119891,0.359673 0.3297,0.179836 c 0,0 6.668768,3.746594 13.457766,3.746594 6.788999,1e-6 13.457766,-3.746594 13.457766,-3.746594 l 0.3297,-0.179836 -0.119891,-0.359673 -1.138965,-3.836513 -0.119891,-0.359673 0,-0.02997 -0.179836,-0.53951 -0.959128,-3.147139 -0.809265,-2.667575 5.455041,0 4.825613,16.33515 -41.4822884,0 4.8256131,-16.33515 z" />
  <g
     id="layer1"
     style="display:inline" />
</svg>
