<?xml version="1.0" encoding="UTF-8" standalone="no"?>
<!-- Created with Inkscape (http://www.inkscape.org/) -->

<svg
   xmlns:dc="http://purl.org/dc/elements/1.1/"
   xmlns:cc="http://creativecommons.org/ns#"
   xmlns:rdf="http://www.w3.org/1999/02/22-rdf-syntax-ns#"
   xmlns:svg="http://www.w3.org/2000/svg"
   xmlns="http://www.w3.org/2000/svg"
   xmlns:xlink="http://www.w3.org/1999/xlink"
   xmlns:sodipodi="http://sodipodi.sourceforge.net/DTD/sodipodi-0.dtd"
   xmlns:inkscape="http://www.inkscape.org/namespaces/inkscape"
   version="1.0"
   width="48"
   height="48"
   id="svg2"
   inkscape:version="0.47pre4 r22446"
   sodipodi:docname="debian-logo.svg">
    
  
  
  
  
  <filter>
    </filter>
  <linearGradient
     id="linearGradient4321">
    <stop
       style="stop-color:#969487;stop-opacity:1.0;"
       offset="0"
       id="stop1" />
    <stop
       style="stop-color:#969487;stop-opacity:1.0;"
       offset="1"
       id="stop2" />
  </linearGradient>
  <linearGradient
     inkscape:collect="always"
     xlink:href="#linearGradient4321"
     id="linearGradient1234"
     x1="0%"
     y1="50%"
     x2="100%"
     y2="50%" />
<defs
     id="defs5">
  </defs>
  <path
     d="m 27.168575,2.0093524 c -2.085042,-0.069662 -4.277197,0.2478288 -6.561013,1.0314257 -0.02896,0.0086 -0.05762,0.018159 -0.08595,0.028651 C 12.986568,6.1042442 7.7139441,13.690273 8.2877561,22.437311 c 0.2799786,4.26791 1.5122213,9.190754 4.1543529,13.551787 2.642132,4.361033 6.766218,8.149827 12.663615,9.941797 0.120936,0.0361 0.246265,0.05538 0.372459,0.0573 0.159485,0.0032 0.25299,0.03771 0.573015,-0.02865 0.160012,-0.03318 0.503505,0.0011 0.916822,-0.601665 0.206659,-0.301365 0.277264,-0.799111 0.200555,-1.117378 -0.07671,-0.318267 -0.222578,-0.492807 -0.315157,-0.601665 -0.37032,-0.435432 -0.444418,-0.376501 -0.601665,-0.458411 -0.157247,-0.08191 -0.330411,-0.160816 -0.544364,-0.257857 -7.928513,-3.9699 -12.383241,-12.665863 -12.778218,-21.488033 0.659447,-5.766161 4.362272,-10.017644 9.941797,-12.2911561 4.689391,-0.961294 8.173233,-0.511541 10.600764,1.1173781 2.426406,1.628163 4.035184,4.546435 4.641416,9.139577 -0.270078,2.85858 -1.378905,5.230955 -3.036976,6.589664 -1.660054,1.360336 -3.872931,1.884748 -6.904822,0.916823 -1.825722,-0.885889 -2.926396,-2.343607 -3.524037,-4.899272 -0.384424,-1.643909 -0.04612,-2.759787 1.403885,-4.154353 1.31966,-1.269209 2.019001,-1.517558 4.011099,-1.375235 0.331511,0.02369 0.609893,0.04953 0.830871,0.0573 0.220978,0.0078 0.317948,0.05026 0.687617,-0.02865 0.184834,-0.03946 0.678701,-0.0398 1.031426,-0.83087 0.176363,-0.395536 0.109736,-0.865427 0,-1.117378 -0.109737,-0.251951 -0.204335,-0.375757 -0.286507,-0.458412 -0.328689,-0.330616 -0.421136,-0.31955 -0.573015,-0.40111 -1.371428,-0.736456 -3.049117,-0.813839 -4.670066,-0.42976 -2.360086,0.559225 -4.361643,2.62601 -5.443635,5.042525 -0.02087,0.03729 -0.03999,0.07553 -0.0573,0.114603 -0.892341,2.466588 -0.446627,4.908158 0.429761,6.84752 0.876388,1.939363 2.142047,3.405282 3.323483,4.240306 2.019328,1.427227 3.823295,1.603965 5.558238,1.60444 1.73592,4.76e-4 2.925764,-0.154283 4.555463,-0.916823 0.02896,-0.0086 0.05762,-0.01816 0.08595,-0.02865 4.020773,-2.256822 6.396267,-5.582056 7.21998,-9.110926 0.823713,-3.528871 0.160968,-7.21452 -1.575789,-10.400209 C 38.573638,5.8833333 33.423702,2.2183382 27.168575,2.0093524 z"
     id="path2163"
     style="fill:url(#linearGradient1234);fill-opacity:1;stroke:none;filter:url(#filter1111)" />
</svg>
