<?xml version="1.0" encoding="UTF-8" standalone="no"?>
<!-- Created with Inkscape (http://www.inkscape.org/) -->

<svg
   xmlns:dc="http://purl.org/dc/elements/1.1/"
   xmlns:cc="http://creativecommons.org/ns#"
   xmlns:rdf="http://www.w3.org/1999/02/22-rdf-syntax-ns#"
   xmlns:svg="http://www.w3.org/2000/svg"
   xmlns="http://www.w3.org/2000/svg"
   xmlns:xlink="http://www.w3.org/1999/xlink"
   xmlns:sodipodi="http://sodipodi.sourceforge.net/DTD/sodipodi-0.dtd"
   xmlns:inkscape="http://www.inkscape.org/namespaces/inkscape"
   version="1.0"
   width="48"
   height="48"
   id="svg3304"
   inkscape:version="0.47pre4 r22446"
   sodipodi:docname="edit-urpm-sources.svg">
    
  
  
  
  
  <filter>
    </filter>
  <linearGradient
     id="linearGradient4321">
    <stop
       style="stop-color:#969487;stop-opacity:1.0;"
       offset="0"
       id="stop1" />
    <stop
       style="stop-color:#969487;stop-opacity:1.0;"
       offset="1"
       id="stop2" />
  </linearGradient>
  <linearGradient
     inkscape:collect="always"
     xlink:href="#linearGradient4321"
     id="linearGradient1234"
     x1="0%"
     y1="50%"
     x2="100%"
     y2="50%" />
<defs
     id="defs3306">
  </defs>
  <path
     style="fill:url(#linearGradient1234);fill-opacity:1;fill-rule:evenodd;stroke:none;filter:url(#filter1111)"
     id="path3312"
     d="M 19.130208,2 C 9.3242666,4.2436632 2,13.120625 2,23.724456 2,36.020556 11.856,46.000002 24,46 36.144,46 46.000002,36.020557 46,23.724456 46,13.152534 38.717261,4.3056979 28.955729,2.0290046 l 0,6.4100194 4.526042,0 -9.453125,8.788399 -9.510417,-8.788399 4.611979,0 0,-6.439024 z M 24,19.083718 c 2.53,0 4.583333,2.07905 4.583333,4.640738 0,2.561689 -2.053333,4.640738 -4.583333,4.640738 -2.53,0 -4.583333,-2.079049 -4.583333,-4.640738 0,-2.561688 2.053333,-4.640738 4.583333,-4.640738 z" />
</svg>
