<?xml version="1.0" encoding="UTF-8" standalone="no"?>
<!-- Created with Inkscape (http://www.inkscape.org/) -->

<svg
   xmlns:dc="http://purl.org/dc/elements/1.1/"
   xmlns:cc="http://creativecommons.org/ns#"
   xmlns:rdf="http://www.w3.org/1999/02/22-rdf-syntax-ns#"
   xmlns:svg="http://www.w3.org/2000/svg"
   xmlns="http://www.w3.org/2000/svg"
   xmlns:xlink="http://www.w3.org/1999/xlink"
   xmlns:sodipodi="http://sodipodi.sourceforge.net/DTD/sodipodi-0.dtd"
   xmlns:inkscape="http://www.inkscape.org/namespaces/inkscape"
   version="1.0"
   width="48"
   height="48"
   id="svg1325"
   inkscape:version="0.47pre4 r22446"
   sodipodi:docname="gnome-panel-notification-area.svg">
    
  
  
  
  
  <filter>
    </filter>
  <linearGradient
     id="linearGradient4321">
    <stop
       style="stop-color:#969487;stop-opacity:1.0;"
       offset="0"
       id="stop1" />
    <stop
       style="stop-color:#969487;stop-opacity:1.0;"
       offset="1"
       id="stop2" />
  </linearGradient>
  <linearGradient
     inkscape:collect="always"
     xlink:href="#linearGradient4321"
     id="linearGradient1234"
     x1="0%"
     y1="50%"
     x2="100%"
     y2="50%" />
<defs
     id="defs1327">
  </defs>
  <path
     style="fill:url(#linearGradient1234);fill-opacity:1;stroke:none;filter:url(#filter1111)"
     id="rect1333"
     d="M 3.7466085,7.7586744 C 2.7533781,7.8522839 1.9957165,8.6883238 2.0000182,9.6859465 l 0,27.9454455 c 1.064e-4,1.064359 0.8629132,1.927166 1.9272721,1.927272 l 15.0568127,0 c 2.649338,2.394628 6.148047,3.854543 9.997724,3.854544 3.849677,0 7.348386,-1.459916 9.997724,-3.854544 l 14.093177,0 C 54.137087,39.558558 54.999894,38.695751 55,37.631392 L 55,9.6859465 C 54.999894,8.6215875 54.137087,7.7587808 53.072728,7.7586744 l -49.1454377,0 c -0.060195,-0.00282 -0.1204877,-0.00282 -0.1806818,0 z m 2.1079538,3.8545446 45.2908937,0 0,24.090901 -9.094315,0 c 1.190199,-2.143885 1.867045,-4.602927 1.867045,-7.22727 0,-8.244872 -6.691493,-14.936359 -14.936359,-14.936359 -8.244866,0 -14.936358,6.691486 -14.936358,14.936359 0,2.624343 0.676845,5.083385 1.867044,7.22727 l -10.0579507,0 0,-24.090901 z m 23.6090827,7.22727 c 1.329819,10e-7 2.40909,1.079273 2.40909,2.40909 1e-6,1.329818 -1.079272,2.40909 -2.40909,2.40909 -1.329818,0 -2.40909,-1.079272 -2.40909,-2.40909 0,-1.329818 1.079272,-2.40909 2.40909,-2.40909 z m -4.336362,6.745452 6.745452,0 0,9.606247 1.927272,0.03011 0,0.481818 -8.672724,0 0,-0.481818 1.927272,0 0,-7.709089 -1.927272,0 0,-1.927272 z" />
</svg>
