<?xml version="1.0" encoding="UTF-8" standalone="no"?>
<!-- Created with Inkscape (http://www.inkscape.org/) -->

<svg
   xmlns:dc="http://purl.org/dc/elements/1.1/"
   xmlns:cc="http://creativecommons.org/ns#"
   xmlns:rdf="http://www.w3.org/1999/02/22-rdf-syntax-ns#"
   xmlns:svg="http://www.w3.org/2000/svg"
   xmlns="http://www.w3.org/2000/svg"
   xmlns:xlink="http://www.w3.org/1999/xlink"
   xmlns:sodipodi="http://sodipodi.sourceforge.net/DTD/sodipodi-0.dtd"
   xmlns:inkscape="http://www.inkscape.org/namespaces/inkscape"
   version="1.0"
   width="48"
   height="48"
   id="svg2"
   inkscape:version="0.47pre4 r22446"
   sodipodi:docname="murrine-configurator.svg">
    
  
  
  
  
  <filter>
    </filter>
  <linearGradient
     id="linearGradient4321">
    <stop
       style="stop-color:#969487;stop-opacity:1.0;"
       offset="0"
       id="stop1" />
    <stop
       style="stop-color:#969487;stop-opacity:1.0;"
       offset="1"
       id="stop2" />
  </linearGradient>
  <linearGradient
     inkscape:collect="always"
     xlink:href="#linearGradient4321"
     id="linearGradient1234"
     x1="0%"
     y1="50%"
     x2="100%"
     y2="50%" />
<defs
     id="defs5">
  </defs>
  <path
     d="M 24,2 C 11.856001,2 2,11.856001 2,24 2,36.144 11.856,46.000002 24,46 36.143999,46 46,36.144 46,24 46,11.856 36.143999,2 24,2 z m 0,4.5833333 c 9.613998,2e-7 17.416667,7.8026677 17.416667,17.4166667 -10e-7,5.561681 -2.611921,10.503312 -6.67448,13.692708 L 32.364583,14.661458 28.783854,14.375 24.200521,32.278646 20.5625,14.460938 16.953125,14.546875 13.401042,37.807292 C 9.2560669,34.622596 6.5833333,29.627298 6.5833333,24 6.5833332,14.386002 14.386002,6.5833333 24,6.5833333 z m -4.984375,18.7057297 3.179687,15.583333 3.58073,0.08594 4.010416,-15.640625 1.460938,14.494792 C 29.039521,40.82562 26.586876,41.416667 24,41.416667 c -2.573228,0 -5.019925,-0.572453 -7.21875,-1.575521 l 2.234375,-14.552083 z"
     id="path2161"
     style="fill:url(#linearGradient1234);fill-opacity:1;fill-rule:nonzero;stroke:none;stroke-width:0.80759192000000002;marker:none;visibility:visible;display:inline;overflow:visible;enable-background:accumulate;filter:url(#filter1111)" />
</svg>
