<?xml version="1.0" encoding="UTF-8" standalone="no"?>
<!-- Created with Inkscape (http://www.inkscape.org/) -->

<svg
   xmlns:dc="http://purl.org/dc/elements/1.1/"
   xmlns:cc="http://creativecommons.org/ns#"
   xmlns:rdf="http://www.w3.org/1999/02/22-rdf-syntax-ns#"
   xmlns:svg="http://www.w3.org/2000/svg"
   xmlns="http://www.w3.org/2000/svg"
   xmlns:xlink="http://www.w3.org/1999/xlink"
   xmlns:sodipodi="http://sodipodi.sourceforge.net/DTD/sodipodi-0.dtd"
   xmlns:inkscape="http://www.inkscape.org/namespaces/inkscape"
   version="1.0"
   width="48"
   height="48"
   id="svg1"
   inkscape:version="0.47pre4 r22446"
   sodipodi:docname="nm-signal-50.svg">
    
  
  
  
  
  <filter>
    </filter>
  <linearGradient
     id="linearGradient4321">
    <stop
       style="stop-color:#969487;stop-opacity:1.0;"
       offset="0"
       id="stop1" />
    <stop
       style="stop-color:#969487;stop-opacity:1.0;"
       offset="1"
       id="stop2" />
  </linearGradient>
  <linearGradient
     inkscape:collect="always"
     xlink:href="#linearGradient4321"
     id="linearGradient1234"
     x1="0%"
     y1="50%"
     x2="100%"
     y2="50%" />
<defs
     id="defs3">
  </defs>
  <path
     d="m 24,27.496355 c -3.731145,0 -7.097809,1.538352 -9.543243,3.983784 -0.09263,0.08962 -0.148649,0.198135 -0.148649,0.327027 0,0.128892 0.05602,0.267133 0.148649,0.356757 l 3.062162,3.032432 c 0.183444,0.17364 0.47061,0.17364 0.654054,0 1.48883,-1.488828 3.555009,-2.408108 5.827027,-2.408108 2.272017,0 4.338197,0.919278 5.827027,2.408108 0.183444,0.17364 0.47061,0.17364 0.654054,0 l 3.062162,-3.032432 c 0.09263,-0.08962 0.148649,-0.227865 0.148649,-0.356757 0,-0.128892 -0.05602,-0.237403 -0.148649,-0.327027 C 31.097807,29.034706 27.731145,27.496355 24,27.496355 z m 0,8.710811 c -1.333472,-2e-6 -2.521333,0.559167 -3.389189,1.427027 -0.17364,0.183445 -0.17364,0.47061 0,0.654054 l 3.062162,3.062162 c 0.183444,0.17364 0.47061,0.17364 0.654054,0 l 3.062162,-3.062162 c 0.17364,-0.183444 0.17364,-0.470609 0,-0.654054 C 26.521332,36.766336 25.333472,36.207165 24,36.207166 z"
     id="path2263"
     style="fill:url(#linearGradient1234);fill-opacity:1;fill-rule:nonzero;stroke:none;stroke-width:1;marker:none;visibility:visible;display:inline;overflow:visible;enable-background:accumulate;filter:url(#filter1111)"
     sodipodi:nodetypes="csscccscccssccsccccsc" />
</svg>
