<?xml version="1.0" encoding="UTF-8" standalone="no"?>
<!-- Created with Inkscape (http://www.inkscape.org/) -->

<svg
   xmlns:dc="http://purl.org/dc/elements/1.1/"
   xmlns:cc="http://creativecommons.org/ns#"
   xmlns:rdf="http://www.w3.org/1999/02/22-rdf-syntax-ns#"
   xmlns:svg="http://www.w3.org/2000/svg"
   xmlns="http://www.w3.org/2000/svg"
   xmlns:xlink="http://www.w3.org/1999/xlink"
   xmlns:sodipodi="http://sodipodi.sourceforge.net/DTD/sodipodi-0.dtd"
   xmlns:inkscape="http://www.inkscape.org/namespaces/inkscape"
   version="1.0"
   width="48"
   height="48"
   id="svg2"
   inkscape:version="0.47pre4 r22446"
   sodipodi:docname="appointment.svg">
    
  
  
  
  
  
  <filter>
    </filter>
  <linearGradient
     id="linearGradient4321">
    <stop
       style="stop-color:#969487;stop-opacity:1.0;"
       offset="0"
       id="stop1" />
    <stop
       style="stop-color:#969487;stop-opacity:1.0;"
       offset="1"
       id="stop2" />
  </linearGradient>
  <linearGradient
     inkscape:collect="always"
     xlink:href="#linearGradient4321"
     id="linearGradient1234"
     x1="0%"
     y1="50%"
     x2="100%"
     y2="50%" />
<defs
     id="defs4">
  </defs>
  <path
     style="fill:url(#linearGradient1234);fill-opacity:1;fill-rule:evenodd;stroke:none;filter:url(#filter1111)"
     id="path1552"
     d="M 24.009546,4 C 12.997253,4.0000006 4,12.978161 4,23.990453 4,35.002745 12.997255,44 24.009546,44 35.021836,43.999999 44.000002,35.002747 44,23.990453 43.999998,12.978161 35.021838,4 24.009546,4 z m 0,5.365155 c 8.104859,0 14.625299,6.520437 14.625299,14.625298 1e-6,8.104861 -6.520438,14.625299 -14.625299,14.625299 -8.104862,10e-7 -14.6252977,-6.520437 -14.6252977,-14.625299 -7e-7,-8.104861 6.5204367,-14.625298 14.6252977,-14.625298 z m -1.050119,2.023866 c -1.057555,0 -1.909308,0.851754 -1.909308,1.909308 l 0,12.162291 c 0,0.457984 0.172205,0.874612 0.439141,1.202864 0.0077,0.0125 0.01101,0.02583 0.01909,0.03819 0.06956,0.10631 0.155215,0.211536 0.24821,0.30549 l 6.319809,6.396181 c 0.743962,0.751628 1.95959,0.763057 2.711217,0.01909 l 0.706445,-0.706444 c 0.751628,-0.743961 0.763055,-1.959588 0.01909,-2.711218 l -5.632458,-5.708829 0,-10.997614 c 0,-1.057555 -0.851751,-1.909308 -1.909309,-1.909308 l -1.011932,0 z" />
</svg>
