<?xml version="1.0" encoding="UTF-8" standalone="no"?>
<!-- Created with Inkscape (http://www.inkscape.org/) -->

<svg
   xmlns:dc="http://purl.org/dc/elements/1.1/"
   xmlns:cc="http://creativecommons.org/ns#"
   xmlns:rdf="http://www.w3.org/1999/02/22-rdf-syntax-ns#"
   xmlns:svg="http://www.w3.org/2000/svg"
   xmlns="http://www.w3.org/2000/svg"
   xmlns:xlink="http://www.w3.org/1999/xlink"
   xmlns:sodipodi="http://sodipodi.sourceforge.net/DTD/sodipodi-0.dtd"
   xmlns:inkscape="http://www.inkscape.org/namespaces/inkscape"
   version="1.0"
   width="48"
   height="48"
   id="svg2"
   inkscape:version="0.47pre4 r22446"
   sodipodi:docname="stock_mail-merge.svg">
    
  
  
  
  
  
  <filter>
    </filter>
  <linearGradient
     id="linearGradient4321">
    <stop
       style="stop-color:#969487;stop-opacity:1.0;"
       offset="0"
       id="stop1" />
    <stop
       style="stop-color:#969487;stop-opacity:1.0;"
       offset="1"
       id="stop2" />
  </linearGradient>
  <linearGradient
     inkscape:collect="always"
     xlink:href="#linearGradient4321"
     id="linearGradient1234"
     x1="0%"
     y1="50%"
     x2="100%"
     y2="50%" />
<defs
     id="defs4">
  </defs>
  <path
     style="fill:url(#linearGradient1234);fill-opacity:1;fill-rule:nonzero;stroke:none;stroke-width:1;marker:none;visibility:visible;display:inline;overflow:visible;enable-background:accumulate;filter:url(#filter1111)"
     id="rect2161"
     d="m 2,8.6692708 0,1.0598959 0,0.171875 0,14.6666663 0,0.6875 0,0.515625 1.0598958,0 0.171875,0 7.9348962,0 0,4.898438 0,0.6875 0,0.544271 1.059896,0 0.171875,0 7.934895,0 0,4.898437 0,0.6875 0,0.544271 1.059896,0 0.171875,0 23.203125,0 0.171875,0 1.059896,0 0,-0.544271 0,-0.6875 0,-14.666667 0,-0.143229 0,-1.059896 -1.059896,0 -0.171875,0 -7.934896,0 0,-4.927083 0,-0.143229 0,-1.088542 -1.059896,0 -0.171875,0 -7.934895,0 0,-4.8697913 0,-0.171875 0,-1.0598959 -1.059896,0 -0.171875,0 -23.2031252,0 -0.171875,0 -1.0598958,0 z m 2.8359375,1.6041662 19.9947915,0 -4.497396,4.497396 -7.934895,0 -0.171875,0 -1.059896,0 0,1.088542 0,0.143229 0,0.601563 -6.3307295,-6.33073 z m -1.2317708,1.231771 5.7291666,5.729167 -5.7291666,5.729167 0,-11.458334 z m 22.4583333,0 0,3.265625 -3.265625,0 3.265625,-3.265625 z M 14.002604,16.375 l 19.994792,0 -4.554688,4.554687 -7.877604,0 -0.171875,0 -1.059896,0 0,1.059896 0,0.143229 0,0.601563 L 14.002604,16.375 z m -1.231771,1.231771 5.729167,5.729166 -5.729167,5.729167 0,-11.458333 z m 22.458334,0 0,3.322916 -3.322917,0 3.322917,-3.322916 z m -24.664063,0.830729 0.601563,0.601562 0,5.127605 -6.3307295,0 5.7291665,-5.729167 z m 12.604167,4.096354 19.994791,0 -9.997395,9.997396 -9.997396,-9.997396 z m -1.231771,1.203125 5.729167,5.729167 -5.729167,5.729166 0,-11.458333 z m 22.458333,0 0,11.458333 -5.729166,-5.729166 5.729166,-5.729167 z m -24.664062,0.830729 0.601562,0.601563 0,5.127604 -6.330729,0 5.729167,-5.729167 z m 9.166666,6.130209 4.26823,4.268229 4.268229,-4.268229 5.729166,5.729166 -19.994791,0 5.729166,-5.729166 z" />
</svg>
