<?xml version="1.0" encoding="UTF-8" standalone="no"?>
<!-- Created with Inkscape (http://www.inkscape.org/) -->

<svg
   xmlns:dc="http://purl.org/dc/elements/1.1/"
   xmlns:cc="http://creativecommons.org/ns#"
   xmlns:rdf="http://www.w3.org/1999/02/22-rdf-syntax-ns#"
   xmlns:svg="http://www.w3.org/2000/svg"
   xmlns="http://www.w3.org/2000/svg"
   xmlns:xlink="http://www.w3.org/1999/xlink"
   xmlns:sodipodi="http://sodipodi.sourceforge.net/DTD/sodipodi-0.dtd"
   xmlns:inkscape="http://www.inkscape.org/namespaces/inkscape"
   version="1.0"
   width="48"
   height="48"
   id="svg2"
   inkscape:version="0.47pre4 r22446"
   sodipodi:docname="font.svg">
        
  
  
  
  
  <filter>
    </filter>
  <linearGradient
     id="linearGradient4321">
    <stop
       style="stop-color:#1577D3;stop-opacity:1.0;"
       offset="0"
       id="stop1" />
    <stop
       style="stop-color:#1577D3;stop-opacity:1.0;"
       offset="1"
       id="stop2" />
  </linearGradient>
  <linearGradient
     inkscape:collect="always"
     xlink:href="#linearGradient4321"
     id="linearGradient1234"
     x1="0%"
     y1="50%"
     x2="100%"
     y2="50%" />
<defs
     id="defs4">
  </defs>
  <g
     id="layer1"
     transform="matrix(0.37737872,0,0,0.37737872,-0.28785849,-0.4387017)">
    <path
       d="m 16.65625,20.4375 -10.59375,10.625 8,0 0,62 -6.21875,0 0,5 6.21875,0 0,7 5,0 0,-7 93,0 0,8 10.59375,-10.625 -10.59375,-10.59375 0,8.21875 -93,0 0,-62 8.1875,0 -10.59375,-10.625 z M 47.75,39.1875 c -0.56304,5e-5 -1.045851,0.48963 -1.4375,1.46875 -0.04898,0.122444 -0.07606,0.252648 -0.125,0.375 l -14.96875,38.75 -0.03125,0.0625 c -1.199475,3.084372 -2.322403,4.919272 -3.375,5.53125 -0.563021,0.318227 -1.463547,0.533859 -2.6875,0.65625 -0.02448,6e-6 -0.03802,9e-6 -0.0625,0 -0.807809,0.04896 -1.348956,0.172395 -1.59375,0.34375 -0.244788,0.146872 -0.343743,0.369273 -0.34375,0.6875 6e-6,0.318227 0.150523,0.578654 0.46875,0.75 0.293749,0.171355 0.725007,0.250001 1.3125,0.25 0.318233,0 1.16042,-0.06511 2.53125,-0.1875 1.370831,-0.122394 2.603646,-0.187499 3.65625,-0.1875 1.689057,0 3.445307,0.07864 5.28125,0.25 1.835923,0.171349 2.821858,0.25 2.96875,0.25 0.48957,0 0.848942,-0.07865 1.09375,-0.25 0.269259,-0.171355 0.406237,-0.393751 0.40625,-0.6875 -1.3e-5,-0.734377 -1.051061,-1.275522 -3.15625,-1.59375 -0.269284,-0.04896 -0.478133,-0.06927 -0.625,-0.09375 -0.979171,-0.122388 -1.62605,-0.331251 -1.96875,-0.625 -0.318233,-0.293743 -0.500007,-0.769789 -0.5,-1.40625 -6e-6,-0.465099 0.130199,-1.183849 0.375,-2.1875 0.244782,-1.003636 0.597389,-2.191664 1.0625,-3.5625 l 2.25,-6.6875 c 0.0979,-0.220298 0.241653,-0.37759 0.4375,-0.5 0.19582,-0.122375 0.404675,-0.187484 0.625,-0.1875 l 11.6875,0 c 0.440602,1.3e-5 0.734874,0.0271 0.90625,0.125 0.17133,0.07346 0.308308,0.217202 0.40625,0.4375 l 3.71875,9.625 c 0.293724,0.75886 0.509349,1.436988 0.65625,2 0.146847,0.563028 0.218723,1.045838 0.21875,1.4375 -2.5e-5,0.611976 -0.195343,1.036462 -0.5625,1.28125 -0.342736,0.244794 -1.06826,0.402083 -2.21875,0.5 -0.07346,0 -0.210448,0.0068 -0.40625,0.03125 -1.713566,0.1224 -2.593768,0.519797 -2.59375,1.15625 -1.9e-5,0.342711 0.130189,0.571875 0.375,0.71875 0.244769,0.122394 0.669247,0.187497 1.28125,0.1875 0.02445,0 1.120289,-0.0651 3.25,-0.1875 2.154131,-0.1224 4.269761,-0.187498 6.375,-0.1875 1.272876,0 2.820279,0.0651 4.65625,0.1875 1.860369,0.122394 3.099955,0.187497 3.6875,0.1875 0.538494,0 0.911412,-0.07187 1.15625,-0.21875 0.269222,-0.171355 0.406203,-0.438536 0.40625,-0.78125 -4.4e-5,-0.318227 -0.417761,-0.598964 -1.25,-0.84375 -0.049,-0.02448 -0.06255,-0.03124 -0.0625,-0.03125 -0.416187,-0.09791 -0.820352,-0.190109 -1.1875,-0.3125 -0.367226,-0.122394 -0.681819,-0.26614 -1,-0.4375 -0.881292,-0.465099 -1.644834,-1.143227 -2.28125,-2 C 65.926002,82.400008 65.155687,80.801049 64.25,78.5 L 50.03125,42.71875 C 49.908831,42.425044 49.758306,42.000564 49.5625,41.4375 49.023937,39.944319 48.410912,39.18755 47.75,39.1875 z m -2.90625,13.21875 c 0.122375,0.02452 0.245814,0.09639 0.34375,0.21875 0.0979,0.09795 0.17654,0.24847 0.25,0.46875 l 5.03125,13.09375 c 0.02446,0.07346 0.038,0.1521 0.0625,0.25 0.04894,0.195852 0.09372,0.339599 0.09375,0.4375 -2.5e-5,0.195852 -0.0719,0.346376 -0.21875,0.46875 -0.122419,0.122419 -0.310958,0.187526 -0.53125,0.1875 l -9.46875,0 c -0.220329,2.5e-5 -0.370847,-0.05154 -0.46875,-0.125 -0.09793,-0.07341 -0.156264,-0.165603 -0.15625,-0.3125 0.02446,-0.146853 0.07603,-0.342165 0.125,-0.5625 0.02447,-0.09789 0.03124,-0.169767 0.03125,-0.21875 l 4.375,-13.28125 c 0.07342,-0.171318 0.152063,-0.308296 0.25,-0.40625 0.0979,-0.122363 0.183316,-0.194235 0.28125,-0.21875 z m 44.78125,1 c -4.577609,3.1e-5 -8.566161,1.116187 -11.96875,3.34375 -3.402605,2.203149 -5.125009,4.592734 -5.125,7.1875 -6e-6,0.367207 0.188543,0.668255 0.53125,0.9375 0.342705,0.269297 0.767184,0.406274 1.28125,0.40625 1.395302,2.5e-5 2.531769,-0.280708 3.4375,-0.84375 0.905719,-0.587474 1.884893,-1.840609 2.9375,-3.75 1.028114,-1.909343 2.052075,-3.196326 3.03125,-3.90625 0.979152,-0.709861 2.129158,-1.06247 3.5,-1.0625 1.419773,3.1e-5 2.398941,0.417745 2.9375,1.25 0.563002,0.832324 0.843724,2.400036 0.84375,4.75 l 0,5.375 c -2.5e-5,0.611995 -0.07189,1.029703 -0.21875,1.25 -0.146897,0.195852 -0.427626,0.359917 -0.84375,0.53125 l -2.40625,0.96875 c -5.65469,2.227614 -9.557824,4.329704 -11.6875,6.3125 -2.129691,1.982819 -3.187497,4.352093 -3.1875,7.09375 0,1.835935 0.575005,3.304688 1.75,4.40625 1.199475,1.077081 2.811976,1.625 4.84375,1.625 1.297379,0 2.615616,-0.273964 3.9375,-0.8125 1.321857,-0.51406 3.143216,-1.55834 5.46875,-3.125 l 2.03125,-1.3125 0.5625,0 c 0.68539,1.689057 1.554665,2.969271 2.65625,3.875 1.10154,0.905726 2.347892,1.375 3.71875,1.375 1.640071,0 3.39632,-0.684903 5.28125,-2.03125 1.88486,-1.346353 2.84371,-2.4625 2.84375,-3.34375 -4e-5,-0.342705 -0.1167,-0.616659 -0.3125,-0.8125 -0.17139,-0.195827 -0.40733,-0.281245 -0.75,-0.28125 -0.34274,6e-6 -0.94222,0.280738 -1.75,0.84375 -0.80784,0.538544 -1.44795,0.812503 -1.9375,0.8125 -0.83232,6e-6 -1.445346,-0.390623 -1.8125,-1.125 C 98.851537,82.60938 98.687471,81.335938 98.6875,79.5 l 0,-17.46875 c -3.1e-5,-3.427045 -0.640131,-5.724447 -1.9375,-6.875 -1.297417,-1.174966 -3.673467,-1.749967 -7.125,-1.75 z m 1.03125,17.5625 c 0.146853,0.02449 0.239043,0.134392 0.3125,0.28125 0.07341,0.14689 0.131753,0.362517 0.15625,0.65625 l 0,5.9375 c -1.9e-5,1.78698 -0.684923,3.334384 -2.03125,4.65625 -1.321888,1.297398 -2.848981,1.968753 -4.5625,1.96875 -1.150533,6e-6 -2.013033,-0.410936 -2.625,-1.21875 -0.587505,-0.807809 -0.875009,-1.989058 -0.875,-3.53125 -6e-6,-1.64009 0.44478,-3.057282 1.375,-4.28125 0.954668,-1.248424 2.338006,-2.227594 4.125,-2.9375 l 3.15625,-1.21875 c 0.17133,-0.07343 0.328629,-0.138524 0.5,-0.1875 0.195814,-0.07342 0.370811,-0.124987 0.46875,-0.125 z"
       id="flowRoot4401"
       style="fill:url(#linearGradient1234);filter:url(#filter1111);fill-opacity:1" />
  </g>
</svg>
