<?xml version="1.0" encoding="UTF-8" standalone="no"?>
<!-- Created with Inkscape (http://www.inkscape.org/) -->

<svg
   xmlns:dc="http://purl.org/dc/elements/1.1/"
   xmlns:cc="http://creativecommons.org/ns#"
   xmlns:rdf="http://www.w3.org/1999/02/22-rdf-syntax-ns#"
   xmlns:svg="http://www.w3.org/2000/svg"
   xmlns="http://www.w3.org/2000/svg"
   xmlns:xlink="http://www.w3.org/1999/xlink"
   xmlns:sodipodi="http://sodipodi.sourceforge.net/DTD/sodipodi-0.dtd"
   xmlns:inkscape="http://www.inkscape.org/namespaces/inkscape"
   version="1.0"
   width="48"
   height="48"
   id="svg3332"
   inkscape:version="0.47 r22583"
   sodipodi:docname="misc-cd-image.svg">
    
  
  
  
  
  <filter>
    </filter>
  <linearGradient
     id="linearGradient4321">
    <stop
       style="stop-color:#1577D3;stop-opacity:1.0;"
       offset="0"
       id="stop1" />
    <stop
       style="stop-color:#1577D3;stop-opacity:1.0;"
       offset="1"
       id="stop2" />
  </linearGradient>
  <linearGradient
     inkscape:collect="always"
     xlink:href="#linearGradient4321"
     id="linearGradient1234"
     x1="0%"
     y1="50%"
     x2="100%"
     y2="50%" />
<defs
     id="defs3334">
  </defs>
  <path
     d="M 46.1,24.000003 C 46.1,36.144 36.244001,46 24.1,46 11.956,46 2.1,36.144 2.1,24.000003 c 0,-12.143998 9.856,-21.9999975 22,-21.9999975 12.144001,0 22,9.8559995 22,21.9999975 z M 33.374512,24 c 0,5.119529 -4.15498,9.27451 -9.274509,9.27451 -5.119529,0 -9.27451,-4.154981 -9.27451,-9.27451 0,-5.119533 4.154981,-9.274512 9.27451,-9.274512 5.119529,0 9.274509,4.154979 9.274509,9.274512 z m -1.294118,-1e-6 c 0,4.405177 -3.575216,7.980392 -7.980392,7.980392 -4.405177,0 -7.980393,-3.575215 -7.980393,-7.980392 0,-4.405177 3.575216,-7.980392 7.980393,-7.980392 4.405176,0 7.980392,3.575215 7.980392,7.980392 z m -1.941179,0 c 0,3.333647 -2.705568,6.039215 -6.039215,6.039215 -3.333647,0 -6.039216,-2.705568 -6.039216,-6.039215 0,-3.333647 2.705569,-6.039216 6.039216,-6.039216 3.333647,0 6.039215,2.705569 6.039215,6.039216 z"
     id="path3170"
     style="fill:url(#linearGradient1234);fill-opacity:1;fill-rule:evenodd;stroke:none;filter:url(#filter1111)" />
</svg>
