<?xml version="1.0" encoding="UTF-8" standalone="no"?>
<!-- Created with Inkscape (http://www.inkscape.org/) -->

<svg
   xmlns:dc="http://purl.org/dc/elements/1.1/"
   xmlns:cc="http://creativecommons.org/ns#"
   xmlns:rdf="http://www.w3.org/1999/02/22-rdf-syntax-ns#"
   xmlns:svg="http://www.w3.org/2000/svg"
   xmlns="http://www.w3.org/2000/svg"
   xmlns:xlink="http://www.w3.org/1999/xlink"
   xmlns:sodipodi="http://sodipodi.sourceforge.net/DTD/sodipodi-0.dtd"
   xmlns:inkscape="http://www.inkscape.org/namespaces/inkscape"
   version="1.0"
   width="48"
   height="48"
   id="svg249"
   inkscape:version="0.47pre4 r22446"
   sodipodi:docname="gtk-zoom-in.svg">
    
  
  
  
  
  
  <filter>
    </filter>
  <linearGradient
     id="linearGradient4321">
    <stop
       style="stop-color:#969487;stop-opacity:1.0;"
       offset="0"
       id="stop1" />
    <stop
       style="stop-color:#969487;stop-opacity:1.0;"
       offset="1"
       id="stop2" />
  </linearGradient>
  <linearGradient
     inkscape:collect="always"
     xlink:href="#linearGradient4321"
     id="linearGradient1234"
     x1="0%"
     y1="50%"
     x2="100%"
     y2="50%" />
<defs
     id="defs3">
  </defs>
  <path
     style="fill:url(#linearGradient1234);fill-opacity:1;stroke:none;filter:url(#filter1111)"
     id="path4119"
     d="M 19.606184,2 C 9.8956091,2 2,9.8764086 2,19.56337 c 0,9.686961 7.8956096,17.533998 17.606184,17.533999 4.323202,0 8.274416,-1.560594 11.335086,-4.141196 l 1.295438,4.141196 7.684305,8.223651 c 0.530467,0.566974 3.032042,1.410227 4.97566,-0.528664 1.649214,-1.645205 1.116339,-4.417598 0.529952,-4.96356 L 37.182927,32.163178 33.031636,30.87089 C 35.618529,27.817663 37.182927,23.876058 37.182927,19.56337 37.182927,9.8764086 29.31676,2 19.606184,2 z m 0,4.3761572 c 7.282932,-10e-8 13.189918,5.9219918 13.189918,13.1872128 -10e-7,7.26522 -5.906986,13.157841 -13.189918,13.157841 C 12.323254,32.72121 6.3868252,26.82859 6.3868252,19.56337 6.386825,12.29815 12.323253,6.3761572 19.606184,6.3761572 z m -2.82641,3.3188304 0,7.0488444 -7.0660276,0 0,5.639075 7.0660276,0 0,7.048844 5.652821,0 0,-7.048844 7.066027,0 0,-5.639075 -7.066027,0 0,-7.0488444 -5.652821,0 z" />
</svg>
