<?xml version="1.0" encoding="UTF-8" standalone="no"?>
<!-- Created with Inkscape (http://www.inkscape.org/) -->
<svg
   xmlns:svg="http://www.w3.org/2000/svg"
   xmlns="http://www.w3.org/2000/svg"
   xmlns:xlink="http://www.w3.org/1999/xlink"
   version="1.0"
   width="48"
   height="48"
   id="svg2383">
        
  
  
  
  
  <filter>
    </filter>
  <linearGradient
     id="linearGradient4321">
    <stop
       style="stop-color:#1577D3;stop-opacity:1.0;"
       offset="0"
       id="stop1" />
    <stop
       style="stop-color:#1577D3;stop-opacity:1.0;"
       offset="1"
       id="stop2" />
  </linearGradient>
  <linearGradient
     inkscape:collect="always"
     xlink:href="#linearGradient4321"
     id="linearGradient1234"
     x1="0%"
     y1="50%"
     x2="100%"
     y2="50%" />
<defs
     id="defs2385" />
  <g
     id="layer1">
    <path
       d="M 13.107548,4.6 C 12.706816,4.6 12.4,4.9076122 12.4,5.2938199 L 12.4,41.906175 C 12.4,42.292387 12.706816,42.6 13.107548,42.6 L 23.862266,42.6 L 36.4,30.778368 L 36.4,16.768546 L 23.494823,4.6 L 13.107548,4.6 z M 25.532071,4.6 L 36.4,14.847192 L 36.4,5.2938199 C 36.4,4.9076122 36.06488,4.6 35.664153,4.6 L 25.532071,4.6 z M 36.4,32.69972 L 25.9,42.6 L 35.664153,42.6 C 36.06489,42.6 36.4,42.292387 36.4,41.906175 L 36.4,32.69972 z"
       id="path3208"
       style="fill:url(#linearGradient1234);filter:url(#filter1111);fill-opacity:1;fill-rule:evenodd;stroke:none;stroke-width:0.80000001;stroke-linecap:round;stroke-linejoin:round;stroke-miterlimit:4;stroke-dasharray:none;stroke-dashoffset:0;stroke-opacity:1" />
  </g>
</svg>
