<?xml version="1.0" encoding="UTF-8" standalone="no"?>
<!-- Created with Inkscape (http://www.inkscape.org/) -->
<svg
   xmlns:svg="http://www.w3.org/2000/svg"
   xmlns="http://www.w3.org/2000/svg"
   xmlns:xlink="http://www.w3.org/1999/xlink"
   version="1.0"
   width="48"
   height="48"
   id="svg2383">
        
  
  
  
  
  <filter>
    </filter>
  <linearGradient
     id="linearGradient4321">
    <stop
       style="stop-color:#969487;stop-opacity:1.0;"
       offset="0"
       id="stop1" />
    <stop
       style="stop-color:#969487;stop-opacity:1.0;"
       offset="1"
       id="stop2" />
  </linearGradient>
  <linearGradient
     inkscape:collect="always"
     xlink:href="#linearGradient4321"
     id="linearGradient1234"
     x1="0%"
     y1="50%"
     x2="100%"
     y2="50%" />
<defs
     id="defs2385" />
  <g
     id="layer1">
    <text
       x="25.367456"
       y="31.471378"
       id="text5335"
       xml:space="preserve"
       style="font-size:4px;font-style:normal;font-weight:normal;fill:none;fill-opacity:1;stroke:none;stroke-width:1px;stroke-linecap:butt;stroke-linejoin:miter;stroke-opacity:1;font-family:Bitstream Vera Sans"><tspan
         x="25.367456"
         y="31.471378"
         id="tspan5337" /></text>
    <path
       d="M 13.09375,4.59375 C 12.693018,4.5937501 12.40625,4.8950423 12.40625,5.28125 L 12.40625,41.90625 C 12.40625,42.292463 12.693018,42.59375 13.09375,42.59375 L 23,42.59375 L 23,43.125 C 22.398806,43.391409 21.896563,43.885239 21.65625,44.5 L 2.5,44.5 C 2.4687672,44.498534 2.4374828,44.498534 2.40625,44.5 C 1.8539653,44.525888 1.4428616,45.010215 1.46875,45.5625 C 1.4946383,46.114785 1.9477153,46.525888 2.5,46.5 L 21.75,46.5 C 22.156248,47.331516 23.012769,47.906249 24,47.90625 C 24.987231,47.90625 25.843752,47.331516 26.25,46.5 L 45.46875,46.5 C 45.829386,46.5051 46.161943,46.311498 46.34375,46 C 46.525556,45.688502 46.525556,45.311497 46.34375,45 C 46.161943,44.688503 45.829386,44.4949 45.46875,44.5 L 26.34375,44.5 C 26.103438,43.885239 25.601194,43.391409 25,43.125 L 25,41.53125 L 36.40625,30.78125 L 36.40625,16.78125 L 23.5,4.59375 L 13.09375,4.59375 z M 25.53125,4.59375 L 36.40625,14.84375 L 36.40625,5.28125 C 36.406248,4.8950423 36.056977,4.59375 35.65625,4.59375 L 25.53125,4.59375 z M 36.40625,32.6875 L 25.90625,42.59375 L 35.65625,42.59375 C 36.056986,42.593752 36.40625,42.292462 36.40625,41.90625 L 36.40625,32.6875 z"
       id="path3208"
       style="fill:url(#linearGradient1234);filter:url(#filter1111);fill-opacity:1;fill-rule:evenodd;stroke:none;stroke-width:0.80000001;stroke-linecap:round;stroke-linejoin:round;stroke-miterlimit:4;stroke-dasharray:none;stroke-dashoffset:0;stroke-opacity:1" />
    <text
       x="-52.996769"
       y="32.676918"
       id="text2486"
       xml:space="preserve"
       style="font-size:4px;font-style:normal;font-weight:normal;fill:none;fill-opacity:1;stroke:none;stroke-width:1px;stroke-linecap:butt;stroke-linejoin:miter;stroke-opacity:1;font-family:Bitstream Vera Sans"><tspan
         x="-52.996769"
         y="32.676918"
         id="tspan2488" /></text>
  </g>
</svg>
