<?xml version="1.0" encoding="UTF-8" standalone="no"?>
<!-- Created with Inkscape (http://www.inkscape.org/) -->

<svg
   xmlns:dc="http://purl.org/dc/elements/1.1/"
   xmlns:cc="http://creativecommons.org/ns#"
   xmlns:rdf="http://www.w3.org/1999/02/22-rdf-syntax-ns#"
   xmlns:svg="http://www.w3.org/2000/svg"
   xmlns="http://www.w3.org/2000/svg"
   xmlns:xlink="http://www.w3.org/1999/xlink"
   xmlns:sodipodi="http://sodipodi.sourceforge.net/DTD/sodipodi-0.dtd"
   xmlns:inkscape="http://www.inkscape.org/namespaces/inkscape"
   version="1.0"
   width="48"
   height="48"
   id="svg1872"
   inkscape:version="0.47pre4 r22446"
   sodipodi:docname="emblem-presentation.svg">
  <metadata
     id="metadata29">
    <rdf:RDF>
      <cc:Work
         rdf:about="">
        <dc:format>image/svg+xml</dc:format>
        <dc:type
           rdf:resource="http://purl.org/dc/dcmitype/StillImage" />
      </cc:Work>
    </rdf:RDF>
  </metadata>
  <sodipodi:namedview
     pagecolor="#ffffff"
     bordercolor="#666666"
     borderopacity="1"
     objecttolerance="10"
     gridtolerance="10"
     guidetolerance="10"
     inkscape:pageopacity="0"
     inkscape:pageshadow="2"
     inkscape:window-width="1344"
     inkscape:window-height="574"
     id="namedview27"
     showgrid="false"
     inkscape:zoom="5.5208333"
     inkscape:cx="6.8830189"
     inkscape:cy="24.181132"
     inkscape:window-x="0"
     inkscape:window-y="27"
     inkscape:window-maximized="1"
     inkscape:current-layer="svg1872" />
    
  
  
  
  
  <filter>
    </filter>
  <linearGradient
     id="linearGradient4321">
    <stop
       style="stop-color:#969487;stop-opacity:1.0;"
       offset="0"
       id="stop1" />
    <stop
       style="stop-color:#969487;stop-opacity:1.0;"
       offset="1"
       id="stop2" />
  </linearGradient>
  <linearGradient
     inkscape:collect="always"
     xlink:href="#linearGradient4321"
     id="linearGradient1234"
     x1="0%"
     y1="50%"
     x2="100%"
     y2="50%" />
<defs
     id="defs1874">
    <inkscape:perspective
       sodipodi:type="inkscape:persp3d"
       inkscape:vp_x="0 : 24 : 1"
       inkscape:vp_y="0 : 1000 : 0"
       inkscape:vp_z="48 : 24 : 1"
       inkscape:persp3d-origin="24 : 16 : 1"
       id="perspective31" />
  </defs>
  <path
     d="M 24,2 C 11.849736,2 2,11.866713 2,24.014388 2,36.162064 11.849736,46 24,46 36.150264,46 46,36.162065 46,24.014388 46,11.866712 36.150264,2 24,2 z m -0.05729,5.7266187 c 1.459011,-0.0025 2.925234,0.1757879 4.382813,0.5755393 0.603763,0.164982 0.986675,0.760591 0.888021,1.381295 l -1.575523,10.877698 10.169271,-3.251798 c 0.623765,-0.197879 1.292226,0.131546 1.518229,0.748201 1.488588,3.822826 1.608172,8.175849 -0.08594,12.258993 C 35.774272,38.668634 26.142192,42.620265 17.8125,39.093525 9.4828074,35.56678 5.552919,25.891659 9.0182292,17.539568 11.406536,11.783271 16.701525,8.280365 22.481771,7.7841727 c 0.481687,-0.041349 0.974601,-0.056721 1.460937,-0.057554 z m -0.28646,2.4460433 c -0.325819,-0.01028 -0.653176,0.0022 -0.973958,0.02878 -4.918171,0.407035 -9.370271,3.393206 -11.401042,8.28777 -2.9532312,7.117877 0.396335,15.349854 7.505208,18.359712 7.108871,3.009852 15.236872,-0.36414 18.190104,-7.482015 1.283408,-3.093269 1.276588,-6.331359 0.372396,-9.323741 L 26.520833,23.52518 C 26.119111,23.650602 25.694812,23.56951 25.375,23.294964 25.055189,23.020419 24.884619,22.590842 24.945312,22.172662 L 26.606771,10.57554 C 25.625193,10.385358 24.633706,10.203512 23.65625,10.172662 z"
     id="path1880"
     style="fill:url(#linearGradient1234);fill-opacity:1;fill-rule:evenodd;stroke:none;filter:url(#filter1111)" />
</svg>
