<?xml version="1.0" encoding="UTF-8" standalone="no"?>
<!-- Created with Inkscape (http://www.inkscape.org/) -->
<svg
   xmlns:svg="http://www.w3.org/2000/svg"
   xmlns="http://www.w3.org/2000/svg"
   xmlns:xlink="http://www.w3.org/1999/xlink"
   version="1.0"
   width="48"
   height="48"
   id="svg1307">
        
  
  
  
  
  
  <filter>
    </filter>
  <linearGradient
     id="linearGradient4321">
    <stop
       style="stop-color:#969487;stop-opacity:1.0;"
       offset="0"
       id="stop1" />
    <stop
       style="stop-color:#969487;stop-opacity:1.0;"
       offset="1"
       id="stop2" />
  </linearGradient>
  <linearGradient
     inkscape:collect="always"
     xlink:href="#linearGradient4321"
     id="linearGradient1234"
     x1="0%"
     y1="50%"
     x2="100%"
     y2="50%" />
<defs
     id="defs1309" />
  <g
     id="layer1"
     style="display:inline">
    <path
       d="M 8.50044,13.5 L 3.50044,13.5 L 3.50044,34.5 L 8.50044,34.5 L 8.50044,13.5 z"
       id="path5422"
       style="fill:url(#linearGradient1234);filter:url(#filter1111);fill-opacity:1;fill-rule:evenodd;stroke:#91cbff;stroke-width:1.0000006;stroke-linecap:square;stroke-linejoin:miter;marker:none;marker-start:none;marker-mid:none;marker-end:none;stroke-miterlimit:4;stroke-dasharray:none;stroke-dashoffset:0;stroke-opacity:1;visibility:visible;display:inline;overflow:visible" />
    <g
       transform="translate(-44.99956,-121)"
       id="g2905"
       style="opacity:0.2;fill:url(#linearGradient1234);filter:url(#filter1111);fill-opacity:1;stroke:#91cbff;stroke-opacity:1" />
    <path
       d="M 3.40669,13 C 3.167649,13.04561 2.996152,13.25668 3.00044,13.5 L 3.00044,34.5 C 3.000468,34.77613 3.224309,34.99997 3.50044,35 L 8.50044,35 C 8.776571,34.99997 9.000412,34.77613 9.00044,34.5 L 9.00044,24.59375 L 26.25044,34.9375 C 26.40584,35.02719 26.597384,35.02675 26.75237,34.93634 C 26.907356,34.84594 27.002023,34.67942 27.00044,34.5 L 27.00044,24.59375 L 44.25044,34.9375 C 44.40584,35.02719 44.597384,35.02675 44.75237,34.93634 C 44.907356,34.84594 45.002023,34.67942 45.00044,34.5 L 45.00044,13.5 C 45.002023,13.32058 44.907356,13.15406 44.75237,13.06366 C 44.597384,12.97325 44.40584,12.97281 44.25044,13.0625 L 27.00044,23.40625 L 27.00044,13.5 C 27.002023,13.32058 26.907356,13.15406 26.75237,13.06366 C 26.597384,12.97325 26.40584,12.97281 26.25044,13.0625 L 9.00044,23.40625 L 9.00044,13.5 C 9.000412,13.22387 8.776571,13.00003 8.50044,13 L 3.50044,13 C 3.469259,12.99706 3.437871,12.99706 3.40669,13 z"
       id="path5342"
       style="fill:url(#linearGradient1234);filter:url(#filter1111);fill-opacity:1;fill-rule:evenodd;stroke:none;stroke-width:1;stroke-linecap:square;stroke-linejoin:round;marker:none;stroke-miterlimit:4;stroke-dasharray:none;stroke-dashoffset:0;stroke-opacity:1;visibility:visible;display:inline;overflow:visible" />
  </g>
</svg>
