<?xml version="1.0" encoding="UTF-8" standalone="no"?>
<!-- Created with Inkscape (http://www.inkscape.org/) -->

<svg
   xmlns:dc="http://purl.org/dc/elements/1.1/"
   xmlns:cc="http://creativecommons.org/ns#"
   xmlns:rdf="http://www.w3.org/1999/02/22-rdf-syntax-ns#"
   xmlns:svg="http://www.w3.org/2000/svg"
   xmlns="http://www.w3.org/2000/svg"
   xmlns:xlink="http://www.w3.org/1999/xlink"
   xmlns:sodipodi="http://sodipodi.sourceforge.net/DTD/sodipodi-0.dtd"
   xmlns:inkscape="http://www.inkscape.org/namespaces/inkscape"
   version="1.0"
   width="48"
   height="48"
   id="svg1307"
   inkscape:version="0.47pre4 r22446"
   sodipodi:docname="gtk-media-forward-rtl.svg">
    
  
  
  
  
  
  <filter>
    </filter>
  <linearGradient
     id="linearGradient4321">
    <stop
       style="stop-color:#969487;stop-opacity:1.0;"
       offset="0"
       id="stop1" />
    <stop
       style="stop-color:#969487;stop-opacity:1.0;"
       offset="1"
       id="stop2" />
  </linearGradient>
  <linearGradient
     inkscape:collect="always"
     xlink:href="#linearGradient4321"
     id="linearGradient1234"
     x1="0%"
     y1="50%"
     x2="100%"
     y2="50%" />
<defs
     id="defs1309">
  </defs>
  <path
     style="fill:url(#linearGradient1234);fill-opacity:1;fill-rule:evenodd;stroke:none;stroke-width:1.0000006;marker:none;visibility:visible;display:inline;overflow:visible;filter:url(#filter1111)"
     id="path1875"
     d="m 189.40625,134 c -0.23904,0.0456 -0.41054,0.25668 -0.40625,0.5 l 0,21 c -0.002,0.17942 0.0931,0.34594 0.24807,0.43634 0.15499,0.0904 0.34653,0.0908 0.50193,0.001 L 207,145.59375 207,155.5 c -0.002,0.17942 0.0931,0.34594 0.24807,0.43634 0.15499,0.0904 0.34653,0.0908 0.50193,0.001 l 17.5,-10.5 c 0.15913,-0.0881 0.25788,-0.25562 0.25788,-0.4375 0,-0.18188 -0.0987,-0.34942 -0.25788,-0.4375 l -17.5,-10.5 c -0.1554,-0.0897 -0.34694,-0.0892 -0.50193,0.001 -0.15499,0.0904 -0.24965,0.25692 -0.24807,0.43634 l 0,9.90625 -17.25,-10.34375 c -0.10334,-0.0615 -0.22538,-0.0837 -0.34375,-0.0625 z"
     transform="matrix(-1,0,0,1,231.5,-121)" />
</svg>
