<?xml version="1.0" encoding="UTF-8" standalone="no"?>
<!-- Created with Inkscape (http://www.inkscape.org/) -->

<svg
   xmlns:dc="http://purl.org/dc/elements/1.1/"
   xmlns:cc="http://creativecommons.org/ns#"
   xmlns:rdf="http://www.w3.org/1999/02/22-rdf-syntax-ns#"
   xmlns:svg="http://www.w3.org/2000/svg"
   xmlns="http://www.w3.org/2000/svg"
   xmlns:xlink="http://www.w3.org/1999/xlink"
   xmlns:sodipodi="http://sodipodi.sourceforge.net/DTD/sodipodi-0.dtd"
   xmlns:inkscape="http://www.inkscape.org/namespaces/inkscape"
   width="48px"
   height="48px"
   id="svg7093"
   sodipodi:version="0.32"
   inkscape:version="0.47pre4 r22446"
   sodipodi:docname="notification-device-firewire.svg"
   inkscape:output_extension="org.inkscape.output.svg.inkscape"
   version="1.1">
    
  
  
  
  
  <filter>
    </filter>
  <linearGradient
     id="linearGradient4321">
    <stop
       style="stop-color:#969487;stop-opacity:1.0;"
       offset="0"
       id="stop1" />
    <stop
       style="stop-color:#969487;stop-opacity:1.0;"
       offset="1"
       id="stop2" />
  </linearGradient>
  <linearGradient
     inkscape:collect="always"
     xlink:href="#linearGradient4321"
     id="linearGradient1234"
     x1="0%"
     y1="50%"
     x2="100%"
     y2="50%" />
<defs
     id="defs7095">
  </defs>
    <path
       style="fill:url(#linearGradient1234);fill-opacity:1;filter:url(#filter1111)"
       d="m 23.839887,14.889317 c -4.833494,0 -8.750722,3.917228 -8.750722,8.750722 0,4.833494 3.919153,8.750722 8.750722,8.750722 4.829644,0 8.748797,-3.917228 8.748797,-8.750722 0,-4.833494 -3.919153,-8.750722 -8.748797,-8.750722 z m 0,14.585178 c -3.222329,0 -5.832532,-2.612127 -5.832532,-5.832531 0,-3.222329 2.610203,-5.834456 5.832532,-5.834456 3.220404,0 5.832531,2.612127 5.832531,5.834456 0,3.216554 -2.612127,5.832531 -5.832531,5.832531 z m -5.834457,9.718961 11.665063,0 0,-3.888355 -11.665063,0 0,3.888355 0,0 z m 0,6.806544 11.665063,0 0,-3.890279 -11.665063,0 0,3.890279 0,0 z M 16.40774,7.5457174 8.505912,15.422522 l 2.633301,2.625602 7.903754,-7.876805 -2.635227,-2.6256016 0,0 z M 11.139213,2.3349378 3.2373846,10.213667 5.8706858,12.841194 13.774439,4.9181909 11.139213,2.3349378 l 0,0 z m 26.39846,-0.3349374 -8.67565,8.6487006 6.900867,6.835419 8.677574,-8.5620792 -6.902791,-6.9220404 0,0 z"
       id="firewire" />
</svg>
