<?xml version="1.0" encoding="UTF-8" standalone="no"?>
<!-- Created with Inkscape (http://www.inkscape.org/) -->

<svg
   xmlns:dc="http://purl.org/dc/elements/1.1/"
   xmlns:cc="http://creativecommons.org/ns#"
   xmlns:rdf="http://www.w3.org/1999/02/22-rdf-syntax-ns#"
   xmlns:svg="http://www.w3.org/2000/svg"
   xmlns="http://www.w3.org/2000/svg"
   xmlns:xlink="http://www.w3.org/1999/xlink"
   xmlns:sodipodi="http://sodipodi.sourceforge.net/DTD/sodipodi-0.dtd"
   xmlns:inkscape="http://www.inkscape.org/namespaces/inkscape"
   version="1.0"
   width="48"
   height="48"
   viewBox="0 0 48 48"
   id="Layer_1"
   xml:space="preserve"
   style="overflow:visible"
   inkscape:version="0.47pre4 r22446"
   sodipodi:docname="gnome-session-hibernate.svg">
        
  
  
  
  
  <filter>
    </filter>
  <linearGradient
     id="linearGradient4321">
    <stop
       style="stop-color:#1577D3;stop-opacity:1.0;"
       offset="0"
       id="stop1" />
    <stop
       style="stop-color:#1577D3;stop-opacity:1.0;"
       offset="1"
       id="stop2" />
  </linearGradient>
  <linearGradient
     inkscape:collect="always"
     xlink:href="#linearGradient4321"
     id="linearGradient1234"
     x1="0%"
     y1="50%"
     x2="100%"
     y2="50%" />
<defs
   id="defs81">
</defs>
	<path
   d="m 21.3435,2 c -0.582208,0 -1.056,0.473792 -1.056,1.056 l 0,15.136 c 0,0.582208 0.473792,1.056 1.056,1.056 l 5.643,0 c 0.582207,0 1.056,-0.473792 1.056,-1.056 l 0,-15.136 C 28.042499,2.473792 27.568708,2 26.9865,2 l -5.643,0 z m -4.257,2.266 c -0.02784,0.00278 -0.04998,0.012496 -0.077,0.022 -8.5616967,3.026848 -14.322,11.157696 -14.322,20.24 0,11.839872 9.631424,21.472 21.472,21.472 11.841632,0 21.483,-9.632128 21.483,-21.472 0,-9.082304 -5.760304,-17.2128 -14.322,-20.24 -0.108064,-0.038016 -0.22572,-0.021824 -0.319,0.044 -0.09328,0.066176 -0.143,0.171952 -0.143,0.286 l 0,6.512 c -1e-6,0.130592 0.07154,0.257752 0.187,0.319 4.878016,2.574176 7.909,7.584632 7.909,13.079 0,8.151968 -6.641976,14.784 -14.795,14.784 -8.153024,0 -14.784,-6.632032 -14.784,-14.784 4e-7,-5.494368 3.030984,-10.504824 7.909,-13.079 0.115456,-0.06125 0.187,-0.188408 0.187,-0.319 l 0,-6.512 c 0,-0.114048 -0.04972,-0.220176 -0.143,-0.286 -0.06996,-0.049632 -0.158477,-0.074382 -0.242,-0.066 z"
   id="path16"
   style="fill:url(#linearGradient1234);filter:url(#filter1111);fill-opacity:1" />
</svg>
