<?xml version="1.0" encoding="UTF-8" standalone="no"?>
<!-- Created with Inkscape (http://www.inkscape.org/) -->
<svg
   xmlns:svg="http://www.w3.org/2000/svg"
   xmlns="http://www.w3.org/2000/svg"
   xmlns:xlink="http://www.w3.org/1999/xlink"
   version="1.0"
   width="48"
   height="48"
   id="svg2285">
        
  
  
  
  
  <filter>
    </filter>
  <linearGradient
     id="linearGradient4321">
    <stop
       style="stop-color:#1577D3;stop-opacity:1.0;"
       offset="0"
       id="stop1" />
    <stop
       style="stop-color:#1577D3;stop-opacity:1.0;"
       offset="1"
       id="stop2" />
  </linearGradient>
  <linearGradient
     inkscape:collect="always"
     xlink:href="#linearGradient4321"
     id="linearGradient1234"
     x1="0%"
     y1="50%"
     x2="100%"
     y2="50%" />
<defs
     id="defs2287" />
  <g
     id="layer1">
    <path
       d="M -7.59375,4 C -7.8327909,4.0456109 -8.0042881,4.2566843 -8,4.5 L -8,9.6875 C -7.9999723,9.9636309 -7.7761309,10.187472 -7.5,10.1875 L 4.28125,10.1875 C 4.4841049,10.1875 4.6932807,10.204489 4.84375,10.25 C 5.0822395,10.328498 5.3937688,10.523464 5.59375,10.71875 C 5.6434749,10.769691 5.7244679,10.920728 5.8125,11.0625 C 5.96551,11.322941 6.0937501,11.708014 6.09375,12 L 6.09375,38.15625 C 6.09375,38.448236 5.9655085,38.833313 5.8125,39.09375 C 5.7420316,39.207237 5.6743029,39.323728 5.59375,39.40625 C 5.393768,39.601537 5.0822373,39.796503 4.84375,39.875 C 4.6514449,39.933165 4.44091,39.96875 4.28125,39.96875 L -7.5,39.96875 C -7.7761309,39.968778 -7.9999723,40.192619 -8,40.46875 L -8,45.5 C -7.9999723,45.776131 -7.7761309,45.999972 -7.5,46 L 75.46875,46 C 75.744881,45.999972 75.968722,45.776131 75.96875,45.5 L 75.96875,40.46875 C 75.968722,40.192619 75.744881,39.968778 75.46875,39.96875 L 12.4375,39.96875 C 12.277838,39.96875 12.067305,39.933166 11.875,39.875 C 11.636511,39.796502 11.324981,39.601536 11.125,39.40625 C 11.044445,39.323725 10.976714,39.207232 10.90625,39.09375 C 10.753241,38.833312 10.625,38.448237 10.625,38.15625 L 10.625,12 C 10.625,11.708014 10.75324,11.322941 10.90625,11.0625 C 10.994279,10.920732 11.075274,10.769692 11.125,10.71875 C 11.324981,10.523464 11.636512,10.328498 11.875,10.25 C 11.969668,10.221367 12.123536,10.199251 12.21875,10.1875 C 12.240885,10.184768 12.297291,10.1875 12.4375,10.1875 L 75.46875,10.1875 C 75.744881,10.187472 75.968722,9.9636309 75.96875,9.6875 L 75.96875,4.5 C 75.968722,4.2238691 75.744881,4.0000277 75.46875,4 L -7.5,4 C -7.531181,3.9970641 -7.562569,3.9970641 -7.59375,4 z M 17.6875,15.96875 C 17.668559,15.985201 17.641286,16.012116 17.625,16.03125 C 17.525654,16.092577 17.474927,16.169885 17.4375,16.28125 C 17.429004,16.33436 17.429002,16.384389 17.4375,16.4375 L 17.4375,21.78125 C 17.430429,21.873565 17.427072,21.980034 17.46875,22.0625 L 17.46875,33.71875 C 17.464988,33.754283 17.464987,33.776965 17.46875,33.8125 C 17.525983,34.031331 17.744685,34.185336 17.96875,34.1875 L 36.53125,34.1875 C 36.604858,34.185723 36.684224,34.189669 36.75,34.15625 C 36.809256,34.131294 36.860654,34.076899 36.90625,34.03125 C 36.97714,33.939893 37.002445,33.834797 37,33.71875 L 37,21.96875 C 37.0085,21.915639 37.008498,21.834361 37,21.78125 L 37,16.5625 C 37.000477,16.522805 37.008519,16.475538 37,16.4375 C 37.007074,16.345184 37.010428,16.269966 36.96875,16.1875 C 36.908037,16.087149 36.797753,16.006555 36.6875,15.96875 C 36.634922,15.960167 36.58383,15.960166 36.53125,15.96875 L 17.90625,15.96875 C 17.836508,15.953413 17.757243,15.953413 17.6875,15.96875 z M 44,20.71875 C 43.138976,20.71875 42.46875,21.154449 42.46875,21.6875 L 42.46875,28.3125 C 42.46875,28.84555 43.138976,29.281251 44,29.28125 L 93.40625,29.28125 C 94.267274,29.28125 94.96875,28.84555 94.96875,28.3125 L 94.96875,21.6875 C 94.96875,21.15445 94.267271,20.71875 93.40625,20.71875 L 44,20.71875 z M 18.46875,22.28125 L 36.0625,22.28125 L 36.0625,33.1875 L 18.46875,33.1875 L 18.46875,22.28125 z"
       id="rect3734"
       style="opacity:1;fill:url(#linearGradient1234);filter:url(#filter1111);fill-opacity:1;stroke:none;stroke-width:1.00000048;stroke-linecap:butt;stroke-linejoin:round;stroke-miterlimit:4;stroke-dasharray:none;stroke-dashoffset:0;stroke-opacity:1" />
    <g
       transform="matrix(1.6934599,0,0,1.7105504,-4.9598074,-33.903453)"
       id="g1374" />
  </g>
</svg>
