<?xml version="1.0" encoding="UTF-8" standalone="no"?>
<!-- Created with Inkscape (http://www.inkscape.org/) -->

<svg
   xmlns:dc="http://purl.org/dc/elements/1.1/"
   xmlns:cc="http://creativecommons.org/ns#"
   xmlns:rdf="http://www.w3.org/1999/02/22-rdf-syntax-ns#"
   xmlns:svg="http://www.w3.org/2000/svg"
   xmlns="http://www.w3.org/2000/svg"
   xmlns:xlink="http://www.w3.org/1999/xlink"
   xmlns:sodipodi="http://sodipodi.sourceforge.net/DTD/sodipodi-0.dtd"
   xmlns:inkscape="http://www.inkscape.org/namespaces/inkscape"
   version="1.0"
   width="48"
   height="48"
   viewBox="0 0 24 24"
   id="svg2"
   xml:space="preserve"
   inkscape:version="0.47pre4 r22446"
   sodipodi:docname="editpaste.svg">
        
  
  
  
  
  
  <filter>
    </filter>
  <linearGradient
   id="linearGradient4321">
    <stop
       style="stop-color:#969487;stop-opacity:1.0;"
       offset="0"
       id="stop1" />
    <stop
       style="stop-color:#969487;stop-opacity:1.0;"
       offset="1"
       id="stop2" />
  </linearGradient>
  <linearGradient
     inkscape:collect="always"
     xlink:href="#linearGradient4321"
     id="linearGradient1234"
     x1="0%"
     y1="50%"
     x2="100%"
     y2="50%" />
<defs
   id="defs68">
</defs>
	<path
   d="M 6.6390261,1.0064138 C 6.0154494,1.1264111 5.5761456,1.6678936 5.5768359,2.3029108 l 0,0.7654018 -3.1709503,0 C 1.6815012,3.0683125 1.15625,3.5771554 1.15625,4.3023277 l 0,16.1984013 c -1e-7,0.725173 0.5244633,1.249635 1.2496356,1.249635 l 5.1078854,0 C 7.57997,22.478157 8.1516075,23 8.9039906,23 l 12.3870124,0 c 0.799768,1e-6 1.40584,-0.590453 1.40584,-1.39022 l 0,-11.309202 c -1e-6,-0.7997668 -0.606073,-1.3902191 -1.40584,-1.3902191 l -1.343358,0 0,-4.6080312 c 0,-0.7251723 -0.525252,-1.2340151 -1.249636,-1.2340151 l -2.780439,0 0,-0.7654018 C 15.905302,1.5770419 15.315784,1.0007589 14.589832,1.0064138 l -7.6852583,0 c -0.086569,-0.008552 -0.1633579,-0.008552 -0.2499272,0 l -0.01562,0 z m 0.3124089,1.3433583 7.591536,0 0,2.4524098 0,0.01562 0.01562,0.01562 1.124672,1.124672 -9.8721215,0 1.124672,-1.124672 0.01562,-0.01562 0,-0.01562 0,-2.4524098 z m 1.9525556,7.4509521 12.3870124,0 c 0.299914,-5e-7 0.499854,0.1999418 0.499854,0.4998538 l 0,11.199859 0.109344,0 c 0,0.299914 -0.199942,0.499855 -0.499855,0.499855 l -12.4963554,0 c -0.2999121,10e-7 -0.4998543,-0.199942 -0.4998543,-0.499855 l 0,-11.199859 c 5e-7,-0.299913 0.1999417,-0.4998538 0.4998543,-0.4998538 z m 2.0931394,2.4055488 0,1.499562 8.497522,0 0,-1.499562 -8.497522,0 z m 0,2.999125 0,1.40584 8.497522,0 0,-1.40584 -8.497522,0 z m 0,2.905403 0,1.499562 8.497522,0 0,-1.499562 -8.497522,0 z"
   id="path45"
   style="fill:url(#linearGradient1234);fill-opacity:1;fill-rule:nonzero;stroke:none;filter:url(#filter1111)" />
</svg>
