<?xml version="1.0" encoding="UTF-8" standalone="no"?>
<!-- Created with Inkscape (http://www.inkscape.org/) -->

<svg
   xmlns:dc="http://purl.org/dc/elements/1.1/"
   xmlns:cc="http://creativecommons.org/ns#"
   xmlns:rdf="http://www.w3.org/1999/02/22-rdf-syntax-ns#"
   xmlns:svg="http://www.w3.org/2000/svg"
   xmlns="http://www.w3.org/2000/svg"
   xmlns:xlink="http://www.w3.org/1999/xlink"
   xmlns:sodipodi="http://sodipodi.sourceforge.net/DTD/sodipodi-0.dtd"
   xmlns:inkscape="http://www.inkscape.org/namespaces/inkscape"
   version="1.0"
   width="48"
   height="48"
   id="svg2"
   inkscape:version="0.47pre4 r22446"
   sodipodi:docname="applications-other.svg">
    
  
  
  
  
  <filter>
    </filter>
  <linearGradient
     id="linearGradient4321">
    <stop
       style="stop-color:#969487;stop-opacity:1.0;"
       offset="0"
       id="stop1" />
    <stop
       style="stop-color:#969487;stop-opacity:1.0;"
       offset="1"
       id="stop2" />
  </linearGradient>
  <linearGradient
     inkscape:collect="always"
     xlink:href="#linearGradient4321"
     id="linearGradient1234"
     x1="0%"
     y1="50%"
     x2="100%"
     y2="50%" />
<defs
     id="defs5">
  </defs>
  <path
     d="M 24,2 18.815104,18.84375 2,18.815104 15.606771,29.213542 10.393229,46 24.028646,35.601562 37.606771,46 32.393229,29.15625 46,18.815104 l -16.84375,0 L 24,2 z m 0,8.135417 3.437499,11.20052 11.229168,0 -9.08073,6.903646 L 33.052083,39.46875 24,32.536458 14.947917,39.46875 18.414062,28.268229 9.3333333,21.335937 20.533854,21.364583 24,10.135417 z m 0,6.903645 -1.976563,6.388021 -6.38802,0 5.184895,3.953125 -2.005208,6.388021 L 24,29.815104 l 5.184896,3.953125 -2.005209,-6.416667 5.184896,-3.924479 -6.388021,0 L 24,17.039062 z"
     id="path1316"
     style="fill:url(#linearGradient1234);fill-opacity:1;fill-rule:evenodd;stroke:none;stroke-width:4;marker:none;visibility:visible;display:inline;overflow:visible;filter:url(#filter1111)" />
</svg>
