<?xml version="1.0" encoding="UTF-8" standalone="no"?>
<!-- Created with Inkscape (http://www.inkscape.org/) -->
<svg
   xmlns:svg="http://www.w3.org/2000/svg"
   xmlns="http://www.w3.org/2000/svg"
   xmlns:xlink="http://www.w3.org/1999/xlink"
   version="1.0"
   width="48"
   height="48"
   id="svg2913">
        
  
  
  
  
  <filter>
    </filter>
  <linearGradient
     id="linearGradient4321">
    <stop
       style="stop-color:#969487;stop-opacity:1.0;"
       offset="0"
       id="stop1" />
    <stop
       style="stop-color:#969487;stop-opacity:1.0;"
       offset="1"
       id="stop2" />
  </linearGradient>
  <linearGradient
     inkscape:collect="always"
     xlink:href="#linearGradient4321"
     id="linearGradient1234"
     x1="0%"
     y1="50%"
     x2="100%"
     y2="50%" />
<defs
     id="defs3" />
  <g
     id="layer2">
    <g
       transform="translate(-62.025756,-32.255186)"
       id="g4438" />
    <path
       d="M 12.46875,2.6875 C 11.672204,2.7035898 10.983421,3.1164262 10.5625,3.625 C 10.141579,4.1335738 9.9082558,4.7502235 9.90625,5.375 L 9.875,6.375 L 6.3125,6.375 C 3.9150461,6.375 1.9687499,8.3525459 1.96875,10.75 L 1.96875,40.78125 C 1.96875,43.155141 3.8832667,45.118792 6.25,45.15625 C 6.2734689,45.156621 6.28886,45.156252 6.3125,45.15625 L 25.53125,45.15625 C 27.928705,45.15625 29.90625,43.178705 29.90625,40.78125 L 29.90625,10.75 C 29.90625,8.3525461 27.928704,6.3750002 25.53125,6.375 L 22.125,6.375 L 22.125,5.25 L 22.125,5.21875 C 22.085743,3.8827703 21.029969,2.7390025 19.625,2.75 L 12.46875,2.6875 z M 12.5,4.6875 L 19.625,4.75 C 19.859815,4.748162 20.116451,4.9903267 20.125,5.28125 L 20.125,7.375 L 20.125,8.375 L 21.125,8.375 L 25.53125,8.375 C 26.855299,8.3750001 27.90625,9.4259521 27.90625,10.75 L 27.90625,40.78125 C 27.90625,42.1053 26.855299,43.15625 25.53125,43.15625 L 6.3125,43.15625 C 6.2995638,43.156251 6.2942131,43.156455 6.28125,43.15625 C 4.9773933,43.135614 3.96875,42.092285 3.96875,40.78125 L 3.96875,10.75 C 3.9687499,9.4259519 4.9884519,8.375 6.3125,8.375 L 10.875,8.375 L 11.875,8.375 L 11.875,7.40625 L 11.90625,5.375 C 11.906606,5.2639704 11.982157,5.0410816 12.09375,4.90625 C 12.205343,4.7714184 12.308759,4.6913629 12.5,4.6875 z M 32.65625,4.6875 C 31.749804,4.6875 31.03125,5.4518135 31.03125,6.40625 L 31.03125,43.25 C 31.03125,44.204436 31.749805,45.000001 32.65625,45 L 45.5,45 C 46.406446,45 47.124998,44.204437 47.125,43.25 L 47.125,6.40625 C 47.125,5.4518138 46.406445,4.6875 45.5,4.6875 L 32.65625,4.6875 z M 5.96875,16.375 L 5.96875,23.375 L 25.96875,23.375 L 25.96875,16.375 L 5.96875,16.375 z M 5.96875,25.375 L 5.96875,32.375 L 25.96875,32.375 L 25.96875,25.375 L 5.96875,25.375 z M 26.03125,34.34375 L 6,34.40625 L 6,39.34375 C 6,40.808255 6.6705,41.406249 8.09375,41.40625 L 23.96875,41.40625 C 25.299822,41.40625 26.03125,40.721276 26.03125,39.40625 L 26.03125,34.34375 z"
       id="rect2375"
       style="fill:url(#linearGradient1234);filter:url(#filter1111);fill-opacity:1;stroke:none;stroke-width:2;stroke-linecap:round;stroke-miterlimit:4;stroke-opacity:1" />
    <g
       transform="translate(-8.0329362,-0.6138056)"
       id="g10121" />
    <text
       x="-124.63255"
       y="31.971378"
       id="text5335"
       xml:space="preserve"
       style="font-size:4px;font-style:normal;font-weight:normal;fill:none;fill-opacity:1;stroke:none;stroke-width:1px;stroke-linecap:butt;stroke-linejoin:miter;stroke-opacity:1;font-family:Bitstream Vera Sans"><tspan
         x="-124.63255"
         y="31.971378"
         id="tspan5337" /></text>
  </g>
</svg>
