<?xml version="1.0" encoding="UTF-8" standalone="no"?>
<!-- Created with Inkscape (http://www.inkscape.org/) -->

<svg
   version="1.1"
   width="48"
   height="48"
   id="svg2816"
   style="display:inline"
   inkscape:version="0.47pre4 r22446"
   sodipodi:docname="user-offline.svg">
        
  
  
  
  
  <filter>
    </filter>
  <linearGradient
     id="linearGradient4321">
    <stop
       style="stop-color:#969487;stop-opacity:1.0;"
       offset="0"
       id="stop1" />
    <stop
       style="stop-color:#969487;stop-opacity:1.0;"
       offset="1"
       id="stop2" />
  </linearGradient>
  <linearGradient
     inkscape:collect="always"
     xlink:href="#linearGradient4321"
     id="linearGradient1234"
     x1="0%"
     y1="50%"
     x2="100%"
     y2="50%" />
<defs
     id="defs2818">
  </defs>
  <path
     style="opacity:1;fill:url(#linearGradient1234);filter:url(#filter1111);fill-opacity:1;stroke:none"
     d="M 14.65625 4 C 10.65625 4.2222213 4 6.6562497 4 14.65625 L 4 22.65625 C 4 30.65625 10.582176 33.260414 14.65625 33.34375 L 22.65625 33.34375 L 34.21875 44 L 36 44 C 34.623584 40.598173 29.610219 33.305964 36 33.34375 C 39.962963 33.34375 44 30.65625 44 22.65625 L 44 14.65625 C 44 6.6562497 37.34375 4.3055547 33.34375 4 L 14.65625 4 z M 18.28125 10.71875 L 23.9375 16.375 L 29.59375 10.71875 L 32.4375 13.53125 L 26.78125 19.1875 L 32.4375 24.84375 L 29.59375 27.6875 L 23.9375 22.03125 L 18.28125 27.6875 L 15.46875 24.84375 L 21.125 19.1875 L 15.46875 13.53125 L 18.28125 10.71875 z "
     id="path2819" />
</svg>
