<?xml version="1.0" encoding="UTF-8" standalone="no"?>
<!-- Created with Inkscape (http://www.inkscape.org/) -->
<svg
   xmlns:dc="http://purl.org/dc/elements/1.1/"
   xmlns:cc="http://creativecommons.org/ns#"
   xmlns:rdf="http://www.w3.org/1999/02/22-rdf-syntax-ns#"
   xmlns:svg="http://www.w3.org/2000/svg"
   xmlns="http://www.w3.org/2000/svg"
   xmlns:xlink="http://www.w3.org/1999/xlink"
   xmlns:sodipodi="http://sodipodi.sourceforge.net/DTD/sodipodi-0.dtd"
   xmlns:inkscape="http://www.inkscape.org/namespaces/inkscape"
   width="48"
   height="48"
   id="svg2"
   sodipodi:version="0.32"
   inkscape:version="0.46"
   version="1.0"
   sodipodi:docname="folder-remote (kopia).svg"
   inkscape:output_extension="org.inkscape.output.svg.inkscape">
  
  
  <filter>
    </filter>
  <linearGradient
     id="linearGradient4321">
    <stop
       style="stop-color:#969487;stop-opacity:1.0;"
       offset="0"
       id="stop1" />
    <stop
       style="stop-color:#969487;stop-opacity:1.0;"
       offset="1"
       id="stop2" />
  </linearGradient>
  <linearGradient
     inkscape:collect="always"
     xlink:href="#linearGradient4321"
     id="linearGradient1234"
     x1="0%"
     y1="50%"
     x2="100%"
     y2="50%" />
<defs
     id="defs4">
  </defs>
  <g
     inkscape:label="Layer 1"
     inkscape:groupmode="layer"
     id="layer1">
    <path
       style="opacity:1;fill:url(#linearGradient1234);filter:url(#filter1111);filter:url(#filter1111);fill-opacity:1;fill-rule:nonzero;stroke:none;stroke-width:1;stroke-miterlimit:4;stroke-dasharray:none;stroke-opacity:1"
       d="M 34.875,2.25 L 17.5,12.28125 L 15.9375,9.375 L 3.53125,16.53125 L 5.125,19.4375 L 2.625,20.875 L 4.5,24.125 L 2.5625,25.21875 L 2.03125,25.53125 L 2.4375,26 L 4.28125,27.96875 L 2.34375,29.0625 L 1.75,29.40625 L 2.21875,29.84375 L 15.125,42.6875 L 15.40625,42.96875 L 15.53125,43.15625 L 23.03125,38.8125 L 23.03125,42.65625 C 22.43006,42.92266 21.92781,43.416489 21.6875,44.03125 L 2.53125,44.03125 C 2.50002,44.029785 2.46873,44.029784 2.4375,44.03125 C 1.88522,44.057139 1.47411,44.541465 1.5,45.09375 C 1.52589,45.646036 1.97897,46.057138 2.53125,46.03125 L 21.78125,46.03125 C 22.1875,46.862767 23.04402,47.437499 24.03125,47.4375 C 25.01848,47.437501 25.875,46.862766 26.28125,46.03125 L 45.5,46.03125 C 45.86064,46.036351 46.19319,45.842748 46.375,45.53125 C 46.55681,45.219753 46.55681,44.842747 46.375,44.53125 C 46.19319,44.219754 45.86064,44.02615 45.5,44.03125 L 26.375,44.03125 C 26.13469,43.41649 25.63244,42.922659 25.03125,42.65625 L 25.03125,37.6875 L 47.75,24.5625 L 34.875,2.25 z M 5,25 L 13.53125,39.6875 L 3.40625,29.625 L 5.3125,28.5 L 5.84375,28.1875 L 5.4375,27.71875 L 3.625,25.78125 L 5,25 z"
       id="rect3176" />
  </g>
</svg>
