<?xml version="1.0" encoding="UTF-8" standalone="no"?>
<!-- Created with Inkscape (http://www.inkscape.org/) -->

<svg
   xmlns:dc="http://purl.org/dc/elements/1.1/"
   xmlns:cc="http://creativecommons.org/ns#"
   xmlns:rdf="http://www.w3.org/1999/02/22-rdf-syntax-ns#"
   xmlns:svg="http://www.w3.org/2000/svg"
   xmlns="http://www.w3.org/2000/svg"
   xmlns:xlink="http://www.w3.org/1999/xlink"
   xmlns:sodipodi="http://sodipodi.sourceforge.net/DTD/sodipodi-0.dtd"
   xmlns:inkscape="http://www.inkscape.org/namespaces/inkscape"
   version="1.0"
   width="48"
   height="48"
   id="svg2"
   inkscape:version="0.47pre4 r22446"
   sodipodi:docname="object-rotate-right.svg">
    
  
  
  
  
  
  <filter>
    </filter>
  <linearGradient
     id="linearGradient4321">
    <stop
       style="stop-color:#969487;stop-opacity:1.0;"
       offset="0"
       id="stop1" />
    <stop
       style="stop-color:#969487;stop-opacity:1.0;"
       offset="1"
       id="stop2" />
  </linearGradient>
  <linearGradient
     inkscape:collect="always"
     xlink:href="#linearGradient4321"
     id="linearGradient1234"
     x1="0%"
     y1="50%"
     x2="100%"
     y2="50%" />
<defs
     id="defs4">
  </defs>
  <path
     d="m 4,4 0,0.5 0,13 0,0.5 0.5,0 9.65625,0 c 2.110013,0 3.825492,0.65873 5,1.78125 C 20.330758,20.90377 21,22.50254 21,24.5 l 0,2.5 -8.21875,0 -1.125,0 0.75,0.84375 15.21875,16.5 L 28,44.75 28.375,44.34375 43.65625,27.84375 44.4375,27 43.28125,27 35,27 35,24.5 C 35,13.31205 25.867803,4 14.15625,4 L 4.5,4 4,4 z"
     id="path2329"
     style="fill:url(#linearGradient1234);fill-opacity:1;fill-rule:nonzero;stroke:none;stroke-width:0.99999994000000003;marker:none;visibility:visible;display:inline;overflow:visible;filter:url(#filter1111)" />
</svg>
