<?xml version="1.0" encoding="UTF-8" standalone="no"?>
<!-- Created with Inkscape (http://www.inkscape.org/) -->

<svg
   xmlns:dc="http://purl.org/dc/elements/1.1/"
   xmlns:cc="http://creativecommons.org/ns#"
   xmlns:rdf="http://www.w3.org/1999/02/22-rdf-syntax-ns#"
   xmlns:svg="http://www.w3.org/2000/svg"
   xmlns="http://www.w3.org/2000/svg"
   xmlns:xlink="http://www.w3.org/1999/xlink"
   xmlns:sodipodi="http://sodipodi.sourceforge.net/DTD/sodipodi-0.dtd"
   xmlns:inkscape="http://www.inkscape.org/namespaces/inkscape"
   version="1.0"
   width="48"
   height="48"
   id="svg2"
   inkscape:version="0.47pre4 r22446"
   sodipodi:docname="accessories-calculator.svg">
  
  
  
  
  
  <filter>
    </filter>
  <linearGradient
     id="linearGradient4321">
    <stop
       style="stop-color:#969487;stop-opacity:1.0;"
       offset="0"
       id="stop1" />
    <stop
       style="stop-color:#969487;stop-opacity:1.0;"
       offset="1"
       id="stop2" />
  </linearGradient>
  <linearGradient
     inkscape:collect="always"
     xlink:href="#linearGradient4321"
     id="linearGradient1234"
     x1="0%"
     y1="50%"
     x2="100%"
     y2="50%" />
<defs
     id="defs4">
  </defs>
  <path
     style="fill:url(#linearGradient1234);fill-opacity:1;fill-rule:evenodd;stroke:none;filter:url(#filter1111)"
     id="rect3303"
     d="m 9.9680631,2.0000003 c -2.8541284,0 -5.1376386,2.2835101 -5.1376386,5.1376386 l 0,33.7247221 C 4.8304245,43.716489 7.1139344,46 9.9680631,46 L 37.37837,46 c 2.854128,0 5.166341,-2.283511 5.16634,-5.137639 l 0,-33.7247221 c 0,-2.8541284 -2.312211,-5.1376386 -5.16634,-5.1376386 l -27.4103069,0 z m 1.6647099,4.3913894 24.195694,0 c 1.251075,0 2.26745,1.0163758 2.26745,2.2674494 l 0,30.6823219 c 10e-7,1.251073 -1.016376,2.26745 -2.26745,2.26745 l -24.195694,0 c -1.251074,-1e-6 -2.2674496,-1.016376 -2.2674496,-2.26745 l 0,-30.6823219 c 0,-1.2510734 1.0163756,-2.2674494 2.2674496,-2.2674494 z m 2.152642,3.2720156 c -0.620715,0 -1.119374,0.4986587 -1.119374,1.1193737 l 0,6.601435 c 0,0.620715 0.498659,1.119373 1.119374,1.119374 l 19.775603,0 c 0.620715,0 1.119375,-0.498659 1.119374,-1.119374 l 0,-6.601435 c 0,-0.620715 -0.498658,-1.1193737 -1.119374,-1.1193737 l -19.775603,0 z m -0.14351,12.1408997 c -0.542303,0 -0.975864,0.433562 -0.975864,0.975865 l 0,3.530332 c 0,0.542304 0.433561,0.975865 0.975864,0.975865 l 3.559035,0 c 0.542303,0 0.975865,-0.433561 0.975864,-0.975865 l 0,-3.530332 c 0,-0.542302 -0.43356,-0.975865 -0.975864,-0.975865 l -3.559035,0 z m 8.266145,0 c -0.542303,0 -0.975865,0.433562 -0.975864,0.975865 l 0,3.530332 c 0,0.542304 0.433562,0.975865 0.975864,0.975865 l 3.530333,0 c 0.542303,0 0.975865,-0.433561 0.975864,-0.975865 l 0,-3.530332 c 0,-0.542302 -0.43356,-0.975865 -0.975864,-0.975865 l -3.530333,0 z m 8.237443,0 c -0.542303,0 -0.975865,0.433562 -0.975864,0.975865 l 0,3.530332 c 0,0.542304 0.43356,0.975865 0.975864,0.975865 l 3.559034,0 c 0.542304,0 0.975866,-0.433561 0.975865,-0.975865 l 0,-3.530332 c 0,-0.542302 -0.433562,-0.975865 -0.975865,-0.975865 l -3.559034,0 z m -16.503588,9.24201 c -0.542303,0 -0.975864,0.433562 -0.975864,0.975864 l 0,3.530333 c 0,0.542303 0.433561,0.975863 0.975864,0.975864 l 3.559035,0 c 0.542303,0 0.975865,-0.43356 0.975864,-0.975864 l 0,-3.530333 c 0,-0.542302 -0.43356,-0.975865 -0.975864,-0.975864 l -3.559035,0 z m 8.266145,0 c -0.542303,0 -0.975865,0.433562 -0.975864,0.975864 l 0,3.530333 c 0,0.542303 0.433562,0.975863 0.975864,0.975864 l 3.530333,0 c 0.542303,0 0.975865,-0.43356 0.975864,-0.975864 l 0,-3.530333 c 0,-0.542302 -0.43356,-0.975865 -0.975864,-0.975864 l -3.530333,0 z m 8.237443,0 c -0.542303,0 -0.975865,0.433562 -0.975864,0.975864 l 0,3.530333 c 0,0.542303 0.43356,0.975863 0.975864,0.975864 l 3.559034,0 c 0.542304,0 0.975866,-0.43356 0.975865,-0.975864 l 0,-3.530333 c 0,-0.542302 -0.433562,-0.975865 -0.975865,-0.975864 l -3.559034,0 z" />
</svg>
