<?xml version="1.0" encoding="UTF-8" standalone="no"?>
<!-- Created with Inkscape (http://www.inkscape.org/) -->

<svg
   xmlns:dc="http://purl.org/dc/elements/1.1/"
   xmlns:cc="http://creativecommons.org/ns#"
   xmlns:rdf="http://www.w3.org/1999/02/22-rdf-syntax-ns#"
   xmlns:svg="http://www.w3.org/2000/svg"
   xmlns="http://www.w3.org/2000/svg"
   xmlns:xlink="http://www.w3.org/1999/xlink"
   xmlns:sodipodi="http://sodipodi.sourceforge.net/DTD/sodipodi-0.dtd"
   xmlns:inkscape="http://www.inkscape.org/namespaces/inkscape"
   version="1.0"
   width="48"
   height="48"
   id="svg2"
   xml:space="preserve"
   inkscape:version="0.47pre4 r22446"
   sodipodi:docname="ax-slowkeys-yes.svg">
        
  
  
  
  
  <filter>
    </filter>
  <linearGradient
   id="linearGradient4321">
    <stop
       style="stop-color:#969487;stop-opacity:1.0;"
       offset="0"
       id="stop1" />
    <stop
       style="stop-color:#969487;stop-opacity:1.0;"
       offset="1"
       id="stop2" />
  </linearGradient>
  <linearGradient
     inkscape:collect="always"
     xlink:href="#linearGradient4321"
     id="linearGradient1234"
     x1="0%"
     y1="50%"
     x2="100%"
     y2="50%" />
<defs
   id="defs32">
</defs>
	<path
   style="fill:url(#linearGradient1234);fill-opacity:1;fill-rule:nonzero;stroke:none;filter:url(#filter1111)"
   id="path5"
   d="M 24,2 C 11.738505,2.197766 2,11.914813 2,24 c 0,12.094314 9.905685,22 22,22 12.094314,-2e-6 22,-9.905684 22,-22 -2e-6,-12.094316 -9.905684,-22 -22,-22 z m 8.436314,12.669377 c 0.95393,0 1.711111,0.172899 2.474255,0.745257 1.526287,1.144716 1.740923,3.24336 0.596206,4.769648 L 25.192412,33.747967 c -0.572358,0.763144 -1.520325,1.341465 -2.474255,1.341464 -0.953929,0 -1.919782,-0.190785 -2.682927,-0.95393 l -7.422764,-7.452574 c -1.335501,-1.335502 -1.335501,-3.434147 0,-4.769648 0.763144,-0.572358 1.520325,-0.953929 2.474255,-0.953929 0.953929,0 1.901896,0.381571 2.474255,0.953929 0,0 3.052573,3.052575 4.769647,4.769648 2.098645,-2.671003 7.810298,-10.672087 7.810298,-10.672087 0.572358,-0.763143 1.341463,-1.150677 2.295393,-1.341463 z" />
</svg>
