<?xml version="1.0" encoding="UTF-8" standalone="no"?>
<!-- Created with Inkscape (http://www.inkscape.org/) -->

<svg
   xmlns:dc="http://purl.org/dc/elements/1.1/"
   xmlns:cc="http://creativecommons.org/ns#"
   xmlns:rdf="http://www.w3.org/1999/02/22-rdf-syntax-ns#"
   xmlns:svg="http://www.w3.org/2000/svg"
   xmlns="http://www.w3.org/2000/svg"
   xmlns:xlink="http://www.w3.org/1999/xlink"
   xmlns:sodipodi="http://sodipodi.sourceforge.net/DTD/sodipodi-0.dtd"
   xmlns:inkscape="http://www.inkscape.org/namespaces/inkscape"
   version="1.0"
   width="48"
   height="48"
   id="svg2"
   xml:space="preserve"
   inkscape:version="0.47pre4 r22446"
   sodipodi:docname="ax-slowkeys-no.svg">
        
  
  
  
  
  <filter>
    </filter>
  <linearGradient
   id="linearGradient4321">
    <stop
       style="stop-color:#969487;stop-opacity:1.0;"
       offset="0"
       id="stop1" />
    <stop
       style="stop-color:#969487;stop-opacity:1.0;"
       offset="1"
       id="stop2" />
  </linearGradient>
  <linearGradient
     inkscape:collect="always"
     xlink:href="#linearGradient4321"
     id="linearGradient1234"
     x1="0%"
     y1="50%"
     x2="100%"
     y2="50%" />
<defs
   id="defs31">
</defs>
	<path
   d="M 24.030346,2 C 11.921474,2 2,11.921474 2,24.030346 2,36.139218 11.921474,46 24.030346,46 36.139218,46.000002 46,36.139218 46,24.030346 46.000002,11.921474 36.139218,2 24.030346,2 z m 6.402758,11.470345 c 0.825378,0 1.656826,0.352 2.33655,1.031724 1.35945,1.359448 1.359452,3.313656 0,4.673103 l -4.673102,4.642758 4.855172,4.855174 c 1.35945,1.359448 1.35945,3.313654 0,4.673102 -1.359448,1.35945 -3.313656,1.359448 -4.673102,0 l -4.64276,-4.673102 -4.673104,4.673102 c -1.359448,1.35945 -3.28331,1.359448 -4.642758,0 -1.359448,-1.359446 -1.359448,-3.313654 0,-4.673102 L 18.962758,24.030346 14.32,19.357241 c -1.359448,-1.359448 -1.359448,-3.313655 0,-4.673103 1.359448,-1.359448 3.28331,-1.359448 4.642758,0 l 4.46069,4.491034 4.673104,-4.673103 c 0.679724,-0.679724 1.511172,-1.031724 2.336552,-1.031724 z"
   id="path5"
   style="fill:url(#linearGradient1234);fill-opacity:1;fill-rule:nonzero;stroke:none;filter:url(#filter1111)" />
</svg>
