<?xml version="1.0" encoding="UTF-8" standalone="no"?>
<!-- Created with Inkscape (http://www.inkscape.org/) -->
<svg
   xmlns:svg="http://www.w3.org/2000/svg"
   xmlns="http://www.w3.org/2000/svg"
   xmlns:xlink="http://www.w3.org/1999/xlink"
   version="1.0"
   width="48"
   height="48"
   id="svg2">
        
  
  
  
  
  <filter>
    </filter>
  <linearGradient
     id="linearGradient4321">
    <stop
       style="stop-color:#969487;stop-opacity:1.0;"
       offset="0"
       id="stop1" />
    <stop
       style="stop-color:#969487;stop-opacity:1.0;"
       offset="1"
       id="stop2" />
  </linearGradient>
  <linearGradient
     inkscape:collect="always"
     xlink:href="#linearGradient4321"
     id="linearGradient1234"
     x1="0%"
     y1="50%"
     x2="100%"
     y2="50%" />
<defs
     id="defs5" />
  <path
     d="M 24.40625,2.5625 L 22.8125,24.5625 L 24.25,24.5625 L 26.5625,10.625 L 26.71875,9.65625 L 27.71875,9.59375 L 30.84375,9.4375 L 30.84375,2.5625 L 24.40625,2.5625 z M 40.3125,6.5625 L 33.34375,7.78125 L 33.34375,10.625 L 33.34375,11.78125 L 32.15625,11.84375 L 28.875,12.03125 L 26.53125,26.03125 L 26.375,27.0625 L 25.3125,27.0625 L 21.46875,27.0625 L 20.125,27.0625 L 20.21875,25.75 L 21.40625,9.84375 L 14.09375,11.125 C 17.54301,14.757584 19.753945,19.79068 19.125,25.34375 C 19.122569,25.365213 19.127514,25.384774 19.125,25.40625 L 19.125,25.46875 L 18.875,43.125 L 44.65625,30.59375 L 44.78125,11.53125 C 44.787244,10.701773 44.290838,9.4736455 43.40625,8.46875 C 42.555485,7.502277 41.384225,6.7948652 40.3125,6.5625 z M 9.09375,12.25 C 8.2053968,12.313505 7.3763721,12.741323 6.625,13.59375 C 5.6231706,14.730319 4.7903237,16.728215 4.65625,19.84375 L 4.3125,35.78125 L 15.65625,43.65625 L 15.875,21.90625 C 15.873111,21.872245 15.877067,21.846325 15.875,21.8125 C 15.51554,15.930822 12.459643,12.743282 10,12.3125 C 9.6907764,12.258342 9.3898677,12.228832 9.09375,12.25 z"
     id="path2163"
     style="fill:url(#linearGradient1234);filter:url(#filter1111);fill-opacity:1;fill-rule:evenodd;stroke:none;stroke-width:2.5;stroke-linecap:butt;stroke-linejoin:miter;stroke-miterlimit:4;stroke-dasharray:none;stroke-opacity:1" />
</svg>
