<?xml version="1.0" encoding="UTF-8" standalone="no"?>
<!-- Created with Inkscape (http://www.inkscape.org/) -->

<svg
   xmlns:dc="http://purl.org/dc/elements/1.1/"
   xmlns:cc="http://creativecommons.org/ns#"
   xmlns:rdf="http://www.w3.org/1999/02/22-rdf-syntax-ns#"
   xmlns:svg="http://www.w3.org/2000/svg"
   xmlns="http://www.w3.org/2000/svg"
   xmlns:xlink="http://www.w3.org/1999/xlink"
   xmlns:sodipodi="http://sodipodi.sourceforge.net/DTD/sodipodi-0.dtd"
   xmlns:inkscape="http://www.inkscape.org/namespaces/inkscape"
   version="1.0"
   width="48"
   height="48"
   viewBox="0 0 48 48"
   id="svg2"
   xml:space="preserve"
   inkscape:version="0.47pre4 r22446"
   sodipodi:docname="gimv.svg">
        
  
  
  
  
  <filter>
    </filter>
  <linearGradient
   id="linearGradient4321">
    <stop
       style="stop-color:#969487;stop-opacity:1.0;"
       offset="0"
       id="stop1" />
    <stop
       style="stop-color:#969487;stop-opacity:1.0;"
       offset="1"
       id="stop2" />
  </linearGradient>
  <linearGradient
     inkscape:collect="always"
     xlink:href="#linearGradient4321"
     id="linearGradient1234"
     x1="0%"
     y1="50%"
     x2="100%"
     y2="50%" />
<defs
   id="defs21">
</defs>	
<path
   d="m 22.182173,5.2494957 0,10.0767733 3.664281,0 0,-10.0767733 -3.664281,0 z m 16.775537,3.6070267 -4.580352,7.3285626 3.091738,1.946649 4.580351,-7.328562 -3.091737,-1.9466496 z m -28.884841,0.143136 -3.2635001,1.6603776 3.6642811,7.328562 3.2635,-1.660377 -3.664281,-7.3285626 z m 13.941445,8.1587506 c -5.371438,0 -10.662847,1.423127 -14.7430063,3.635654 C 5.1911481,23.00659 2,26.066751 2,29.926139 c 0,3.859387 3.1911481,6.919548 7.2713077,9.132075 4.0801593,2.212527 9.3715683,3.635655 14.7430063,3.635654 5.371436,0 10.634219,-1.423127 14.714378,-3.635654 C 42.808852,36.845687 45.999999,33.785526 46,29.926139 46,26.066751 42.808852,23.00659 38.728692,20.794063 34.648533,18.581536 29.38575,17.158409 24.014314,17.158409 z m 0,3.664281 c 4.709099,0 9.487876,1.319033 12.968119,3.206246 3.480244,1.887213 5.353286,4.290269 5.353286,5.897203 0,1.606933 -1.873042,4.009989 -5.353286,5.897202 -3.480243,1.887213 -8.25902,3.206246 -12.968119,3.206246 -4.709101,10e-7 -9.516504,-1.319032 -12.996747,-3.206246 -3.4802439,-1.887214 -5.3532859,-4.290269 -5.3532859,-5.897202 0,-1.606933 1.873042,-4.00999 5.3532859,-5.897203 3.480243,-1.887213 8.287646,-3.206246 12.996747,-3.206246 z m 0,1.832141 c -4.025328,-1e-6 -7.328563,3.303235 -7.328563,7.328562 0,4.025327 3.303235,7.328562 7.328563,7.328562 4.025327,1e-6 7.328562,-3.303235 7.328562,-7.328562 1e-6,-4.025327 -3.303235,-7.328562 -7.328562,-7.328562 z"
   id="path2224"
   style="fill:url(#linearGradient1234);fill-opacity:1;fill-rule:evenodd;stroke:none;filter:url(#filter1111)" /></svg>
