<?xml version="1.0" encoding="UTF-8" standalone="no"?>
<!-- Created with Inkscape (http://www.inkscape.org/) -->

<svg
   xmlns:dc="http://purl.org/dc/elements/1.1/"
   xmlns:cc="http://creativecommons.org/ns#"
   xmlns:rdf="http://www.w3.org/1999/02/22-rdf-syntax-ns#"
   xmlns:svg="http://www.w3.org/2000/svg"
   xmlns="http://www.w3.org/2000/svg"
   xmlns:xlink="http://www.w3.org/1999/xlink"
   xmlns:sodipodi="http://sodipodi.sourceforge.net/DTD/sodipodi-0.dtd"
   xmlns:inkscape="http://www.inkscape.org/namespaces/inkscape"
   version="1.0"
   width="48"
   height="48"
   id="svg2070"
   xml:space="preserve"
   style="overflow:visible"
   inkscape:version="0.47pre4 r22446"
   sodipodi:docname="gnome-netstatus-0-24.svg">
        
  
  
  
  
  <filter>
    </filter>
  <linearGradient
   id="linearGradient4321">
    <stop
       style="stop-color:#969487;stop-opacity:1.0;"
       offset="0"
       id="stop1" />
    <stop
       style="stop-color:#969487;stop-opacity:1.0;"
       offset="1"
       id="stop2" />
  </linearGradient>
  <linearGradient
     inkscape:collect="always"
     xlink:href="#linearGradient4321"
     id="linearGradient1234"
     x1="0%"
     y1="50%"
     x2="100%"
     y2="50%" />
<defs
   id="defs2171"></defs>
<path
   d="M 17.695625,2.000999 C 17.033371,2.000999 16.5,2.52869 16.5,3.172712 l 0,41.655576 C 16.5,45.472307 17.033371,46 17.695625,46 l 14.82575,0 C 33.183629,46 33.717,45.472307 33.717,44.828288 l 0,-41.655576 c 0,-0.644022 -0.533371,-1.171713 -1.195625,-1.171713 l -14.82575,0 z m 0.334775,0.3826 14.1562,0 c 0.63282,0 1.1478,0.51498 1.1478,1.1478 l 0,40.938201 c 0,0.63282 -0.51498,1.1478 -1.1478,1.1478 l -14.1562,0 c -0.63282,0 -1.147801,-0.51498 -1.147801,-1.1478 l 0,-40.938201 c 0,-0.63282 0.514981,-1.147799 1.147801,-1.147799 z m -0.7652,32.521001 0,9.565 c 0,0.42086 0.34434,0.765199 0.7652,0.765199 l 14.1562,0 c 0.42086,0 0.7652,-0.344339 0.7652,-0.765199 l 0,-9.565 -15.6866,0 z"
   id="path3212"
   style="fill:url(#linearGradient1234);fill-opacity:1;filter:url(#filter1111)" /></svg>
