<?xml version="1.0" encoding="UTF-8" standalone="no"?>
<!-- Created with Inkscape (http://www.inkscape.org/) -->

<svg
   xmlns:dc="http://purl.org/dc/elements/1.1/"
   xmlns:cc="http://creativecommons.org/ns#"
   xmlns:rdf="http://www.w3.org/1999/02/22-rdf-syntax-ns#"
   xmlns:svg="http://www.w3.org/2000/svg"
   xmlns="http://www.w3.org/2000/svg"
   xmlns:xlink="http://www.w3.org/1999/xlink"
   xmlns:sodipodi="http://sodipodi.sourceforge.net/DTD/sodipodi-0.dtd"
   xmlns:inkscape="http://www.inkscape.org/namespaces/inkscape"
   version="1.0"
   width="48"
   height="48"
   id="svg2313"
   inkscape:version="0.47pre4 r22446"
   sodipodi:docname="gnome-gnibbles.svg">
    
  
  
  
  
  <filter>
    </filter>
  <linearGradient
     id="linearGradient4321">
    <stop
       style="stop-color:#969487;stop-opacity:1.0;"
       offset="0"
       id="stop1" />
    <stop
       style="stop-color:#969487;stop-opacity:1.0;"
       offset="1"
       id="stop2" />
  </linearGradient>
  <linearGradient
     inkscape:collect="always"
     xlink:href="#linearGradient4321"
     id="linearGradient1234"
     x1="0%"
     y1="50%"
     x2="100%"
     y2="50%" />
<defs
     id="defs2315">
  </defs>
  <path
     d="M 15.34375,2.0731087 C 9.4406105,1.9276419 2.704106,7.4556229 3.5,13.885609 c 0.7087379,9.524272 9.240777,32.168325 14.5,32.0625 5.1822,0.811329 7.599778,-8.099616 11.40625,-12.15625 1.32039,-0.791907 4.025109,11.28125 11.59375,11.28125 2.301618,0.164078 4.608212,-0.629248 4.6875,-2.6875 0.03187,-3.213591 -6.098059,-0.971616 -8.5625,-9.75 -1.876276,-6.68333 -4.934547,-9.91074 -7.125,-9.84375 -3.40356,1.23657 -7.652568,10.82593 -9.46875,12.0625 -6.173138,-5.434304 4.896804,-14.571339 3.0625,-22.96875 -0.573221,-6.9502936 -4.21101,-9.7129704 -8.25,-9.8125003 z m 0.34375,0.96875 c 1.958748,0.8213202 3.498016,2.5860895 4.15625,3.96875 -1.459063,-0.9289311 -2.961912,-1.5827488 -4.15625,-1.875 -1.152,0.4150275 -2.322188,1.0711599 -3.4375,2.125 0.617519,-1.9464685 1.75553,-3.3860003 3.4375,-4.21875 z m -7.5625,3.875 c 1.5771048,0.025937 3.100445,0.5171965 4.09375,1.09375 C 10.490054,8.0687603 8.9005,8.3580353 7.75,8.7918587 7.0341198,9.7852707 6.4183625,11.010899 6.09375,12.510609 5.5032418,10.555777 5.6454473,8.6793887 6.5625,7.0418587 7.0825335,6.934531 7.5992984,6.908213 8.125,6.9168587 z m 7.53125,0.84375 c 1.740611,-0.1768081 3.25873,2.167279 3.375,5.2187503 0.04978,1.306492 -0.196894,2.509287 -0.59375,3.5 -0.800859,0.01851 -1.597234,0.104519 -2.4375,0.25 -0.784634,0.135849 -1.534334,0.3334 -2.25,0.5625 -0.09386,-0.155178 -0.198305,-0.294954 -0.28125,-0.46875 -0.01697,0.20137 -0.06299,0.40314 -0.09375,0.59375 -1.545487,0.535472 -2.874541,1.266616 -3.9375,2.125 -0.7480341,-0.854041 -1.35348,-2.233528 -1.53125,-3.84375 -0.3068269,-2.779217 0.694051,-5.18272 2.21875,-5.34375 0.993583,-0.104937 1.979754,0.771235 2.625,2.15625 0.193985,-2.5566003 1.379642,-4.5949321 2.90625,-4.7500003 z M 15.625,11.791859 c -0.419468,0 -0.78125,0.628528 -0.78125,1.4375 0,0.808972 0.361782,1.46875 0.78125,1.46875 0.419466,0 0.749999,-0.659778 0.75,-1.46875 0,-0.808972 -0.330534,-1.4375 -0.75,-1.4375 z m -4.875,1.25 c -0.419468,0 -0.75,0.628528 -0.75,1.4375 0,0.808972 0.330532,1.46875 0.75,1.46875 0.419466,0 0.78125,-0.659778 0.78125,-1.46875 0,-0.808972 -0.361784,-1.4375 -0.78125,-1.4375 z M 21,16.448109 c -0.04937,4.875569 -4.443277,10.748579 -7.125,10.71875 -3.772648,-0.04196 -5.0514646,-2.868039 -5.875,-4.8125 4.258705,-1.115023 9.655947,-3.749292 13,-5.90625 z"
     id="path5054"
     style="fill:url(#linearGradient1234);fill-opacity:1;fill-rule:evenodd;stroke:none;filter:url(#filter1111)" />
</svg>
