<?xml version="1.0" encoding="UTF-8" standalone="no"?>
<!-- Created with Inkscape (http://www.inkscape.org/) -->
<svg
   xmlns:svg="http://www.w3.org/2000/svg"
   xmlns="http://www.w3.org/2000/svg"
   xmlns:xlink="http://www.w3.org/1999/xlink"
   version="1.0"
   width="48"
   height="48"
   id="svg2383">
        
  
  
  
  
  <filter>
    </filter>
  <linearGradient
     id="linearGradient4321">
    <stop
       style="stop-color:#1577D3;stop-opacity:1.0;"
       offset="0"
       id="stop1" />
    <stop
       style="stop-color:#1577D3;stop-opacity:1.0;"
       offset="1"
       id="stop2" />
  </linearGradient>
  <linearGradient
     inkscape:collect="always"
     xlink:href="#linearGradient4321"
     id="linearGradient1234"
     x1="0%"
     y1="50%"
     x2="100%"
     y2="50%" />
<defs
     id="defs2385" />
  <g
     id="layer1">
    <text
       x="25.367456"
       y="31.471378"
       id="text5335"
       xml:space="preserve"
       style="font-size:4px;font-style:normal;font-weight:normal;fill:none;fill-opacity:1;stroke:none;stroke-width:1px;stroke-linecap:butt;stroke-linejoin:miter;stroke-opacity:1;font-family:Bitstream Vera Sans"><tspan
         x="25.367456"
         y="31.471378"
         id="tspan5337" /></text>
    <path
       d="M 13.09375,4.59375 C 12.693018,4.5937501 12.40625,4.8950423 12.40625,5.28125 L 12.40625,41.90625 C 12.40625,42.292463 12.693018,42.59375 13.09375,42.59375 L 23.875,42.59375 L 36.40625,30.78125 L 36.40625,16.78125 L 23.5,4.59375 L 13.09375,4.59375 z M 25.53125,4.59375 L 36.40625,14.84375 L 36.40625,5.28125 C 36.406248,4.8950423 36.056977,4.59375 35.65625,4.59375 L 25.53125,4.59375 z M 24.5,11.875 L 35.21875,22.96875 L 33.09375,22.9375 L 33.1875,31.84375 L 16.5625,31.875 L 16.53125,23 L 14.0625,23 L 24.5,11.875 z M 36.40625,32.6875 L 25.90625,42.59375 L 35.65625,42.59375 C 36.056986,42.593752 36.40625,42.292462 36.40625,41.90625 L 36.40625,32.6875 z"
       id="path3208"
       style="fill:url(#linearGradient1234);filter:url(#filter1111);fill-opacity:1;fill-rule:evenodd;stroke:none;stroke-width:0.80000001;stroke-linecap:round;stroke-linejoin:round;stroke-miterlimit:4;stroke-dasharray:none;stroke-dashoffset:0;stroke-opacity:1" />
    <g
       transform="matrix(0.1695041,0,0,0.1695041,13.704368,11.147312)"
       id="g2482"
       style="fill:#ffffff" />
  </g>
</svg>
