<?xml version="1.0" encoding="UTF-8" standalone="no"?>
<!-- Created with Inkscape (http://www.inkscape.org/) -->

<svg
   xmlns:dc="http://purl.org/dc/elements/1.1/"
   xmlns:cc="http://creativecommons.org/ns#"
   xmlns:rdf="http://www.w3.org/1999/02/22-rdf-syntax-ns#"
   xmlns:svg="http://www.w3.org/2000/svg"
   xmlns="http://www.w3.org/2000/svg"
   xmlns:xlink="http://www.w3.org/1999/xlink"
   xmlns:sodipodi="http://sodipodi.sourceforge.net/DTD/sodipodi-0.dtd"
   xmlns:inkscape="http://www.inkscape.org/namespaces/inkscape"
   version="1.0"
   width="48"
   height="48"
   id="svg2"
   inkscape:version="0.47pre4 r22446"
   sodipodi:docname="alsamixergui.svg">
  
  
  
  
  
  <filter>
    </filter>
  <linearGradient
     id="linearGradient4321">
    <stop
       style="stop-color:#969487;stop-opacity:1.0;"
       offset="0"
       id="stop1" />
    <stop
       style="stop-color:#969487;stop-opacity:1.0;"
       offset="1"
       id="stop2" />
  </linearGradient>
  <linearGradient
     inkscape:collect="always"
     xlink:href="#linearGradient4321"
     id="linearGradient1234"
     x1="0%"
     y1="50%"
     x2="100%"
     y2="50%" />
<defs
     id="defs5">
  </defs>
  <path
     d="m 14.170213,2 0,7.489362 7.489361,0 0,-7.489362 -7.489361,0 z m 12.170213,4.6808511 0,2.8085109 7.489361,0 0,-2.8085109 -7.489361,0 z M 2,14.170213 l 0,7.489361 7.4893617,0 0,-7.489361 -7.4893617,0 z m 12.170213,0 0,7.489361 7.489361,0 0,-7.489361 -7.489361,0 z m 12.170213,0 0,7.489361 7.489361,0 0,-7.489361 -7.489361,0 z M 2,26.340426 l 0,7.489361 7.4893617,0 0,-7.489361 -7.4893617,0 z m 12.170213,0 0,7.489361 7.489361,0 0,-7.489361 -7.489361,0 z m 12.170213,0 0,7.489361 7.489361,0 0,-7.489361 -7.489361,0 z m 12.170212,0 0,7.489361 7.489362,0 0,-7.489361 -7.489362,0 z M 2,38.510638 2,46 l 7.4893617,0 0,-7.489362 -7.4893617,0 z m 12.170213,0 0,7.489362 7.489361,0 0,-7.489362 -7.489361,0 z m 12.170213,0 0,7.489362 7.489361,0 0,-7.489362 -7.489361,0 z m 12.170212,0 0,7.489362 L 46,46 l 0,-7.489362 -7.489362,0 z"
     id="rect2164"
     style="fill:url(#linearGradient1234);fill-opacity:1;fill-rule:nonzero;stroke:none;stroke-width:6;marker:none;visibility:visible;display:inline;overflow:visible;filter:url(#filter1111);enable-background:accumulate" />
</svg>
