<?xml version="1.0" encoding="UTF-8" standalone="no"?>
<!-- Created with Inkscape (http://www.inkscape.org/) -->

<svg
   xmlns:dc="http://purl.org/dc/elements/1.1/"
   xmlns:cc="http://creativecommons.org/ns#"
   xmlns:rdf="http://www.w3.org/1999/02/22-rdf-syntax-ns#"
   xmlns:svg="http://www.w3.org/2000/svg"
   xmlns="http://www.w3.org/2000/svg"
   xmlns:xlink="http://www.w3.org/1999/xlink"
   xmlns:sodipodi="http://sodipodi.sourceforge.net/DTD/sodipodi-0.dtd"
   xmlns:inkscape="http://www.inkscape.org/namespaces/inkscape"
   version="1.0"
   width="48"
   height="48"
   viewBox="0 0 48 48"
   id="svg2"
   xml:space="preserve"
   inkscape:version="0.47pre4 r22446"
   sodipodi:docname="im-jabber.svg">
        
  
  
  
  
  <filter>
    </filter>
  <linearGradient
   id="linearGradient4321">
    <stop
       style="stop-color:#969487;stop-opacity:1.0;"
       offset="0"
       id="stop1" />
    <stop
       style="stop-color:#969487;stop-opacity:1.0;"
       offset="1"
       id="stop2" />
  </linearGradient>
  <linearGradient
     inkscape:collect="always"
     xlink:href="#linearGradient4321"
     id="linearGradient1234"
     x1="0%"
     y1="50%"
     x2="100%"
     y2="50%" />
<defs
   id="defs35">
</defs>
	<path
   d="M 25.015671,2 C 16.126621,2 9.0237028,9.21403 9.0237028,17.991968 c 0,7.435 5.0497902,13.605842 11.8393572,15.432396 -0.7801,0.267289 -1.274154,1.049345 -1.178045,1.914324 0.08112,0.730065 0.556693,1.300203 1.207497,1.502008 -0.796022,0.258252 -1.304721,1.068759 -1.207497,1.943775 0.09497,0.854744 0.745784,1.470747 1.56091,1.560911 -1.000019,0.111113 -1.672023,1.00266 -1.56091,2.002677 0.111113,1.000019 1.002659,1.642571 2.002677,1.531459 l 2.32664,-0.235609 0,0.589023 C 24.014332,45.23295 24.781382,46 25.7814,46 c 1.000019,0 1.79652,-0.76705 1.79652,-1.767068 l 0,-0.971888 2.562249,-0.26506 c 1.000018,-0.111113 1.642572,-1.002659 1.531459,-2.002677 -0.09385,-0.844609 -0.729616,-1.459644 -1.531459,-1.560911 1.000018,-0.111113 1.642572,-0.973208 1.531459,-1.973226 -0.08334,-0.750014 -0.589304,-1.314505 -1.266399,-1.502008 0.847447,-0.226665 1.367189,-1.036664 1.266399,-1.943775 C 31.617808,33.529002 31.39618,33.1128 31.053154,32.835341 36.913709,30.442604 41.007639,24.653907 41.007639,17.991968 41.007638,9.102918 33.793608,2 25.015671,2 z m 0.117804,3.5635877 c 6.889015,10e-8 12.428381,5.5393663 12.428381,12.4283803 -10e-7,6.889014 -5.539366,12.457831 -12.428381,12.457831 -6.889014,1e-6 -12.457831,-5.568817 -12.457831,-12.457831 0,-6.889014 5.568817,-12.4283803 12.457831,-12.4283803 z m -7.568942,9.2476573 0.795181,2.385542 3.88755,11.868809 1.767068,-0.589023 -3.239625,-9.895582 c 0.724331,0.295311 1.494191,0.60119 2.473896,0.824631 2.53813,0.578872 5.868938,0.610311 8.334672,-1.855421 L 30.228522,16.2249 c -1.867678,1.867679 -4.355647,1.888685 -6.567603,1.384203 -2.211956,-0.504482 -3.946453,-1.531459 -3.946453,-1.531459 l -2.149933,-1.266399 z"
   id="path19"
   style="fill:url(#linearGradient1234);fill-opacity:1;fill-rule:nonzero;stroke:none;filter:url(#filter1111)" />
	
</svg>
