<?xml version="1.0" encoding="UTF-8" standalone="no"?>
<!-- Created with Inkscape (http://www.inkscape.org/) -->

<svg
   xmlns:dc="http://purl.org/dc/elements/1.1/"
   xmlns:cc="http://creativecommons.org/ns#"
   xmlns:rdf="http://www.w3.org/1999/02/22-rdf-syntax-ns#"
   xmlns:svg="http://www.w3.org/2000/svg"
   xmlns="http://www.w3.org/2000/svg"
   xmlns:xlink="http://www.w3.org/1999/xlink"
   xmlns:sodipodi="http://sodipodi.sourceforge.net/DTD/sodipodi-0.dtd"
   xmlns:inkscape="http://www.inkscape.org/namespaces/inkscape"
   version="1.0"
   width="48"
   height="48"
   id="svg2"
   inkscape:version="0.47pre4 r22446"
   sodipodi:docname="swiftdove.svg">
  <sodipodi:namedview
     pagecolor="#ffffff"
     bordercolor="#666666"
     borderopacity="1"
     objecttolerance="10"
     gridtolerance="10"
     guidetolerance="10"
     inkscape:pageopacity="0"
     inkscape:pageshadow="2"
     inkscape:window-width="1360"
     inkscape:window-height="697"
     id="namedview28"
     showgrid="false"
     inkscape:zoom="5.5208333"
     inkscape:cx="28.981132"
     inkscape:cy="20.015094"
     inkscape:window-x="0"
     inkscape:window-y="25"
     inkscape:window-maximized="1"
     inkscape:current-layer="svg2" />
    
  
  
  
  
  <filter>
    </filter>
  <linearGradient
     id="linearGradient4321">
    <stop
       style="stop-color:#969487;stop-opacity:1.0;"
       offset="0"
       id="stop1" />
    <stop
       style="stop-color:#969487;stop-opacity:1.0;"
       offset="1"
       id="stop2" />
  </linearGradient>
  <linearGradient
     inkscape:collect="always"
     xlink:href="#linearGradient4321"
     id="linearGradient1234"
     x1="0%"
     y1="50%"
     x2="100%"
     y2="50%" />
<defs
     id="defs4">
  </defs>
  <path
     style="fill:url(#linearGradient1234);fill-rule:evenodd;stroke:none;filter:url(#filter1111)"
     id="path2160"
     d="M 9.5481658,5.1543854 22.461336,21.284235 45.314859,15.059902 9.5481658,5.1543854 z M 8.4449724,5.3982493 2,29.424642 32.575878,37.321184 c -0.0012,-0.04682 -0.01161,-0.09225 -0.01161,-0.13935 1e-6,-3.135317 2.543226,-5.678544 5.678544,-5.678544 1.460804,0 2.790589,0.556034 3.797308,1.463183 L 46,15.814718 22.438111,22.236465 22.136184,22.317753 21.927158,22.097115 8.4449724,5.3982493 z M 38.289259,31.81683 c -2.950709,0 -5.341779,2.402683 -5.341779,5.353391 0,2.95071 2.39107,5.341779 5.341779,5.341779 2.950709,0 5.353391,-2.391069 5.353391,-5.341779 0,-2.950708 -2.402685,-5.35339 -5.353391,-5.353391 z m 0.02322,1.04513 c 2.458058,-1e-6 4.459224,2.001166 4.459224,4.459224 0,2.458059 -2.001166,4.447612 -4.459224,4.447612 -2.458057,0 -4.459224,-1.989553 -4.459224,-4.447612 0,-2.458058 2.001166,-4.459224 4.459224,-4.459224 z m 0,0.499341 c -2.187692,0 -3.959884,1.772192 -3.959884,3.959883 0,2.187692 1.772192,3.959884 3.959884,3.959884 2.187695,0 3.959884,-1.772192 3.959884,-3.959884 0,-2.187691 -1.772189,-3.959885 -3.959884,-3.959883 z m -0.03482,0.441277 c 1.924255,-2e-6 3.483769,1.559513 3.483769,3.483769 -4e-6,1.924255 -1.559514,3.483769 -3.483769,3.483769 -1.924254,0 -3.483768,-1.559514 -3.483769,-3.483769 1e-6,-1.924256 1.559515,-3.483769 3.483769,-3.483769 z m 0,0.162576 c -1.830565,0 -3.321191,1.490625 -3.321193,3.321193 0,1.830567 1.490627,3.321196 3.321193,3.321193 1.830567,0 3.321189,-1.490626 3.321193,-3.321193 0,-1.830568 -1.490626,-3.321195 -3.321193,-3.321193 z" />
</svg>
