<?xml version="1.0" encoding="UTF-8" standalone="no"?>
<!-- Created with Inkscape (http://www.inkscape.org/) -->
<svg
   xmlns:svg="http://www.w3.org/2000/svg"
   xmlns="http://www.w3.org/2000/svg"
   xmlns:xlink="http://www.w3.org/1999/xlink"
   version="1.0"
   width="48"
   height="48"
   id="svg1307">
        
  
  
  
  
  <filter>
    </filter>
  <linearGradient
     id="linearGradient4321">
    <stop
       style="stop-color:#1577D3;stop-opacity:1.0;"
       offset="0"
       id="stop1" />
    <stop
       style="stop-color:#1577D3;stop-opacity:1.0;"
       offset="1"
       id="stop2" />
  </linearGradient>
  <linearGradient
     inkscape:collect="always"
     xlink:href="#linearGradient4321"
     id="linearGradient1234"
     x1="0%"
     y1="50%"
     x2="100%"
     y2="50%" />
<defs
     id="defs1309" />
  <g
     id="layer1"
     style="display:inline">
    <path
       d="M 12.000019,34.495541 C 11.998439,34.674961 12.093099,34.841481 12.248089,34.931881 C 12.403079,35.022291 12.594619,35.022731 12.750019,34.933041 L 30.000019,24.589291 L 30.000019,34.495541 C 30.000049,34.771671 30.223889,34.995511 30.500019,34.995541 L 35.500019,34.995541 C 35.776149,34.995511 35.999989,34.771671 36.000019,34.495541 L 36.000019,13.495541 C 35.999989,13.219411 35.776149,12.995571 35.500019,12.995541 L 30.500019,12.995541 C 30.223889,12.995571 30.000049,13.219411 30.000019,13.495541 L 30.000019,23.401791 L 12.750019,13.058041 C 12.594619,12.968351 12.403079,12.968791 12.248089,13.059201 C 12.093099,13.149601 11.998439,13.316121 12.000019,13.495541 L 12.000019,34.495541 z"
       id="path1935"
       style="fill:url(#linearGradient1234);filter:url(#filter1111);fill-opacity:1;fill-rule:evenodd;stroke:none;stroke-width:1;stroke-linecap:square;stroke-linejoin:round;marker:none;stroke-miterlimit:4;stroke-dasharray:none;stroke-dashoffset:0;stroke-opacity:1;visibility:visible;display:inline;overflow:visible" />
  </g>
</svg>
