<?xml version="1.0" encoding="UTF-8" standalone="no"?>
<!-- Created with Inkscape (http://www.inkscape.org/) -->

<svg
   xmlns:svg="http://www.w3.org/2000/svg"
   xmlns="http://www.w3.org/2000/svg"
   version="1.1"
   width="48"
   height="48"
   id="svg2816"
   style="display:inline">
        
  
  
  
  
  <filter>
    </filter>
  <linearGradient
     id="linearGradient4321">
    <stop
       style="stop-color:#1577D3;stop-opacity:1.0;"
       offset="0"
       id="stop1" />
    <stop
       style="stop-color:#1577D3;stop-opacity:1.0;"
       offset="1"
       id="stop2" />
  </linearGradient>
  <linearGradient
     inkscape:collect="always"
     xlink:href="#linearGradient4321"
     id="linearGradient1234"
     x1="0%"
     y1="50%"
     x2="100%"
     y2="50%" />
<defs
     id="defs2818" />
  <path
     d="M 14.666667,4 C 10.666667,4.2222133 4,6.6666667 4,14.666667 l 0,8 c 0,8 6.592593,10.58333 10.666667,10.666666 l 8,0 L 34.25,44 36,44 c -1.376416,-3.401827 -6.389781,-10.704453 0,-10.666667 3.962963,0 8,-2.666666 8,-10.666666 l 0,-8 C 44,6.6666667 37.333333,4.3055547 33.333333,4 L 14.666667,4 z m 14.75,5.4166667 c 4.637213,0 9.333333,4.0000003 9.333333,9.3333333 0,5.002435 -4,9.333333 -9.333333,9.333333 -5.333336,0 -9.333334,-4.165789 -9.333334,-9.333333 0,-5.333333 3.999998,-9.3333333 9.333334,-9.3333333 z M 29.083333,10.333333 A 1.3334667,1.3334667 0 0 0 28.916667,10.416667 1.3334667,1.3334667 0 0 0 28,11.75 l 0,6.916667 A 1.3334667,1.3334667 0 0 0 29.333333,20 L 34,20 a 1.3334667,1.3334667 0 1 0 0,-2.666667 l -3.333333,0 0,-5.583333 a 1.3334667,1.3334667 0 0 0 -1.583334,-1.416667 z"
     id="path3928"
     style="fill:url(#linearGradient1234);filter:url(#filter1111);fill-opacity:1;stroke:none;display:inline" />
</svg>
