<?xml version="1.0" encoding="UTF-8" standalone="no"?>
<!-- Created with Inkscape (http://www.inkscape.org/) -->

<svg
   xmlns:dc="http://purl.org/dc/elements/1.1/"
   xmlns:cc="http://creativecommons.org/ns#"
   xmlns:rdf="http://www.w3.org/1999/02/22-rdf-syntax-ns#"
   xmlns:svg="http://www.w3.org/2000/svg"
   xmlns="http://www.w3.org/2000/svg"
   xmlns:xlink="http://www.w3.org/1999/xlink"
   xmlns:sodipodi="http://sodipodi.sourceforge.net/DTD/sodipodi-0.dtd"
   xmlns:inkscape="http://www.inkscape.org/namespaces/inkscape"
   version="1.0"
   width="48"
   height="48"
   id="svg2"
   inkscape:version="0.47 r22583"
   sodipodi:docname="drive-removable-media.svg">
    
  
  
  
  
  <filter>
    </filter>
  <linearGradient
     id="linearGradient4321">
    <stop
       style="stop-color:#1577D3;stop-opacity:1.0;"
       offset="0"
       id="stop1" />
    <stop
       style="stop-color:#1577D3;stop-opacity:1.0;"
       offset="1"
       id="stop2" />
  </linearGradient>
  <linearGradient
     inkscape:collect="always"
     xlink:href="#linearGradient4321"
     id="linearGradient1234"
     x1="0%"
     y1="50%"
     x2="100%"
     y2="50%" />
<defs
     id="defs4">
  </defs>
  <path
     style="fill:url(#linearGradient1234);fill-opacity:1;stroke:none;filter:url(#filter1111)"
     id="rect2162"
     d="M 38.895323,1.9999994 9.2214264,2.0112268 C 7.8919719,2.0112268 6.83,3.0844283 6.83,4.4138806 l 0,39.1834654 C 6.83,44.926801 7.8919715,46 9.2214264,46 l 29.6514416,0 c 1.329452,0 2.402654,-1.073199 2.402654,-2.402654 l 0.04491,-39.1834654 c 0,-1.2744159 -1.050978,-2.4138812 -2.425109,-2.4138812 z m -14.236285,7.2753255 2.391427,5.7147231 -2.256699,0 0,12.743047 c 0.575825,0.0409 1.304099,-0.04153 1.874969,-0.314366 0.617615,-0.295181 1.044144,-0.757999 1.044144,-1.639194 l -0.01123,-4.973718 -1.190099,0 0,-3.031385 3.042613,0 0,3.031385 -1.246237,0 0.01123,4.973718 c 0,1.095956 -0.629037,1.824595 -1.392192,2.189334 -0.689215,0.329401 -1.477244,0.403224 -2.133198,0.359276 l 0,3.660117 c 1.343299,0.171095 2.391427,1.31625 2.391427,2.705792 0,1.507431 -1.232044,2.728247 -2.739474,2.728247 -1.507431,0 -2.728248,-1.220816 -2.728248,-2.728247 0,-1.421013 1.093839,-2.5877 2.481246,-2.717019 l 0,-1.246237 c -0.881438,0.02351 -1.808854,-0.272343 -2.559837,-0.707323 -0.402225,-0.232974 -0.754488,-0.499622 -1.010462,-0.808369 -0.255973,-0.308748 -0.433139,-0.654891 -0.415412,-1.032917 l 0.02246,-5.60245 c -0.727837,-0.154136 -1.268691,-0.809528 -1.268691,-1.583056 0,-0.888262 0.717249,-1.605512 1.605511,-1.605512 0.888263,0 1.605512,0.717249 1.605512,1.605512 0,0.80035 -0.581665,1.470595 -1.347282,1.594284 l -0.01123,5.591222 0,0.01123 c -0.0082,0.173847 0.07451,0.393594 0.269457,0.628732 0.194945,0.235138 0.48822,0.479925 0.842051,0.684869 0.663369,0.384232 1.530009,0.648101 2.267926,0.628732 l 0,-15.145701 -2.458791,0 2.919112,-5.7147231 z m 6.713958,29.8872161 0.583822,0 0,1.773922 2.133198,0 0,-1.773922 0.583822,0 0,4.333759 -0.583822,0 0,-2.065833 -2.133198,0 0,2.065833 -0.583822,0 0,-4.333759 z m 4.479714,0 1.201327,0 c 0.841531,4e-6 1.458888,0.176728 1.852514,0.527686 0.393614,0.349025 0.595046,0.894614 0.595049,1.639194 -3e-6,0.748464 -0.199494,1.299459 -0.595049,1.650421 -0.395563,0.350961 -1.01486,0.516458 -1.852514,0.516458 l -1.201327,0 0,-4.333759 z m 0.583823,0.482777 0,3.368206 0.707323,0 c 0.599156,0 1.036319,-0.13272 1.3136,-0.404185 0.279215,-0.271461 0.426636,-0.694332 0.42664,-1.279918 -4e-6,-0.581703 -0.147425,-1.01039 -0.42664,-1.279919 -0.277285,-0.271457 -0.714447,-0.404181 -1.3136,-0.404184 l -0.707323,0 z" />
</svg>
