<?xml version="1.0" encoding="UTF-8" standalone="no"?>
<!-- Created with Inkscape (http://www.inkscape.org/) -->
<svg
   xmlns:dc="http://purl.org/dc/elements/1.1/"
   xmlns:cc="http://creativecommons.org/ns#"
   xmlns:rdf="http://www.w3.org/1999/02/22-rdf-syntax-ns#"
   xmlns:svg="http://www.w3.org/2000/svg"
   xmlns="http://www.w3.org/2000/svg"
   xmlns:xlink="http://www.w3.org/1999/xlink"
   xmlns:sodipodi="http://sodipodi.sourceforge.net/DTD/sodipodi-0.dtd"
   xmlns:inkscape="http://www.inkscape.org/namespaces/inkscape"
   width="48"
   height="48"
   id="svg2"
   sodipodi:version="0.32"
   inkscape:version="0.46"
   version="1.0"
   sodipodi:docname="folder-open.svg"
   inkscape:output_extension="org.inkscape.output.svg.inkscape">
      
  
  <filter>
    </filter>
  <linearGradient
     id="linearGradient4321">
    <stop
       style="stop-color:#969487;stop-opacity:1.0;"
       offset="0"
       id="stop1" />
    <stop
       style="stop-color:#969487;stop-opacity:1.0;"
       offset="1"
       id="stop2" />
  </linearGradient>
  <linearGradient
     inkscape:collect="always"
     xlink:href="#linearGradient4321"
     id="linearGradient1234"
     x1="0%"
     y1="50%"
     x2="100%"
     y2="50%" />
<defs
     id="defs4">
  </defs>
  <g
     inkscape:label="Layer 1"
     inkscape:groupmode="layer"
     id="layer1">
    <path
       style="fill:url(#linearGradient1234);filter:url(#filter1111);fill-opacity:1;fill-rule:nonzero;stroke:none;stroke-width:1;stroke-linecap:round;stroke-linejoin:round;stroke-miterlimit:4;stroke-dasharray:none;stroke-dashoffset:0;stroke-opacity:1"
       d="M 20.1875 1.53125 C 19.948459 1.5768608 19.776962 1.7879343 19.78125 2.03125 L 19.78125 5.9375 L 7.28125 5.9375 C 7.250069 5.9345641 7.218681 5.9345641 7.1875 5.9375 C 6.948459 5.9831108 6.7769618 6.1941843 6.78125 6.4375 L 6.78125 11.375 C 3.2933645 11.375 0.5 13.787868 0.5 16.78125 L 0.5 35.75 C 0.5 38.743382 3.2933645 41.156249 6.78125 41.15625 L 41.21875 41.15625 C 44.706635 41.15625 47.5 38.743382 47.5 35.75 L 47.5 16.78125 C 47.5 13.787868 44.706635 11.375 41.21875 11.375 L 39.46875 11.375 L 39.46875 2.03125 C 39.468722 1.7551191 39.244881 1.5312776 38.96875 1.53125 L 20.28125 1.53125 C 20.250069 1.5283141 20.218681 1.5283141 20.1875 1.53125 z M 20.78125 2.53125 L 38.46875 2.53125 L 38.46875 11.375 L 26.1875 11.375 L 26.1875 11.25 L 36 11.25 L 36 10.25 L 26.1875 10.25 L 26.1875 8.4375 L 36 8.4375 L 36 7.4375 L 26.1875 7.4375 L 26.1875 6.4375 C 26.187489 6.3297416 26.151736 6.2378883 26.09375 6.15625 L 36 6.15625 L 36 5.15625 L 23.25 5.15625 L 23.25 5.9375 L 20.78125 5.9375 L 20.78125 2.53125 z M 7.78125 6.9375 L 25.1875 6.9375 L 25.1875 11.375 L 23.21875 11.375 L 23.21875 11 L 10.5 11 L 10.5 11.375 L 7.78125 11.375 L 7.78125 6.9375 z M 10.375 8.375 L 10.375 9.375 L 23.09375 9.375 L 23.09375 8.375 L 10.375 8.375 z "
       id="rect3169" />
  </g>
</svg>
