<?xml version="1.0" encoding="UTF-8" standalone="no"?>
<!-- Created with Inkscape (http://www.inkscape.org/) -->

<svg
   xmlns:dc="http://purl.org/dc/elements/1.1/"
   xmlns:cc="http://creativecommons.org/ns#"
   xmlns:rdf="http://www.w3.org/1999/02/22-rdf-syntax-ns#"
   xmlns:svg="http://www.w3.org/2000/svg"
   xmlns="http://www.w3.org/2000/svg"
   xmlns:xlink="http://www.w3.org/1999/xlink"
   xmlns:sodipodi="http://sodipodi.sourceforge.net/DTD/sodipodi-0.dtd"
   xmlns:inkscape="http://www.inkscape.org/namespaces/inkscape"
   version="1.0"
   width="432"
   height="48"
   id="svg2"
   inkscape:version="0.47pre4 r22446"
   sodipodi:docname="gnome-spinner.svg">
    
  
  
  
  
  <filter>
    </filter>
  <linearGradient
     id="linearGradient4321">
    <stop
       style="stop-color:#1577D3;stop-opacity:1.0;"
       offset="0"
       id="stop1" />
    <stop
       style="stop-color:#1577D3;stop-opacity:1.0;"
       offset="1"
       id="stop2" />
  </linearGradient>
  <linearGradient
     inkscape:collect="always"
     xlink:href="#linearGradient4321"
     id="linearGradient1234"
     x1="0%"
     y1="50%"
     x2="100%"
     y2="50%" />
<defs
     id="defs5">
  </defs>
  <path
     style="fill:url(#linearGradient1234);fill-opacity:1;fill-rule:nonzero;stroke:none;stroke-width:5;marker:none;visibility:visible;display:inline;overflow:visible;enable-background:accumulate;filter:url(#filter1111)"
     id="path2317"
     d="m 72.548949,6.5865416 a 4.5793802,4.5793802 0 0 1 -9.15876,0 4.5793802,4.5793802 0 1 1 9.15876,0 z" />
  <path
     style="fill:url(#linearGradient1234);fill-opacity:1;fill-rule:nonzero;stroke:none;stroke-width:5;marker:none;visibility:visible;display:inline;overflow:visible;enable-background:accumulate;filter:url(#filter1111)"
     id="path2319"
     d="m 68.886157,41.420619 a 0.920172,0.920172 0 0 1 -1.840344,0 0.920172,0.920172 0 1 1 1.840344,0 z" />
  <path
     style="fill:url(#linearGradient1234);fill-opacity:1;fill-rule:nonzero;stroke:none;stroke-width:5;marker:none;visibility:visible;display:inline;overflow:visible;enable-background:accumulate;filter:url(#filter1111)"
     id="path2323"
     d="m 53.311259,23.998211 a 2.7533563,2.7533563 0 0 1 -5.506712,0 2.7533563,2.7533563 0 1 1 5.506712,0 z" />
  <path
     style="fill:url(#linearGradient1234);fill-opacity:1;fill-rule:nonzero;stroke:none;stroke-width:5;marker:none;visibility:visible;display:inline;overflow:visible;enable-background:accumulate;filter:url(#filter1111)"
     id="path2331"
     d="m 58.810094,11.173082 a 3.6728165,3.6699486 0 0 1 -7.345633,0 3.6728165,3.6699486 0 1 1 7.345633,0 z" />
  <path
     style="fill:url(#linearGradient1234);fill-opacity:1;fill-rule:nonzero;stroke:none;stroke-width:5;marker:none;visibility:visible;display:inline;overflow:visible;enable-background:accumulate;filter:url(#filter1111)"
     id="path2337"
     d="m 56.97046,36.834079 a 1.8331855,1.8331845 0 0 1 -3.666371,0 1.8331855,1.8331845 0 1 1 3.666371,0 z" />
  <path
     style="fill:url(#linearGradient1234);fill-opacity:1;fill-rule:nonzero;stroke:none;stroke-width:5;marker:none;visibility:visible;display:inline;overflow:visible;enable-background:accumulate;filter:url(#filter1111)"
     id="path2339"
     d="m 115.63951,6.5829622 a 3.6699481,3.6699481 0 0 1 -7.33989,0 3.6699481,3.6699481 0 1 1 7.33989,0 z" />
  <path
     style="fill:url(#linearGradient1234);fill-opacity:1;fill-rule:nonzero;stroke:none;stroke-width:5;marker:none;visibility:visible;display:inline;overflow:visible;enable-background:accumulate;filter:url(#filter1111)"
     id="path2345"
     d="m 96.398245,24.001792 a 1.8403451,1.8331842 0 0 1 -3.68069,0 1.8403451,1.8331842 0 1 1 3.68069,0 z" />
  <path
     style="fill:url(#linearGradient1234);fill-opacity:1;fill-rule:nonzero;stroke:none;stroke-width:5;marker:none;visibility:visible;display:inline;overflow:visible;enable-background:accumulate;filter:url(#filter1111)"
     id="path2347"
     d="m 101.8892,11.169504 a 2.751926,2.7497772 0 0 1 -5.503849,0 2.751926,2.7497772 0 1 1 5.503849,0 z" />
  <path
     style="fill:url(#linearGradient1234);fill-opacity:1;fill-rule:nonzero;stroke:none;stroke-width:5;marker:none;visibility:visible;display:inline;overflow:visible;enable-background:accumulate;filter:url(#filter1111)"
     id="path2349"
     d="m 129.3848,11.165922 a 4.5829589,4.5829604 0 0 1 -9.16591,0 4.5829589,4.5829604 0 1 1 9.16591,0 z" />
  <path
     style="fill:url(#linearGradient1234);fill-opacity:1;fill-rule:nonzero;stroke:none;stroke-width:5;marker:none;visibility:visible;display:inline;overflow:visible;enable-background:accumulate;filter:url(#filter1111)"
     id="path2353"
     d="m 100.05745,36.830499 a 0.9201735,0.92017296 0 0 1 -1.84035,0 0.9201735,0.92017296 0 1 1 1.84035,0 z" />
  <path
     style="fill:url(#linearGradient1234);fill-opacity:1;fill-rule:nonzero;stroke:none;stroke-width:5;marker:none;visibility:visible;display:inline;overflow:visible;enable-background:accumulate;filter:url(#filter1111)"
     id="path2375"
     d="m 158.72295,6.5829618 a 2.75336,2.75336 0 0 1 -5.50672,0 2.75336,2.75336 0 1 1 5.50672,0 z" />
  <path
     style="fill:url(#linearGradient1234);fill-opacity:1;fill-rule:nonzero;stroke:none;stroke-width:5;marker:none;visibility:visible;display:inline;overflow:visible;enable-background:accumulate;filter:url(#filter1111)"
     id="path2379"
     d="m 177.96064,24.001792 a 4.5793802,4.5793802 0 0 1 -9.15876,0 4.5793802,4.5793802 0 1 1 9.15876,0 z" />
  <path
     style="fill:url(#linearGradient1234);fill-opacity:1;fill-rule:nonzero;stroke:none;stroke-width:5;marker:none;visibility:visible;display:inline;overflow:visible;enable-background:accumulate;filter:url(#filter1111)"
     id="path2381"
     d="m 139.48528,24.001792 a 0.92736024,0.92375183 0 0 1 -1.85472,0 0.92736024,0.92375183 0 1 1 1.85472,0 z" />
  <path
     style="fill:url(#linearGradient1234);fill-opacity:1;fill-rule:nonzero;stroke:none;stroke-width:5;marker:none;visibility:visible;display:inline;overflow:visible;enable-background:accumulate;filter:url(#filter1111)"
     id="path2383"
     d="m 144.97908,11.169505 a 1.8417835,1.8403453 0 0 1 -3.68356,0 1.8417835,1.8403453 0 1 1 3.68356,0 z" />
  <path
     style="fill:url(#linearGradient1234);fill-opacity:1;fill-rule:nonzero;stroke:none;stroke-width:5;marker:none;visibility:visible;display:inline;overflow:visible;enable-background:accumulate;filter:url(#filter1111)"
     id="path2385"
     d="m 172.47182,11.165922 a 3.66995,3.6699512 0 0 1 -7.3399,0 3.66995,3.6699512 0 1 1 7.3399,0 z" />
  <path
     style="fill:url(#linearGradient1234);fill-opacity:1;fill-rule:nonzero;stroke:none;stroke-width:5;marker:none;visibility:visible;display:inline;overflow:visible;enable-background:accumulate;filter:url(#filter1111)"
     id="path2395"
     d="m 201.80277,6.5829623 a 1.836765,1.836765 0 0 1 -3.67353,0 1.836765,1.836765 0 1 1 3.67353,0 z" />
  <path
     style="fill:url(#linearGradient1234);fill-opacity:1;fill-rule:nonzero;stroke:none;stroke-width:5;marker:none;visibility:visible;display:inline;overflow:visible;enable-background:accumulate;filter:url(#filter1111)"
     id="path2399"
     d="m 221.04404,24.001792 a 3.6663693,3.6663693 0 0 1 -7.33273,0 3.6663693,3.6663693 0 1 1 7.33273,0 z" />
  <path
     style="fill:url(#linearGradient1234);fill-opacity:1;fill-rule:nonzero;stroke:none;stroke-width:5;marker:none;visibility:visible;display:inline;overflow:visible;enable-background:accumulate;filter:url(#filter1111)"
     id="path2403"
     d="m 188.05103,11.169505 a 0.91731147,0.91659517 0 0 1 -1.83462,0 0.91731147,0.91659517 0 1 1 1.83462,0 z" />
  <path
     style="fill:url(#linearGradient1234);fill-opacity:1;fill-rule:nonzero;stroke:none;stroke-width:5;marker:none;visibility:visible;display:inline;overflow:visible;enable-background:accumulate;filter:url(#filter1111)"
     id="path2405"
     d="m 215.55164,11.165922 a 2.753355,2.753356 0 0 1 -5.50671,0 2.753355,2.753356 0 1 1 5.50671,0 z" />
  <path
     style="fill:url(#linearGradient1234);fill-opacity:1;fill-rule:nonzero;stroke:none;stroke-width:5;marker:none;visibility:visible;display:inline;overflow:visible;enable-background:accumulate;filter:url(#filter1111)"
     id="path2407"
     d="m 217.38125,36.830501 a 4.5829627,4.5829604 0 0 1 -9.16592,0 4.5829627,4.5829604 0 1 1 9.16592,0 z" />
  <path
     style="fill:url(#linearGradient1234);fill-opacity:1;fill-rule:nonzero;stroke:none;stroke-width:5;marker:none;visibility:visible;display:inline;overflow:visible;enable-background:accumulate;filter:url(#filter1111)"
     id="path2435"
     d="m 244.88973,6.5829627 a 0.92017087,0.92017087 0 0 1 -1.84034,0 0.92017087,0.92017087 0 1 1 1.84034,0 z" />
  <path
     style="fill:url(#linearGradient1234);fill-opacity:1;fill-rule:nonzero;stroke:none;stroke-width:5;marker:none;visibility:visible;display:inline;overflow:visible;enable-background:accumulate;filter:url(#filter1111)"
     id="path2437"
     d="m 248.54893,41.41704 a 4.58296,4.58296 0 0 1 -9.16592,0 4.58296,4.58296 0 1 1 9.16592,0 z" />
  <path
     style="fill:url(#linearGradient1234);fill-opacity:1;fill-rule:nonzero;stroke:none;stroke-width:5;marker:none;visibility:visible;display:inline;overflow:visible;enable-background:accumulate;filter:url(#filter1111)"
     id="path2439"
     d="m 264.131,24.001793 a 2.74978,2.74978 0 0 1 -5.49956,0 2.74978,2.74978 0 1 1 5.49956,0 z" />
  <path
     style="fill:url(#linearGradient1234);fill-opacity:1;fill-rule:nonzero;stroke:none;stroke-width:5;marker:none;visibility:visible;display:inline;overflow:visible;enable-background:accumulate;filter:url(#filter1111)"
     id="path2445"
     d="m 258.6386,11.165923 a 1.836765,1.8367656 0 0 1 -3.67353,0 1.836765,1.8367656 0 1 1 3.67353,0 z" />
  <path
     style="fill:url(#linearGradient1234);fill-opacity:1;fill-rule:nonzero;stroke:none;stroke-width:5;marker:none;visibility:visible;display:inline;overflow:visible;enable-background:accumulate;filter:url(#filter1111)"
     id="path2447"
     d="m 260.47179,36.830501 a 3.66995,3.6699482 0 0 1 -7.3399,0 3.66995,3.6699482 0 1 1 7.3399,0 z" />
  <path
     style="fill:url(#linearGradient1234);fill-opacity:1;fill-rule:nonzero;stroke:none;stroke-width:5;marker:none;visibility:visible;display:inline;overflow:visible;enable-background:accumulate;filter:url(#filter1111)"
     id="path2453"
     d="m 291.62875,41.41704 a 3.6663686,3.6663686 0 0 1 -7.33273,0 3.6663686,3.6663686 0 1 1 7.33273,0 z" />
  <path
     style="fill:url(#linearGradient1234);fill-opacity:1;fill-rule:nonzero;stroke:none;stroke-width:5;marker:none;visibility:visible;display:inline;overflow:visible;enable-background:accumulate;filter:url(#filter1111)"
     id="path2455"
     d="m 307.21083,24.001792 a 1.83319,1.83319 0 0 1 -3.66638,0 1.83319,1.83319 0 1 1 3.66638,0 z" />
  <path
     style="fill:url(#linearGradient1234);fill-opacity:1;fill-rule:nonzero;stroke:none;stroke-width:5;marker:none;visibility:visible;display:inline;overflow:visible;enable-background:accumulate;filter:url(#filter1111)"
     id="path2461"
     d="m 301.71842,11.165923 a 0.92017079,0.9201711 0 0 1 -1.84034,0 0.92017079,0.9201711 0 1 1 1.84034,0 z" />
  <path
     style="fill:url(#linearGradient1234);fill-opacity:1;fill-rule:nonzero;stroke:none;stroke-width:5;marker:none;visibility:visible;display:inline;overflow:visible;enable-background:accumulate;filter:url(#filter1111)"
     id="path2463"
     d="m 303.55162,36.8305 a 2.75336,2.7533586 0 0 1 -5.50672,0 2.75336,2.7533586 0 1 1 5.50672,0 z" />
  <path
     style="fill:url(#linearGradient1234);fill-opacity:1;fill-rule:nonzero;stroke:none;stroke-width:5;marker:none;visibility:visible;display:inline;overflow:visible;enable-background:accumulate;filter:url(#filter1111)"
     id="path2465"
     d="m 279.71307,36.830501 a 4.579385,4.5793823 0 0 1 -9.15877,0 4.579385,4.5793823 0 1 1 9.15877,0 z" />
  <path
     style="fill:url(#linearGradient1234);fill-opacity:1;fill-rule:nonzero;stroke:none;stroke-width:5;marker:none;visibility:visible;display:inline;overflow:visible;enable-background:accumulate;filter:url(#filter1111)"
     id="path2487"
     d="m 334.70858,41.41704 a 2.7497767,2.7497767 0 0 1 -5.49955,0 2.7497767,2.7497767 0 1 1 5.49955,0 z" />
  <path
     style="fill:url(#linearGradient1234);fill-opacity:1;fill-rule:nonzero;stroke:none;stroke-width:5;marker:none;visibility:visible;display:inline;overflow:visible;enable-background:accumulate;filter:url(#filter1111)"
     id="path2489"
     d="m 350.29066,24.001791 a 0.916595,0.916595 0 0 1 -1.83319,0 0.916595,0.916595 0 1 1 1.83319,0 z" />
  <path
     style="fill:url(#linearGradient1234);fill-opacity:1;fill-rule:nonzero;stroke:none;stroke-width:5;marker:none;visibility:visible;display:inline;overflow:visible;enable-background:accumulate;filter:url(#filter1111)"
     id="path2491"
     d="m 319.15159,24.001792 a 4.6008612,4.5829589 0 0 1 -9.20172,0 4.6008612,4.5829589 0 1 1 9.20172,0 z" />
  <path
     style="fill:url(#linearGradient1234);fill-opacity:1;fill-rule:nonzero;stroke:none;stroke-width:5;marker:none;visibility:visible;display:inline;overflow:visible;enable-background:accumulate;filter:url(#filter1111)"
     id="path2497"
     d="m 346.63145,36.830499 a 1.8367653,1.8367643 0 0 1 -3.67353,0 1.8367653,1.8367643 0 1 1 3.67353,0 z" />
  <path
     style="fill:url(#linearGradient1234);fill-opacity:1;fill-rule:nonzero;stroke:none;stroke-width:5;marker:none;visibility:visible;display:inline;overflow:visible;enable-background:accumulate;filter:url(#filter1111)"
     id="path2499"
     d="m 322.80005,36.830499 a 3.6699505,3.6699484 0 0 1 -7.3399,0 3.6699505,3.6699484 0 1 1 7.3399,0 z" />
  <path
     style="fill:url(#linearGradient1234);fill-opacity:1;fill-rule:nonzero;stroke:none;stroke-width:5;marker:none;visibility:visible;display:inline;overflow:visible;enable-background:accumulate;filter:url(#filter1111)"
     id="path2505"
     d="m 377.78841,41.417039 a 1.833185,1.833185 0 0 1 -3.66637,0 1.833185,1.833185 0 1 1 3.66637,0 z" />
  <path
     style="fill:url(#linearGradient1234);fill-opacity:1;fill-rule:nonzero;stroke:none;stroke-width:5;marker:none;visibility:visible;display:inline;overflow:visible;enable-background:accumulate;filter:url(#filter1111)"
     id="path2509"
     d="m 362.22784,24.001791 a 3.6806907,3.6663689 0 0 1 -7.36138,0 3.6806907,3.6663689 0 1 1 7.36138,0 z" />
  <path
     style="fill:url(#linearGradient1234);fill-opacity:1;fill-rule:nonzero;stroke:none;stroke-width:5;marker:none;visibility:visible;display:inline;overflow:visible;enable-background:accumulate;filter:url(#filter1111)"
     id="path2511"
     d="m 367.71307,11.169504 a 4.58654,4.5829585 0 0 1 -9.17308,0 4.58654,4.5829585 0 1 1 9.17308,0 z" />
  <path
     style="fill:url(#linearGradient1234);fill-opacity:1;fill-rule:nonzero;stroke:none;stroke-width:5;marker:none;visibility:visible;display:inline;overflow:visible;enable-background:accumulate;filter:url(#filter1111)"
     id="path2515"
     d="m 389.71127,36.830498 a 0.920175,0.92017454 0 0 1 -1.84035,0 0.920175,0.92017454 0 1 1 1.84035,0 z" />
  <path
     style="fill:url(#linearGradient1234);fill-opacity:1;fill-rule:nonzero;stroke:none;stroke-width:5;marker:none;visibility:visible;display:inline;overflow:visible;enable-background:accumulate;filter:url(#filter1111)"
     id="path2517"
     d="m 365.87989,36.830498 a 2.75336,2.7533583 0 0 1 -5.50672,0 2.75336,2.7533583 0 1 1 5.50672,0 z" />
  <path
     style="fill:url(#linearGradient1234);fill-opacity:1;fill-rule:nonzero;stroke:none;stroke-width:5;marker:none;visibility:visible;display:inline;overflow:visible;enable-background:accumulate;filter:url(#filter1111)"
     id="path2231"
     d="m 28.563267,6.5793803 a 4.5793805,4.5793805 0 0 1 -9.158761,0 4.5793805,4.5793805 0 1 1 9.158761,0 z" />
  <path
     style="fill:url(#linearGradient1234);fill-opacity:1;fill-rule:nonzero;stroke:none;stroke-width:5;marker:none;visibility:visible;display:inline;overflow:visible;enable-background:accumulate;filter:url(#filter1111)"
     id="path2233"
     d="m 28.559678,41.413458 a 4.5793805,4.5793805 0 0 1 -9.158761,0 4.5793805,4.5793805 0 1 1 9.158761,0 z" />
  <path
     style="fill:url(#linearGradient1234);fill-opacity:1;fill-rule:nonzero;stroke:none;stroke-width:5;marker:none;visibility:visible;display:inline;overflow:visible;enable-background:accumulate;filter:url(#filter1111)"
     id="path2235"
     d="m 45.974932,23.99821 a 4.5793802,4.5793802 0 0 1 -9.15876,0 4.5793802,4.5793802 0 1 1 9.15876,0 z" />
  <path
     style="fill:url(#linearGradient1234);fill-opacity:1;fill-rule:nonzero;stroke:none;stroke-width:5;marker:none;visibility:visible;display:inline;overflow:visible;enable-background:accumulate;filter:url(#filter1111)"
     id="path2237"
     d="m 11.144443,23.99105 a 4.5722213,4.5722213 0 0 1 -9.144443,0 4.5722213,4.5722213 0 1 1 9.144443,0 z" />
  <path
     style="fill:url(#linearGradient1234);fill-opacity:1;fill-rule:nonzero;stroke:none;stroke-width:5;marker:none;visibility:visible;display:inline;overflow:visible;enable-background:accumulate;filter:url(#filter1111)"
     id="path2239"
     d="m 15.734555,11.165921 a 4.5829601,4.5793817 0 0 1 -9.1659206,0 4.5829601,4.5793817 0 1 1 9.1659206,0 z" />
  <path
     style="fill:url(#linearGradient1234);fill-opacity:1;fill-rule:nonzero;stroke:none;stroke-width:5;marker:none;visibility:visible;display:inline;overflow:visible;enable-background:accumulate;filter:url(#filter1111)"
     id="path2241"
     d="m 41.399128,11.16234 a 4.582959,4.5829605 0 0 1 -9.165918,0 4.582959,4.5829605 0 1 1 9.165918,0 z" />
  <path
     style="fill:url(#linearGradient1234);fill-opacity:1;fill-rule:nonzero;stroke:none;stroke-width:5;marker:none;visibility:visible;display:inline;overflow:visible;enable-background:accumulate;filter:url(#filter1111)"
     id="path2243"
     d="m 41.399132,36.826919 a 4.5829627,4.5829604 0 0 1 -9.165925,0 4.5829627,4.5829604 0 1 1 9.165925,0 z" />
  <path
     style="fill:url(#linearGradient1234);fill-opacity:1;fill-rule:nonzero;stroke:none;stroke-width:5;marker:none;visibility:visible;display:inline;overflow:visible;enable-background:accumulate;filter:url(#filter1111)"
     id="path2245"
     d="m 15.727391,36.826917 a 4.5758027,4.5758001 0 0 1 -9.1516053,0 4.5758027,4.5758001 0 1 1 9.1516053,0 z" />
</svg>
