<?xml version="1.0" encoding="UTF-8" standalone="no"?>
<!-- Created with Inkscape (http://www.inkscape.org/) -->

<svg
   xmlns:dc="http://purl.org/dc/elements/1.1/"
   xmlns:cc="http://creativecommons.org/ns#"
   xmlns:rdf="http://www.w3.org/1999/02/22-rdf-syntax-ns#"
   xmlns:svg="http://www.w3.org/2000/svg"
   xmlns="http://www.w3.org/2000/svg"
   xmlns:xlink="http://www.w3.org/1999/xlink"
   xmlns:sodipodi="http://sodipodi.sourceforge.net/DTD/sodipodi-0.dtd"
   xmlns:inkscape="http://www.inkscape.org/namespaces/inkscape"
   version="1.0"
   width="48"
   height="48"
   id="svg2383"
   inkscape:version="0.47pre4 r22446"
   sodipodi:docname="firefox.svg">
    
  
  
  
  
  <filter>
    </filter>
  <linearGradient
     id="linearGradient4321">
    <stop
       style="stop-color:#1577D3;stop-opacity:1.0;"
       offset="0"
       id="stop1" />
    <stop
       style="stop-color:#1577D3;stop-opacity:1.0;"
       offset="1"
       id="stop2" />
  </linearGradient>
  <linearGradient
     inkscape:collect="always"
     xlink:href="#linearGradient4321"
     id="linearGradient1234"
     x1="0%"
     y1="50%"
     x2="100%"
     y2="50%" />
<defs
     id="defs2385">
  </defs>
  <path
     style="fill:url(#linearGradient1234);fill-opacity:1;fill-rule:evenodd;stroke:none;filter:url(#filter1111)"
     id="path2418"
     d="M 24.100592,2.8038106 C 21.677682,2.8913341 19.454526,3.4541539 17.512339,4.2113009 12.996732,5.9716758 10.101235,8.6889716 9.3968105,9.3920633 9.34771,9.3008253 9.2929361,9.2220172 9.2470775,9.1225431 8.9042958,8.379007 8.6332982,7.4653795 8.4984124,6.8166552 L 8.378626,6.2476698 7.9593736,6.6369756 C 5.6404182,8.7648408 5.6402142,12.219288 5.7732717,14.303306 4.9466428,15.157123 4.1065172,16.751421 3.4074903,18.405991 2.6839651,20.118547 2.1306165,21.800408 2.0598932,22.688355 L 2,23.586753 c 0.7009773,-0.63709 1.2403569,-1.417361 1.8267427,-2.156155 -0.2700533,1.14334 -0.5543807,2.332355 -0.7786117,3.982897 -0.3001336,2.209257 -0.5087031,4.358013 -0.4192524,5.480228 -0.00123,0.0057 0.00116,0.02432 0,0.02995 0.00201,0.02414 -0.0023,0.09668 0,0.119786 l 0.2096262,2.186102 0.449199,-2.156155 c 0.064717,-0.313611 0.3823508,-1.222292 0.7187185,-2.126209 0.190887,-0.512968 0.3160305,-0.893338 0.4791456,-1.347597 0.3656481,1.887114 1.398821,5.778321 4.282364,9.702699 3.3114241,4.506707 8.8827791,8.474788 17.8481741,7.516597 9.514349,-0.958298 14.456446,-6.637861 16.91983,-12.667412 2.439408,-5.970866 2.502234,-12.235853 2.455621,-14.793621 -1.15e-4,-0.0063 1.16e-4,-0.02371 0,-0.02995 -3.49e-4,-0.01872 3.61e-4,-0.07154 0,-0.08984 l -0.02995,-1.976475 -0.598932,1.856689 c -0.01712,0.05176 -0.01351,0.06986 -0.02995,0.119786 -0.272671,0.828473 -0.452888,1.366343 -0.628879,1.946529 -0.610749,-4.258467 -1.237954,-7.576748 -2.844927,-9.9722188 -0.01687,-0.02515 -0.01287,-0.06486 -0.02995,-0.08984 l -1.437436,-2.0962617 0.838504,2.4256749 c 0.0099,0.02802 0.02064,0.03277 0.02995,0.05989 C 41.47467,10.137868 41.531358,10.532595 41.5894,10.979231 40.452321,9.2296872 38.947878,8.0566036 37.366936,7.2958008 33.57717,4.4983758 29.932028,3.2189533 26.58616,2.8936504 25.73668,2.8110596 24.908229,2.7746361 24.100592,2.8038106 z m 7.39681,3.9230048 c 0.875236,0.017901 1.851497,0.054999 2.99466,0.299466 2.782394,0.5950171 5.898174,2.0837407 7.426757,5.7796946 0.0035,0.0086 0.756821,1.986562 0.760363,1.995192 l -0.372461,-2.798603 0.240977,0.623732 c 0.731031,2.154477 1.282415,4.643041 1.736903,7.995742 l 0.209626,1.527277 0.449199,-1.467383 c 0.09029,-0.294781 0.192712,-0.58424 0.269519,-0.838505 -0.08422,3.078903 -0.421003,7.424956 -2.305888,12.038533 C 40.504984,37.761444 35.832123,43.225786 26.556213,44.160068 17.813509,45.094458 12.518837,41.254256 9.3069707,36.883044 6.0951044,32.511832 5.0118107,27.540881 4.8748737,26.43168 l -0.2096262,-1.617117 -0.449199,1.58717 C 4.0939009,26.82024 3.7908848,27.619994 3.4973301,28.408156 3.5700011,27.40147 3.5451271,26.694546 3.7069563,25.503335 4.0070815,23.294141 4.5420814,20.748306 4.6951941,20.26268 4.8483068,19.777055 5.2399418,18.406004 5.5374422,17.859466 4.7600058,18.789687 4.352039,19.498907 4.0962621,19.933267 3.8431688,20.363071 3.6601227,20.55508 3.3176504,20.981399 3.5503619,20.2024 3.6360953,19.622942 4.0363689,18.67551 4.7442588,16.999962 5.6366438,15.315692 6.3123106,14.662666 l 0.1197864,-0.08984 0,-0.17968 C 6.3048135,12.524372 6.386202,9.5793395 8.0492134,7.6252134 8.1994024,8.2045197 8.3443297,8.7980063 8.6181988,9.3920633 8.9940742,10.207385 9.4768374,10.966836 10.235315,11.128967 l 0.05989,0 0.02995,0 c 0.627621,-0.03242 1.591206,-0.150724 2.545461,-0.17968 0.954255,-0.02896 1.896456,0.07201 2.365782,0.329413 l 0.209626,0.08984 0.17968,-0.149733 c 1.165251,-1.097042 2.551564,-1.8898437 4.462043,-2.0962639 -0.319855,0.2979143 -0.588356,0.4745804 -0.928345,0.8983999 -0.6354,0.792069 -1.212155,1.756562 -1.197864,2.755087 l 0,0.08984 0.05989,0.05989 c -0.01289,-0.02121 0.02459,0.05638 0.05989,0.149733 0.0353,0.09336 0.07773,0.221119 0.149733,0.359359 0.144019,0.27648 0.37166,0.60383 0.778611,0.898398 0.767849,0.5558 2.196117,0.936293 4.58183,0.778612 0.01567,0.135282 0.02653,0.294122 0.02995,0.389306 0.0063,0.175816 0.01759,0.324547 -0.149733,0.568985 -0.334662,0.488875 -1.381619,1.330314 -3.952951,2.90482 l -0.209627,0.119787 0.05989,0.239572 c 0.08647,0.337699 0.237408,0.896424 0.329412,1.467384 0.06994,0.433984 0.06023,0.801202 0.02995,1.137971 -0.181398,-0.04869 -0.368418,-0.09138 -0.598932,-0.119787 -0.483235,-0.05955 -1.050697,-0.06421 -1.557223,0.08984 -0.506527,0.154042 -0.99042,0.50567 -1.108025,1.108024 -0.117604,0.602354 0.08901,1.340946 0.688772,2.335835 l 0,0.02995 c 0.856176,1.253658 2.119975,1.860612 3.503752,1.946529 1.383778,0.08592 2.898281,-0.329396 4.372204,-1.018184 1.337622,-0.62509 2.266511,-0.281905 2.904821,0.239572 0.319154,0.260739 0.549506,0.574749 0.688771,0.838505 0.06963,0.131878 0.129989,0.248635 0.149733,0.329413 0.0099,0.04039 -8.72e-4,0.07551 0,0.08984 -0.04185,0.09522 -0.03779,0.09908 -0.209626,0.149733 -0.202149,0.05959 -0.621629,0.138541 -1.287704,0.329412 -0.14781,0.03563 -0.226284,0.09824 -0.359359,0.17968 -0.133075,0.08143 -0.279483,0.180895 -0.449199,0.299466 -0.339431,0.237143 -0.762463,0.512098 -1.197864,0.808558 -0.8708,0.59292 -1.876787,1.159535 -2.425675,1.197864 -1.401363,0.09786 -3.713378,0.119786 -3.713378,0.119786 l -1.078078,0 0.898398,0.598933 c 0.813164,0.548891 7.742708,5.737526 12.996825,1.527276 0.01142,-0.0091 0.01854,-0.02071 0.02995,-0.02995 1.691364,-1.248031 2.501048,-2.442607 3.234233,-3.893059 -0.01078,0.187093 -0.01367,0.243496 -0.02995,0.449199 -0.07267,0.917907 -0.22328,1.978825 -0.479146,2.785034 l -0.509092,1.58717 1.078078,-1.257757 c 0.02627,-0.03086 0.03422,-0.08793 0.05989,-0.119786 l 0.02995,0 c 0.0099,-0.01241 -0.0099,-0.04734 0,-0.05989 1.382098,-1.762318 1.85309,-5.06916 1.796796,-9.07382 0.257633,0.324495 0.537616,0.619251 0.808558,1.167918 l 0.419252,0.808558 0.209627,-0.868452 c 0.512337,-1.984772 0.73878,-5.095455 0.299466,-7.516596 0.35855,0.328183 0.735869,0.587563 1.078077,1.197864 0.01373,0.02448 0.01588,0.03463 0.02995,0.05989 l 1.377543,2.515514 -0.778611,-2.785034 c -0.005,-0.01773 -0.02494,-0.04191 -0.02995,-0.05989 C 40.26369,16.82121 39.983153,15.241153 38.744475,13.614535 37.59911,12.110455 35.487158,10.619321 32.096329,9.3321703 32.556379,9.2071652 33.135032,9.072496 33.41398,9.002757 33.883883,8.8852783 34.274439,8.83954 35.240722,8.912917 l 1.67701,0.119787 -1.49733,-0.7486657 c -0.0361,-0.01828 -0.08334,-0.011818 -0.119782,-0.029946 -1.12885,-0.5614786 -2.397799,-1.069388 -3.503752,-1.4374368 -0.137947,-0.045907 -0.168261,-0.047834 -0.299466,-0.08984 z" />
</svg>
