<?xml version="1.0" encoding="UTF-8" standalone="no"?>
<!-- Created with Inkscape (http://www.inkscape.org/) -->
<svg
   xmlns:svg="http://www.w3.org/2000/svg"
   xmlns="http://www.w3.org/2000/svg"
   xmlns:xlink="http://www.w3.org/1999/xlink"
   version="1.0"
   width="48"
   height="48"
   id="svg2383"
   style="enable-background:new">
        
  
  
  
  
  <filter>
    </filter>
  <linearGradient
     id="linearGradient4321">
    <stop
       style="stop-color:#1577D3;stop-opacity:1.0;"
       offset="0"
       id="stop1" />
    <stop
       style="stop-color:#1577D3;stop-opacity:1.0;"
       offset="1"
       id="stop2" />
  </linearGradient>
  <linearGradient
     inkscape:collect="always"
     xlink:href="#linearGradient4321"
     id="linearGradient1234"
     x1="0%"
     y1="50%"
     x2="100%"
     y2="50%" />
<defs
     id="defs2385" />
  <g
     id="layer1"
     style="display:inline">
    <g
       id="layer2"
       style="display:inline">
      <path
         d="M 30.0625,9.9375 C 30.005521,9.9430009 29.951305,9.9646874 29.90625,10 L 24.71875,13.84375 C 24.672057,13.884855 24.639296,13.939457 24.625,14 C 24.596513,14.098274 24.620072,14.20429 24.6875,14.28125 C 24.705134,14.305055 24.726195,14.326116 24.75,14.34375 C 24.769545,14.356565 24.790521,14.367053 24.8125,14.375 L 32.0625,16.84375 L 23.75,21.625 C 23.738829,21.634634 23.728384,21.645079 23.71875,21.65625 C 23.593864,21.753891 23.566488,21.931837 23.65625,22.0625 C 23.673884,22.086305 23.694945,22.107366 23.71875,22.125 C 23.754916,22.155382 23.797744,22.176797 23.84375,22.1875 L 28.75,23.25 L 25.15625,25.90625 C 25.063382,25.973673 25.01711,26.088165 25.037054,26.201182 C 25.056998,26.314198 25.139663,26.405936 25.25,26.4375 L 31.53125,28.34375 L 23.15625,32.90625 C 23.134271,32.914197 23.113295,32.924685 23.09375,32.9375 C 22.978883,33.043997 22.965272,33.220938 23.0625,33.34375 C 23.111695,33.396528 23.178261,33.429811 23.25,33.4375 L 30.375,35.0625 L 28.03125,37.5 C 27.933999,37.602122 27.920993,37.758189 28,37.875 C 28.057651,37.955309 28.151162,38.002065 28.25,38 L 43.71875,38 C 43.772698,38.003857 43.826685,37.99306 43.875,37.96875 C 43.967257,37.918516 44.026523,37.82369 44.03125,37.71875 L 44.03125,10.25 C 44.025749,10.193021 44.004063,10.138805 43.96875,10.09375 C 43.940582,10.040475 43.897025,9.9969176 43.84375,9.96875 C 43.804838,9.9494039 43.762188,9.9387414 43.71875,9.9375 L 30.09375,9.9375 C 30.08334,9.9369572 30.07291,9.9369572 30.0625,9.9375 z"
         id="path5177"
         style="opacity:1;fill:url(#linearGradient1234);filter:url(#filter1111);fill-opacity:1;fill-rule:evenodd;stroke:none;stroke-width:0.60000002;stroke-linecap:square;stroke-linejoin:round;stroke-miterlimit:4;stroke-dasharray:none;stroke-dashoffset:0;stroke-opacity:1" />
      <path
         d="M 4.1875,9.96875 C 4.14965,9.992618 4.117618,10.02465 4.09375,10.0625 C 4.0523381,10.116147 4.0303089,10.182235 4.03125,10.25 L 4,37.75 C 3.996433,37.833923 4.0282101,37.915498 4.0876061,37.974894 C 4.1470021,38.03429 4.2285771,38.066067 4.3125,38.0625 L 21.53125,38.0625 C 21.564012,38.057337 21.595692,38.046777 21.625,38.03125 C 21.659917,38.016524 21.691727,37.995317 21.71875,37.96875 L 23.53125,36.4375 C 23.646117,36.331003 23.659728,36.154062 23.5625,36.03125 C 23.544866,36.007445 23.523805,35.986384 23.5,35.96875 C 23.470692,35.953223 23.439012,35.942663 23.40625,35.9375 L 14.71875,34.09375 L 24.34375,29.09375 C 24.459331,29.043925 24.531527,28.927257 24.524545,28.801588 C 24.517564,28.675919 24.432888,28.567966 24.3125,28.53125 L 17.96875,26.3125 L 21.03125,24.28125 C 21.0691,24.257382 21.101132,24.22535 21.125,24.1875 C 21.171474,24.110394 21.180867,24.016494 21.150587,23.93171 C 21.120307,23.846926 21.053555,23.780221 20.96875,23.75 L 16.09375,21.8125 L 24.59375,17.65625 C 24.720446,17.592915 24.785589,17.449601 24.75,17.3125 C 24.728889,17.212382 24.658212,17.129925 24.5625,17.09375 L 18.0625,14.8125 L 23.96875,10.5 C 24.093636,10.402359 24.121012,10.224413 24.03125,10.09375 C 23.973599,10.013441 23.880088,9.9666848 23.78125,9.96875 L 4.3125,9.96875 C 4.2712954,9.9599741 4.2287046,9.9599741 4.1875,9.96875 z M 23.5,28.875 L 23.5,28.875 z"
         id="path5179"
         style="opacity:1;fill:url(#linearGradient1234);filter:url(#filter1111);fill-opacity:1;fill-rule:evenodd;stroke:none;stroke-width:0.60000002;stroke-linecap:square;stroke-linejoin:round;stroke-miterlimit:4;stroke-dasharray:none;stroke-dashoffset:0;stroke-opacity:1" />
    </g>
  </g>
</svg>
