<?xml version="1.0" encoding="UTF-8" standalone="no"?>
<!-- Created with Inkscape (http://www.inkscape.org/) -->

<svg
   xmlns:dc="http://purl.org/dc/elements/1.1/"
   xmlns:cc="http://creativecommons.org/ns#"
   xmlns:rdf="http://www.w3.org/1999/02/22-rdf-syntax-ns#"
   xmlns:svg="http://www.w3.org/2000/svg"
   xmlns="http://www.w3.org/2000/svg"
   xmlns:xlink="http://www.w3.org/1999/xlink"
   xmlns:sodipodi="http://sodipodi.sourceforge.net/DTD/sodipodi-0.dtd"
   xmlns:inkscape="http://www.inkscape.org/namespaces/inkscape"
   version="1.0"
   width="48"
   height="48"
   id="svg1872"
   inkscape:version="0.47pre4 r22446"
   sodipodi:docname="gnome-iagno.svg">
    
  
  
  
  
  <filter>
    </filter>
  <linearGradient
     id="linearGradient4321">
    <stop
       style="stop-color:#1577D3;stop-opacity:1.0;"
       offset="0"
       id="stop1" />
    <stop
       style="stop-color:#1577D3;stop-opacity:1.0;"
       offset="1"
       id="stop2" />
  </linearGradient>
  <linearGradient
     inkscape:collect="always"
     xlink:href="#linearGradient4321"
     id="linearGradient1234"
     x1="0%"
     y1="50%"
     x2="100%"
     y2="50%" />
<defs
     id="defs1874">
  </defs>
  <path
     d="M 13,2.5 C 7.2066511,2.4999999 2.5,7.2066506 2.5,13 2.4999999,18.793349 7.2066512,23.5 13,23.5 18.79335,23.5 23.5,18.793349 23.5,13 23.500001,7.2066502 18.79335,2.5 13,2.5 z m 22,0.03125 c -5.79335,-10e-8 -10.5,4.7066506 -10.5,10.5 0,5.793349 4.706651,10.5 10.5,10.5 5.793349,0 10.5,-4.706651 10.5,-10.5 -10e-7,-5.7933491 -4.70665,-10.5 -10.5,-10.5 z m 0,1 c 5.25291,0 9.499999,4.2470907 9.5,9.5 0,5.252909 -4.247091,9.5 -9.5,9.5 -5.252909,0 -9.5,-4.247091 -9.5,-9.5 0,-5.2529094 4.24709,-9.5000001 9.5,-9.5 z M 13,24.5 C 7.206651,24.5 2.5,29.206651 2.5,35 c -10e-8,5.793349 4.7066512,10.5 10.5,10.5 5.79335,0 10.5,-4.706651 10.5,-10.5 1e-6,-5.793349 -4.70665,-10.5 -10.5,-10.5 z m 22,0 c -5.793349,-1e-6 -10.5,4.706651 -10.5,10.5 -1e-6,5.79335 4.706651,10.5 10.5,10.5 5.79335,10e-7 10.5,-4.706651 10.5,-10.5 0,-5.793348 -4.70665,-10.5 -10.5,-10.5 z m -22,1 c 5.25291,0 9.500001,4.247091 9.5,9.5 0,5.252909 -4.24709,9.5 -9.5,9.5 -5.2529084,0 -9.5000001,-4.247091 -9.5,-9.5 0,-5.252909 4.2470914,-9.5 9.5,-9.5 z"
     id="path1880"
     style="fill:url(#linearGradient1234);fill-opacity:1;stroke:none;filter:url(#filter1111)" />
</svg>
