<?xml version="1.0" encoding="UTF-8" standalone="no"?>
<!-- Created with Inkscape (http://www.inkscape.org/) -->

<svg
   xmlns:dc="http://purl.org/dc/elements/1.1/"
   xmlns:cc="http://creativecommons.org/ns#"
   xmlns:rdf="http://www.w3.org/1999/02/22-rdf-syntax-ns#"
   xmlns:svg="http://www.w3.org/2000/svg"
   xmlns="http://www.w3.org/2000/svg"
   xmlns:xlink="http://www.w3.org/1999/xlink"
   xmlns:sodipodi="http://sodipodi.sourceforge.net/DTD/sodipodi-0.dtd"
   xmlns:inkscape="http://www.inkscape.org/namespaces/inkscape"
   version="1.0"
   width="48"
   height="48"
   id="svg2"
   inkscape:version="0.47pre4 r22446"
   sodipodi:docname="opera.svg">
    
  
  
  
  
  <filter>
    </filter>
  <linearGradient
     id="linearGradient4321">
    <stop
       style="stop-color:#1577D3;stop-opacity:1.0;"
       offset="0"
       id="stop1" />
    <stop
       style="stop-color:#1577D3;stop-opacity:1.0;"
       offset="1"
       id="stop2" />
  </linearGradient>
  <linearGradient
     inkscape:collect="always"
     xlink:href="#linearGradient4321"
     id="linearGradient1234"
     x1="0%"
     y1="50%"
     x2="100%"
     y2="50%" />
<defs
     id="defs4">
  </defs>
  <g
     style="fill:url(#linearGradient1234);fill-opacity:1;stroke:none;font-family:Bitstream Vera Serif;-inkscape-font-specification:Bitstream Vera Serif;filter:url(#filter1111)"
     id="text2381">
    <path
       d="m 25.878211,41.406008 c 4.471633,2e-6 7.848191,-1.533137 10.129681,-4.599423 2.281425,-3.084524 3.422153,-7.638313 3.42219,-13.661382 -3.7e-5,-6.041279 -1.140765,-10.595068 -3.42219,-13.6613809 -2.28149,-3.0844966 -5.658048,-4.6267619 -10.129681,-4.6268006 -4.489932,3.87e-5 -7.875615,1.542304 -10.157059,4.6268006 -2.281471,3.0663129 -3.4222,7.6201019 -3.42219,13.6613809 -10e-6,6.023069 1.140719,10.576858 3.42219,13.661382 2.281444,3.066286 5.667127,4.599425 10.157059,4.599423 m 0,2.929394 c -2.774276,0 -5.329508,-0.456292 -7.665705,-1.368876 C 15.894529,42.053944 13.850344,40.712447 12.079942,38.942031 10.035747,36.89785 8.5117329,34.579889 7.5078962,31.988142 6.5223019,29.396418 6.0295071,26.448774 6.0295102,23.145203 6.0295071,19.841673 6.5223019,16.89403 7.5078962,14.302265 8.5117329,11.692307 10.035747,9.3652203 12.079942,7.3209981 13.868595,5.5323716 15.912781,4.1908746 18.212506,3.296503 20.5122,2.3839602 23.067432,1.9276687 25.878211,1.9276271 c 5.931766,4.16e-5 10.722827,1.9438435 14.373197,5.8314113 3.650294,3.8876396 5.47546,9.0163556 5.475503,15.3861646 -4.3e-5,3.267068 -0.501963,6.214711 -1.505763,8.842939 -1.003883,2.609999 -2.527897,4.92796 -4.572046,6.953889 -1.788699,1.788668 -3.832885,3.13929 -6.132564,4.051873 -2.29974,0.894332 -4.845846,1.341498 -7.638327,1.341498"
       id="path2837" />
  </g>
</svg>
