<?xml version="1.0" encoding="UTF-8" standalone="no"?>
<!-- Created with Inkscape (http://www.inkscape.org/) -->

<svg
   xmlns:dc="http://purl.org/dc/elements/1.1/"
   xmlns:cc="http://creativecommons.org/ns#"
   xmlns:rdf="http://www.w3.org/1999/02/22-rdf-syntax-ns#"
   xmlns:svg="http://www.w3.org/2000/svg"
   xmlns="http://www.w3.org/2000/svg"
   xmlns:sodipodi="http://sodipodi.sourceforge.net/DTD/sodipodi-0.dtd"
   xmlns:inkscape="http://www.inkscape.org/namespaces/inkscape"
   id="svg2"
   version="1.1"
   inkscape:version="0.47 r22583"
   width="48"
   height="48"
   sodipodi:docname="dropbox.svg">
  
  
  
  
  
  <filter>
    </filter>
  <linearGradient
     id="linearGradient4321">
    <stop
       style="stop-color:#969487;stop-opacity:1.0;"
       offset="0"
       id="stop1" />
    <stop
       style="stop-color:#969487;stop-opacity:1.0;"
       offset="1"
       id="stop2" />
  </linearGradient>
  <linearGradient
     inkscape:collect="always"
     xlink:href="#linearGradient4321"
     id="linearGradient1234"
     x1="0%"
     y1="50%"
     x2="100%"
     y2="50%" />
<defs
     id="defs6">
  </defs>
  <path
     style="fill:url(#linearGradient1234);filter:url(#filter1111);fill-opacity:1;stroke-linecap:butt;stroke-linejoin:miter;stroke-opacity:1"
     d="m 32.473598,3.6188571 -8.010992,7.5012609 12.366266,7.343576 8.823375,-6.96063 L 32.473598,3.6188571 z M 15.097645,4.0018042 2.4605841,11.931063 10.62954,18.48622 22.747577,10.804748 15.097645,4.0018042 z M 11.035732,19.004325 2.3477532,26.212743 15.639231,34.637581 23.401997,27.001163 11.035732,19.004325 z m 26.063935,0.382947 -12.253434,7.74905 8.304353,7.501259 12.501661,-8.289681 -8.55258,-6.960628 z M 24.598003,29.59662 24.32721,43.923351 36.828872,35.768828 36.693474,34.59746 32.879792,37.345669 24.598003,29.59662 z m -1.331402,0.518105 -7.514538,7.636418 -4.851728,-3.671789 -0.135398,2.094948 12.388831,7.50126 0.112833,-13.560837 z"
     id="path3598"
     sodipodi:nodetypes="cccccccccccccccccccccccccccccccc" />
</svg>
