<?xml version="1.0" encoding="UTF-8" standalone="no"?>
<!-- Created with Inkscape (http://www.inkscape.org/) -->

<svg
   xmlns:dc="http://purl.org/dc/elements/1.1/"
   xmlns:cc="http://creativecommons.org/ns#"
   xmlns:rdf="http://www.w3.org/1999/02/22-rdf-syntax-ns#"
   xmlns:svg="http://www.w3.org/2000/svg"
   xmlns="http://www.w3.org/2000/svg"
   xmlns:xlink="http://www.w3.org/1999/xlink"
   xmlns:sodipodi="http://sodipodi.sourceforge.net/DTD/sodipodi-0.dtd"
   xmlns:inkscape="http://www.inkscape.org/namespaces/inkscape"
   version="1.0"
   width="48"
   height="48"
   id="svg2383"
   inkscape:version="0.47pre4 r22446"
   sodipodi:docname="bluetooth-paired.svg">
        
  
  
  
  
  <filter>
    </filter>
  <linearGradient
     id="linearGradient4321">
    <stop
       style="stop-color:#969487;stop-opacity:1.0;"
       offset="0"
       id="stop1" />
    <stop
       style="stop-color:#969487;stop-opacity:1.0;"
       offset="1"
       id="stop2" />
  </linearGradient>
  <linearGradient
     inkscape:collect="always"
     xlink:href="#linearGradient4321"
     id="linearGradient1234"
     x1="0%"
     y1="50%"
     x2="100%"
     y2="50%" />
<defs
     id="defs2385">
  </defs>
  <g
     id="layer1">
    <path
       style="fill:url(#linearGradient1234);filter:url(#filter1111);fill-opacity:1;fill-rule:evenodd;stroke:none;stroke-width:1.00000011999999994px;stroke-linecap:butt;stroke-linejoin:miter;stroke-opacity:1"
       d="M 21.34375 1.09375 L 21.34375 19.125 L 13.84375 11.5625 L 11.1875 14.1875 L 20.46875 23.625 L 11.1875 33 L 13.84375 35.8125 L 21.34375 28.25 L 21.34375 45.96875 L 35.0625 33.125 L 26.03125 23.625 L 35.0625 14.84375 L 21.34375 1.09375 z M 41.59375 1.21875 C 39.290345 1.21875 37.65625 2.5975693 37.65625 4.84375 L 37.65625 6.8125 L 37 6.8125 C 36.341884 6.8125 36 7.1543842 36 7.8125 L 36 13.40625 C 36 13.728834 36.341884 14.40625 37 14.40625 L 46.65625 14.40625 C 47.188002 14.403139 47.53125 13.728833 47.53125 13.40625 L 47.53125 7.8125 C 47.53125 7.1543842 47.189366 6.8125 46.53125 6.8125 L 45.875 6.8125 L 45.875 4.84375 C 45.875 2.5403446 44.240905 1.21875 41.9375 1.21875 L 41.59375 1.21875 z M 41.59375 2.875 L 41.9375 2.875 C 44.240905 2.875 44.21875 4.8418842 44.21875 5.5 L 44.21875 6.8125 L 39.28125 6.8125 L 39.28125 5.5 C 39.28125 4.8418842 39.290345 2.875 41.59375 2.875 z M 24.5 8.09375 L 30.5 14.84375 L 24.5 20.9375 L 24.5 8.09375 z M 24.5 26.625 L 30.5 33.375 L 24.5 39.46875 L 24.5 26.625 z "
       id="path2459" />
  </g>
  <g
     id="layer1-1"
     transform="matrix(0.27421493,0,0,0.27421493,35.044943,1.2336184)"
     style="fill:#000000" />
</svg>
