<?xml version="1.0" encoding="UTF-8" standalone="no"?>
<!-- Created with Inkscape (http://www.inkscape.org/) -->
<svg
   xmlns:svg="http://www.w3.org/2000/svg"
   xmlns="http://www.w3.org/2000/svg"
   xmlns:xlink="http://www.w3.org/1999/xlink"
   version="1.0"
   width="48"
   height="48"
   id="svg1328">
        
  
  
  
  
  <filter>
    </filter>
  <linearGradient
     id="linearGradient4321">
    <stop
       style="stop-color:#1577D3;stop-opacity:1.0;"
       offset="0"
       id="stop1" />
    <stop
       style="stop-color:#1577D3;stop-opacity:1.0;"
       offset="1"
       id="stop2" />
  </linearGradient>
  <linearGradient
     inkscape:collect="always"
     xlink:href="#linearGradient4321"
     id="linearGradient1234"
     x1="0%"
     y1="50%"
     x2="100%"
     y2="50%" />
<defs
     id="defs3" />
  <g
     id="layer1">
    <g
       transform="translate(-53.99282,-31.64138)"
       id="g4438" />
    <path
       d="M 20.5,3.3125 C 19.703454,3.3285898 19.014671,3.7414261 18.59375,4.25 C 18.172829,4.7585739 17.939506,5.3439734 17.9375,5.96875 L 17.90625,7 L 14.34375,7 C 11.946296,7 10,8.9462958 10,11.34375 L 10,41.40625 C 10,43.780141 11.914518,45.74379 14.28125,45.78125 C 14.304719,45.781621 14.320171,45.78125 14.34375,45.78125 L 33.5625,45.78125 C 35.959955,45.78125 37.9375,43.803704 37.9375,41.40625 L 37.9375,11.34375 C 37.9375,8.9462958 35.959954,7 33.5625,7 L 30.15625,7 L 30.15625,5.875 L 30.15625,5.84375 C 30.116993,4.5077703 29.061219,3.3327522 27.65625,3.34375 L 20.5,3.3125 z"
       id="rect2375"
       style="fill:url(#linearGradient1234);filter:url(#filter1111);fill-opacity:1;stroke:none;stroke-width:2;stroke-linecap:round;stroke-miterlimit:4;stroke-opacity:1" />
  </g>
  <g
     id="layer2" />
</svg>
