<?xml version="1.0" encoding="UTF-8" standalone="no"?>
<!-- Created with Inkscape (http://www.inkscape.org/) -->

<svg
   xmlns:dc="http://purl.org/dc/elements/1.1/"
   xmlns:cc="http://creativecommons.org/ns#"
   xmlns:rdf="http://www.w3.org/1999/02/22-rdf-syntax-ns#"
   xmlns:svg="http://www.w3.org/2000/svg"
   xmlns="http://www.w3.org/2000/svg"
   xmlns:xlink="http://www.w3.org/1999/xlink"
   xmlns:sodipodi="http://sodipodi.sourceforge.net/DTD/sodipodi-0.dtd"
   xmlns:inkscape="http://www.inkscape.org/namespaces/inkscape"
   version="1.0"
   width="48"
   height="48"
   id="svg2"
   inkscape:version="0.47 r22583"
   sodipodi:docname="cd-r.svg">
    
  
  
  
  
  <filter>
    </filter>
  <linearGradient
     id="linearGradient4321">
    <stop
       style="stop-color:#1577D3;stop-opacity:1.0;"
       offset="0"
       id="stop1" />
    <stop
       style="stop-color:#1577D3;stop-opacity:1.0;"
       offset="1"
       id="stop2" />
  </linearGradient>
  <linearGradient
     inkscape:collect="always"
     xlink:href="#linearGradient4321"
     id="linearGradient1234"
     x1="0%"
     y1="50%"
     x2="100%"
     y2="50%" />
<defs
     id="defs4">
  </defs>
  <path
     style="fill:url(#linearGradient1234);fill-opacity:1;fill-rule:evenodd;stroke:none;filter:url(#filter1111)"
     id="path3170"
     d="M 46,24.000003 C 46,36.144001 36.144,46 24,46 11.856,46 2,36.144001 2,24.000003 2,11.856006 11.856,2.0000065 24,2.0000065 c 12.144,0 22,9.8559995 22,21.9999965 z m -12.725489,3e-6 c 0,5.119528 -4.154981,9.27451 -9.27451,9.27451 -5.119529,0 -9.274509,-4.154982 -9.274509,-9.27451 0,-5.119533 4.15498,-9.274512 9.274509,-9.274512 5.119529,0 9.27451,4.154979 9.27451,9.274512 z m -1.294119,-10e-7 c 0,4.405176 -3.575216,7.980392 -7.980392,7.980392 -4.405176,0 -7.980392,-3.575216 -7.980392,-7.980392 0,-4.405177 3.575216,-7.980393 7.980392,-7.980393 4.405176,0 7.980392,3.575216 7.980392,7.980393 z m -1.941176,0 c 0,3.333647 -2.705569,6.039215 -6.039216,6.039215 -3.333647,0 -6.039216,-2.705568 -6.039216,-6.039215 0,-3.333647 2.705569,-6.039216 6.039216,-6.039216 3.333647,0 6.039216,2.705569 6.039216,6.039216 z m -9.856484,12.020877 0,0.628102 c -0.200525,-0.186756 -0.414806,-0.326334 -0.642846,-0.418735 -0.22608,-0.09239 -0.466902,-0.138591 -0.722465,-0.138595 -0.50327,4e-6 -0.888584,0.154326 -1.155944,0.462967 -0.267362,0.306682 -0.401042,0.750973 -0.401041,1.332874 -10e-7,0.579939 0.133679,1.02423 0.401041,1.332874 0.26736,0.306679 0.652674,0.460019 1.155944,0.460019 0.255563,0 0.496385,-0.0462 0.722465,-0.138596 0.22804,-0.0924 0.442321,-0.231975 0.642846,-0.418735 l 0,0.622205 c -0.208388,0.141542 -0.429551,0.247703 -0.663488,0.318474 -0.231978,0.07077 -0.477714,0.106156 -0.737209,0.106156 -0.666439,0 -1.191331,-0.20347 -1.574678,-0.610409 -0.383349,-0.408902 -0.575024,-0.966232 -0.575023,-1.671988 -1e-6,-0.707718 0.191674,-1.265047 0.575023,-1.67199 0.383347,-0.408901 0.908239,-0.613353 1.574678,-0.613358 0.263427,5e-6 0.511128,0.03539 0.743107,0.106158 0.233937,0.06881 0.453134,0.173003 0.65759,0.312577 m 1.521599,0.15039 0,3.423601 0.719516,0 c 0.607458,0 1.051748,-0.137614 1.332874,-0.412839 0.283085,-0.275224 0.424628,-0.709685 0.424632,-1.303386 -4e-6,-0.589764 -0.141547,-1.021277 -0.424632,-1.294539 -0.281126,-0.275221 -0.725416,-0.412833 -1.332874,-0.412837 l -0.719516,0 m -0.595665,-0.489506 1.223767,0 c 0.853194,4e-6 1.479329,0.177917 1.878408,0.533739 0.399072,0.353864 0.59861,0.908244 0.598614,1.663143 -4e-6,0.758836 -0.200525,1.316165 -0.601562,1.671992 -0.401045,0.355826 -1.026198,0.533737 -1.87546,0.533737 l -1.223767,0 0,-4.402611 m 4.349533,2.50651 1.589423,0 0,0.483609 -1.589423,0 0,-0.483609 m 4.567747,-0.168083 c 0.12778,0.04325 0.25163,0.135648 0.371553,0.27719 0.121882,0.141546 0.243767,0.336169 0.365655,0.58387 l 0.604512,1.203124 -0.639898,0 -0.563227,-1.129404 c -0.145479,-0.294882 -0.287022,-0.490487 -0.424632,-0.586818 -0.135649,-0.09633 -0.321426,-0.144491 -0.55733,-0.144493 l -0.648744,0 0,1.860715 -0.595665,0 0,-4.402611 1.344669,0 c 0.503266,4e-6 0.87875,0.105179 1.126455,0.315525 0.247699,0.210354 0.37155,0.527845 0.371554,0.952474 -4e-6,0.277193 -0.06488,0.507202 -0.194624,0.690028 -0.127786,0.18283 -0.314545,0.309629 -0.560278,0.3804 m -1.492111,-1.848921 0,1.562883 0.749004,0 c 0.287018,3e-6 0.503266,-0.06585 0.648744,-0.197572 0.147439,-0.133677 0.22116,-0.329283 0.221162,-0.586818 -2e-6,-0.257528 -0.07372,-0.451168 -0.221162,-0.58092 -0.145478,-0.131711 -0.361726,-0.197569 -0.648744,-0.197573 l -0.749004,0" />
</svg>
