<?xml version="1.0" encoding="UTF-8" standalone="no"?>
<!-- Created with Inkscape (http://www.inkscape.org/) -->

<svg
   xmlns:dc="http://purl.org/dc/elements/1.1/"
   xmlns:cc="http://creativecommons.org/ns#"
   xmlns:rdf="http://www.w3.org/1999/02/22-rdf-syntax-ns#"
   xmlns:svg="http://www.w3.org/2000/svg"
   xmlns="http://www.w3.org/2000/svg"
   xmlns:xlink="http://www.w3.org/1999/xlink"
   xmlns:sodipodi="http://sodipodi.sourceforge.net/DTD/sodipodi-0.dtd"
   xmlns:inkscape="http://www.inkscape.org/namespaces/inkscape"
   version="1.0"
   width="48"
   height="48"
   id="svg2383"
   inkscape:version="0.47 r22583"
   sodipodi:docname="gnome-dev-wavelan.svg">
    
  
  
  
  
  <filter>
    </filter>
  <linearGradient
     id="linearGradient4321">
    <stop
       style="stop-color:#1577D3;stop-opacity:1.0;"
       offset="0"
       id="stop1" />
    <stop
       style="stop-color:#1577D3;stop-opacity:1.0;"
       offset="1"
       id="stop2" />
  </linearGradient>
  <linearGradient
     inkscape:collect="always"
     xlink:href="#linearGradient4321"
     id="linearGradient1234"
     x1="0%"
     y1="50%"
     x2="100%"
     y2="50%" />
<defs
     id="defs2385">
  </defs>
  <path
     style="fill:url(#linearGradient1234);fill-opacity:1;fill-rule:evenodd;stroke:none;filter:url(#filter1111)"
     id="rect3167"
     d="M 3.375,6.106245 C 2.6050901,6.106245 2,6.7622397 2,7.5729116 L 2,38.8618 c 0,0.810672 0.6050902,1.466667 1.375,1.466667 l 10.938889,0 c 0.76991,0 1.375,-0.655995 1.375,-1.466667 l 0,-31.2888884 c 0,-0.8106719 -0.60509,-1.4666666 -1.375,-1.4666666 l -10.938889,0 z m 30.311111,0 c -0.76991,0 -1.375,0.6559947 -1.375,1.4666666 l 0,31.2888884 c 0,0.810672 0.60509,1.466667 1.375,1.466667 l 10.938889,0 c 0.76991,0 1.375,-0.655995 1.375,-1.466667 L 46,7.5729116 C 46,6.7622397 45.39491,6.106245 44.625,6.106245 l -10.938889,0 z m -9.502778,5.469444 -0.275,0.397223 c -1.732934,2.461023 -1.752771,4.82146 -1.313889,6.538888 0.438883,1.717429 1.313889,2.841667 1.313889,2.841667 l 0.305556,0.366667 0.763889,-0.611111 -0.305556,-0.366667 c 0,0 -0.744438,-0.964051 -1.130555,-2.475 -0.386118,-1.510949 -0.405955,-3.518978 1.161111,-5.744444 l 0.275,-0.397223 -0.794445,-0.55 z m 4.705556,0.03056 -0.305556,0.427778 c -1.732934,2.461023 -1.752771,4.82146 -1.313889,6.538888 0.438883,1.717429 1.344445,2.841667 1.344445,2.841667 l 0.305555,0.366667 0.763889,-0.611111 -0.305555,-0.366667 c 0,0 -0.774994,-0.964051 -1.161111,-2.475 -0.386118,-1.510949 -0.3754,-3.518978 1.191666,-5.744444 l 0.275,-0.397223 -0.794444,-0.580555 z m -9.594445,0.09167 -0.275,0.397223 c -1.732934,2.461022 -1.752771,4.821459 -1.313888,6.538888 0.438882,1.717428 1.344444,2.841666 1.344444,2.841666 l 0.305556,0.366667 0.763888,-0.611111 -0.305555,-0.366667 c 0,0 -0.774994,-0.964051 -1.161111,-2.475 -0.386118,-1.510949 -0.405955,-3.518978 1.161111,-5.744444 l 0.305555,-0.397222 -0.825,-0.55 z m 4.094445,13.2 -0.794445,0.55 0.275,0.397223 c 1.567066,2.225466 1.547229,4.26405 1.161112,5.775 C 23.644438,33.131083 22.9,34.064578 22.9,34.064578 l -0.305556,0.397222 0.733334,0.611111 0.305555,-0.397222 c 0,0 0.905562,-1.093682 1.344445,-2.811111 0.438882,-1.717428 0.419045,-4.108421 -1.313889,-6.569444 l -0.275,-0.397223 z m -4.705556,0.06111 -0.794444,0.55 0.275,0.397222 c 1.567066,2.225466 1.547229,4.264051 1.161111,5.775 -0.386118,1.510949 -1.130556,2.444444 -1.130556,2.444444 l -0.305555,0.397222 0.763889,0.611112 0.305555,-0.397223 c 0,0 0.875007,-1.093682 1.313889,-2.811111 0.438883,-1.717428 0.419045,-4.108421 -1.313889,-6.569444 l -0.275,-0.397222 z m 9.563889,0.06111 -0.794444,0.55 0.305555,0.397222 c 1.567066,2.225466 1.547229,4.264051 1.161111,5.775 -0.386117,1.510949 -1.161111,2.444444 -1.161111,2.444444 l -0.305555,0.397223 0.763889,0.611111 0.305555,-0.397223 c 0,0 0.905562,-1.093682 1.344445,-2.811111 0.438882,-1.717428 0.419045,-4.10842 -1.313889,-6.569444 l -0.305556,-0.397222 z" />
</svg>
