<?xml version="1.0" encoding="UTF-8" standalone="no"?>
<!-- Created with Inkscape (http://www.inkscape.org/) -->
<svg
   xmlns:dc="http://purl.org/dc/elements/1.1/"
   xmlns:cc="http://creativecommons.org/ns#"
   xmlns:rdf="http://www.w3.org/1999/02/22-rdf-syntax-ns#"
   xmlns:svg="http://www.w3.org/2000/svg"
   xmlns="http://www.w3.org/2000/svg"
   xmlns:sodipodi="http://sodipodi.sourceforge.net/DTD/sodipodi-0.dtd"
   xmlns:inkscape="http://www.inkscape.org/namespaces/inkscape"
   width="48"
   height="48"
   id="svg2"
   sodipodi:version="0.32"
   inkscape:version="0.46"
   version="1.0"
   sodipodi:docname="application-x-gnome-saved-search.svg"
   inkscape:output_extension="org.inkscape.output.svg.inkscape">
      
  
  <filter>
    </filter>
  <linearGradient
     id="linearGradient4321">
    <stop
       style="stop-color:#1577D3;stop-opacity:1.0;"
       offset="0"
       id="stop1" />
    <stop
       style="stop-color:#1577D3;stop-opacity:1.0;"
       offset="1"
       id="stop2" />
  </linearGradient>
  <linearGradient
     inkscape:collect="always"
     xlink:href="#linearGradient4321"
     id="linearGradient1234"
     x1="0%"
     y1="50%"
     x2="100%"
     y2="50%" />
<defs
     id="defs4">
  </defs>
  <g
     inkscape:label="Layer 1"
     inkscape:groupmode="layer"
     id="layer1">
    <path
       style="opacity:1;fill:url(#linearGradient1234);filter:url(#filter1111);fill-opacity:1;fill-rule:nonzero;stroke:none;stroke-width:0.92739356;stroke-linecap:round;stroke-linejoin:miter;stroke-miterlimit:4;stroke-dasharray:none;stroke-dashoffset:0;stroke-opacity:1"
       d="M 3 7 L 3 42 L 45 42 L 45 10.5 L 25.75 10.5 L 25.75 7 L 3 7 z M 4.75 8.75 L 24 8.75 L 24 12.25 L 43.25 12.25 L 43.25 15.75 L 20.5 15.75 L 20.5 12.25 L 4.75 12.25 L 4.75 8.75 z M 18.90625 18.34375 C 24.18975 18.34375 28.499999 22.654 28.5 27.9375 C 28.5 28.866943 28.373766 29.773793 28.125 30.625 C 28.136002 30.630287 28.145327 30.619479 28.15625 30.625 L 37.6875 35.25 C 38.590694 35.686735 38.967983 36.753052 38.53125 37.65625 C 38.094516 38.559445 36.996944 38.936734 36.09375 38.5 L 26.5625 33.90625 C 26.524681 33.888739 26.504917 33.863595 26.46875 33.84375 C 24.709133 36.090289 21.968112 37.53125 18.90625 37.53125 C 13.622751 37.53125 9.3125001 33.220999 9.3125 27.9375 C 9.3125 22.654 13.622751 18.34375 18.90625 18.34375 z M 18.90625 21.34375 C 15.257135 21.34375 12.34375 24.288384 12.34375 27.9375 C 12.34375 31.586616 15.257134 34.531248 18.90625 34.53125 C 22.555366 34.53125 25.5 31.586616 25.5 27.9375 C 25.5 24.288384 22.555366 21.343751 18.90625 21.34375 z "
       id="rect2390" />
  </g>
</svg>
