<?xml version="1.0" encoding="UTF-8" standalone="no"?>
<!-- Created with Inkscape (http://www.inkscape.org/) -->

<svg
   xmlns:dc="http://purl.org/dc/elements/1.1/"
   xmlns:cc="http://creativecommons.org/ns#"
   xmlns:rdf="http://www.w3.org/1999/02/22-rdf-syntax-ns#"
   xmlns:svg="http://www.w3.org/2000/svg"
   xmlns="http://www.w3.org/2000/svg"
   xmlns:xlink="http://www.w3.org/1999/xlink"
   xmlns:sodipodi="http://sodipodi.sourceforge.net/DTD/sodipodi-0.dtd"
   xmlns:inkscape="http://www.inkscape.org/namespaces/inkscape"
   version="1.0"
   width="48"
   height="48"
   viewBox="0 0 48 48"
   id="Layer_1"
   xml:space="preserve"
   inkscape:version="0.47pre4 r22446"
   sodipodi:docname="apport.svg">
    
  
  
  
  
  <filter>
    </filter>
  <linearGradient
   id="linearGradient4321">
    <stop
       style="stop-color:#1577D3;stop-opacity:1.0;"
       offset="0"
       id="stop1" />
    <stop
       style="stop-color:#1577D3;stop-opacity:1.0;"
       offset="1"
       id="stop2" />
  </linearGradient>
  <linearGradient
     inkscape:collect="always"
     xlink:href="#linearGradient4321"
     id="linearGradient1234"
     x1="0%"
     y1="50%"
     x2="100%"
     y2="50%" />
<defs
   id="defs54">
</defs>
<path
   style="fill:url(#linearGradient1234);filter:url(#filter1111);fill-opacity:1;stroke:none"
   id="path2299"
   d="M 15.940594,2 15.985275,13.161141 3.0165017,10.322796 13.851739,21.008995 2.9047982,24.525829 12.299061,27.56772 2,41.408892 l 14.7672,-5.326137 0.469154,8.72989 7.528815,-7.011052 4.110688,6.479569 0.525006,-6.750964 L 43.386139,46 36.348819,32.554613 43.151561,32.407607 37.923839,27.443331 46,22.241583 38.035542,19.618093 45.910637,2.3166281 30.629601,10.537651 28.98756,4.7478797 24.955065,10.198407 15.940594,2 z m 6.512313,12.393729 4.222391,0 c 0.142971,0 0.28084,0.06482 0.379792,0.169622 0.09931,0.104807 0.162725,0.251052 0.156385,0.395785 l -0.580858,13.694166 c -0.01233,0.287328 -0.241179,0.508866 -0.525006,0.508867 l -3.127698,0 c -0.285234,0 -0.52526,-0.220111 -0.536177,-0.508867 L 21.9279,14.959136 c -0.006,-0.144377 0.04626,-0.291335 0.145215,-0.395785 0.09895,-0.104449 0.236821,-0.169622 0.379792,-0.169622 z m 0.189896,16.916988 3.842599,0 c 0.291575,0 0.525006,0.237021 0.525007,0.531483 l 0,3.890003 c 0,0.294458 -0.233433,0.531483 -0.525007,0.531482 l -3.842599,0 c -0.291221,0 -0.525007,-0.237023 -0.525007,-0.531482 l 0,-3.890003 c 0,-0.294462 0.233786,-0.531483 0.525007,-0.531483 z" /></svg>
