<?xml version="1.0" encoding="UTF-8" standalone="no"?>
<!-- Created with Inkscape (http://www.inkscape.org/) -->

<svg
   xmlns:dc="http://purl.org/dc/elements/1.1/"
   xmlns:cc="http://creativecommons.org/ns#"
   xmlns:rdf="http://www.w3.org/1999/02/22-rdf-syntax-ns#"
   xmlns:svg="http://www.w3.org/2000/svg"
   xmlns="http://www.w3.org/2000/svg"
   xmlns:xlink="http://www.w3.org/1999/xlink"
   xmlns:sodipodi="http://sodipodi.sourceforge.net/DTD/sodipodi-0.dtd"
   xmlns:inkscape="http://www.inkscape.org/namespaces/inkscape"
   version="1.0"
   width="48"
   height="48"
   id="svg2"
   inkscape:version="0.47pre4 r22446"
   sodipodi:docname="ooo-math.svg">
    
  
  
  
  
  <filter>
    </filter>
  <linearGradient
     id="linearGradient4321">
    <stop
       style="stop-color:#1577D3;stop-opacity:1.0;"
       offset="0"
       id="stop1" />
    <stop
       style="stop-color:#1577D3;stop-opacity:1.0;"
       offset="1"
       id="stop2" />
  </linearGradient>
  <linearGradient
     inkscape:collect="always"
     xlink:href="#linearGradient4321"
     id="linearGradient1234"
     x1="0%"
     y1="50%"
     x2="100%"
     y2="50%" />
<defs
     id="defs17">
  </defs>
  <path
     style="fill:url(#linearGradient1234);fill-opacity:1;stroke:none;filter:url(#filter1111)"
     id="path6"
     d="m 5.2679245,2 34.6481005,0 0.9199,11.0649 -1.2946,0 c -0.159,-2.1849 -0.5451,-3.8505 -1.1584,-4.9971 -0.6132,-1.1465 -1.4536,-1.9901 -2.5211,-2.5309 -1.0675,-0.5408 -2.7596,-0.8004 -5.0763,-0.7788 l -15.7739,0 14.0705,17.1977 -16.0124,18.0088 17.5455,0 c 3.1798,0 5.61,-0.4867 7.2907,-1.4602 1.6808,-0.9734 2.9413,-3.0069 3.7817,-6.1003 l 1.2946,0.2921 -1.976,13.3038 -35.7383005,0 0,-1.1681 L 23.051925,24.8437 5.2679245,3.1681 l 0,-1.1681 z" />
</svg>
