<?xml version="1.0" encoding="UTF-8" standalone="no"?>
<!-- Created with Inkscape (http://www.inkscape.org/) -->

<svg
   xmlns:dc="http://purl.org/dc/elements/1.1/"
   xmlns:cc="http://creativecommons.org/ns#"
   xmlns:rdf="http://www.w3.org/1999/02/22-rdf-syntax-ns#"
   xmlns:svg="http://www.w3.org/2000/svg"
   xmlns="http://www.w3.org/2000/svg"
   xmlns:xlink="http://www.w3.org/1999/xlink"
   xmlns:sodipodi="http://sodipodi.sourceforge.net/DTD/sodipodi-0.dtd"
   xmlns:inkscape="http://www.inkscape.org/namespaces/inkscape"
   version="1.0"
   width="48"
   height="48"
   id="svg3332"
   inkscape:version="0.47 r22583"
   sodipodi:docname="cd-rw.svg">
    
  
  
  
  
  <filter>
    </filter>
  <linearGradient
     id="linearGradient4321">
    <stop
       style="stop-color:#969487;stop-opacity:1.0;"
       offset="0"
       id="stop1" />
    <stop
       style="stop-color:#969487;stop-opacity:1.0;"
       offset="1"
       id="stop2" />
  </linearGradient>
  <linearGradient
     inkscape:collect="always"
     xlink:href="#linearGradient4321"
     id="linearGradient1234"
     x1="0%"
     y1="50%"
     x2="100%"
     y2="50%" />
<defs
     id="defs3334">
  </defs>
  <path
     d="M 46,24.000003 C 46,36.144 36.144001,46 24,46 11.856,46 2,36.144 2,24.000003 2,11.856005 11.856,2.0000055 24,2.0000055 c 12.144001,0 22,9.8559995 22,21.9999975 z M 33.274512,24 c 0,5.119529 -4.15498,9.27451 -9.274509,9.27451 -5.119529,0 -9.27451,-4.154981 -9.27451,-9.27451 0,-5.119533 4.154981,-9.274512 9.27451,-9.274512 5.119529,0 9.274509,4.154979 9.274509,9.274512 z m -1.294118,-1e-6 c 0,4.405177 -3.575216,7.980392 -7.980392,7.980392 -4.405177,0 -7.980393,-3.575215 -7.980393,-7.980392 0,-4.405177 3.575216,-7.980392 7.980393,-7.980392 4.405176,0 7.980392,3.575215 7.980392,7.980392 z m -1.941179,0 c 0,3.333647 -2.705568,6.039215 -6.039215,6.039215 -3.333647,0 -6.039216,-2.705568 -6.039216,-6.039215 0,-3.333647 2.705569,-6.039216 6.039216,-6.039216 3.333647,0 6.039215,2.705569 6.039215,6.039216 z m -12.682284,11.996916 0,0.628102 c -0.200524,-0.186756 -0.414806,-0.326334 -0.642846,-0.418735 -0.226081,-0.09239 -0.466902,-0.138591 -0.722465,-0.138595 -0.50327,4e-6 -0.888584,0.154327 -1.155943,0.462968 -0.267363,0.306682 -0.401043,0.750972 -0.401042,1.332873 -10e-7,0.57994 0.133679,1.02423 0.401042,1.332874 0.267359,0.30668 0.652673,0.460019 1.155943,0.460018 0.255563,1e-6 0.496384,-0.0462 0.722465,-0.138595 0.22804,-0.0924 0.442322,-0.231974 0.642846,-0.418735 l 0,0.622205 c -0.208388,0.141544 -0.42955,0.247703 -0.663488,0.318474 -0.231978,0.07077 -0.477714,0.106156 -0.737209,0.106156 -0.666439,0 -1.191331,-0.203465 -1.574678,-0.610407 -0.38335,-0.408904 -0.575023,-0.966234 -0.575023,-1.67199 0,-0.707717 0.191673,-1.265047 0.575023,-1.671989 0.383347,-0.408902 0.908239,-0.613354 1.574678,-0.613358 0.263427,4e-6 0.511129,0.03539 0.743107,0.106157 0.233937,0.06881 0.453134,0.173003 0.65759,0.312577 m 1.521599,0.150391 0,3.423598 0.719516,0 c 0.607458,1e-6 1.051749,-0.137612 1.332874,-0.412837 0.283085,-0.275223 0.424629,-0.709685 0.424633,-1.303385 -4e-6,-0.589765 -0.141548,-1.021277 -0.424633,-1.294539 -0.281125,-0.275221 -0.725416,-0.412833 -1.332874,-0.412837 l -0.719516,0 m -0.595664,-0.489507 1.223766,0 c 0.853194,4e-6 1.47933,0.177918 1.878409,0.53374 0.399072,0.353863 0.598609,0.908244 0.598613,1.663143 -4e-6,0.758835 -0.200525,1.316164 -0.601562,1.67199 -0.401045,0.355827 -1.026197,0.533738 -1.87546,0.533738 l -1.223766,0 0,-4.402611 m 4.349533,2.506511 1.589422,0 0,0.483609 -1.589422,0 0,-0.483609 m 4.567746,-0.168084 c 0.12778,0.04325 0.251631,0.135648 0.371553,0.277191 0.121882,0.141545 0.243767,0.336168 0.365656,0.583869 l 0.604511,1.203124 -0.639897,0 -0.563228,-1.129403 c -0.145478,-0.294882 -0.287022,-0.490488 -0.424632,-0.586818 -0.135649,-0.09633 -0.321425,-0.144492 -0.55733,-0.144493 l -0.648744,0 0,1.860714 -0.595665,0 0,-4.402611 1.34467,0 c 0.503265,4e-6 0.878749,0.10518 1.126455,0.315525 0.247699,0.210355 0.37155,0.527846 0.371553,0.952474 -3e-6,0.277194 -0.06488,0.507203 -0.194623,0.690028 -0.127786,0.18283 -0.314546,0.30963 -0.560279,0.3804 m -1.492111,-1.84892 0,1.562883 0.749005,0 c 0.287017,2e-6 0.503265,-0.06585 0.648743,-0.197572 0.147439,-0.133678 0.22116,-0.329284 0.221163,-0.586819 -3e-6,-0.257528 -0.07372,-0.451168 -0.221163,-0.58092 -0.145478,-0.131711 -0.361726,-0.197568 -0.648743,-0.197572 l -0.749005,0 m 2.96358,-0.489507 0.601563,0 0.925934,3.721431 0.922986,-3.721431 0.669385,0 0.925935,3.721431 0.922985,-3.721431 0.604511,0 -1.105813,4.402611 -0.749004,0 -0.928884,-3.82169 -0.937729,3.82169 -0.749004,0 -1.102865,-4.402611"
     id="path3170"
     style="fill:url(#linearGradient1234);fill-opacity:1;fill-rule:evenodd;stroke:none;filter:url(#filter1111)" />
</svg>
