<?xml version="1.0" encoding="UTF-8" standalone="no"?>
<!-- Created with Inkscape (http://www.inkscape.org/) -->
<svg
   xmlns:svg="http://www.w3.org/2000/svg"
   xmlns="http://www.w3.org/2000/svg"
   xmlns:xlink="http://www.w3.org/1999/xlink"
   version="1.0"
   width="48"
   height="48"
   id="svg2383">
        
  
  
  
  
  <filter>
    </filter>
  <linearGradient
     id="linearGradient4321">
    <stop
       style="stop-color:#969487;stop-opacity:1.0;"
       offset="0"
       id="stop1" />
    <stop
       style="stop-color:#969487;stop-opacity:1.0;"
       offset="1"
       id="stop2" />
  </linearGradient>
  <linearGradient
     inkscape:collect="always"
     xlink:href="#linearGradient4321"
     id="linearGradient1234"
     x1="0%"
     y1="50%"
     x2="100%"
     y2="50%" />
<defs
     id="defs2385" />
  <g
     id="layer1">
    <path
       d="M 4.78125,6 C 4.3452053,6 4,6.3388679 4,6.75 L 4,34.0625 C 4,34.473647 4.3452051,34.8125 4.78125,34.8125 L 21.15625,34.8125 L 21.15625,39.125 L 17.21875,39.125 C 17.017195,39.125 16.84375,39.296838 16.84375,39.5 L 16.84375,41.625 C 16.84375,41.828109 17.017195,42 17.21875,42 L 30.78125,42 C 30.982806,42 31.15625,41.828108 31.15625,41.625 L 31.15625,39.5 C 31.15625,39.296837 30.982806,39.124999 30.78125,39.125 L 26.84375,39.125 L 26.84375,34.8125 L 43.21875,34.8125 C 43.654789,34.8125 44,34.473645 44,34.0625 L 44,6.75 C 44,6.3388678 43.654791,6 43.21875,6 L 4.78125,6 z"
       id="rect2435"
       style="fill:url(#linearGradient1234);filter:url(#filter1111);fill-opacity:1;fill-rule:evenodd;stroke:none;stroke-width:1;stroke-linecap:round;stroke-linejoin:round;stroke-miterlimit:4;stroke-dashoffset:0;stroke-opacity:1" />
  </g>
</svg>
