<?xml version="1.0" encoding="UTF-8" standalone="no"?>
<!-- Created with Inkscape (http://www.inkscape.org/) -->

<svg
   xmlns:dc="http://purl.org/dc/elements/1.1/"
   xmlns:cc="http://creativecommons.org/ns#"
   xmlns:rdf="http://www.w3.org/1999/02/22-rdf-syntax-ns#"
   xmlns:svg="http://www.w3.org/2000/svg"
   xmlns="http://www.w3.org/2000/svg"
   xmlns:xlink="http://www.w3.org/1999/xlink"
   xmlns:sodipodi="http://sodipodi.sourceforge.net/DTD/sodipodi-0.dtd"
   xmlns:inkscape="http://www.inkscape.org/namespaces/inkscape"
   version="1.0"
   width="48"
   height="48"
   id="svg2383"
   inkscape:version="0.47pre4 r22446"
   sodipodi:docname="emblem-desktop.svg">
    
  
  
  
  
  <filter>
    </filter>
  <linearGradient
     id="linearGradient4321">
    <stop
       style="stop-color:#969487;stop-opacity:1.0;"
       offset="0"
       id="stop1" />
    <stop
       style="stop-color:#969487;stop-opacity:1.0;"
       offset="1"
       id="stop2" />
  </linearGradient>
  <linearGradient
     inkscape:collect="always"
     xlink:href="#linearGradient4321"
     id="linearGradient1234"
     x1="0%"
     y1="50%"
     x2="100%"
     y2="50%" />
<defs
     id="defs2385">
  </defs>
  <path
     style="fill:url(#linearGradient1234);fill-opacity:1;fill-rule:evenodd;stroke:none;filter:url(#filter1111)"
     id="path2444"
     d="M 4.5217665,6 43.478233,6 C 44.87529,6 46,7.345547 46,9.016923 l 0,29.966154 C 46,40.654453 44.87529,42 43.478233,42 L 4.5217665,42 C 3.1247098,42 2,40.654453 2,38.983077 L 2,9.016923 C 2,7.345547 3.1247098,6 4.5217665,6 z m 0.9234995,2.9999998 3.4957341,0 c 0.3394069,0 0.612648,0.2893871 0.612648,0.6488499 l 0,3.7023003 C 9.5536481,13.710613 9.280407,14 8.9410001,14 L 5.445266,14 C 5.1058591,14 4.832618,13.710613 4.832618,13.35115 l 0,-3.7023003 c 0,-0.3594628 0.2732411,-0.6488499 0.612648,-0.6488499 z m 0,7.0000002 3.4957341,0 c 0.3394069,0 0.612648,0.289387 0.612648,0.64885 l 0,3.7023 C 9.5536481,20.710613 9.280407,21 8.9410001,21 L 5.445266,21 C 5.1058591,21 4.832618,20.710613 4.832618,20.35115 l 0,-3.7023 C 4.832618,16.289387 5.1058591,16 5.445266,16 z m 28.868291,-4.574184 c 0.406881,0 0.749009,0.239217 0.749009,0.540866 l 0,6.382211 5.787801,0 c 0.406881,0 0.74901,0.23922 0.74901,0.540865 l 0,12.764423 c 0,0.301649 -0.342129,0.540866 -0.74901,0.540866 l -20.29135,0 c -0.406881,0 -0.74901,-0.23922 -0.74901,-0.540866 l 0,-6.382211 -5.787801,0 c -0.406881,0 -0.749009,-0.23922 -0.749009,-0.540865 l 0,-12.764423 c 0,-0.301649 0.342128,-0.540866 0.749009,-0.540866 l 20.291351,0 z M 6.1374787,39 42.240204,39 c 0.722892,0 1.30486,0.01754 1.30486,0.03932 l 0,0.921352 c 0,0.02179 -0.581968,0.03932 -1.30486,0.03932 L 6.1374787,40 C 5.4145859,40 4.832618,39.982461 4.832618,39.960676 l 0,-0.921352 C 4.832618,39.017539 5.4145859,39 6.1374787,39 z" />
</svg>
