<?xml version="1.0" encoding="UTF-8" standalone="no"?>
<!-- Created with Inkscape (http://www.inkscape.org/) -->

<svg
   xmlns:dc="http://purl.org/dc/elements/1.1/"
   xmlns:cc="http://creativecommons.org/ns#"
   xmlns:rdf="http://www.w3.org/1999/02/22-rdf-syntax-ns#"
   xmlns:svg="http://www.w3.org/2000/svg"
   xmlns="http://www.w3.org/2000/svg"
   xmlns:xlink="http://www.w3.org/1999/xlink"
   xmlns:sodipodi="http://sodipodi.sourceforge.net/DTD/sodipodi-0.dtd"
   xmlns:inkscape="http://www.inkscape.org/namespaces/inkscape"
   version="1.0"
   width="48"
   height="48"
   id="svg249"
   inkscape:version="0.47pre4 r22446"
   sodipodi:docname="bookmark_add.svg">
    
  
  
  
  
  
  <filter>
    </filter>
  <linearGradient
     id="linearGradient4321">
    <stop
       style="stop-color:#1577D3;stop-opacity:1.0;"
       offset="0"
       id="stop1" />
    <stop
       style="stop-color:#1577D3;stop-opacity:1.0;"
       offset="1"
       id="stop2" />
  </linearGradient>
  <linearGradient
     inkscape:collect="always"
     xlink:href="#linearGradient4321"
     id="linearGradient1234"
     x1="0%"
     y1="50%"
     x2="100%"
     y2="50%" />
<defs
     id="defs3">
  </defs>
  <path
     style="fill:url(#linearGradient1234);fill-opacity:1;fill-rule:evenodd;stroke:none;filter:url(#filter1111)"
     d="M 8.8629554,2 C 5.9184963,2 3.469,4.3894041 3.469,7.2424242 l 0,33.5151518 C 3.469,43.610596 5.9184964,46 8.8629554,46 L 38.863044,46 C 41.807503,46 44.257,43.610597 44.257,40.757576 l 0,-33.5151518 C 44.257,4.3894041 41.807504,2 38.863044,2 L 8.8629554,2 z m 0,3.8484848 2.1818246,0 0,27.0606062 L 18.62056,24 l 7.363659,8.909091 0,-27.0606062 12.878825,0 c 0.83034,0 1.424247,0.5908108 1.424247,1.3939394 l 0,33.5151518 c 0,0.803132 -0.593911,1.393939 -1.424247,1.393939 l -30.0000886,0 c -0.8303366,0 -1.4242466,-0.59081 -1.4242466,-1.393939 l 0,-33.5151518 c 0,-0.8031286 0.59391,-1.3939394 1.4242466,-1.3939394 z"
     id="rect1880" />
</svg>
