<?xml version="1.0" encoding="UTF-8" standalone="no"?>
<!-- Created with Inkscape (http://www.inkscape.org/) -->

<svg
   xmlns:dc="http://purl.org/dc/elements/1.1/"
   xmlns:cc="http://creativecommons.org/ns#"
   xmlns:rdf="http://www.w3.org/1999/02/22-rdf-syntax-ns#"
   xmlns:svg="http://www.w3.org/2000/svg"
   xmlns="http://www.w3.org/2000/svg"
   xmlns:xlink="http://www.w3.org/1999/xlink"
   xmlns:sodipodi="http://sodipodi.sourceforge.net/DTD/sodipodi-0.dtd"
   xmlns:inkscape="http://www.inkscape.org/namespaces/inkscape"
   version="1.0"
   width="48"
   height="48"
   id="svg2"
   inkscape:version="0.47pre4 r22446"
   sodipodi:docname="document-save-as.svg">
    
  
  
  
  
  
  <filter>
    </filter>
  <linearGradient
     id="linearGradient4321">
    <stop
       style="stop-color:#1577D3;stop-opacity:1.0;"
       offset="0"
       id="stop1" />
    <stop
       style="stop-color:#1577D3;stop-opacity:1.0;"
       offset="1"
       id="stop2" />
  </linearGradient>
  <linearGradient
     inkscape:collect="always"
     xlink:href="#linearGradient4321"
     id="linearGradient1234"
     x1="0%"
     y1="50%"
     x2="100%"
     y2="50%" />
<defs
     id="defs4">
  </defs>
  <path
     style="fill:url(#linearGradient1234);filter:url(#filter1111);fill-opacity:1;fill-rule:evenodd;stroke:none"
     id="rect3311"
     d="M 19.956701,2.0005729 C 19.539568,1.995817 19.112005,2.0211352 18.6937,2.0593171 15.272194,2.3716224 11.860083,4.1390374 9.4121121,7.698763 6.9676169,11.253435 5.4823577,16.579963 5.7405978,23.970914 l 0.9399077,-0.02937 C 6.7362397,18.326939 7.8476366,14.351515 9.4414842,11.693371 11.038527,9.029898 13.121999,7.6921692 15.139675,7.3169256 19.030481,6.5933203 22.734496,9.457593 22.805796,14.04314 l -8.224192,0 7.460517,7.519261 -10.485845,0 c -2.4168764,0 -4.4058167,1.981406 -4.4058167,4.376445 l 0,15.684709 C 7.1504592,44.018591 9.1394,46 11.556276,46 l 26.434903,0 c 2.416875,0 4.405818,-1.981407 4.405818,-4.376445 l 0,-15.684709 c 1e-6,-2.395039 -1.988941,-4.376445 -4.405818,-4.376445 l -4.640794,0 7.07868,-7.519261 -8.077331,0 C 32.148791,6.9019067 26.213688,2.0719318 19.956701,2.0005729 z m -6.638098,23.0277371 12.160056,0 2.349769,2.379142 2.232281,-2.379142 6.168144,0 c 1.762258,0 2.64349,0.867781 2.64349,2.614119 l 0,12.218799 c 2e-6,1.746336 -0.88123,2.672863 -2.64349,2.672863 l -22.91025,0 c -1.76226,0 -2.64349,-0.926526 -2.64349,-2.672863 l 0,-12.218799 c 0,-1.746338 0.88123,-2.614119 2.64349,-2.614119 z m 15.860942,9.634054 c -0.976292,0 -1.762327,0.765485 -1.762327,1.732955 l 0,1.732954 c 0,0.967471 0.786035,1.762326 1.762327,1.762327 l 4.405817,0 c 0.976293,0 1.762327,-0.794854 1.762327,-1.762327 l 0,-1.732954 c 0,-0.967471 -0.786032,-1.732955 -1.762327,-1.732955 l -4.405817,0 z" />
</svg>
