<?xml version="1.0" encoding="UTF-8" standalone="no"?>
<!-- Created with Inkscape (http://www.inkscape.org/) -->

<svg
   xmlns:dc="http://purl.org/dc/elements/1.1/"
   xmlns:cc="http://creativecommons.org/ns#"
   xmlns:rdf="http://www.w3.org/1999/02/22-rdf-syntax-ns#"
   xmlns:svg="http://www.w3.org/2000/svg"
   xmlns="http://www.w3.org/2000/svg"
   xmlns:xlink="http://www.w3.org/1999/xlink"
   xmlns:sodipodi="http://sodipodi.sourceforge.net/DTD/sodipodi-0.dtd"
   xmlns:inkscape="http://www.inkscape.org/namespaces/inkscape"
   version="1.0"
   width="48"
   height="48"
   id="svg11300"
   inkscape:version="0.47pre4 r22446"
   sodipodi:docname="document-send.svg">
    
  
  
  
  
  
  <filter>
    </filter>
  <linearGradient
     id="linearGradient4321">
    <stop
       style="stop-color:#1577D3;stop-opacity:1.0;"
       offset="0"
       id="stop1" />
    <stop
       style="stop-color:#1577D3;stop-opacity:1.0;"
       offset="1"
       id="stop2" />
  </linearGradient>
  <linearGradient
     inkscape:collect="always"
     xlink:href="#linearGradient4321"
     id="linearGradient1234"
     x1="0%"
     y1="50%"
     x2="100%"
     y2="50%" />
<defs
     id="defs3">
  </defs>
  <path
     d="m 9.09375,6.8125 0,35.46875 29.15625,0 0,-14.34375 6.59375,-2.46875 0.28125,-0.125 L 44.8125,25.25 38.25,22.8125 l 0,-6.875 -8.96875,-9.125 -20.1875,0 z m 19.125,2.9375 7.3125,7.625 0,4.40625 -4.28125,-1.59375 -0.5625,-0.21875 0,0.34375 0,2.25 -10.46875,0 -0.34375,0 0,0.15625 0,5.25 0,0.15625 0.34375,0 10.46875,0 0,2.3125 0,0.3125 0.5625,-0.21875 4.28125,-1.59375 0,10.40625 -23.71875,0 0.03125,-29.5625 16.375,-0.03125 z"
     id="path2162"
     style="fill:url(#linearGradient1234);fill-opacity:1;fill-rule:nonzero;stroke:none;filter:url(#filter1111)" />
</svg>
