<?xml version="1.0" encoding="UTF-8" standalone="no"?>
<!-- Created with Inkscape (http://www.inkscape.org/) -->

<svg
   xmlns:dc="http://purl.org/dc/elements/1.1/"
   xmlns:cc="http://creativecommons.org/ns#"
   xmlns:rdf="http://www.w3.org/1999/02/22-rdf-syntax-ns#"
   xmlns:svg="http://www.w3.org/2000/svg"
   xmlns="http://www.w3.org/2000/svg"
   xmlns:xlink="http://www.w3.org/1999/xlink"
   xmlns:sodipodi="http://sodipodi.sourceforge.net/DTD/sodipodi-0.dtd"
   xmlns:inkscape="http://www.inkscape.org/namespaces/inkscape"
   version="1.0"
   width="48"
   height="48"
   viewBox="0 0 48 48"
   id="svg2"
   xml:space="preserve"
   inkscape:version="0.47pre4 r22446"
   sodipodi:docname="editcopy.svg">
        
  
  
  
  
  
  <filter>
    </filter>
  <linearGradient
   id="linearGradient4321">
    <stop
       style="stop-color:#1577D3;stop-opacity:1.0;"
       offset="0"
       id="stop1" />
    <stop
       style="stop-color:#1577D3;stop-opacity:1.0;"
       offset="1"
       id="stop2" />
  </linearGradient>
  <linearGradient
     inkscape:collect="always"
     xlink:href="#linearGradient4321"
     id="linearGradient1234"
     x1="0%"
     y1="50%"
     x2="100%"
     y2="50%" />
<defs
   id="defs31">
</defs>	
<path
   d="m 16.829843,2 0,18.280053 L 2,20.280053 2,46 l 29.170157,0 0,-18.280053 14.829843,0 L 46,2 16.829843,2 z m 4.089005,3.9233818 21.020943,0 0,17.8731832 -21.020943,0 0,-17.8731832 z M 24,9.614267 l 0,3.051519 14.743455,0 0,-3.051519 -14.743455,0 z m 0,7.091149 0,3.051519 14.743455,0 0,-3.051519 -14.743455,0 z m -17.9397906,7.498019 10.7696336,0 0,3.516512 10.251309,0 0,14.356671 -21.0209426,0 0,-17.873183 z m 3.1963351,4.03963 0,3.051519 14.7434555,0 0,-3.051519 -14.7434555,0 z m 0,7.091149 0,3.051519 14.7434555,0 0,-3.051519 -14.7434555,0 z"
   id="rect4078"
   style="fill:url(#linearGradient1234);fill-opacity:1;fill-rule:evenodd;stroke:none;filter:url(#filter1111)" /></svg>
