<?xml version="1.0" encoding="UTF-8" standalone="no"?>
<!-- Created with Inkscape (http://www.inkscape.org/) -->
<svg
   xmlns:svg="http://www.w3.org/2000/svg"
   xmlns="http://www.w3.org/2000/svg"
   xmlns:xlink="http://www.w3.org/1999/xlink"
   version="1.0"
   width="48"
   height="48"
   id="svg2">
        
  
  
  
  
  <filter>
    </filter>
  <linearGradient
     id="linearGradient4321">
    <stop
       style="stop-color:#1577D3;stop-opacity:1.0;"
       offset="0"
       id="stop1" />
    <stop
       style="stop-color:#1577D3;stop-opacity:1.0;"
       offset="1"
       id="stop2" />
  </linearGradient>
  <linearGradient
     inkscape:collect="always"
     xlink:href="#linearGradient4321"
     id="linearGradient1234"
     x1="0%"
     y1="50%"
     x2="100%"
     y2="50%" />
<defs
     id="defs4" />
  <g
     id="layer1">
    <g
       transform="translate(-0.4,0.4)"
       id="g2603">
      <text
         x="25.367456"
         y="31.471378"
         id="text5335"
         xml:space="preserve"
         style="font-size:4px;font-style:normal;font-weight:normal;fill:none;fill-opacity:1;stroke:none;stroke-width:1px;stroke-linecap:butt;stroke-linejoin:miter;stroke-opacity:1;font-family:Bitstream Vera Sans"><tspan
           x="25.367456"
           y="31.471378"
           id="tspan5337" /></text>
      <path
         d="M 12.71875,5 C 12.318018,5 12,5.3012923 12,5.6875 L 12,42.3125 C 12,42.698712 12.318018,43 12.71875,43 L 23.46875,43 L 36,31.1875 L 36,17.15625 L 23.09375,5 L 12.71875,5 z M 25.125,5 L 36,15.25 L 36,5.6875 C 36,5.3012922 35.650727,5 35.25,5 L 25.125,5 z M 21.375,14 L 26.625,14 C 26.833019,14 27.000001,14.151384 27,14.34375 L 27,21 L 33.65625,21 C 33.848618,21 33.999999,21.166979 34,21.375 L 34,26.625 C 34,26.833024 33.848617,27 33.65625,27 L 27,27 L 27,33.65625 C 27,33.848619 26.833023,34 26.625,34 L 21.375,34 C 21.166978,34 21.000001,33.848619 21,33.65625 L 21,27 L 14.34375,27 C 14.151381,27 14,26.833024 14,26.625 L 14,21.375 C 14,21.16698 14.151381,21 14.34375,21 L 21,21 L 21,14.34375 C 21,14.151383 21.166978,14 21.375,14 z M 36,33.09375 L 25.5,43 L 35.25,43 C 35.650737,43 36,42.698712 36,42.3125 L 36,33.09375 z"
         transform="translate(0.4,-0.4)"
         id="path3208"
         style="fill:url(#linearGradient1234);filter:url(#filter1111);fill-opacity:1;fill-rule:evenodd;stroke:none;stroke-width:0.80000001;stroke-linecap:round;stroke-linejoin:round;stroke-miterlimit:4;stroke-dasharray:none;stroke-dashoffset:0;stroke-opacity:1" />
    </g>
  </g>
</svg>
