<?xml version="1.0" encoding="UTF-8" standalone="no"?>
<!-- Created with Inkscape (http://www.inkscape.org/) -->

<svg
   xmlns:dc="http://purl.org/dc/elements/1.1/"
   xmlns:cc="http://creativecommons.org/ns#"
   xmlns:rdf="http://www.w3.org/1999/02/22-rdf-syntax-ns#"
   xmlns:svg="http://www.w3.org/2000/svg"
   xmlns="http://www.w3.org/2000/svg"
   xmlns:xlink="http://www.w3.org/1999/xlink"
   xmlns:sodipodi="http://sodipodi.sourceforge.net/DTD/sodipodi-0.dtd"
   xmlns:inkscape="http://www.inkscape.org/namespaces/inkscape"
   version="1.0"
   width="48"
   height="48"
   id="svg1307"
   inkscape:version="0.47pre4 r22446"
   sodipodi:docname="gtk-leave-fullscreen.svg">
    
  
  
  
  
  
  <filter>
    </filter>
  <linearGradient
     id="linearGradient4321">
    <stop
       style="stop-color:#1577D3;stop-opacity:1.0;"
       offset="0"
       id="stop1" />
    <stop
       style="stop-color:#1577D3;stop-opacity:1.0;"
       offset="1"
       id="stop2" />
  </linearGradient>
  <linearGradient
     inkscape:collect="always"
     xlink:href="#linearGradient4321"
     id="linearGradient1234"
     x1="0%"
     y1="50%"
     x2="100%"
     y2="50%" />
<defs
     id="defs1309">
  </defs>
  <path
     style="fill:url(#linearGradient1234);fill-opacity:1;fill-rule:evenodd;stroke:none;filter:url(#filter1111)"
     id="rect1315"
     d="M 7.0989583,2 C 4.2759543,2 2,4.2759543 2,7.0989583 L 2,40.901042 C 2,43.724046 4.2759543,46 7.0989583,46 L 40.901042,46 C 43.724046,46 46,43.724045 46,40.901042 L 46,7.0989583 C 46,4.2759543 43.724045,2 40.901042,2 L 7.0989583,2 z m 1.03125,3.6666667 31.7395837,0 c 1.357771,0 2.463541,1.1057697 2.463541,2.4635413 l 0,31.739584 c -1e-6,1.357771 -1.105769,2.463541 -2.463541,2.463541 l -31.7395837,0 c -1.3577718,-1e-6 -2.4635416,-1.105769 -2.4635416,-2.463541 l 0,-31.739584 c 0,-1.3577715 1.1057697,-2.4635413 2.4635416,-2.4635413 z M 12.398438,8.1875 8.1875,12.398438 l 5.270833,5.270833 -5.270833,5.270833 14.752604,0 0,-14.752604 -5.270833,5.270833 L 12.398438,8.1875 z m 12.661458,16.872396 0,14.752604 5.270833,-5.270833 5.270833,5.270833 4.210938,-4.210938 -5.270833,-5.270833 5.270833,-5.270833 -14.752604,0 z" />
</svg>
