<?xml version="1.0" encoding="UTF-8" standalone="no"?>
<!-- Created with Inkscape (http://www.inkscape.org/) -->
<svg
   xmlns:svg="http://www.w3.org/2000/svg"
   xmlns="http://www.w3.org/2000/svg"
   xmlns:xlink="http://www.w3.org/1999/xlink"
   version="1.0"
   width="48"
   height="48"
   id="svg1307">
        
  
  
  
  
  
  <filter>
    </filter>
  <linearGradient
     id="linearGradient4321">
    <stop
       style="stop-color:#1577D3;stop-opacity:1.0;"
       offset="0"
       id="stop1" />
    <stop
       style="stop-color:#1577D3;stop-opacity:1.0;"
       offset="1"
       id="stop2" />
  </linearGradient>
  <linearGradient
     inkscape:collect="always"
     xlink:href="#linearGradient4321"
     id="linearGradient1234"
     x1="0%"
     y1="50%"
     x2="100%"
     y2="50%" />
<defs
     id="defs1309" />
  <g
     id="layer4"
     style="display:inline" />
  <g
     id="layer1"
     style="display:inline">
    <path
       d="M 23.625,8.25 C 23.484558,8.2708112 23.359584,8.3503406 23.28125,8.46875 L 10.46875,26.21875 C 10.365282,26.370855 10.352629,26.555537 10.4375,26.71875 C 10.522371,26.881964 10.691058,26.997348 10.875,27 L 36.5,27 C 36.683942,26.997348 36.852629,26.881964 36.9375,26.71875 C 37.022373,26.555537 37.009718,26.370855 36.90625,26.21875 L 24.09375,8.46875 C 23.990281,8.3144029 23.809757,8.2301586 23.625,8.25 z M 10.125,30 L 10.125,30.5 L 10.125,35.46875 L 10.125,35.96875 L 10.625,35.96875 L 36.5,35.96875 L 37,35.96875 L 37,35.46875 L 37,30.5 L 37,30 L 36.5,30 L 10.625,30 L 10.125,30 z"
       id="path2818"
       style="opacity:1;fill:url(#linearGradient1234);filter:url(#filter1111);fill-opacity:1;fill-rule:evenodd;stroke:none;stroke-width:1.00000012;stroke-linecap:square;stroke-linejoin:round;marker:none;stroke-miterlimit:4;stroke-dasharray:none;stroke-dashoffset:0;stroke-opacity:1;visibility:visible;display:inline;overflow:visible" />
  </g>
</svg>
