<?xml version="1.0" encoding="UTF-8" standalone="no"?>
<!-- Created with Inkscape (http://www.inkscape.org/) -->

<svg
   xmlns:dc="http://purl.org/dc/elements/1.1/"
   xmlns:cc="http://creativecommons.org/ns#"
   xmlns:rdf="http://www.w3.org/1999/02/22-rdf-syntax-ns#"
   xmlns:svg="http://www.w3.org/2000/svg"
   xmlns="http://www.w3.org/2000/svg"
   xmlns:xlink="http://www.w3.org/1999/xlink"
   xmlns:sodipodi="http://sodipodi.sourceforge.net/DTD/sodipodi-0.dtd"
   xmlns:inkscape="http://www.inkscape.org/namespaces/inkscape"
   version="1.0"
   width="48"
   height="48"
   id="svg2"
   inkscape:version="0.47pre4 r22446"
   sodipodi:docname="stock_mail-copy.svg">
    
  
  
  
  
  
  <filter>
    </filter>
  <linearGradient
     id="linearGradient4321">
    <stop
       style="stop-color:#1577D3;stop-opacity:1.0;"
       offset="0"
       id="stop1" />
    <stop
       style="stop-color:#1577D3;stop-opacity:1.0;"
       offset="1"
       id="stop2" />
  </linearGradient>
  <linearGradient
     inkscape:collect="always"
     xlink:href="#linearGradient4321"
     id="linearGradient1234"
     x1="0%"
     y1="50%"
     x2="100%"
     y2="50%" />
<defs
     id="defs4">
  </defs>
  <path
     style="fill:url(#linearGradient1234);fill-opacity:1;fill-rule:nonzero;stroke:none;stroke-width:4;marker:none;visibility:visible;display:inline;overflow:visible;enable-background:accumulate;filter:url(#filter1111)"
     id="rect2161"
     d="m 2,10.159748 0,1.317709 0,0.171875 0,18.104166 0,0.830729 0,0.658855 1.2890625,0 0.2005208,0 9.5104167,0 0,-1.976563 -7.5625,0 6.960938,-7.075521 L 13,22.792561 l 0,-2.979167 -7.5625,-7.677083 24.291667,0 -0.773438,0.773437 4.210938,0 0,-1.260416 0,-0.171875 0,-1.317709 -1.289063,0 -0.200521,0 -28.1874997,0 -0.2005208,0 -1.2890625,0 z m 1.9479167,3.466146 6.9609373,7.075521 -6.9609373,7.075521 0,-14.151042 z m 10.8854163,1.117188 0,1.317708 0,0.171875 0,18.104167 0,0.830729 0,0.658854 1.289063,0 0.200521,0 28.1875,0 0.20052,0 1.289063,0 0,-0.658854 0,-0.830729 0,-18.104167 0,-0.171875 0,-1.317708 -1.289063,0 -0.20052,0 -28.1875,0 -0.200521,0 -1.289063,0 z m 3.4375,1.976562 24.291667,0 L 30.416667,29.065998 18.270833,16.719644 z m -1.489583,1.489583 6.960937,7.075521 -6.960937,7.075521 0,-14.151042 z m 27.270833,0 0,14.151042 -6.960937,-7.075521 6.960937,-7.075521 z m -18.820312,8.565105 5.184896,5.270833 5.184895,-5.270833 6.960938,7.07552 -24.291667,0 6.960938,-7.07552 z" />
</svg>
