<?xml version="1.0" encoding="UTF-8" standalone="no"?>
<!-- Created with Inkscape (http://www.inkscape.org/) -->

<svg
   xmlns:dc="http://purl.org/dc/elements/1.1/"
   xmlns:cc="http://creativecommons.org/ns#"
   xmlns:rdf="http://www.w3.org/1999/02/22-rdf-syntax-ns#"
   xmlns:svg="http://www.w3.org/2000/svg"
   xmlns="http://www.w3.org/2000/svg"
   xmlns:xlink="http://www.w3.org/1999/xlink"
   xmlns:sodipodi="http://sodipodi.sourceforge.net/DTD/sodipodi-0.dtd"
   xmlns:inkscape="http://www.inkscape.org/namespaces/inkscape"
   version="1.0"
   width="48"
   height="48"
   id="svg1307"
   inkscape:version="0.47pre4 r22446"
   sodipodi:docname="gtk-fullscreen.svg">
    
  
  
  
  
  
  <filter>
    </filter>
  <linearGradient
     id="linearGradient4321">
    <stop
       style="stop-color:#1577D3;stop-opacity:1.0;"
       offset="0"
       id="stop1" />
    <stop
       style="stop-color:#1577D3;stop-opacity:1.0;"
       offset="1"
       id="stop2" />
  </linearGradient>
  <linearGradient
     inkscape:collect="always"
     xlink:href="#linearGradient4321"
     id="linearGradient1234"
     x1="0%"
     y1="50%"
     x2="100%"
     y2="50%" />
<defs
     id="defs1309">
  </defs>
  <path
     style="fill:url(#linearGradient1234);fill-opacity:1;fill-rule:nonzero;stroke:none;stroke-width:1;marker:none;visibility:visible;display:inline;overflow:visible;enable-background:accumulate;filter:url(#filter1111)"
     id="rect2169"
     d="M 7.0989583,2 C 4.2759543,2 2,4.2759543 2,7.0989583 L 2,40.901042 C 2,43.724046 4.2759543,46 7.0989583,46 L 40.901042,46 C 43.724046,46 46,43.724045 46,40.901042 L 46,7.0989583 C 46,4.2759543 43.724045,2 40.901042,2 L 7.0989583,2 z m 1.6041667,3.6666667 30.59375,0 c 1.674795,0 3.036458,1.3616653 3.036458,3.0364583 l 0,30.59375 c 0,1.674795 -1.361665,3.036458 -3.036458,3.036458 l -30.59375,0 c -1.6747927,0 -3.0364583,-1.361665 -3.0364583,-3.036458 l 0,-30.59375 c 0,-1.6747927 1.3616653,-3.0364583 3.0364583,-3.0364583 z m 0.6302083,3.6666663 0,29.333334 29.3333337,0 0,-29.333334 -29.3333337,0 z M 19.559896,13 35,13 l 0,15.411458 -5.5,-5.5 L 28.382812,24 23.971354,28.411458 22.882812,29.5 l 5.5,5.5 -15.411458,0 0,-15.411458 5.5,5.5 L 19.559896,24 23.971354,19.588542 25.088542,18.5 19.559896,13 z" />
</svg>
