<?xml version="1.0" encoding="UTF-8" standalone="no"?>
<!-- Created with Inkscape (http://www.inkscape.org/) -->

<svg
   xmlns:dc="http://purl.org/dc/elements/1.1/"
   xmlns:cc="http://creativecommons.org/ns#"
   xmlns:rdf="http://www.w3.org/1999/02/22-rdf-syntax-ns#"
   xmlns:svg="http://www.w3.org/2000/svg"
   xmlns="http://www.w3.org/2000/svg"
   xmlns:xlink="http://www.w3.org/1999/xlink"
   xmlns:sodipodi="http://sodipodi.sourceforge.net/DTD/sodipodi-0.dtd"
   xmlns:inkscape="http://www.inkscape.org/namespaces/inkscape"
   version="1.0"
   width="48"
   height="48"
   id="svg2"
   inkscape:version="0.47pre4 r22446"
   sodipodi:docname="stock_mail-unread-multiple.svg">
    
  
  
  
  
  
  <filter>
    </filter>
  <linearGradient
     id="linearGradient4321">
    <stop
       style="stop-color:#1577D3;stop-opacity:1.0;"
       offset="0"
       id="stop1" />
    <stop
       style="stop-color:#1577D3;stop-opacity:1.0;"
       offset="1"
       id="stop2" />
  </linearGradient>
  <linearGradient
     inkscape:collect="always"
     xlink:href="#linearGradient4321"
     id="linearGradient1234"
     x1="0%"
     y1="50%"
     x2="100%"
     y2="50%" />
<defs
     id="defs4">
  </defs>
  <path
     style="fill:url(#linearGradient1234);fill-opacity:1;fill-rule:evenodd;stroke:none;filter:url(#filter1111)"
     id="path6061"
     d="M 3.2317708,8.609375 14.833333,20.210937 26.434896,8.609375 l -23.2031252,0 z M 2,9.8411458 2,24.507812 9.3333333,17.174479 2,9.8411458 z m 25.666667,0 -7.333334,7.3333332 4.067709,4.067708 -2.434896,0 -2.864584,-2.864583 -4.268229,4.296875 -4.268229,-4.296875 -7.3333332,7.333333 17.1015622,0 0,11.401042 7.333334,-7.333333 -7.333334,-7.333334 0,-1.203125 1.231771,0 11.601563,11.601563 11.601562,-11.601563 -17.101562,0 0,-11.4010412 z M 46,22.445312 38.666667,29.778646 46,37.111979 46,22.445312 z m -17.101563,8.565105 -7.333333,7.333333 23.203125,0 -7.333333,-7.333333 -4.268229,4.268229 -4.26823,-4.268229 z" />
</svg>
