<?xml version="1.0" encoding="UTF-8" standalone="no"?>
<!-- Created with Inkscape (http://www.inkscape.org/) -->

<svg
   xmlns:dc="http://purl.org/dc/elements/1.1/"
   xmlns:cc="http://creativecommons.org/ns#"
   xmlns:rdf="http://www.w3.org/1999/02/22-rdf-syntax-ns#"
   xmlns:svg="http://www.w3.org/2000/svg"
   xmlns="http://www.w3.org/2000/svg"
   xmlns:xlink="http://www.w3.org/1999/xlink"
   xmlns:sodipodi="http://sodipodi.sourceforge.net/DTD/sodipodi-0.dtd"
   xmlns:inkscape="http://www.inkscape.org/namespaces/inkscape"
   version="1.0"
   width="48"
   height="48"
   id="svg3332"
   inkscape:version="0.47 r22583"
   sodipodi:docname="dvd-ram.svg">
    
  
  
  
  
  <filter>
    </filter>
  <linearGradient
     id="linearGradient4321">
    <stop
       style="stop-color:#969487;stop-opacity:1.0;"
       offset="0"
       id="stop1" />
    <stop
       style="stop-color:#969487;stop-opacity:1.0;"
       offset="1"
       id="stop2" />
  </linearGradient>
  <linearGradient
     inkscape:collect="always"
     xlink:href="#linearGradient4321"
     id="linearGradient1234"
     x1="0%"
     y1="50%"
     x2="100%"
     y2="50%" />
<defs
     id="defs3334">
  </defs>
  <path
     d="M 46,24.000003 C 46,36.144 36.144001,46 24,46 11.856,46 2,36.144 2,24.000003 2,11.856005 11.856,2.0000055 24,2.0000055 c 12.144001,0 22,9.8559995 22,21.9999975 z M 33.274512,24 c 0,5.119529 -4.15498,9.27451 -9.274509,9.27451 -5.119529,0 -9.27451,-4.154981 -9.27451,-9.27451 0,-5.119533 4.154981,-9.274512 9.27451,-9.274512 5.119529,0 9.274509,4.154979 9.274509,9.274512 z m -1.294118,-1e-6 c 0,4.405177 -3.575216,7.980392 -7.980392,7.980392 -4.405177,0 -7.980393,-3.575215 -7.980393,-7.980392 0,-4.405177 3.575216,-7.980392 7.980393,-7.980392 4.405176,0 7.980392,3.575215 7.980392,7.980392 z m -1.941179,0 c 0,3.333647 -2.705568,6.039215 -6.039215,6.039215 -3.333647,0 -6.039216,-2.705568 -6.039216,-6.039215 0,-3.333647 2.705569,-6.039216 6.039216,-6.039216 3.333647,0 6.039215,2.705569 6.039215,6.039216 z m -19.293574,12.147307 0,3.423598 0.719516,0 c 0.607458,1e-6 1.051748,-0.137612 1.332874,-0.412837 0.283085,-0.275223 0.424629,-0.709685 0.424632,-1.303385 -3e-6,-0.589765 -0.141547,-1.021277 -0.424632,-1.294539 -0.281126,-0.275221 -0.725416,-0.412833 -1.332874,-0.412837 l -0.719516,0 m -0.595665,-0.489507 1.223767,0 c 0.853194,4e-6 1.47933,0.177918 1.878409,0.53374 0.399071,0.353863 0.598609,0.908244 0.598613,1.663143 -4e-6,0.758835 -0.200525,1.316164 -0.601562,1.67199 -0.401045,0.355827 -1.026198,0.533738 -1.87546,0.533738 l -1.223767,0 0,-4.402611 m 5.676509,4.402611 -1.680836,-4.402611 0.622204,0 1.3948,3.706687 1.397748,-3.706687 0.619255,0 -1.677887,4.402611 -0.675284,0 m 3.588734,-3.913104 0,3.423598 0.719516,0 c 0.607457,1e-6 1.051748,-0.137612 1.332873,-0.412837 0.283085,-0.275223 0.424629,-0.709685 0.424632,-1.303385 -3e-6,-0.589765 -0.141547,-1.021277 -0.424632,-1.294539 -0.281125,-0.275221 -0.725416,-0.412833 -1.332873,-0.412837 l -0.719516,0 m -0.595666,-0.489507 1.223767,0 c 0.853194,4e-6 1.47933,0.177918 1.878409,0.53374 0.399071,0.353863 0.598609,0.908244 0.598614,1.663143 -5e-6,0.758835 -0.200525,1.316164 -0.601563,1.67199 -0.401045,0.355827 -1.026198,0.533738 -1.87546,0.533738 l -1.223767,0 0,-4.402611 m 4.349533,2.506511 1.589423,0 0,0.483609 -1.589423,0 0,-0.483609 m 4.567747,-0.168084 c 0.12778,0.04325 0.251631,0.135648 0.371554,0.277191 0.121881,0.141545 0.243767,0.336168 0.365655,0.583869 l 0.604511,1.203124 -0.639897,0 -0.563228,-1.129403 c -0.145478,-0.294882 -0.287022,-0.490488 -0.424632,-0.586818 -0.135649,-0.09633 -0.321425,-0.144492 -0.55733,-0.144493 l -0.648744,0 0,1.860714 -0.595664,0 0,-4.402611 1.344668,0 c 0.503266,4e-6 0.878751,0.10518 1.126456,0.315525 0.247698,0.210355 0.371549,0.527846 0.371553,0.952474 -4e-6,0.277194 -0.06488,0.507203 -0.194623,0.690028 -0.127786,0.18283 -0.314546,0.30963 -0.560279,0.3804 m -1.492111,-1.84892 0,1.562883 0.749004,0 c 0.287018,2e-6 0.503266,-0.06585 0.648744,-0.197572 0.147439,-0.133678 0.22116,-0.329284 0.221163,-0.586819 -3e-6,-0.257528 -0.07372,-0.451168 -0.221163,-0.58092 -0.145478,-0.131711 -0.361726,-0.197568 -0.648744,-0.197572 l -0.749004,0 m 4.827244,0.09731 -0.807981,2.190984 1.618911,0 -0.81093,-2.190984 m -0.336167,-0.586819 0.675284,0 1.677887,4.402611 -0.619255,0 -0.401042,-1.129403 -1.984566,0 -0.401042,1.129403 -0.628103,0 1.680837,-4.402611 m 2.993068,0 0.8876,0 1.123507,2.996018 1.129404,-2.996018 0.887599,0 0,4.402611 -0.580921,0 0,-3.865923 -1.135301,3.019608 -0.598614,0 -1.135302,-3.019608 0,3.865923 -0.577972,0 0,-4.402611"
     id="path3170"
     style="fill:url(#linearGradient1234);fill-opacity:1;fill-rule:evenodd;stroke:none;filter:url(#filter1111)" />
</svg>
