<?xml version="1.0" encoding="UTF-8" standalone="no"?>
<!-- Created with Inkscape (http://www.inkscape.org/) -->
<svg
   xmlns:svg="http://www.w3.org/2000/svg"
   xmlns="http://www.w3.org/2000/svg"
   xmlns:xlink="http://www.w3.org/1999/xlink"
   version="1.0"
   width="48"
   height="48"
   id="svg7854">
        
  
  
  
  
  <filter>
    </filter>
  <linearGradient
     id="linearGradient4321">
    <stop
       style="stop-color:#969487;stop-opacity:1.0;"
       offset="0"
       id="stop1" />
    <stop
       style="stop-color:#969487;stop-opacity:1.0;"
       offset="1"
       id="stop2" />
  </linearGradient>
  <linearGradient
     inkscape:collect="always"
     xlink:href="#linearGradient4321"
     id="linearGradient1234"
     x1="0%"
     y1="50%"
     x2="100%"
     y2="50%" />
<defs
     id="defs7856" />
  <g
     id="layer1">
    <path
       d="M 36.34375,11.3125 L 36.34375,12.28125 L 36.34375,14.78125 L 30.5,14.78125 L 30.34375,14.78125 L 30.1875,14.875 L 21.5,21.625 L 12.8125,14.875 L 12.65625,14.78125 L 12.5,14.78125 L 4.09375,14.78125 L 3.59375,14.78125 L 3.59375,15.28125 L 3.59375,19.28125 L 3.59375,19.78125 L 4.09375,19.78125 L 12.3125,19.78125 L 18.09375,24.28125 L 12.3125,28.78125 L 4.09375,28.78125 L 3.59375,28.78125 L 3.59375,29.28125 L 3.59375,33.28125 L 3.59375,33.78125 L 4.09375,33.78125 L 12.5,33.78125 L 12.65625,33.78125 L 12.8125,33.6875 L 21.5,26.9375 L 30.1875,33.6875 L 30.34375,33.78125 L 30.5,33.78125 L 36.34375,33.78125 L 36.34375,36.28125 L 36.34375,37.25 L 37.125,36.6875 L 44.125,31.6875 L 44.6875,31.28125 L 44.125,30.875 L 37.125,25.875 L 36.34375,25.3125 L 36.34375,26.28125 L 36.34375,28.78125 L 30.6875,28.78125 L 24.90625,24.28125 L 30.6875,19.78125 L 36.34375,19.78125 L 36.34375,22.28125 L 36.34375,23.25 L 37.125,22.6875 L 44.125,17.6875 L 44.6875,17.28125 L 44.125,16.875 L 37.125,11.875 L 36.34375,11.3125 z"
       id="path3245"
       style="fill:url(#linearGradient1234);filter:url(#filter1111);fill-opacity:1;fill-rule:evenodd;stroke:none;stroke-width:1;stroke-linecap:square;stroke-linejoin:miter;stroke-miterlimit:4;stroke-dasharray:none;stroke-opacity:1" />
  </g>
</svg>
