<?xml version="1.0" encoding="UTF-8" standalone="no"?>
<!-- Created with Inkscape (http://www.inkscape.org/) -->

<svg
   xmlns:dc="http://purl.org/dc/elements/1.1/"
   xmlns:cc="http://creativecommons.org/ns#"
   xmlns:rdf="http://www.w3.org/1999/02/22-rdf-syntax-ns#"
   xmlns:svg="http://www.w3.org/2000/svg"
   xmlns="http://www.w3.org/2000/svg"
   xmlns:xlink="http://www.w3.org/1999/xlink"
   xmlns:sodipodi="http://sodipodi.sourceforge.net/DTD/sodipodi-0.dtd"
   xmlns:inkscape="http://www.inkscape.org/namespaces/inkscape"
   version="1.0"
   width="48"
   height="48"
   viewBox="0 0 48 48"
   id="svg2"
   xml:space="preserve"
   inkscape:version="0.47pre4 r22446"
   sodipodi:docname="network-online.svg">
        
  
  
  
  
  <filter>
    </filter>
  <linearGradient
   id="linearGradient4321">
    <stop
       style="stop-color:#969487;stop-opacity:1.0;"
       offset="0"
       id="stop1" />
    <stop
       style="stop-color:#969487;stop-opacity:1.0;"
       offset="1"
       id="stop2" />
  </linearGradient>
  <linearGradient
     inkscape:collect="always"
     xlink:href="#linearGradient4321"
     id="linearGradient1234"
     x1="0%"
     y1="50%"
     x2="100%"
     y2="50%" />
<defs
   id="defs31">
</defs>
	<path
   d="m 16.523077,9.7057692 c -6.106711,-1e-7 -7.2615385,12.2153848 -7.2615385,12.2153848 l -7.2615385,0 0,4.615384 7.1384615,0 c -2e-7,1e-6 1.1548275,12.215385 7.2615385,12.215385 6.106711,0 6.092308,0 6.092308,0 l 0,-29.0461538 c -0.0024,-1e-7 0.01411,0 -5.969231,0 z m 9.2,0 0,29.1692308 c 0,10e-7 -0.228479,0 6.8,0 6.913256,10e-7 7.261538,-12.215385 7.261538,-12.215385 l 6.215385,0 0,-4.615384 -6.215385,0 0,-0.123077 c -2e-6,0 -0.463502,-12.2153848 -7.261538,-12.2153848 -6.798037,-1e-7 -6.8,0 -6.8,0 z"
   id="path23"
   style="fill:url(#linearGradient1234);fill-opacity:1;fill-rule:nonzero;stroke-width:0.85454547000000003;stroke-miterlimit:4;filter:url(#filter1111)" />
	
</svg>
