<?xml version="1.0" encoding="UTF-8" standalone="no"?>
<!-- Created with Inkscape (http://www.inkscape.org/) -->

<svg
   xmlns:dc="http://purl.org/dc/elements/1.1/"
   xmlns:cc="http://creativecommons.org/ns#"
   xmlns:rdf="http://www.w3.org/1999/02/22-rdf-syntax-ns#"
   xmlns:svg="http://www.w3.org/2000/svg"
   xmlns="http://www.w3.org/2000/svg"
   xmlns:xlink="http://www.w3.org/1999/xlink"
   xmlns:sodipodi="http://sodipodi.sourceforge.net/DTD/sodipodi-0.dtd"
   xmlns:inkscape="http://www.inkscape.org/namespaces/inkscape"
   version="1.0"
   width="48"
   height="48"
   id="svg7944"
   inkscape:version="0.47pre4 r22446"
   sodipodi:docname="notification-network-wireless-low.svg">
    
  
  
  
  
  <filter>
    </filter>
  <linearGradient
     id="linearGradient4321">
    <stop
       style="stop-color:#1577D3;stop-opacity:1.0;"
       offset="0"
       id="stop1" />
    <stop
       style="stop-color:#1577D3;stop-opacity:1.0;"
       offset="1"
       id="stop2" />
  </linearGradient>
  <linearGradient
     inkscape:collect="always"
     xlink:href="#linearGradient4321"
     id="linearGradient1234"
     x1="0%"
     y1="50%"
     x2="100%"
     y2="50%" />
<defs
     id="defs7946">
  </defs>
  <path
     style="fill:url(#linearGradient1234);fill-opacity:1;stroke:none;filter:url(#filter1111)"
     id="path3236"
     d="m 23.999946,34.5625 c -1.607379,0.0011 -3.075673,0.391754 -4.217912,1.09375 -0.570418,0.351793 -1.059367,0.777115 -1.426201,1.3125 -0.370025,0.536404 -0.606894,1.185017 -0.606894,1.875 0,0.689982 0.236607,1.338218 0.606894,1.875 0.550349,0.796831 1.369661,1.37619 2.336541,1.78125 0.971079,0.40374 2.102285,0.625 3.307572,0.625 1.606472,-0.0011 3.076267,-0.391453 4.217912,-1.09375 0.572999,-0.351592 1.060072,-0.779343 1.426201,-1.3125 0.369553,-0.535719 0.609381,-1.181899 0.606894,-1.875 0.0025,-0.693099 -0.237602,-1.339659 -0.606894,-1.875 -0.549571,-0.799786 -1.368871,-1.378045 -2.336542,-1.78125 -0.97078,-0.403614 -2.100808,-0.623933 -3.307571,-0.625 z" />
</svg>
