<?xml version="1.0" encoding="UTF-8" standalone="no"?>
<!-- Created with Inkscape (http://www.inkscape.org/) -->

<svg
   xmlns:dc="http://purl.org/dc/elements/1.1/"
   xmlns:cc="http://creativecommons.org/ns#"
   xmlns:rdf="http://www.w3.org/1999/02/22-rdf-syntax-ns#"
   xmlns:svg="http://www.w3.org/2000/svg"
   xmlns="http://www.w3.org/2000/svg"
   xmlns:xlink="http://www.w3.org/1999/xlink"
   xmlns:sodipodi="http://sodipodi.sourceforge.net/DTD/sodipodi-0.dtd"
   xmlns:inkscape="http://www.inkscape.org/namespaces/inkscape"
   version="1.0"
   width="48"
   height="48"
   id="svg2"
   inkscape:version="0.47pre4 r22446"
   sodipodi:docname="software-update-available.svg">
    
  
  
  
  
  <filter>
    </filter>
  <linearGradient
     id="linearGradient4321">
    <stop
       style="stop-color:#1577D3;stop-opacity:1.0;"
       offset="0"
       id="stop1" />
    <stop
       style="stop-color:#1577D3;stop-opacity:1.0;"
       offset="1"
       id="stop2" />
  </linearGradient>
  <linearGradient
     inkscape:collect="always"
     xlink:href="#linearGradient4321"
     id="linearGradient1234"
     x1="0%"
     y1="50%"
     x2="100%"
     y2="50%" />
<defs
     id="defs4">
  </defs>
  <path
     style="fill:url(#linearGradient1234);fill-opacity:1;fill-rule:nonzero;stroke:none;filter:url(#filter1111)"
     id="path2277"
     d="m 37.714984,41.397713 -5.93786,-2.13389 -1.763947,6.058064 L 25.343914,41.07811 21.395918,46 l -2.689812,-5.707589 -5.531,3.036402 -0.300862,-6.302474 -6.2719573,0.688647 2.1338908,-5.93786 L 2.6781114,30.013179 6.9218896,25.343916 2,21.39592 7.7075893,18.706108 4.6711891,13.175109 10.973661,12.874246 10.285014,6.6022894 l 5.93786,2.1338903 1.763947,-6.0580661 4.669263,4.2437787 3.947996,-4.9218901 2.689813,5.7075893 5.530999,-3.0364002 0.300862,6.3024717 6.271957,-0.688647 -2.133891,5.93786 6.058067,1.763948 -4.243779,4.669262 L 46,26.604083 l -5.707592,2.689812 3.0364,5.530999 -6.302471,0.300862 0.688647,6.271957 z" />
</svg>
