<?xml version="1.0" encoding="UTF-8" standalone="no"?>
<!-- Created with Inkscape (http://www.inkscape.org/) -->

<svg
   xmlns:dc="http://purl.org/dc/elements/1.1/"
   xmlns:cc="http://creativecommons.org/ns#"
   xmlns:rdf="http://www.w3.org/1999/02/22-rdf-syntax-ns#"
   xmlns:svg="http://www.w3.org/2000/svg"
   xmlns="http://www.w3.org/2000/svg"
   xmlns:xlink="http://www.w3.org/1999/xlink"
   xmlns:sodipodi="http://sodipodi.sourceforge.net/DTD/sodipodi-0.dtd"
   xmlns:inkscape="http://www.inkscape.org/namespaces/inkscape"
   version="1.0"
   width="48"
   height="48"
   id="svg1306"
   inkscape:version="0.47pre4 r22446"
   sodipodi:docname="weather-severe-alert.svg">
    
  
  
  
  
  <filter>
    </filter>
  <linearGradient
     id="linearGradient4321">
    <stop
       style="stop-color:#1577D3;stop-opacity:1.0;"
       offset="0"
       id="stop1" />
    <stop
       style="stop-color:#1577D3;stop-opacity:1.0;"
       offset="1"
       id="stop2" />
  </linearGradient>
  <linearGradient
     inkscape:collect="always"
     xlink:href="#linearGradient4321"
     id="linearGradient1234"
     x1="0%"
     y1="50%"
     x2="100%"
     y2="50%" />
<defs
     id="defs1308">
  </defs>
  <path
     style="fill:url(#linearGradient1234);fill-opacity:1;fill-rule:nonzero;stroke:none;filter:url(#filter1111)"
     id="path6485"
     d="m 26.694482,10.904736 c -1.641721,0 -2.978298,1.270526 -3.138627,2.87214 -2.638202,0.381419 -4.905137,1.816332 -6.366084,3.908479 -0.548621,-0.227703 -1.067181,-0.532974 -1.687752,-0.532974 -0.136881,0 -0.230941,0.04506 -0.355316,0.05922 C 14.74532,16.194545 13.959602,15.3758 12.807537,15.3758 c -1.500547,0 -2.753701,1.223444 -2.753701,2.724092 0,0.933347 0.576606,1.662525 1.302826,2.161507 -0.08867,0.251607 -0.193553,0.499156 -0.236877,0.769852 -0.343584,-0.08793 -0.632737,-0.296097 -1.00673,-0.296097 -1.4251837,0 -2.5768838,0.771874 -3.4051142,1.806191 C 6.2412963,22.277767 5.7356521,22.06759 5.1682369,22.06759 3.4203742,22.06759 2,23.518137 2,25.265437 c -1e-7,1.747299 1.4203746,3.168237 3.1682369,3.168237 0.5709607,1e-6 1.1006648,-0.177488 1.5693136,-0.444146 0.8287301,1.015427 1.9655592,1.776581 3.3755045,1.776582 0.613761,0 1.100834,-0.310395 1.628533,-0.532975 0.928864,1.631401 2.634288,2.783311 4.648722,2.783311 1.257371,0 2.344785,-0.527863 3.257066,-1.243607 1.513559,1.026594 3.277798,1.687753 5.240915,1.687753 1.6291,0 3.12522,-0.455946 4.441453,-1.213998 0.01173,-0.0067 0.01791,-0.02281 0.02961,-0.02961 l 2.220727,-4.500673 0.02961,-0.02961 c 0.0034,-0.0066 -0.0035,-0.02304 0,-0.02961 l 0.05922,-0.05922 0.02961,-0.02961 c 0.350602,-0.578465 0.943854,-1.036338 1.687752,-1.036339 0.751474,0 1.429338,0.448835 1.776581,1.125168 l 1.746972,3.523553 c 0.55765,-0.250883 1.076498,-0.559954 1.539704,-0.94751 0.528037,0.254739 1.057685,0.532975 1.687752,0.532975 0.897165,0 1.66797,-0.336427 2.339166,-0.829072 0.361794,0.237162 0.784925,0.384926 1.243607,0.384926 1.253234,2e-6 2.279949,-1.025949 2.279946,-2.279946 -10e-7,-1.124955 -0.877463,-1.94872 -1.95424,-2.131898 -0.384202,-1.850798 -1.947321,-3.286675 -3.908479,-3.286675 -0.195245,10e-7 -0.375669,0.06204 -0.562584,0.08883 -0.642279,-0.98806 -1.535631,-1.732689 -2.635262,-2.191117 0.03116,-0.180882 0.118438,-0.338232 0.118438,-0.532975 0,-1.993956 -1.646818,-3.612382 -3.641991,-3.612382 -0.83511,0 -1.568538,0.349306 -2.191118,0.829071 -0.504248,-0.459592 -1.037832,-0.87221 -1.628533,-1.213997 0.09448,-0.307356 0.266488,-0.586944 0.266488,-0.9179 0,-1.747302 -1.420377,-3.168237 -3.168237,-3.168237 z m 6.69179,15.100942 c -0.599856,1e-6 -1.095073,0.376083 -1.362046,0.888291 l -0.02961,0.02961 -6.780619,13.768506 0,0.02961 c -0.230278,0.490484 -0.232436,1.064795 0.05922,1.569314 0.272693,0.471719 0.770804,0.740242 1.302826,0.740242 l 13.650067,0 c 0.551143,1e-6 1.05148,-0.276382 1.302827,-0.769852 0.0054,-0.0092 -0.0052,-0.02036 0,-0.02961 0.26977,-0.48233 0.289196,-1.050947 0.08883,-1.539704 l 0,-0.02961 -0.02961,0 -6.839838,-13.798116 c -0.270176,-0.526226 -0.796107,-0.858681 -1.362046,-0.858681 z m 0,4.234186 c 0.05563,0 0.09707,0.02697 0.148048,0.118438 l 4.85599,9.741589 c 0.101966,0.182948 0.02311,0.325708 -0.148049,0.325706 l -9.652759,0 c -0.171156,0 -0.281079,-0.14276 -0.177658,-0.325706 l 4.826379,-9.741589 c 0.03459,-0.09147 0.09242,-0.118438 0.148049,-0.118438 z m -0.858681,3.227456 0.710632,2.990579 0.503365,-0.05922 0.740242,-2.901749 -1.954239,-0.02961 z m 1.095558,3.878869 c -0.343153,-0.04578 -0.670993,0.156603 -0.88829,0.532975 -0.269035,0.465983 -0.130979,0.997034 0.296097,1.243607 0.459926,0.265539 0.944961,0.08106 1.213997,-0.384926 0.256878,-0.520795 0.193439,-0.97807 -0.266487,-1.243607 -0.114982,-0.06638 -0.240932,-0.132789 -0.355317,-0.148049 z" />
</svg>
