<?xml version="1.0" encoding="UTF-8" standalone="no"?>
<!-- Created with Inkscape (http://www.inkscape.org/) -->

<svg
   xmlns:dc="http://purl.org/dc/elements/1.1/"
   xmlns:cc="http://creativecommons.org/ns#"
   xmlns:rdf="http://www.w3.org/1999/02/22-rdf-syntax-ns#"
   xmlns:svg="http://www.w3.org/2000/svg"
   xmlns="http://www.w3.org/2000/svg"
   xmlns:xlink="http://www.w3.org/1999/xlink"
   xmlns:sodipodi="http://sodipodi.sourceforge.net/DTD/sodipodi-0.dtd"
   xmlns:inkscape="http://www.inkscape.org/namespaces/inkscape"
   version="1.0"
   width="48"
   height="48"
   id="svg2"
   inkscape:version="0.47pre4 r22446"
   sodipodi:docname="document-new.svg">
    
  
  
  
  
  
  <filter>
    </filter>
  <linearGradient
     id="linearGradient4321">
    <stop
       style="stop-color:#1577D3;stop-opacity:1.0;"
       offset="0"
       id="stop1" />
    <stop
       style="stop-color:#1577D3;stop-opacity:1.0;"
       offset="1"
       id="stop2" />
  </linearGradient>
  <linearGradient
     inkscape:collect="always"
     xlink:href="#linearGradient4321"
     id="linearGradient1234"
     x1="0%"
     y1="50%"
     x2="100%"
     y2="50%" />
<defs
     id="defs4">
  </defs>
  <path
     style="fill:url(#linearGradient1234);fill-opacity:1;stroke:none;filter:url(#filter1111)"
     id="rect2162"
     d="M 9.9891835,2.0089299 30.396913,1.9999999 42.077538,13.640058 42.035258,43.600365 C 42.035258,44.929767 40.965021,46 39.635619,46 L 9.9891885,46 C 8.6597895,46 7.5895521,44.929767 7.5895521,43.600365 l 0,-39.1918013 c 0,-1.3293971 1.0702374,-2.3996352 2.3996364,-2.3996352 z m 11.5017915,11.6868251 0,6.961679 -6.96168,0 0,5.77134 6.96168,0 0,6.96168 5.77134,0 0,-6.96168 6.961679,0 0,-5.77134 -6.961679,0 0,-6.961679 -5.77134,0 z" />
</svg>
