<?xml version="1.0" encoding="UTF-8" standalone="no"?>
<!-- Created with Inkscape (http://www.inkscape.org/) -->

<svg
   xmlns:dc="http://purl.org/dc/elements/1.1/"
   xmlns:cc="http://creativecommons.org/ns#"
   xmlns:rdf="http://www.w3.org/1999/02/22-rdf-syntax-ns#"
   xmlns:svg="http://www.w3.org/2000/svg"
   xmlns="http://www.w3.org/2000/svg"
   xmlns:xlink="http://www.w3.org/1999/xlink"
   xmlns:sodipodi="http://sodipodi.sourceforge.net/DTD/sodipodi-0.dtd"
   xmlns:inkscape="http://www.inkscape.org/namespaces/inkscape"
   version="1.0"
   width="48"
   height="48"
   id="svg2"
   inkscape:version="0.47pre4 r22446"
   sodipodi:docname="gnome-stock-mail-snd.svg">
    
  
  
  
  
  
  <filter>
    </filter>
  <linearGradient
     id="linearGradient4321">
    <stop
       style="stop-color:#1577D3;stop-opacity:1.0;"
       offset="0"
       id="stop1" />
    <stop
       style="stop-color:#1577D3;stop-opacity:1.0;"
       offset="1"
       id="stop2" />
  </linearGradient>
  <linearGradient
     inkscape:collect="always"
     xlink:href="#linearGradient4321"
     id="linearGradient1234"
     x1="0%"
     y1="50%"
     x2="100%"
     y2="50%" />
<defs
     id="defs4">
  </defs>
  <path
     style="fill:url(#linearGradient1234);fill-opacity:1;fill-rule:evenodd;stroke:none;filter:url(#filter1111)"
     id="path6061"
     d="m 35.83953,3.2133072 -0.229615,0.2583171 -7.979126,9.2420087 -23.8225698,0 17.1637308,17.163732 9.643836,-9.672538 0,3.32942 0,0.287018 0,0.0287 -1.5212,1.492499 10.849315,10.849315 0,-12.341814 0.861057,0 0.287019,0 0,-0.31572 0,-8.49576 4.276581,0 0.631442,0 L 45.598174,14.550554 36.040444,3.4716243 35.83953,3.2133072 z m 0,0.9184606 8.868885,10.3039792 -3.903457,0 -0.287019,0 0,0.287019 0,8.524462 -9.328115,0 0,-8.524462 0,-0.287019 -0.287019,0 -3.989563,0 L 35.83953,4.1317678 z M 2,14.521853 2,36.191781 12.849315,25.342466 2,14.521853 z M 14.657534,27.150685 3.8082192,38 38.135682,38 27.286367,27.150685 20.97195,33.465101 14.657534,27.150685 z" />
</svg>
