<?xml version="1.0" encoding="UTF-8" standalone="no"?>
<!-- Created with Inkscape (http://www.inkscape.org/) -->

<svg
   xmlns:dc="http://purl.org/dc/elements/1.1/"
   xmlns:cc="http://creativecommons.org/ns#"
   xmlns:rdf="http://www.w3.org/1999/02/22-rdf-syntax-ns#"
   xmlns:svg="http://www.w3.org/2000/svg"
   xmlns="http://www.w3.org/2000/svg"
   xmlns:xlink="http://www.w3.org/1999/xlink"
   xmlns:sodipodi="http://sodipodi.sourceforge.net/DTD/sodipodi-0.dtd"
   xmlns:inkscape="http://www.inkscape.org/namespaces/inkscape"
   version="1.0"
   width="48"
   height="48"
   id="svg2"
   inkscape:version="0.47pre4 r22446"
   sodipodi:docname="stock_mail-receive.svg">
    
  
  
  
  
  
  <filter>
    </filter>
  <linearGradient
     id="linearGradient4321">
    <stop
       style="stop-color:#1577D3;stop-opacity:1.0;"
       offset="0"
       id="stop1" />
    <stop
       style="stop-color:#1577D3;stop-opacity:1.0;"
       offset="1"
       id="stop2" />
  </linearGradient>
  <linearGradient
     inkscape:collect="always"
     xlink:href="#linearGradient4321"
     id="linearGradient1234"
     x1="0%"
     y1="50%"
     x2="100%"
     y2="50%" />
<defs
     id="defs4">
  </defs>
  <path
     style="fill:url(#linearGradient1234);fill-opacity:1;fill-rule:evenodd;stroke:none;filter:url(#filter1111)"
     id="path6061"
     d="M 3.8062861,9.3818232 20.966004,26.541541 38.125722,9.3818232 l -34.3194359,0 z M 2,11.188109 2,32.863542 12.837716,22.025826 2,11.188109 z m 37.932008,0 -10.837717,10.837717 1.524054,1.524053 0,0.282233 0,3.33034 -3.33034,-3.33034 -6.322001,6.322001 -6.322001,-6.322001 -10.8377169,10.837716 23.8203979,0 7.987171,9.228993 0.197563,0.254009 0.225785,-0.282232 L 45.576652,32.835319 46,32.355524 l -0.649134,0 -4.261706,0 0,-8.523412 0,-0.282233 -0.310456,0 -0.846696,0 0,-12.36177 z m -8.749199,12.926235 9.313663,0 0,8.551635 0,0.282233 0.282232,0 3.951251,0 -8.918537,10.301475 -8.890315,-10.301475 3.979474,0 0.282232,0 0,-0.282233 0,-8.551635 z" />
</svg>
