<?xml version="1.0" encoding="UTF-8" standalone="no"?>
<!-- Created with Inkscape (http://www.inkscape.org/) -->

<svg
   xmlns:dc="http://purl.org/dc/elements/1.1/"
   xmlns:cc="http://creativecommons.org/ns#"
   xmlns:rdf="http://www.w3.org/1999/02/22-rdf-syntax-ns#"
   xmlns:svg="http://www.w3.org/2000/svg"
   xmlns="http://www.w3.org/2000/svg"
   xmlns:xlink="http://www.w3.org/1999/xlink"
   xmlns:sodipodi="http://sodipodi.sourceforge.net/DTD/sodipodi-0.dtd"
   xmlns:inkscape="http://www.inkscape.org/namespaces/inkscape"
   version="1.0"
   width="48"
   height="48"
   id="svg7854"
   inkscape:version="0.47pre4 r22446"
   sodipodi:docname="gnome-session.svg">
    
  
  
  
  
  <filter>
    </filter>
  <linearGradient
     id="linearGradient4321">
    <stop
       style="stop-color:#1577D3;stop-opacity:1.0;"
       offset="0"
       id="stop1" />
    <stop
       style="stop-color:#1577D3;stop-opacity:1.0;"
       offset="1"
       id="stop2" />
  </linearGradient>
  <linearGradient
     inkscape:collect="always"
     xlink:href="#linearGradient4321"
     id="linearGradient1234"
     x1="0%"
     y1="50%"
     x2="100%"
     y2="50%" />
<defs
     id="defs7856">
  </defs>
  <path
     style="fill:url(#linearGradient1234);fill-opacity:1;fill-rule:evenodd;stroke:none;stroke-width:3.99999976000000013;marker:none;visibility:visible;display:inline;overflow:visible;enable-background:accumulate;filter:url(#filter1111)"
     id="rect4585"
     d="M 5.9817708,2 C 3.7380238,2 2,3.9310423 2,6.125 l 0,35.75 C 2,44.068957 3.7380239,46 5.9817708,46 L 42.018229,46 C 44.261976,46 46,44.068958 46,41.875 L 46,6.125 C 46,3.9310423 44.261976,2 42.018229,2 L 5.9817708,2 z m -0.3151041,7.791667 36.6666663,0 0,15.010416 c -0.737881,-0.293758 -1.646642,-0.458333 -2.75,-0.458333 l -22,0 0,-5.84375 -10.9999997,10.541667 10.9999997,10.541666 0,-5.786458 22.143229,0 c 1.079447,0 1.915803,0.309956 2.606771,0.744792 l 0,7.333333 c 0,0.354567 -0.176763,0.458333 -0.315104,0.458333 l -36.0364582,0 c -0.1383408,0 -0.3151041,-0.103768 -0.3151041,-0.458333 l 0,-32.083333 z" />
</svg>
