<?xml version="1.0" encoding="UTF-8" standalone="no"?>
<!-- Created with Inkscape (http://www.inkscape.org/) -->

<svg
   xmlns:dc="http://purl.org/dc/elements/1.1/"
   xmlns:cc="http://creativecommons.org/ns#"
   xmlns:rdf="http://www.w3.org/1999/02/22-rdf-syntax-ns#"
   xmlns:svg="http://www.w3.org/2000/svg"
   xmlns="http://www.w3.org/2000/svg"
   xmlns:xlink="http://www.w3.org/1999/xlink"
   xmlns:sodipodi="http://sodipodi.sourceforge.net/DTD/sodipodi-0.dtd"
   xmlns:inkscape="http://www.inkscape.org/namespaces/inkscape"
   sodipodi:docname="gnome-mines.svg"
   inkscape:version="0.47pre4 r22446"
   id="svg2"
   height="48"
   width="48"
   version="1.0">
    
  
  
  
  
  <filter>
    </filter>
  <linearGradient
     id="linearGradient4321">
    <stop
       style="stop-color:#1577D3;stop-opacity:1.0;"
       offset="0"
       id="stop1" />
    <stop
       style="stop-color:#1577D3;stop-opacity:1.0;"
       offset="1"
       id="stop2" />
  </linearGradient>
  <linearGradient
     inkscape:collect="always"
     xlink:href="#linearGradient4321"
     id="linearGradient1234"
     x1="0%"
     y1="50%"
     x2="100%"
     y2="50%" />
<defs
     id="defs4">
  </defs>
  <path
     style="fill:url(#linearGradient1234);fill-opacity:1;stroke:none;filter:url(#filter1111)"
     d="m 36.790247,20.732626 1.97895,-0.505279 2.493905,0.338696 4.736898,3.11116 0,0.645596 -4.736898,3.111159 -2.493905,0.338695 -1.97895,-0.505278 -1.435654,3.466445 1.756379,1.041661 1.524129,2.003142 1.149491,5.549076 -0.456893,0.456893 -5.549077,-1.149491 -2.003141,-1.52413 -1.041661,-1.756378 -3.466445,1.435654 0.505278,1.97895 -0.338696,2.493905 L 24.322798,46 23.677202,46 20.566043,41.263102 20.227347,38.769197 20.732625,36.790247 17.26618,35.354593 16.224519,37.110972 14.221378,38.635101 8.6723012,39.784592 8.2154079,39.327699 9.3648988,33.778623 10.889029,31.775481 12.645407,30.73382 11.209753,27.267375 9.2308032,27.772653 6.7368979,27.433958 2,24.322799 2,23.677203 6.7368979,20.566043 9.2308032,20.227347 11.209753,20.732626 12.645407,17.266181 10.889029,16.22452 9.3648987,14.221379 8.2154079,8.672302 8.6723012,8.215408 l 5.5490768,1.149491 2.003141,1.52413 1.041661,1.756379 3.466445,-1.435655 -0.505278,-1.978949 0.338696,-2.493905 3.111159,-4.7368981 0.645596,0 3.111159,4.7368981 0.338696,2.493905 -0.505278,1.978949 3.466445,1.435655 1.041661,-1.756379 2.003141,-1.52413 5.549077,-1.149491 0.456893,0.456894 -1.149491,5.549076 -1.52413,2.003142 -1.756378,1.041661 z"
     id="path4184" />
</svg>
