<?xml version="1.0" encoding="UTF-8" standalone="no"?>
<!-- Created with Inkscape (http://www.inkscape.org/) -->
<svg
   xmlns:dc="http://purl.org/dc/elements/1.1/"
   xmlns:cc="http://creativecommons.org/ns#"
   xmlns:rdf="http://www.w3.org/1999/02/22-rdf-syntax-ns#"
   xmlns:svg="http://www.w3.org/2000/svg"
   xmlns="http://www.w3.org/2000/svg"
   xmlns:xlink="http://www.w3.org/1999/xlink"
   xmlns:sodipodi="http://sodipodi.sourceforge.net/DTD/sodipodi-0.dtd"
   xmlns:inkscape="http://www.inkscape.org/namespaces/inkscape"
   width="48"
   height="48"
   id="svg2"
   sodipodi:version="0.32"
   inkscape:version="0.46"
   version="1.0"
   sodipodi:docname="applications-accessories.svg"
   inkscape:output_extension="org.inkscape.output.svg.inkscape">
  
  
  <filter>
    </filter>
  <linearGradient
     id="linearGradient4321">
    <stop
       style="stop-color:#1577D3;stop-opacity:1.0;"
       offset="0"
       id="stop1" />
    <stop
       style="stop-color:#1577D3;stop-opacity:1.0;"
       offset="1"
       id="stop2" />
  </linearGradient>
  <linearGradient
     inkscape:collect="always"
     xlink:href="#linearGradient4321"
     id="linearGradient1234"
     x1="0%"
     y1="50%"
     x2="100%"
     y2="50%" />
<defs
     id="defs4">
  </defs>
  <g
     inkscape:label="Layer 1"
     inkscape:groupmode="layer"
     id="layer1">
    <path
       style="opacity:1;fill:url(#linearGradient1234);filter:url(#filter1111);filter:url(#filter1111);fill-opacity:1;fill-rule:nonzero;stroke:none;stroke-width:1;stroke-miterlimit:4;stroke-dasharray:none;stroke-opacity:1"
       d="M 34.875 6.53125 L 17.5 16.5625 L 15.9375 13.65625 L 3.53125 20.8125 L 5.125 23.71875 L 2.625 25.15625 L 4.5 28.40625 L 2.5625 29.5 L 2.03125 29.8125 L 2.4375 30.28125 L 4.28125 32.25 L 2.34375 33.34375 L 1.75 33.6875 L 2.21875 34.125 L 15.125 46.96875 L 15.40625 47.25 L 15.53125 47.4375 L 47.75 28.84375 L 34.875 6.53125 z M 22.21875 17.125 C 22.477929 17.151884 22.715483 17.379954 22.9375 17.6875 L 23.875 19.09375 C 24.260833 19.080716 24.673135 19.087235 25.0625 19.15625 L 25.71875 17.90625 C 25.885601 17.603758 26.211096 17.294191 26.59375 17.5 L 28.46875 18.53125 C 28.851404 18.73706 28.966428 19.170397 28.96875 19.65625 L 28.9375 21.28125 C 29.267812 21.59931 29.58193 21.934322 29.875 22.3125 L 31.21875 22.125 C 31.543742 22.096762 31.987808 22.21178 32.1875 22.65625 L 33.1875 24.84375 C 33.38719 25.28822 33.230241 25.660466 32.9375 25.9375 L 31.90625 26.8125 C 31.995038 27.286181 32.0444 27.757357 32.0625 28.21875 L 33.28125 29.25 C 33.642954 29.574391 33.912747 29.983483 33.8125 30.40625 L 33.3125 32.5 C 33.212252 32.922768 32.774461 32.951136 32.4375 32.875 L 31.03125 32.53125 C 30.826001 32.863671 30.606618 33.160937 30.34375 33.4375 L 30.75 35.0625 C 30.857426 35.54461 30.850374 35.962546 30.53125 36.125 C 30.524891 36.128237 30.506595 36.153222 30.5 36.15625 C 30.498675 36.156858 30.470082 36.155652 30.46875 36.15625 L 28.8125 36.90625 C 28.471037 37.059664 28.083346 36.706901 27.84375 36.375 L 26.90625 35 C 26.520466 35.013019 26.108063 34.975254 25.71875 34.90625 L 25.0625 36.15625 C 24.856352 36.52998 24.570153 36.768308 24.1875 36.5625 L 22.3125 35.5625 C 21.929846 35.356692 21.783129 34.830742 21.78125 34.4375 L 21.84375 32.8125 C 21.513341 32.494344 21.199396 32.128308 20.90625 31.75 L 19.5625 31.9375 C 19.160971 31.972387 18.79344 31.85072 18.59375 31.40625 L 17.625 29.21875 C 17.425309 28.77428 17.63806 28.349229 17.875 28.125 L 18.875 27.25 C 18.787543 26.783212 18.737545 26.329919 18.71875 25.875 L 17.5 24.84375 C 17.207241 24.581193 16.868504 24.110268 16.96875 23.6875 L 17.46875 21.625 C 17.568997 21.202232 17.927429 21.124683 18.34375 21.21875 L 19.71875 21.59375 C 19.927353 21.25248 20.168568 20.907923 20.4375 20.625 L 20.03125 19 C 19.942221 18.60045 19.939786 18.090913 20.28125 17.9375 L 21.96875 17.1875 C 22.054115 17.149147 22.132357 17.116039 22.21875 17.125 z M 24.84375 22.03125 C 24.299862 21.98696 23.784204 22.055283 23.28125 22.28125 C 21.269433 23.185119 20.573456 26.037516 21.75 28.65625 C 22.926544 31.274982 25.519433 32.685119 27.53125 31.78125 C 29.543066 30.877381 30.207795 28.024983 29.03125 25.40625 C 28.148842 23.442199 26.475414 22.164119 24.84375 22.03125 z M 5 29.28125 L 13.53125 43.96875 L 3.40625 33.90625 L 5.3125 32.78125 L 5.84375 32.46875 L 5.4375 32 L 3.625 30.0625 L 5 29.28125 z "
       id="rect3176" />
  </g>
</svg>
